<svg width="270" height="205" viewBox="0 0 270 205" fill="none" xmlns="http://www.w3.org/2000/svg">
<rect width="270" height="205" rx="24" fill="#F5F5F5"/>
<path fill-rule="evenodd" clip-rule="evenodd" d="M33.6826 27.3333H54.3175C57.8241 27.3333 60.6667 30.1759 60.6667 33.6825V54.3174C60.6667 57.8239 57.8241 60.6666 54.3175 60.6666H33.6826C30.176 60.6666 27.3334 57.8239 27.3334 54.3174V33.6825C27.3334 30.1759 30.176 27.3333 33.6826 27.3333ZM54.3175 58.2856C56.5091 58.2856 58.2858 56.509 58.2858 54.3174V33.6825C58.2858 31.4909 56.5091 29.7142 54.3175 29.7142H33.6826C31.491 29.7142 29.7143 31.4909 29.7143 33.6825V54.3174C29.7143 56.509 31.491 58.2856 33.6826 58.2856H54.3175Z" fill="#373737"/>
<path d="M52.7302 38.8412H47.9683C47.3108 38.8412 46.7778 39.3742 46.7778 40.0317C46.7778 40.6891 47.3108 41.2221 47.9683 41.2221H49.4445L43.7937 46.8729L40.6191 43.6983C39.7767 42.8588 38.4139 42.8588 37.5715 43.6983L33.4286 47.7142C32.9644 48.179 32.9644 48.932 33.4286 49.3967C33.6507 49.6216 33.9539 49.7474 34.2699 49.746C34.5862 49.7493 34.8902 49.6231 35.1112 49.3967L39.0318 45.4761L42.2064 48.6507C43.0543 49.4921 44.422 49.4921 45.2699 48.6507L51.4762 42.4444V44.7936C51.4762 45.4511 52.0092 45.984 52.6667 45.984C53.3242 45.984 53.8572 45.4511 53.8572 44.7936V40.0317C53.8503 39.4013 53.3592 38.8826 52.7302 38.8412Z" fill="#373737"/>
<path d="M24.8984 82.9199C24.8984 80.4069 25.5723 78.4701 26.9199 77.1094C28.0918 75.9245 29.5827 75.332 31.3926 75.332C33.8145 75.332 35.5853 76.1263 36.7051 77.7148C37.3236 78.6068 37.6556 79.502 37.7012 80.4004H34.6934C34.498 79.7103 34.2474 79.1895 33.9414 78.8379C33.3945 78.2129 32.584 77.9004 31.5098 77.9004C30.416 77.9004 29.5534 78.3431 28.9219 79.2285C28.2904 80.1074 27.9746 81.3542 27.9746 82.9688C27.9746 84.5833 28.3066 85.7943 28.9707 86.6016C29.6413 87.4023 30.4909 87.8027 31.5195 87.8027C32.5742 87.8027 33.3783 87.4577 33.9316 86.7676C34.2376 86.3965 34.4915 85.8398 34.6934 85.0977H37.6719C37.4115 86.6667 36.7441 87.9427 35.6699 88.9258C34.6022 89.9089 33.2318 90.4004 31.5586 90.4004C29.4883 90.4004 27.8607 89.7363 26.6758 88.4082C25.4909 87.0736 24.8984 85.2441 24.8984 82.9199ZM42.3254 79.3555V85.7715C42.3254 86.377 42.397 86.8327 42.5402 87.1387C42.7941 87.679 43.2922 87.9492 44.0344 87.9492C44.9849 87.9492 45.6359 87.5651 45.9875 86.7969C46.1698 86.3802 46.2609 85.8301 46.2609 85.1465V79.3555H49.0832V90H46.3781V88.4961C46.3521 88.5286 46.287 88.6263 46.1828 88.7891C46.0786 88.9518 45.9549 89.0951 45.8117 89.2188C45.3755 89.6094 44.9523 89.8763 44.5422 90.0195C44.1385 90.1628 43.6633 90.2344 43.1164 90.2344C41.5409 90.2344 40.4797 89.668 39.9328 88.5352C39.6268 87.9102 39.4738 86.9889 39.4738 85.7715V79.3555H42.3254ZM50.4848 81.4355V79.4531H51.9691V76.4844H54.723V79.4531H56.4516V81.4355H54.723V87.0605C54.723 87.4967 54.7784 87.7702 54.8891 87.8809C54.9997 87.985 55.3383 88.0371 55.9047 88.0371C55.9893 88.0371 56.0772 88.0371 56.1684 88.0371C56.266 88.0306 56.3604 88.0241 56.4516 88.0176V90.0977L55.1332 90.1465C53.8181 90.1921 52.9197 89.9642 52.4379 89.4629C52.1254 89.1439 51.9691 88.6523 51.9691 87.9883V81.4355H50.4848ZM56.9449 81.4355V79.4531H58.4293V76.4844H61.1832V79.4531H62.9117V81.4355H61.1832V87.0605C61.1832 87.4967 61.2385 87.7702 61.3492 87.8809C61.4599 87.985 61.7984 88.0371 62.3648 88.0371C62.4495 88.0371 62.5374 88.0371 62.6285 88.0371C62.7262 88.0306 62.8206 88.0241 62.9117 88.0176V90.0977L61.5934 90.1465C60.2783 90.1921 59.3798 89.9642 58.898 89.4629C58.5855 89.1439 58.4293 88.6523 58.4293 87.9883V81.4355H56.9449ZM67.3602 78.0859H64.5379V75.5176H67.3602V78.0859ZM64.5379 79.3555H67.3602V90H64.5379V79.3555ZM75.7637 79.1016C76.8639 79.1016 77.7624 79.3913 78.459 79.9707C79.1621 80.5436 79.5137 81.4974 79.5137 82.832V90H76.6621V83.5254C76.6621 82.9655 76.5872 82.5358 76.4375 82.2363C76.1641 81.6895 75.6432 81.416 74.875 81.416C73.931 81.416 73.2832 81.8164 72.9316 82.6172C72.7493 83.0404 72.6582 83.5807 72.6582 84.2383V90H69.8848V79.375H72.5703V80.9277C72.9284 80.3809 73.2669 79.987 73.5859 79.7461C74.1589 79.3164 74.8848 79.1016 75.7637 79.1016ZM86.4621 87.7148C87.1132 87.7148 87.6633 87.4707 88.1125 86.9824C88.5617 86.4876 88.7863 85.7031 88.7863 84.6289C88.7863 83.6198 88.5715 82.8516 88.1418 82.3242C87.7186 81.7969 87.149 81.5332 86.4328 81.5332C85.4562 81.5332 84.7824 81.9922 84.4113 82.9102C84.216 83.3984 84.1184 84.0007 84.1184 84.7168C84.1184 85.3353 84.2225 85.8854 84.4309 86.3672C84.8085 87.2656 85.4855 87.7148 86.4621 87.7148ZM85.7687 79.1016C86.3026 79.1016 86.7681 79.1829 87.1652 79.3457C87.8423 79.6257 88.3892 80.14 88.8059 80.8887V79.3555H91.5109V89.4531C91.5109 90.8268 91.2798 91.862 90.8176 92.5586C90.0233 93.7565 88.4999 94.3555 86.2473 94.3555C84.8866 94.3555 83.7766 94.0885 82.9172 93.5547C82.0578 93.0208 81.5826 92.2233 81.4914 91.1621H84.5187C84.5969 91.4876 84.7238 91.722 84.8996 91.8652C85.1991 92.1191 85.7036 92.2461 86.4133 92.2461C87.4159 92.2461 88.0865 91.9108 88.425 91.2402C88.6464 90.8105 88.757 90.0879 88.757 89.0723V88.3887C88.4901 88.8444 88.2036 89.1862 87.8977 89.4141C87.3443 89.8372 86.6249 90.0488 85.7395 90.0488C84.3723 90.0488 83.2785 89.5703 82.4582 88.6133C81.6444 87.6497 81.2375 86.3477 81.2375 84.707C81.2375 83.125 81.6314 81.7969 82.4191 80.7227C83.2069 79.6419 84.3234 79.1016 85.7687 79.1016ZM110.154 78.1543H102.537V81.2109H109.529V83.7109H102.537V87.4121H110.505V90H99.5973V75.6055H110.154V78.1543ZM116.35 79.1016C116.995 79.1016 117.568 79.2448 118.069 79.5312C118.57 79.8112 118.977 80.2018 119.29 80.7031V75.625H122.112V90H119.407V88.5254C119.01 89.1569 118.557 89.6159 118.05 89.9023C117.542 90.1888 116.91 90.332 116.155 90.332C114.912 90.332 113.863 89.8307 113.011 88.8281C112.164 87.819 111.741 86.5267 111.741 84.9512C111.741 83.1348 112.158 81.7057 112.991 80.6641C113.831 79.6224 114.951 79.1016 116.35 79.1016ZM116.956 87.9883C117.744 87.9883 118.343 87.6953 118.753 87.1094C119.163 86.5234 119.368 85.765 119.368 84.834C119.368 83.5319 119.039 82.6009 118.382 82.041C117.978 81.7025 117.509 81.5332 116.975 81.5332C116.162 81.5332 115.563 81.8424 115.179 82.4609C114.801 83.0729 114.612 83.8346 114.612 84.7461C114.612 85.7292 114.804 86.5169 115.188 87.1094C115.579 87.6953 116.168 87.9883 116.956 87.9883ZM129.021 87.7148C129.673 87.7148 130.223 87.4707 130.672 86.9824C131.121 86.4876 131.346 85.7031 131.346 84.6289C131.346 83.6198 131.131 82.8516 130.701 82.3242C130.278 81.7969 129.708 81.5332 128.992 81.5332C128.016 81.5332 127.342 81.9922 126.971 82.9102C126.775 83.3984 126.678 84.0007 126.678 84.7168C126.678 85.3353 126.782 85.8854 126.99 86.3672C127.368 87.2656 128.045 87.7148 129.021 87.7148ZM128.328 79.1016C128.862 79.1016 129.327 79.1829 129.725 79.3457C130.402 79.6257 130.949 80.14 131.365 80.8887V79.3555H134.07V89.4531C134.07 90.8268 133.839 91.862 133.377 92.5586C132.583 93.7565 131.059 94.3555 128.807 94.3555C127.446 94.3555 126.336 94.0885 125.477 93.5547C124.617 93.0208 124.142 92.2233 124.051 91.1621H127.078C127.156 91.4876 127.283 91.722 127.459 91.8652C127.758 92.1191 128.263 92.2461 128.973 92.2461C129.975 92.2461 130.646 91.9108 130.984 91.2402C131.206 90.8105 131.316 90.0879 131.316 89.0723V88.3887C131.049 88.8444 130.763 89.1862 130.457 89.4141C129.904 89.8372 129.184 90.0488 128.299 90.0488C126.932 90.0488 125.838 89.5703 125.018 88.6133C124.204 87.6497 123.797 86.3477 123.797 84.707C123.797 83.125 124.191 81.7969 124.979 80.7227C125.766 79.6419 126.883 79.1016 128.328 79.1016ZM140.677 81.3672C140.032 81.3672 139.531 81.569 139.173 81.9727C138.821 82.3763 138.6 82.9232 138.509 83.6133H142.835C142.79 82.8776 142.565 82.321 142.161 81.9434C141.764 81.5592 141.269 81.3672 140.677 81.3672ZM140.677 79.0723C141.562 79.0723 142.36 79.2383 143.07 79.5703C143.779 79.9023 144.365 80.4264 144.827 81.1426C145.244 81.7741 145.514 82.5065 145.638 83.3398C145.71 83.8281 145.739 84.5312 145.726 85.4492H138.441C138.48 86.5169 138.815 87.2656 139.446 87.6953C139.831 87.9622 140.293 88.0957 140.833 88.0957C141.406 88.0957 141.872 87.9329 142.23 87.6074C142.425 87.4316 142.598 87.1875 142.747 86.875H145.589C145.517 87.5065 145.189 88.1478 144.603 88.7988C143.691 89.834 142.415 90.3516 140.775 90.3516C139.42 90.3516 138.226 89.9154 137.191 89.043C136.155 88.1706 135.638 86.7513 135.638 84.7852C135.638 82.9427 136.103 81.5299 137.034 80.5469C137.972 79.5638 139.186 79.0723 140.677 79.0723Z" fill="#373737"/>
<path d="M30.5547 119.781C31.2839 119.781 31.8594 119.635 32.2812 119.344C32.7083 119.052 32.9219 118.526 32.9219 117.766C32.9219 116.948 32.625 116.391 32.0312 116.094C31.7135 115.938 31.2891 115.859 30.7578 115.859H26.9609V119.781H30.5547ZM25.4062 114.523H30.7188C31.5938 114.523 32.3151 114.651 32.8828 114.906C33.9609 115.396 34.5 116.299 34.5 117.617C34.5 118.305 34.3568 118.867 34.0703 119.305C33.7891 119.742 33.3932 120.094 32.8828 120.359C33.3307 120.542 33.6667 120.781 33.8906 121.078C34.1198 121.375 34.2474 121.857 34.2734 122.523L34.3281 124.062C34.3438 124.5 34.3802 124.826 34.4375 125.039C34.5312 125.404 34.6979 125.638 34.9375 125.742V126H33.0312C32.9792 125.901 32.9375 125.773 32.9062 125.617C32.875 125.461 32.849 125.159 32.8281 124.711L32.7344 122.797C32.6979 122.047 32.4193 121.544 31.8984 121.289C31.6016 121.148 31.1354 121.078 30.5 121.078H26.9609V126H25.4062V114.523ZM39.9181 117.445C40.5119 117.445 41.0874 117.586 41.6447 117.867C42.202 118.143 42.6265 118.503 42.9181 118.945C43.1994 119.367 43.3869 119.859 43.4806 120.422C43.564 120.807 43.6056 121.422 43.6056 122.266H37.4728C37.4989 123.115 37.6994 123.797 38.0744 124.312C38.4494 124.823 39.0301 125.078 39.8166 125.078C40.5509 125.078 41.1369 124.836 41.5744 124.352C41.8244 124.07 42.0015 123.745 42.1056 123.375H43.4884C43.452 123.682 43.3296 124.026 43.1213 124.406C42.9181 124.781 42.689 125.089 42.4338 125.328C42.0067 125.745 41.478 126.026 40.8478 126.172C40.5093 126.255 40.1265 126.297 39.6994 126.297C38.6577 126.297 37.7749 125.919 37.0509 125.164C36.327 124.404 35.965 123.341 35.965 121.977C35.965 120.633 36.3296 119.542 37.0588 118.703C37.7879 117.865 38.741 117.445 39.9181 117.445ZM42.1603 121.148C42.103 120.539 41.9702 120.052 41.7619 119.688C41.3765 119.01 40.7332 118.672 39.8322 118.672C39.1864 118.672 38.6447 118.906 38.2072 119.375C37.7697 119.839 37.5379 120.43 37.5119 121.148H42.1603ZM45.5159 114.523H53.4769V115.93H47.0706V119.414H52.7034V120.781H47.0706V126H45.5159V114.523ZM54.8403 114.523H56.2466V126H54.8403V114.523ZM61.6881 117.445C62.2819 117.445 62.8574 117.586 63.4147 117.867C63.972 118.143 64.3965 118.503 64.6881 118.945C64.9694 119.367 65.1569 119.859 65.2506 120.422C65.334 120.807 65.3756 121.422 65.3756 122.266H59.2428C59.2689 123.115 59.4694 123.797 59.8444 124.312C60.2194 124.823 60.8001 125.078 61.5866 125.078C62.3209 125.078 62.9069 124.836 63.3444 124.352C63.5944 124.07 63.7715 123.745 63.8756 123.375H65.2584C65.222 123.682 65.0996 124.026 64.8913 124.406C64.6881 124.781 64.459 125.089 64.2038 125.328C63.7767 125.745 63.248 126.026 62.6178 126.172C62.2793 126.255 61.8965 126.297 61.4694 126.297C60.4277 126.297 59.5449 125.919 58.8209 125.164C58.097 124.404 57.735 123.341 57.735 121.977C57.735 120.633 58.0996 119.542 58.8288 118.703C59.5579 117.865 60.511 117.445 61.6881 117.445ZM63.9303 121.148C63.873 120.539 63.7402 120.052 63.5319 119.688C63.1465 119.01 62.5032 118.672 61.6022 118.672C60.9564 118.672 60.4147 118.906 59.9772 119.375C59.5397 119.839 59.3079 120.43 59.2819 121.148H63.9303ZM66.1531 117.633H67.9734L69.8953 120.578L71.8406 117.633L73.5516 117.672L70.7313 121.711L73.6766 126H71.8797L69.8016 122.859L67.7859 126H66.0047L68.95 121.711L66.1531 117.633ZM80.4894 117.633V123.188C80.4894 123.615 80.5571 123.964 80.6925 124.234C80.9425 124.734 81.4086 124.984 82.0909 124.984C83.0701 124.984 83.7368 124.547 84.0909 123.672C84.2836 123.203 84.38 122.56 84.38 121.742V117.633H85.7863V126H84.4581L84.4738 124.766C84.2915 125.083 84.0649 125.352 83.7941 125.57C83.2576 126.008 82.6066 126.227 81.8409 126.227C80.6482 126.227 79.8357 125.828 79.4034 125.031C79.1691 124.604 79.0519 124.034 79.0519 123.32V117.633H80.4894ZM88.6653 123.375C88.707 123.844 88.8242 124.203 89.0169 124.453C89.371 124.906 89.9856 125.133 90.8606 125.133C91.3815 125.133 91.8398 125.021 92.2356 124.797C92.6315 124.568 92.8294 124.216 92.8294 123.742C92.8294 123.383 92.6705 123.109 92.3528 122.922C92.1497 122.807 91.7486 122.674 91.1497 122.523L90.0325 122.242C89.319 122.065 88.7929 121.867 88.4544 121.648C87.8502 121.268 87.5481 120.742 87.5481 120.07C87.5481 119.279 87.832 118.638 88.3997 118.148C88.9726 117.659 89.7408 117.414 90.7044 117.414C91.9648 117.414 92.8736 117.784 93.4309 118.523C93.7799 118.992 93.9492 119.497 93.9388 120.039H92.6106C92.5846 119.721 92.4726 119.432 92.2747 119.172C91.9518 118.802 91.3919 118.617 90.595 118.617C90.0638 118.617 89.6601 118.719 89.3841 118.922C89.1132 119.125 88.9778 119.393 88.9778 119.727C88.9778 120.091 89.1575 120.383 89.5169 120.602C89.7252 120.732 90.0325 120.846 90.4388 120.945L91.3684 121.172C92.3789 121.417 93.0559 121.654 93.3997 121.883C93.9466 122.242 94.22 122.807 94.22 123.578C94.22 124.323 93.9361 124.966 93.3684 125.508C92.8059 126.049 91.9466 126.32 90.7903 126.32C89.5455 126.32 88.6627 126.039 88.1419 125.477C87.6263 124.909 87.3502 124.208 87.3138 123.375H88.6653ZM99.1537 117.445C99.7475 117.445 100.323 117.586 100.88 117.867C101.438 118.143 101.862 118.503 102.154 118.945C102.435 119.367 102.622 119.859 102.716 120.422C102.8 120.807 102.841 121.422 102.841 122.266H96.7084C96.7345 123.115 96.935 123.797 97.31 124.312C97.685 124.823 98.2657 125.078 99.0522 125.078C99.7866 125.078 100.372 124.836 100.81 124.352C101.06 124.07 101.237 123.745 101.341 123.375H102.724C102.688 123.682 102.565 124.026 102.357 124.406C102.154 124.781 101.925 125.089 101.669 125.328C101.242 125.745 100.714 126.026 100.083 126.172C99.7449 126.255 99.3621 126.297 98.935 126.297C97.8933 126.297 97.0105 125.919 96.2866 125.164C95.5626 124.404 95.2006 123.341 95.2006 121.977C95.2006 120.633 95.5652 119.542 96.2944 118.703C97.0235 117.865 97.9767 117.445 99.1537 117.445ZM101.396 121.148C101.339 120.539 101.206 120.052 100.997 119.688C100.612 119.01 99.9689 118.672 99.0678 118.672C98.422 118.672 97.8803 118.906 97.4428 119.375C97.0053 119.839 96.7735 120.43 96.7475 121.148H101.396ZM105.252 123.375C105.293 123.844 105.41 124.203 105.603 124.453C105.957 124.906 106.572 125.133 107.447 125.133C107.968 125.133 108.426 125.021 108.822 124.797C109.218 124.568 109.416 124.216 109.416 123.742C109.416 123.383 109.257 123.109 108.939 122.922C108.736 122.807 108.335 122.674 107.736 122.523L106.619 122.242C105.905 122.065 105.379 121.867 105.041 121.648C104.436 121.268 104.134 120.742 104.134 120.07C104.134 119.279 104.418 118.638 104.986 118.148C105.559 117.659 106.327 117.414 107.291 117.414C108.551 117.414 109.46 117.784 110.017 118.523C110.366 118.992 110.535 119.497 110.525 120.039H109.197C109.171 119.721 109.059 119.432 108.861 119.172C108.538 118.802 107.978 118.617 107.181 118.617C106.65 118.617 106.246 118.719 105.97 118.922C105.699 119.125 105.564 119.393 105.564 119.727C105.564 120.091 105.744 120.383 106.103 120.602C106.311 120.732 106.619 120.846 107.025 120.945L107.955 121.172C108.965 121.417 109.642 121.654 109.986 121.883C110.533 122.242 110.806 122.807 110.806 123.578C110.806 124.323 110.522 124.966 109.955 125.508C109.392 126.049 108.533 126.32 107.377 126.32C106.132 126.32 105.249 126.039 104.728 125.477C104.213 124.909 103.936 124.208 103.9 123.375H105.252ZM116.83 115.297H118.252V117.633H119.588V118.781H118.252V124.242C118.252 124.534 118.351 124.729 118.549 124.828C118.658 124.885 118.84 124.914 119.096 124.914C119.163 124.914 119.236 124.914 119.314 124.914C119.393 124.909 119.484 124.901 119.588 124.891V126C119.426 126.047 119.257 126.081 119.08 126.102C118.908 126.122 118.721 126.133 118.518 126.133C117.861 126.133 117.416 125.966 117.182 125.633C116.947 125.294 116.83 124.857 116.83 124.32V118.781H115.697V117.633H116.83V115.297ZM120.842 114.484H122.248V118.766C122.581 118.344 122.881 118.047 123.147 117.875C123.6 117.578 124.165 117.43 124.842 117.43C126.055 117.43 126.878 117.854 127.311 118.703C127.545 119.167 127.662 119.81 127.662 120.633V126H126.217V120.727C126.217 120.112 126.139 119.661 125.982 119.375C125.727 118.917 125.248 118.688 124.545 118.688C123.962 118.688 123.433 118.888 122.959 119.289C122.485 119.69 122.248 120.448 122.248 121.562V126H120.842V114.484ZM133.073 117.445C133.666 117.445 134.242 117.586 134.799 117.867C135.356 118.143 135.781 118.503 136.073 118.945C136.354 119.367 136.541 119.859 136.635 120.422C136.718 120.807 136.76 121.422 136.76 122.266H130.627C130.653 123.115 130.854 123.797 131.229 124.312C131.604 124.823 132.184 125.078 132.971 125.078C133.705 125.078 134.291 124.836 134.729 124.352C134.979 124.07 135.156 123.745 135.26 123.375H136.643C136.606 123.682 136.484 124.026 136.276 124.406C136.073 124.781 135.843 125.089 135.588 125.328C135.161 125.745 134.632 126.026 134.002 126.172C133.664 126.255 133.281 126.297 132.854 126.297C131.812 126.297 130.929 125.919 130.205 125.164C129.481 124.404 129.119 123.341 129.119 121.977C129.119 120.633 129.484 119.542 130.213 118.703C130.942 117.865 131.895 117.445 133.073 117.445ZM135.315 121.148C135.257 120.539 135.125 120.052 134.916 119.688C134.531 119.01 133.888 118.672 132.987 118.672C132.341 118.672 131.799 118.906 131.362 119.375C130.924 119.839 130.692 120.43 130.666 121.148H135.315ZM142.909 115.297H144.331V117.633H145.667V118.781H144.331V124.242C144.331 124.534 144.43 124.729 144.628 124.828C144.737 124.885 144.919 124.914 145.174 124.914C145.242 124.914 145.315 124.914 145.393 124.914C145.471 124.909 145.562 124.901 145.667 124.891V126C145.505 126.047 145.336 126.081 145.159 126.102C144.987 126.122 144.799 126.133 144.596 126.133C143.94 126.133 143.495 125.966 143.26 125.633C143.026 125.294 142.909 124.857 142.909 124.32V118.781H141.776V117.633H142.909V115.297ZM150.405 117.445C150.999 117.445 151.574 117.586 152.132 117.867C152.689 118.143 153.113 118.503 153.405 118.945C153.686 119.367 153.874 119.859 153.967 120.422C154.051 120.807 154.092 121.422 154.092 122.266H147.96C147.986 123.115 148.186 123.797 148.561 124.312C148.936 124.823 149.517 125.078 150.303 125.078C151.038 125.078 151.624 124.836 152.061 124.352C152.311 124.07 152.488 123.745 152.592 123.375H153.975C153.939 123.682 153.816 124.026 153.608 124.406C153.405 124.781 153.176 125.089 152.921 125.328C152.494 125.745 151.965 126.026 151.335 126.172C150.996 126.255 150.613 126.297 150.186 126.297C149.145 126.297 148.262 125.919 147.538 125.164C146.814 124.404 146.452 123.341 146.452 121.977C146.452 120.633 146.816 119.542 147.546 118.703C148.275 117.865 149.228 117.445 150.405 117.445ZM152.647 121.148C152.59 120.539 152.457 120.052 152.249 119.688C151.863 119.01 151.22 118.672 150.319 118.672C149.673 118.672 149.132 118.906 148.694 119.375C148.257 119.839 148.025 120.43 147.999 121.148H152.647ZM158.893 117.391C159.836 117.391 160.602 117.62 161.19 118.078C161.784 118.536 162.141 119.326 162.261 120.445H160.893C160.81 119.93 160.62 119.503 160.323 119.164C160.026 118.82 159.55 118.648 158.893 118.648C157.998 118.648 157.357 119.086 156.972 119.961C156.722 120.529 156.597 121.229 156.597 122.062C156.597 122.901 156.774 123.607 157.128 124.18C157.482 124.753 158.039 125.039 158.8 125.039C159.383 125.039 159.844 124.862 160.182 124.508C160.526 124.148 160.763 123.659 160.893 123.039H162.261C162.104 124.148 161.714 124.961 161.089 125.477C160.464 125.987 159.664 126.242 158.69 126.242C157.597 126.242 156.724 125.844 156.073 125.047C155.422 124.245 155.097 123.245 155.097 122.047C155.097 120.578 155.453 119.435 156.167 118.617C156.88 117.799 157.789 117.391 158.893 117.391ZM163.507 114.484H164.913V118.766C165.246 118.344 165.546 118.047 165.812 117.875C166.265 117.578 166.83 117.43 167.507 117.43C168.72 117.43 169.543 117.854 169.976 118.703C170.21 119.167 170.327 119.81 170.327 120.633V126H168.882V120.727C168.882 120.112 168.804 119.661 168.648 119.375C168.392 118.917 167.913 118.688 167.21 118.688C166.627 118.688 166.098 118.888 165.624 119.289C165.15 119.69 164.913 120.448 164.913 121.562V126H163.507V114.484ZM172.253 117.633H173.589V118.82C173.985 118.331 174.404 117.979 174.847 117.766C175.29 117.552 175.782 117.445 176.323 117.445C177.511 117.445 178.313 117.859 178.73 118.688C178.959 119.141 179.073 119.789 179.073 120.633V126H177.644V120.727C177.644 120.216 177.568 119.805 177.417 119.492C177.167 118.971 176.714 118.711 176.058 118.711C175.724 118.711 175.451 118.745 175.238 118.812C174.852 118.927 174.514 119.156 174.222 119.5C173.988 119.776 173.834 120.062 173.761 120.359C173.693 120.651 173.659 121.07 173.659 121.617V126H172.253V117.633ZM184.32 125.094C185.252 125.094 185.89 124.742 186.234 124.039C186.583 123.331 186.757 122.544 186.757 121.68C186.757 120.898 186.632 120.263 186.382 119.773C185.986 119.003 185.304 118.617 184.335 118.617C183.476 118.617 182.851 118.945 182.46 119.602C182.07 120.258 181.874 121.049 181.874 121.977C181.874 122.867 182.07 123.609 182.46 124.203C182.851 124.797 183.471 125.094 184.32 125.094ZM184.374 117.391C185.452 117.391 186.364 117.75 187.109 118.469C187.854 119.188 188.226 120.245 188.226 121.641C188.226 122.99 187.898 124.104 187.242 124.984C186.585 125.865 185.567 126.305 184.187 126.305C183.036 126.305 182.122 125.917 181.445 125.141C180.768 124.359 180.429 123.312 180.429 122C180.429 120.594 180.786 119.474 181.499 118.641C182.213 117.807 183.171 117.391 184.374 117.391ZM189.785 114.523H191.191V126H189.785V114.523ZM196.468 125.094C197.401 125.094 198.039 124.742 198.383 124.039C198.731 123.331 198.906 122.544 198.906 121.68C198.906 120.898 198.781 120.263 198.531 119.773C198.135 119.003 197.453 118.617 196.484 118.617C195.625 118.617 195 118.945 194.609 119.602C194.218 120.258 194.023 121.049 194.023 121.977C194.023 122.867 194.218 123.609 194.609 124.203C195 124.797 195.619 125.094 196.468 125.094ZM196.523 117.391C197.601 117.391 198.513 117.75 199.258 118.469C200.002 119.188 200.375 120.245 200.375 121.641C200.375 122.99 200.047 124.104 199.39 124.984C198.734 125.865 197.716 126.305 196.336 126.305C195.185 126.305 194.271 125.917 193.593 125.141C192.916 124.359 192.578 123.312 192.578 122C192.578 120.594 192.935 119.474 193.648 118.641C194.362 117.807 195.32 117.391 196.523 117.391ZM204.848 117.484C205.504 117.484 206.077 117.646 206.566 117.969C206.832 118.151 207.103 118.417 207.379 118.766V117.711H208.676V125.32C208.676 126.383 208.519 127.221 208.207 127.836C207.624 128.971 206.522 129.539 204.902 129.539C204.001 129.539 203.243 129.336 202.629 128.93C202.014 128.529 201.67 127.898 201.598 127.039H203.027C203.095 127.414 203.23 127.703 203.433 127.906C203.751 128.219 204.251 128.375 204.933 128.375C206.012 128.375 206.717 127.995 207.051 127.234C207.249 126.786 207.34 125.987 207.324 124.836C207.043 125.263 206.704 125.581 206.308 125.789C205.913 125.997 205.389 126.102 204.738 126.102C203.832 126.102 203.038 125.781 202.355 125.141C201.678 124.495 201.34 123.43 201.34 121.945C201.34 120.544 201.681 119.451 202.363 118.664C203.051 117.878 203.879 117.484 204.848 117.484ZM207.379 121.781C207.379 120.745 207.165 119.977 206.738 119.477C206.311 118.977 205.767 118.727 205.105 118.727C204.116 118.727 203.439 119.19 203.074 120.117C202.881 120.612 202.785 121.26 202.785 122.062C202.785 123.005 202.975 123.724 203.355 124.219C203.741 124.708 204.256 124.953 204.902 124.953C205.913 124.953 206.624 124.497 207.035 123.586C207.264 123.07 207.379 122.469 207.379 121.781ZM215.867 117.633H217.422C217.224 118.169 216.784 119.393 216.102 121.305C215.591 122.742 215.164 123.914 214.82 124.82C214.008 126.956 213.435 128.258 213.102 128.727C212.768 129.195 212.195 129.43 211.383 129.43C211.185 129.43 211.031 129.422 210.922 129.406C210.818 129.391 210.688 129.362 210.531 129.32V128.039C210.776 128.107 210.953 128.148 211.062 128.164C211.172 128.18 211.268 128.188 211.352 128.188C211.612 128.188 211.802 128.143 211.922 128.055C212.047 127.971 212.151 127.867 212.234 127.742C212.26 127.701 212.354 127.487 212.516 127.102C212.677 126.716 212.794 126.43 212.867 126.242L209.773 117.633H211.367L213.609 124.445L215.867 117.633ZM226.094 125.094C227.026 125.094 227.664 124.742 228.008 124.039C228.357 123.331 228.532 122.544 228.532 121.68C228.532 120.898 228.407 120.263 228.157 119.773C227.761 119.003 227.078 118.617 226.11 118.617C225.25 118.617 224.625 118.945 224.235 119.602C223.844 120.258 223.649 121.049 223.649 121.977C223.649 122.867 223.844 123.609 224.235 124.203C224.625 124.797 225.245 125.094 226.094 125.094ZM226.149 117.391C227.227 117.391 228.138 117.75 228.883 118.469C229.628 119.188 230 120.245 230 121.641C230 122.99 229.672 124.104 229.016 124.984C228.36 125.865 227.341 126.305 225.961 126.305C224.81 126.305 223.896 125.917 223.219 125.141C222.542 124.359 222.203 123.312 222.203 122C222.203 120.594 222.56 119.474 223.274 118.641C223.987 117.807 224.946 117.391 226.149 117.391ZM231.872 116.359C231.892 115.776 231.994 115.349 232.176 115.078C232.504 114.599 233.137 114.359 234.075 114.359C234.163 114.359 234.254 114.362 234.348 114.367C234.442 114.372 234.549 114.38 234.668 114.391V115.672C234.523 115.661 234.416 115.656 234.348 115.656C234.286 115.651 234.226 115.648 234.168 115.648C233.741 115.648 233.486 115.76 233.403 115.984C233.319 116.203 233.278 116.766 233.278 117.672H234.668V118.781H233.262V126H231.872V118.781H230.708V117.672H231.872V116.359ZM25.3125 133.297H26.7344V135.633H28.0703V136.781H26.7344V142.242C26.7344 142.534 26.8333 142.729 27.0312 142.828C27.1406 142.885 27.3229 142.914 27.5781 142.914C27.6458 142.914 27.7188 142.914 27.7969 142.914C27.875 142.909 27.9661 142.901 28.0703 142.891V144C27.9089 144.047 27.7396 144.081 27.5625 144.102C27.3906 144.122 27.2031 144.133 27 144.133C26.3438 144.133 25.8984 143.966 25.6641 143.633C25.4297 143.294 25.3125 142.857 25.3125 142.32V136.781H24.1797V135.633H25.3125V133.297ZM32.6447 143.094C33.577 143.094 34.215 142.742 34.5588 142.039C34.9077 141.331 35.0822 140.544 35.0822 139.68C35.0822 138.898 34.9572 138.263 34.7072 137.773C34.3114 137.003 33.6291 136.617 32.6603 136.617C31.8009 136.617 31.1759 136.945 30.7853 137.602C30.3947 138.258 30.1994 139.049 30.1994 139.977C30.1994 140.867 30.3947 141.609 30.7853 142.203C31.1759 142.797 31.7957 143.094 32.6447 143.094ZM32.6994 135.391C33.7775 135.391 34.689 135.75 35.4338 136.469C36.1785 137.188 36.5509 138.245 36.5509 139.641C36.5509 140.99 36.2228 142.104 35.5666 142.984C34.9103 143.865 33.8921 144.305 32.5119 144.305C31.3608 144.305 30.4468 143.917 29.7697 143.141C29.0926 142.359 28.7541 141.312 28.7541 140C28.7541 138.594 29.1108 137.474 29.8244 136.641C30.5379 135.807 31.4963 135.391 32.6994 135.391ZM38.0706 135.633H39.4613V136.82C39.7946 136.409 40.0967 136.109 40.3675 135.922C40.831 135.604 41.3571 135.445 41.9456 135.445C42.6123 135.445 43.1488 135.609 43.555 135.938C43.7842 136.125 43.9925 136.401 44.18 136.766C44.4925 136.318 44.8597 135.987 45.2816 135.773C45.7034 135.555 46.1774 135.445 46.7034 135.445C47.8284 135.445 48.5941 135.852 49.0003 136.664C49.2191 137.102 49.3284 137.69 49.3284 138.43V144H47.8675V138.188C47.8675 137.63 47.7269 137.247 47.4456 137.039C47.1696 136.831 46.831 136.727 46.43 136.727C45.8779 136.727 45.4014 136.911 45.0003 137.281C44.6045 137.651 44.4066 138.268 44.4066 139.133V144H42.9769V138.539C42.9769 137.971 42.9092 137.557 42.7738 137.297C42.5602 136.906 42.1618 136.711 41.5784 136.711C41.0472 136.711 40.5628 136.917 40.1253 137.328C39.693 137.74 39.4769 138.484 39.4769 139.562V144H38.0706V135.633ZM54.5591 143.094C55.4914 143.094 56.1294 142.742 56.4731 142.039C56.8221 141.331 56.9966 140.544 56.9966 139.68C56.9966 138.898 56.8716 138.263 56.6216 137.773C56.2257 137.003 55.5434 136.617 54.5747 136.617C53.7153 136.617 53.0903 136.945 52.6997 137.602C52.3091 138.258 52.1138 139.049 52.1138 139.977C52.1138 140.867 52.3091 141.609 52.6997 142.203C53.0903 142.797 53.7101 143.094 54.5591 143.094ZM54.6138 135.391C55.6919 135.391 56.6033 135.75 57.3481 136.469C58.0929 137.188 58.4653 138.245 58.4653 139.641C58.4653 140.99 58.1372 142.104 57.4809 142.984C56.8247 143.865 55.8065 144.305 54.4263 144.305C53.2752 144.305 52.3611 143.917 51.6841 143.141C51.007 142.359 50.6684 141.312 50.6684 140C50.6684 138.594 51.0252 137.474 51.7388 136.641C52.4523 135.807 53.4106 135.391 54.6138 135.391ZM60.0241 135.633H61.36V137.078C61.4694 136.797 61.7376 136.456 62.1647 136.055C62.5918 135.648 63.084 135.445 63.6413 135.445C63.6673 135.445 63.7116 135.448 63.7741 135.453C63.8366 135.458 63.9433 135.469 64.0944 135.484V136.969C64.011 136.953 63.9329 136.943 63.86 136.938C63.7923 136.932 63.7168 136.93 63.6334 136.93C62.9251 136.93 62.3808 137.159 62.0006 137.617C61.6204 138.07 61.4303 138.594 61.4303 139.188V144H60.0241V135.633ZM65.1922 135.633H66.5281V137.078C66.6375 136.797 66.9057 136.456 67.3328 136.055C67.7599 135.648 68.2521 135.445 68.8094 135.445C68.8354 135.445 68.8797 135.448 68.9422 135.453C69.0047 135.458 69.1115 135.469 69.2625 135.484V136.969C69.1792 136.953 69.101 136.943 69.0281 136.938C68.9604 136.932 68.8849 136.93 68.8016 136.93C68.0932 136.93 67.549 137.159 67.1688 137.617C66.7885 138.07 66.5984 138.594 66.5984 139.188V144H65.1922V135.633ZM73.6416 143.094C74.5739 143.094 75.2119 142.742 75.5556 142.039C75.9046 141.331 76.0791 140.544 76.0791 139.68C76.0791 138.898 75.9541 138.263 75.7041 137.773C75.3082 137.003 74.6259 136.617 73.6572 136.617C72.7978 136.617 72.1728 136.945 71.7822 137.602C71.3916 138.258 71.1963 139.049 71.1963 139.977C71.1963 140.867 71.3916 141.609 71.7822 142.203C72.1728 142.797 72.7926 143.094 73.6416 143.094ZM73.6963 135.391C74.7744 135.391 75.6858 135.75 76.4306 136.469C77.1754 137.188 77.5478 138.245 77.5478 139.641C77.5478 140.99 77.2197 142.104 76.5634 142.984C75.9072 143.865 74.889 144.305 73.5088 144.305C72.3577 144.305 71.4436 143.917 70.7666 143.141C70.0895 142.359 69.7509 141.312 69.7509 140C69.7509 138.594 70.1077 137.474 70.8213 136.641C71.5348 135.807 72.4931 135.391 73.6963 135.391ZM79.7159 135.633L81.3253 142.227L82.9581 135.633H84.5363L86.1769 142.188L87.8878 135.633H89.2941L86.8644 144H85.4034L83.7003 137.523L82.0519 144H80.5909L78.1769 135.633H79.7159ZM95.0444 133.297H96.4662V135.633H97.8022V136.781H96.4662V142.242C96.4662 142.534 96.5652 142.729 96.7631 142.828C96.8725 142.885 97.0548 142.914 97.31 142.914C97.3777 142.914 97.4506 142.914 97.5287 142.914C97.6069 142.909 97.698 142.901 97.8022 142.891V144C97.6407 144.047 97.4715 144.081 97.2944 144.102C97.1225 144.122 96.935 144.133 96.7319 144.133C96.0756 144.133 95.6303 143.966 95.3959 143.633C95.1616 143.294 95.0444 142.857 95.0444 142.32V136.781H93.9116V135.633H95.0444V133.297ZM102.377 143.094C103.309 143.094 103.947 142.742 104.291 142.039C104.64 141.331 104.814 140.544 104.814 139.68C104.814 138.898 104.689 138.263 104.439 137.773C104.043 137.003 103.361 136.617 102.392 136.617C101.533 136.617 100.908 136.945 100.517 137.602C100.127 138.258 99.9313 139.049 99.9313 139.977C99.9313 140.867 100.127 141.609 100.517 142.203C100.908 142.797 101.528 143.094 102.377 143.094ZM102.431 135.391C103.509 135.391 104.421 135.75 105.166 136.469C105.91 137.188 106.283 138.245 106.283 139.641C106.283 140.99 105.955 142.104 105.298 142.984C104.642 143.865 103.624 144.305 102.244 144.305C101.093 144.305 100.179 143.917 99.5016 143.141C98.8245 142.359 98.4859 141.312 98.4859 140C98.4859 138.594 98.8427 137.474 99.5563 136.641C100.27 135.807 101.228 135.391 102.431 135.391ZM115.049 135.484C115.705 135.484 116.278 135.646 116.768 135.969C117.033 136.151 117.304 136.417 117.58 136.766V135.711H118.877V143.32C118.877 144.383 118.721 145.221 118.408 145.836C117.825 146.971 116.723 147.539 115.103 147.539C114.202 147.539 113.445 147.336 112.83 146.93C112.215 146.529 111.872 145.898 111.799 145.039H113.228C113.296 145.414 113.432 145.703 113.635 145.906C113.952 146.219 114.452 146.375 115.135 146.375C116.213 146.375 116.919 145.995 117.252 145.234C117.45 144.786 117.541 143.987 117.525 142.836C117.244 143.263 116.906 143.581 116.51 143.789C116.114 143.997 115.59 144.102 114.939 144.102C114.033 144.102 113.239 143.781 112.557 143.141C111.879 142.495 111.541 141.43 111.541 139.945C111.541 138.544 111.882 137.451 112.564 136.664C113.252 135.878 114.08 135.484 115.049 135.484ZM117.58 139.781C117.58 138.745 117.366 137.977 116.939 137.477C116.512 136.977 115.968 136.727 115.307 136.727C114.317 136.727 113.64 137.19 113.275 138.117C113.083 138.612 112.986 139.26 112.986 140.062C112.986 141.005 113.176 141.724 113.557 142.219C113.942 142.708 114.458 142.953 115.103 142.953C116.114 142.953 116.825 142.497 117.236 141.586C117.465 141.07 117.58 140.469 117.58 139.781ZM124.326 135.445C124.92 135.445 125.496 135.586 126.053 135.867C126.61 136.143 127.035 136.503 127.326 136.945C127.607 137.367 127.795 137.859 127.889 138.422C127.972 138.807 128.014 139.422 128.014 140.266H121.881C121.907 141.115 122.107 141.797 122.482 142.312C122.857 142.823 123.438 143.078 124.225 143.078C124.959 143.078 125.545 142.836 125.982 142.352C126.232 142.07 126.41 141.745 126.514 141.375H127.897C127.86 141.682 127.738 142.026 127.529 142.406C127.326 142.781 127.097 143.089 126.842 143.328C126.415 143.745 125.886 144.026 125.256 144.172C124.917 144.255 124.535 144.297 124.107 144.297C123.066 144.297 122.183 143.919 121.459 143.164C120.735 142.404 120.373 141.341 120.373 139.977C120.373 138.633 120.738 137.542 121.467 136.703C122.196 135.865 123.149 135.445 124.326 135.445ZM126.568 139.148C126.511 138.539 126.378 138.052 126.17 137.688C125.785 137.01 125.141 136.672 124.24 136.672C123.594 136.672 123.053 136.906 122.615 137.375C122.178 137.839 121.946 138.43 121.92 139.148H126.568ZM129.869 133.297H131.291V135.633H132.627V136.781H131.291V142.242C131.291 142.534 131.39 142.729 131.588 142.828C131.698 142.885 131.88 142.914 132.135 142.914C132.203 142.914 132.276 142.914 132.354 142.914C132.432 142.909 132.523 142.901 132.627 142.891V144C132.466 144.047 132.296 144.081 132.119 144.102C131.948 144.122 131.76 144.133 131.557 144.133C130.901 144.133 130.455 143.966 130.221 143.633C129.987 143.294 129.869 142.857 129.869 142.32V136.781H128.737V135.633H129.869V133.297ZM143.401 135.633H144.956C144.758 136.169 144.318 137.393 143.635 139.305C143.125 140.742 142.698 141.914 142.354 142.82C141.542 144.956 140.969 146.258 140.635 146.727C140.302 147.195 139.729 147.43 138.917 147.43C138.719 147.43 138.565 147.422 138.456 147.406C138.351 147.391 138.221 147.362 138.065 147.32V146.039C138.31 146.107 138.487 146.148 138.596 146.164C138.706 146.18 138.802 146.188 138.885 146.188C139.146 146.188 139.336 146.143 139.456 146.055C139.581 145.971 139.685 145.867 139.768 145.742C139.794 145.701 139.888 145.487 140.049 145.102C140.211 144.716 140.328 144.43 140.401 144.242L137.307 135.633H138.901L141.143 142.445L143.401 135.633ZM149.335 143.094C150.267 143.094 150.905 142.742 151.249 142.039C151.598 141.331 151.772 140.544 151.772 139.68C151.772 138.898 151.647 138.263 151.397 137.773C151.001 137.003 150.319 136.617 149.35 136.617C148.491 136.617 147.866 136.945 147.475 137.602C147.085 138.258 146.889 139.049 146.889 139.977C146.889 140.867 147.085 141.609 147.475 142.203C147.866 142.797 148.486 143.094 149.335 143.094ZM149.389 135.391C150.467 135.391 151.379 135.75 152.124 136.469C152.869 137.188 153.241 138.245 153.241 139.641C153.241 140.99 152.913 142.104 152.257 142.984C151.6 143.865 150.582 144.305 149.202 144.305C148.051 144.305 147.137 143.917 146.46 143.141C145.783 142.359 145.444 141.312 145.444 140C145.444 138.594 145.801 137.474 146.514 136.641C147.228 135.807 148.186 135.391 149.389 135.391ZM156.167 135.633V141.188C156.167 141.615 156.235 141.964 156.37 142.234C156.62 142.734 157.086 142.984 157.768 142.984C158.748 142.984 159.414 142.547 159.768 141.672C159.961 141.203 160.057 140.56 160.057 139.742V135.633H161.464V144H160.136L160.151 142.766C159.969 143.083 159.742 143.352 159.472 143.57C158.935 144.008 158.284 144.227 157.518 144.227C156.326 144.227 155.513 143.828 155.081 143.031C154.847 142.604 154.729 142.034 154.729 141.32V135.633H156.167ZM167.839 135.633H169.175V137.078C169.284 136.797 169.553 136.456 169.98 136.055C170.407 135.648 170.899 135.445 171.456 135.445C171.482 135.445 171.527 135.448 171.589 135.453C171.652 135.458 171.758 135.469 171.909 135.484V136.969C171.826 136.953 171.748 136.943 171.675 136.938C171.607 136.932 171.532 136.93 171.448 136.93C170.74 136.93 170.196 137.159 169.816 137.617C169.435 138.07 169.245 138.594 169.245 139.188V144H167.839V135.633ZM176.452 135.445C177.046 135.445 177.622 135.586 178.179 135.867C178.736 136.143 179.161 136.503 179.452 136.945C179.734 137.367 179.921 137.859 180.015 138.422C180.098 138.807 180.14 139.422 180.14 140.266H174.007C174.033 141.115 174.234 141.797 174.609 142.312C174.984 142.823 175.564 143.078 176.351 143.078C177.085 143.078 177.671 142.836 178.109 142.352C178.359 142.07 178.536 141.745 178.64 141.375H180.023C179.986 141.682 179.864 142.026 179.656 142.406C179.452 142.781 179.223 143.089 178.968 143.328C178.541 143.745 178.012 144.026 177.382 144.172C177.044 144.255 176.661 144.297 176.234 144.297C175.192 144.297 174.309 143.919 173.585 143.164C172.861 142.404 172.499 141.341 172.499 139.977C172.499 138.633 172.864 137.542 173.593 136.703C174.322 135.865 175.275 135.445 176.452 135.445ZM178.695 139.148C178.637 138.539 178.505 138.052 178.296 137.688C177.911 137.01 177.268 136.672 176.367 136.672C175.721 136.672 175.179 136.906 174.742 137.375C174.304 137.839 174.072 138.43 174.046 139.148H178.695ZM182.55 141.375C182.592 141.844 182.709 142.203 182.902 142.453C183.256 142.906 183.871 143.133 184.746 143.133C185.266 143.133 185.725 143.021 186.121 142.797C186.516 142.568 186.714 142.216 186.714 141.742C186.714 141.383 186.556 141.109 186.238 140.922C186.035 140.807 185.634 140.674 185.035 140.523L183.917 140.242C183.204 140.065 182.678 139.867 182.339 139.648C181.735 139.268 181.433 138.742 181.433 138.07C181.433 137.279 181.717 136.638 182.285 136.148C182.858 135.659 183.626 135.414 184.589 135.414C185.85 135.414 186.759 135.784 187.316 136.523C187.665 136.992 187.834 137.497 187.824 138.039H186.496C186.47 137.721 186.358 137.432 186.16 137.172C185.837 136.802 185.277 136.617 184.48 136.617C183.949 136.617 183.545 136.719 183.269 136.922C182.998 137.125 182.863 137.393 182.863 137.727C182.863 138.091 183.042 138.383 183.402 138.602C183.61 138.732 183.917 138.846 184.324 138.945L185.253 139.172C186.264 139.417 186.941 139.654 187.285 139.883C187.832 140.242 188.105 140.807 188.105 141.578C188.105 142.323 187.821 142.966 187.253 143.508C186.691 144.049 185.832 144.32 184.675 144.32C183.431 144.32 182.548 144.039 182.027 143.477C181.511 142.909 181.235 142.208 181.199 141.375H182.55ZM190.961 135.633V141.188C190.961 141.615 191.028 141.964 191.164 142.234C191.414 142.734 191.88 142.984 192.562 142.984C193.541 142.984 194.208 142.547 194.562 141.672C194.755 141.203 194.851 140.56 194.851 139.742V135.633H196.258V144H194.929L194.945 142.766C194.763 143.083 194.536 143.352 194.265 143.57C193.729 144.008 193.078 144.227 192.312 144.227C191.119 144.227 190.307 143.828 189.875 143.031C189.64 142.604 189.523 142.034 189.523 141.32V135.633H190.961ZM198.34 132.523H199.746V144H198.34V132.523ZM201.984 133.297H203.406V135.633H204.742V136.781H203.406V142.242C203.406 142.534 203.505 142.729 203.703 142.828C203.812 142.885 203.995 142.914 204.25 142.914C204.318 142.914 204.391 142.914 204.469 142.914C204.547 142.909 204.638 142.901 204.742 142.891V144C204.581 144.047 204.411 144.081 204.234 144.102C204.062 144.122 203.875 144.133 203.672 144.133C203.016 144.133 202.57 143.966 202.336 143.633C202.102 143.294 201.984 142.857 201.984 142.32V136.781H200.852V135.633H201.984V133.297ZM206.832 141.375C206.874 141.844 206.991 142.203 207.184 142.453C207.538 142.906 208.152 143.133 209.027 143.133C209.548 143.133 210.007 143.021 210.402 142.797C210.798 142.568 210.996 142.216 210.996 141.742C210.996 141.383 210.837 141.109 210.52 140.922C210.317 140.807 209.916 140.674 209.317 140.523L208.199 140.242C207.486 140.065 206.96 139.867 206.621 139.648C206.017 139.268 205.715 138.742 205.715 138.07C205.715 137.279 205.999 136.638 206.567 136.148C207.139 135.659 207.908 135.414 208.871 135.414C210.132 135.414 211.041 135.784 211.598 136.523C211.947 136.992 212.116 137.497 212.106 138.039H210.777C210.751 137.721 210.639 137.432 210.442 137.172C210.119 136.802 209.559 136.617 208.762 136.617C208.231 136.617 207.827 136.719 207.551 136.922C207.28 137.125 207.145 137.393 207.145 137.727C207.145 138.091 207.324 138.383 207.684 138.602C207.892 138.732 208.199 138.846 208.606 138.945L209.535 139.172C210.546 139.417 211.223 139.654 211.567 139.883C212.113 140.242 212.387 140.807 212.387 141.578C212.387 142.323 212.103 142.966 211.535 143.508C210.973 144.049 210.113 144.32 208.957 144.32C207.712 144.32 206.83 144.039 206.309 143.477C205.793 142.909 205.517 142.208 205.481 141.375H206.832ZM25.3125 151.297H26.7344V153.633H28.0703V154.781H26.7344V160.242C26.7344 160.534 26.8333 160.729 27.0312 160.828C27.1406 160.885 27.3229 160.914 27.5781 160.914C27.6458 160.914 27.7188 160.914 27.7969 160.914C27.875 160.909 27.9661 160.901 28.0703 160.891V162C27.9089 162.047 27.7396 162.081 27.5625 162.102C27.3906 162.122 27.2031 162.133 27 162.133C26.3438 162.133 25.8984 161.966 25.6641 161.633C25.4297 161.294 25.3125 160.857 25.3125 160.32V154.781H24.1797V153.633H25.3125V151.297ZM32.6447 161.094C33.577 161.094 34.215 160.742 34.5588 160.039C34.9077 159.331 35.0822 158.544 35.0822 157.68C35.0822 156.898 34.9572 156.263 34.7072 155.773C34.3114 155.003 33.6291 154.617 32.6603 154.617C31.8009 154.617 31.1759 154.945 30.7853 155.602C30.3947 156.258 30.1994 157.049 30.1994 157.977C30.1994 158.867 30.3947 159.609 30.7853 160.203C31.1759 160.797 31.7957 161.094 32.6447 161.094ZM32.6994 153.391C33.7775 153.391 34.689 153.75 35.4338 154.469C36.1785 155.188 36.5509 156.245 36.5509 157.641C36.5509 158.99 36.2228 160.104 35.5666 160.984C34.9103 161.865 33.8921 162.305 32.5119 162.305C31.3608 162.305 30.4468 161.917 29.7697 161.141C29.0926 160.359 28.7541 159.312 28.7541 158C28.7541 156.594 29.1108 155.474 29.8244 154.641C30.5379 153.807 31.4963 153.391 32.6994 153.391ZM38.9613 157.914C38.9613 158.81 39.1514 159.56 39.5316 160.164C39.9118 160.768 40.5211 161.07 41.3597 161.07C42.0107 161.07 42.5446 160.792 42.9613 160.234C43.3831 159.672 43.5941 158.867 43.5941 157.82C43.5941 156.763 43.3779 155.982 42.9456 155.477C42.5133 154.966 41.9795 154.711 41.3441 154.711C40.6357 154.711 40.0602 154.982 39.6175 155.523C39.18 156.065 38.9613 156.862 38.9613 157.914ZM41.0784 153.484C41.7191 153.484 42.2555 153.62 42.6878 153.891C42.9378 154.047 43.2217 154.32 43.5394 154.711V150.484H44.8909V162H43.6253V160.836C43.2972 161.352 42.9092 161.724 42.4613 161.953C42.0133 162.182 41.5003 162.297 40.9222 162.297C39.9899 162.297 39.1826 161.906 38.5003 161.125C37.818 160.339 37.4769 159.294 37.4769 157.992C37.4769 156.773 37.7868 155.719 38.4066 154.828C39.0316 153.932 39.9222 153.484 41.0784 153.484ZM47.895 159.773C47.895 160.18 48.0434 160.5 48.3403 160.734C48.6372 160.969 48.9888 161.086 49.395 161.086C49.8898 161.086 50.369 160.971 50.8325 160.742C51.6138 160.362 52.0044 159.74 52.0044 158.875V157.742C51.8325 157.852 51.6111 157.943 51.3403 158.016C51.0695 158.089 50.8039 158.141 50.5434 158.172L49.6919 158.281C49.1815 158.349 48.7986 158.456 48.5434 158.602C48.1111 158.846 47.895 159.237 47.895 159.773ZM51.3013 156.93C51.6242 156.888 51.8403 156.753 51.9497 156.523C52.0122 156.398 52.0434 156.219 52.0434 155.984C52.0434 155.505 51.8716 155.159 51.5278 154.945C51.1893 154.727 50.7023 154.617 50.0669 154.617C49.3325 154.617 48.8117 154.815 48.5044 155.211C48.3325 155.43 48.2205 155.755 48.1684 156.188H46.8559C46.882 155.156 47.2153 154.44 47.8559 154.039C48.5018 153.633 49.2492 153.43 50.0981 153.43C51.0825 153.43 51.882 153.617 52.4966 153.992C53.1059 154.367 53.4106 154.951 53.4106 155.742V160.562C53.4106 160.708 53.4393 160.826 53.4966 160.914C53.5591 161.003 53.6867 161.047 53.8794 161.047C53.9419 161.047 54.0122 161.044 54.0903 161.039C54.1684 161.029 54.2518 161.016 54.3403 161V162.039C54.1216 162.102 53.9549 162.141 53.8403 162.156C53.7257 162.172 53.5695 162.18 53.3716 162.18C52.8872 162.18 52.5356 162.008 52.3169 161.664C52.2023 161.482 52.1216 161.224 52.0747 160.891C51.7882 161.266 51.3768 161.591 50.8403 161.867C50.3039 162.143 49.7127 162.281 49.0669 162.281C48.2908 162.281 47.6554 162.047 47.1606 161.578C46.671 161.104 46.4263 160.513 46.4263 159.805C46.4263 159.029 46.6684 158.427 47.1528 158C47.6372 157.573 48.2726 157.31 49.0591 157.211L51.3013 156.93ZM60.7897 153.633H62.3444C62.1465 154.169 61.7064 155.393 61.0241 157.305C60.5136 158.742 60.0866 159.914 59.7428 160.82C58.9303 162.956 58.3574 164.258 58.0241 164.727C57.6907 165.195 57.1178 165.43 56.3053 165.43C56.1074 165.43 55.9538 165.422 55.8444 165.406C55.7402 165.391 55.61 165.362 55.4538 165.32V164.039C55.6985 164.107 55.8756 164.148 55.985 164.164C56.0944 164.18 56.1907 164.188 56.2741 164.188C56.5345 164.188 56.7246 164.143 56.8444 164.055C56.9694 163.971 57.0735 163.867 57.1569 163.742C57.1829 163.701 57.2767 163.487 57.4381 163.102C57.5996 162.716 57.7168 162.43 57.7897 162.242L54.6959 153.633H56.2897L58.5319 160.445L60.7897 153.633Z" fill="#373737"/>
</svg>
