<svg width="208" height="50" viewBox="0 0 208 50" fill="none" xmlns="http://www.w3.org/2000/svg">
<path d="M71.2333 0.570007H30.7633C28.5833 0.570007 26.5433 1.61001 25.2533 3.37001L0.243308 37.77C-0.366692 38.6 0.243308 39.77 1.26331 39.77C1.84331 39.77 2.40331 39.54 2.82331 39.14L32.5833 10.81C33.9433 9.52001 35.7233 8.75001 37.6033 8.67001L53.2533 7.79001C54.7533 7.72001 55.3333 9.73001 54.0133 10.46L30.7233 25.5C29.3633 26.26 29.1233 28.12 30.2533 29.2L50.5533 48.73C50.9333 49.09 51.4333 49.29 51.9533 49.29H52.3333C53.2933 49.29 53.9133 48.27 53.4733 47.41L44.8533 30.96C44.3833 30.07 44.6533 28.97 45.4733 28.38L72.5633 4.03001C73.9133 2.81001 73.0533 0.570007 71.2333 0.570007Z" fill="#06B0C2"/>
<path d="M69.2832 40.98H75.9532V28.3C75.9532 28.3 75.6232 18.42 85.4632 18.42V11.55C85.4632 11.55 69.2832 11.02 69.2832 28.31V40.99V40.98Z" fill="black"/>
<path d="M116.093 26.27C116.093 18.15 109.243 11.57 100.793 11.57C92.3432 11.57 85.4932 18.15 85.4932 26.27C85.4932 34.39 92.3432 40.97 100.793 40.97C107.203 40.97 112.693 37.18 114.973 31.81H107.733C107.733 31.81 105.283 34.46 100.793 34.46C93.1932 34.46 92.2232 28.84 92.2232 28.84H115.863C116.013 28.01 116.093 27.15 116.093 26.27ZM92.2232 23.39C92.2232 23.39 94.0932 18.24 100.793 18.24C107.493 18.24 109.563 23.39 109.563 23.39H92.2332H92.2232Z" fill="black"/>
<path d="M132.893 0.170003C132.893 0.170003 119.033 2.86102e-06 119.033 13.94V40.97H125.423V22.57H134.863V16.13H126.173C126.173 16.13 125.433 16.26 125.433 14.64C125.433 13.02 125.913 6.51 134.403 6.51L134.873 0.280003C134.873 0.280003 134.053 0.170003 132.913 0.170003" fill="black"/>
<path d="M144.383 0H137.923V40.98H144.383V0Z" fill="black"/>
<path d="M177.593 26.41C177.593 18.29 170.743 11.71 162.293 11.71C153.843 11.71 146.993 18.29 146.993 26.41C146.993 34.53 153.843 41.11 162.293 41.11C168.703 41.11 174.193 37.32 176.473 31.95H169.233C169.233 31.95 166.783 34.6 162.293 34.6C154.693 34.6 153.723 28.98 153.723 28.98H177.363C177.513 28.15 177.593 27.29 177.593 26.41ZM153.723 23.53C153.723 23.53 155.593 18.38 162.293 18.38C168.993 18.38 171.063 23.53 171.063 23.53H153.733H153.723Z" fill="black"/>
<path d="M207.313 11.54H198.903L191.533 20.87L184.733 11.54L177.363 11.52L188.093 26.39L177.383 40.98H184.503L191.663 31.81L198.053 40.98H206.773L195.883 26.01L207.313 11.54Z" fill="black"/>
</svg>
