<svg width="270" height="205" viewBox="0 0 270 205" fill="none" xmlns="http://www.w3.org/2000/svg">
<rect width="270" height="205" rx="24" fill="#F5F5F5"/>
<path d="M41.6667 51L53.4167 39.25L51.0833 36.9167L41.6667 46.3333L36.9167 41.5833L34.5833 43.9167L41.6667 51ZM32.3333 59C31.4167 59 30.6319 58.6736 29.9792 58.0208C29.3264 57.3681 29 56.5833 29 55.6667V32.3333C29 31.4167 29.3264 30.6319 29.9792 29.9792C30.6319 29.3264 31.4167 29 32.3333 29H55.6667C56.5833 29 57.3681 29.3264 58.0208 29.9792C58.6736 30.6319 59 31.4167 59 32.3333V55.6667C59 56.5833 58.6736 57.3681 58.0208 58.0208C57.3681 58.6736 56.5833 59 55.6667 59H32.3333ZM32.3333 55.6667H55.6667V32.3333H32.3333V55.6667Z" fill="#49454F"/>
<path d="M29.459 84.5605H33.1113L31.3145 78.8965L29.459 84.5605ZM29.6445 75.6055H33.043L38.1406 90H34.8789L33.9512 87.041H28.6484L27.6523 90H24.5078L29.6445 75.6055ZM43.4777 75.459C43.6535 75.459 43.813 75.4655 43.9563 75.4785C44.0995 75.485 44.2948 75.498 44.5422 75.5176V77.7832C44.3859 77.7637 44.1223 77.7507 43.7512 77.7441C43.3866 77.7311 43.1327 77.8125 42.9895 77.9883C42.8527 78.1576 42.7844 78.3464 42.7844 78.5547C42.7844 78.763 42.7844 79.0625 42.7844 79.4531H44.6105V81.416H42.7844V90H40.0109V81.416H38.4582V79.4531H39.9816V78.7695C39.9816 77.6302 40.1737 76.8457 40.5578 76.416C40.9615 75.778 41.9348 75.459 43.4777 75.459ZM49.9379 75.459C50.1137 75.459 50.2732 75.4655 50.4164 75.4785C50.5596 75.485 50.7549 75.498 51.0023 75.5176V77.7832C50.8461 77.7637 50.5824 77.7507 50.2113 77.7441C49.8467 77.7311 49.5928 77.8125 49.4496 77.9883C49.3129 78.1576 49.2445 78.3464 49.2445 78.5547C49.2445 78.763 49.2445 79.0625 49.2445 79.4531H51.0707V81.416H49.2445V90H46.4711V81.416H44.9184V79.4531H46.4418V78.7695C46.4418 77.6302 46.6339 76.8457 47.018 76.416C47.4216 75.778 48.3949 75.459 49.9379 75.459ZM57.2477 88.0371C58.0615 88.0371 58.6865 87.7474 59.1227 87.168C59.5589 86.5885 59.777 85.765 59.777 84.6973C59.777 83.6296 59.5589 82.8092 59.1227 82.2363C58.6865 81.6569 58.0615 81.3672 57.2477 81.3672C56.4339 81.3672 55.8056 81.6569 55.3629 82.2363C54.9267 82.8092 54.7086 83.6296 54.7086 84.6973C54.7086 85.765 54.9267 86.5885 55.3629 87.168C55.8056 87.7474 56.4339 88.0371 57.2477 88.0371ZM62.6969 84.6973C62.6969 86.2598 62.2477 87.5977 61.3492 88.7109C60.4508 89.8177 59.0868 90.3711 57.2574 90.3711C55.428 90.3711 54.0641 89.8177 53.1656 88.7109C52.2672 87.5977 51.818 86.2598 51.818 84.6973C51.818 83.1608 52.2672 81.8294 53.1656 80.7031C54.0641 79.5768 55.428 79.0137 57.2574 79.0137C59.0868 79.0137 60.4508 79.5768 61.3492 80.7031C62.2477 81.8294 62.6969 83.1608 62.6969 84.6973ZM70.2801 79.1016C70.3322 79.1016 70.3745 79.1048 70.407 79.1113C70.4461 79.1113 70.5275 79.1146 70.6512 79.1211V81.9727C70.4754 81.9531 70.3191 81.9401 70.1824 81.9336C70.0457 81.9271 69.935 81.9238 69.8504 81.9238C68.7306 81.9238 67.9786 82.2884 67.5945 83.0176C67.3797 83.4277 67.2723 84.0592 67.2723 84.9121V90H64.4695V79.3555H67.1258V81.2109C67.5555 80.5013 67.9298 80.0163 68.2488 79.7559C68.7697 79.3197 69.4467 79.1016 70.2801 79.1016ZM76.0176 79.1016C76.6621 79.1016 77.235 79.2448 77.7363 79.5312C78.2376 79.8112 78.6445 80.2018 78.957 80.7031V75.625H81.7793V90H79.0742V88.5254C78.6771 89.1569 78.2246 89.6159 77.7168 89.9023C77.209 90.1888 76.5775 90.332 75.8223 90.332C74.5788 90.332 73.5306 89.8307 72.6777 88.8281C71.8314 87.819 71.4082 86.5267 71.4082 84.9512C71.4082 83.1348 71.8249 81.7057 72.6582 80.6641C73.498 79.6224 74.6178 79.1016 76.0176 79.1016ZM76.623 87.9883C77.4108 87.9883 78.0098 87.6953 78.4199 87.1094C78.8301 86.5234 79.0352 85.765 79.0352 84.834C79.0352 83.5319 78.7064 82.6009 78.0488 82.041C77.6452 81.7025 77.1764 81.5332 76.6426 81.5332C75.8288 81.5332 75.2298 81.8424 74.8457 82.4609C74.4681 83.0729 74.2793 83.8346 74.2793 84.7461C74.2793 85.7292 74.4714 86.5169 74.8555 87.1094C75.2461 87.6953 75.8353 87.9883 76.623 87.9883ZM89.9875 84.8242C89.8117 84.9349 89.6327 85.026 89.4504 85.0977C89.2746 85.1628 89.0305 85.2246 88.718 85.2832L88.093 85.4004C87.507 85.5046 87.0871 85.6315 86.8332 85.7812C86.4035 86.0352 86.1887 86.429 86.1887 86.9629C86.1887 87.4382 86.3189 87.7832 86.5793 87.998C86.8462 88.2064 87.1685 88.3105 87.5461 88.3105C88.1451 88.3105 88.6952 88.1348 89.1965 87.7832C89.7043 87.4316 89.968 86.7904 89.9875 85.8594V84.8242ZM88.298 83.5254C88.8124 83.4603 89.1802 83.3789 89.4016 83.2812C89.7987 83.112 89.9973 82.8483 89.9973 82.4902C89.9973 82.054 89.8443 81.7546 89.5383 81.5918C89.2388 81.4225 88.7961 81.3379 88.2102 81.3379C87.5526 81.3379 87.0871 81.5007 86.8137 81.8262C86.6184 82.0671 86.4882 82.3926 86.423 82.8027H83.7375C83.7961 81.8717 84.0565 81.1068 84.5187 80.5078C85.2544 79.5703 86.5174 79.1016 88.3078 79.1016C89.4732 79.1016 90.5083 79.3327 91.4133 79.7949C92.3182 80.2572 92.7707 81.1296 92.7707 82.4121V87.2949C92.7707 87.6335 92.7772 88.0436 92.7902 88.5254C92.8098 88.89 92.8651 89.1374 92.9562 89.2676C93.0474 89.3978 93.1841 89.5052 93.3664 89.5898V90H90.3391C90.2544 89.7852 90.1958 89.5833 90.1633 89.3945C90.1307 89.2057 90.1047 88.9909 90.0852 88.75C89.701 89.1667 89.2583 89.5215 88.757 89.8145C88.1581 90.1595 87.481 90.332 86.7258 90.332C85.7622 90.332 84.9647 90.0586 84.3332 89.5117C83.7082 88.9583 83.3957 88.1771 83.3957 87.168C83.3957 85.8594 83.9003 84.9121 84.9094 84.3262C85.4628 84.0072 86.2766 83.7793 87.3508 83.6426L88.298 83.5254ZM100.803 79.1211C102.203 79.1211 103.297 79.6257 104.084 80.6348C104.879 81.6439 105.276 82.946 105.276 84.541C105.276 86.1947 104.885 87.5651 104.104 88.6523C103.323 89.7396 102.232 90.2832 100.832 90.2832C99.9535 90.2832 99.2471 90.1074 98.7133 89.7559C98.3943 89.5475 98.0492 89.1829 97.6781 88.6621V90H94.9535V75.625H97.727V80.7422C98.0785 80.2474 98.4659 79.8698 98.8891 79.6094C99.3904 79.2839 100.028 79.1211 100.803 79.1211ZM100.09 87.9883C100.806 87.9883 101.363 87.6986 101.76 87.1191C102.157 86.5397 102.356 85.778 102.356 84.834C102.356 84.0788 102.258 83.4538 102.063 82.959C101.692 82.0215 101.008 81.5527 100.012 81.5527C99.003 81.5527 98.3096 82.0117 97.932 82.9297C97.7367 83.418 97.6391 84.0495 97.6391 84.8242C97.6391 85.7357 97.8409 86.4909 98.2445 87.0898C98.6482 87.6888 99.2634 87.9883 100.09 87.9883ZM109.92 90H107.136V75.6055H109.92V90ZM116.643 81.3672C115.999 81.3672 115.498 81.569 115.139 81.9727C114.788 82.3763 114.567 82.9232 114.475 83.6133H118.802C118.756 82.8776 118.531 82.321 118.128 81.9434C117.731 81.5592 117.236 81.3672 116.643 81.3672ZM116.643 79.0723C117.529 79.0723 118.326 79.2383 119.036 79.5703C119.746 79.9023 120.332 80.4264 120.794 81.1426C121.21 81.7741 121.481 82.5065 121.604 83.3398C121.676 83.8281 121.705 84.5312 121.692 85.4492H114.407C114.446 86.5169 114.781 87.2656 115.413 87.6953C115.797 87.9622 116.259 88.0957 116.8 88.0957C117.373 88.0957 117.838 87.9329 118.196 87.6074C118.391 87.4316 118.564 87.1875 118.714 86.875H121.555C121.484 87.5065 121.155 88.1478 120.569 88.7988C119.658 89.834 118.382 90.3516 116.741 90.3516C115.387 90.3516 114.192 89.9154 113.157 89.043C112.122 88.1706 111.604 86.7513 111.604 84.7852C111.604 82.9427 112.07 81.5299 113.001 80.5469C113.938 79.5638 115.152 79.0723 116.643 79.0723Z" fill="#373737"/>
<path d="M30.5547 119.781C31.2839 119.781 31.8594 119.635 32.2812 119.344C32.7083 119.052 32.9219 118.526 32.9219 117.766C32.9219 116.948 32.625 116.391 32.0312 116.094C31.7135 115.938 31.2891 115.859 30.7578 115.859H26.9609V119.781H30.5547ZM25.4062 114.523H30.7188C31.5938 114.523 32.3151 114.651 32.8828 114.906C33.9609 115.396 34.5 116.299 34.5 117.617C34.5 118.305 34.3568 118.867 34.0703 119.305C33.7891 119.742 33.3932 120.094 32.8828 120.359C33.3307 120.542 33.6667 120.781 33.8906 121.078C34.1198 121.375 34.2474 121.857 34.2734 122.523L34.3281 124.062C34.3438 124.5 34.3802 124.826 34.4375 125.039C34.5312 125.404 34.6979 125.638 34.9375 125.742V126H33.0312C32.9792 125.901 32.9375 125.773 32.9062 125.617C32.875 125.461 32.849 125.159 32.8281 124.711L32.7344 122.797C32.6979 122.047 32.4193 121.544 31.8984 121.289C31.6016 121.148 31.1354 121.078 30.5 121.078H26.9609V126H25.4062V114.523ZM39.9181 117.445C40.5119 117.445 41.0874 117.586 41.6447 117.867C42.202 118.143 42.6265 118.503 42.9181 118.945C43.1994 119.367 43.3869 119.859 43.4806 120.422C43.564 120.807 43.6056 121.422 43.6056 122.266H37.4728C37.4989 123.115 37.6994 123.797 38.0744 124.312C38.4494 124.823 39.0301 125.078 39.8166 125.078C40.5509 125.078 41.1369 124.836 41.5744 124.352C41.8244 124.07 42.0015 123.745 42.1056 123.375H43.4884C43.452 123.682 43.3296 124.026 43.1213 124.406C42.9181 124.781 42.689 125.089 42.4338 125.328C42.0067 125.745 41.478 126.026 40.8478 126.172C40.5093 126.255 40.1265 126.297 39.6994 126.297C38.6577 126.297 37.7749 125.919 37.0509 125.164C36.327 124.404 35.965 123.341 35.965 121.977C35.965 120.633 36.3296 119.542 37.0588 118.703C37.7879 117.865 38.741 117.445 39.9181 117.445ZM42.1603 121.148C42.103 120.539 41.9702 120.052 41.7619 119.688C41.3765 119.01 40.7332 118.672 39.8322 118.672C39.1864 118.672 38.6447 118.906 38.2072 119.375C37.7697 119.839 37.5379 120.43 37.5119 121.148H42.1603ZM45.5159 114.523H53.4769V115.93H47.0706V119.414H52.7034V120.781H47.0706V126H45.5159V114.523ZM54.8403 114.523H56.2466V126H54.8403V114.523ZM61.6881 117.445C62.2819 117.445 62.8574 117.586 63.4147 117.867C63.972 118.143 64.3965 118.503 64.6881 118.945C64.9694 119.367 65.1569 119.859 65.2506 120.422C65.334 120.807 65.3756 121.422 65.3756 122.266H59.2428C59.2689 123.115 59.4694 123.797 59.8444 124.312C60.2194 124.823 60.8001 125.078 61.5866 125.078C62.3209 125.078 62.9069 124.836 63.3444 124.352C63.5944 124.07 63.7715 123.745 63.8756 123.375H65.2584C65.222 123.682 65.0996 124.026 64.8913 124.406C64.6881 124.781 64.459 125.089 64.2038 125.328C63.7767 125.745 63.248 126.026 62.6178 126.172C62.2793 126.255 61.8965 126.297 61.4694 126.297C60.4277 126.297 59.5449 125.919 58.8209 125.164C58.097 124.404 57.735 123.341 57.735 121.977C57.735 120.633 58.0996 119.542 58.8288 118.703C59.5579 117.865 60.511 117.445 61.6881 117.445ZM63.9303 121.148C63.873 120.539 63.7402 120.052 63.5319 119.688C63.1465 119.01 62.5032 118.672 61.6022 118.672C60.9564 118.672 60.4147 118.906 59.9772 119.375C59.5397 119.839 59.3079 120.43 59.2819 121.148H63.9303ZM66.1531 117.633H67.9734L69.8953 120.578L71.8406 117.633L73.5516 117.672L70.7313 121.711L73.6766 126H71.8797L69.8016 122.859L67.7859 126H66.0047L68.95 121.711L66.1531 117.633ZM80.4894 117.633V123.188C80.4894 123.615 80.5571 123.964 80.6925 124.234C80.9425 124.734 81.4086 124.984 82.0909 124.984C83.0701 124.984 83.7368 124.547 84.0909 123.672C84.2836 123.203 84.38 122.56 84.38 121.742V117.633H85.7863V126H84.4581L84.4738 124.766C84.2915 125.083 84.0649 125.352 83.7941 125.57C83.2576 126.008 82.6066 126.227 81.8409 126.227C80.6482 126.227 79.8357 125.828 79.4034 125.031C79.1691 124.604 79.0519 124.034 79.0519 123.32V117.633H80.4894ZM87.8294 117.633H89.1653V118.82C89.5611 118.331 89.9804 117.979 90.4231 117.766C90.8658 117.552 91.358 117.445 91.8997 117.445C93.0872 117.445 93.8893 117.859 94.3059 118.688C94.5351 119.141 94.6497 119.789 94.6497 120.633V126H93.22V120.727C93.22 120.216 93.1445 119.805 92.9934 119.492C92.7434 118.971 92.2903 118.711 91.6341 118.711C91.3007 118.711 91.0273 118.745 90.8138 118.812C90.4283 118.927 90.0898 119.156 89.7981 119.5C89.5638 119.776 89.4101 120.062 89.3372 120.359C89.2695 120.651 89.2356 121.07 89.2356 121.617V126H87.8294V117.633ZM96.6147 114.523H98.0209V126H96.6147V114.523ZM103.298 125.094C104.231 125.094 104.869 124.742 105.213 124.039C105.561 123.331 105.736 122.544 105.736 121.68C105.736 120.898 105.611 120.263 105.361 119.773C104.965 119.003 104.283 118.617 103.314 118.617C102.455 118.617 101.83 118.945 101.439 119.602C101.048 120.258 100.853 121.049 100.853 121.977C100.853 122.867 101.048 123.609 101.439 124.203C101.83 124.797 102.449 125.094 103.298 125.094ZM103.353 117.391C104.431 117.391 105.343 117.75 106.088 118.469C106.832 119.188 107.205 120.245 107.205 121.641C107.205 122.99 106.877 124.104 106.22 124.984C105.564 125.865 104.546 126.305 103.166 126.305C102.015 126.305 101.101 125.917 100.423 125.141C99.7464 124.359 99.4078 123.312 99.4078 122C99.4078 120.594 99.7646 119.474 100.478 118.641C101.192 117.807 102.15 117.391 103.353 117.391ZM111.951 117.391C112.894 117.391 113.659 117.62 114.248 118.078C114.842 118.536 115.198 119.326 115.318 120.445H113.951C113.868 119.93 113.677 119.503 113.381 119.164C113.084 118.82 112.607 118.648 111.951 118.648C111.055 118.648 110.414 119.086 110.029 119.961C109.779 120.529 109.654 121.229 109.654 122.062C109.654 122.901 109.831 123.607 110.185 124.18C110.539 124.753 111.097 125.039 111.857 125.039C112.441 125.039 112.901 124.862 113.24 124.508C113.584 124.148 113.821 123.659 113.951 123.039H115.318C115.162 124.148 114.771 124.961 114.146 125.477C113.521 125.987 112.722 126.242 111.748 126.242C110.654 126.242 109.782 125.844 109.131 125.047C108.48 124.245 108.154 123.245 108.154 122.047C108.154 120.578 108.511 119.435 109.224 118.617C109.938 117.799 110.847 117.391 111.951 117.391ZM116.533 114.523H117.885V121.188L121.494 117.633H123.291L120.088 120.766L123.471 126H121.674L119.064 121.781L117.885 122.859V126H116.533V114.523ZM125.24 123.375C125.282 123.844 125.399 124.203 125.592 124.453C125.946 124.906 126.561 125.133 127.436 125.133C127.956 125.133 128.415 125.021 128.811 124.797C129.206 124.568 129.404 124.216 129.404 123.742C129.404 123.383 129.246 123.109 128.928 122.922C128.725 122.807 128.324 122.674 127.725 122.523L126.607 122.242C125.894 122.065 125.368 121.867 125.029 121.648C124.425 121.268 124.123 120.742 124.123 120.07C124.123 119.279 124.407 118.638 124.975 118.148C125.548 117.659 126.316 117.414 127.279 117.414C128.54 117.414 129.449 117.784 130.006 118.523C130.355 118.992 130.524 119.497 130.514 120.039H129.186C129.16 119.721 129.048 119.432 128.85 119.172C128.527 118.802 127.967 118.617 127.17 118.617C126.639 118.617 126.235 118.719 125.959 118.922C125.688 119.125 125.553 119.393 125.553 119.727C125.553 120.091 125.732 120.383 126.092 120.602C126.3 120.732 126.607 120.846 127.014 120.945L127.943 121.172C128.954 121.417 129.631 121.654 129.975 121.883C130.522 122.242 130.795 122.807 130.795 123.578C130.795 124.323 130.511 124.966 129.943 125.508C129.381 126.049 128.522 126.32 127.365 126.32C126.121 126.32 125.238 126.039 124.717 125.477C124.201 124.909 123.925 124.208 123.889 123.375H125.24ZM137.944 117.633V123.188C137.944 123.615 138.011 123.964 138.147 124.234C138.397 124.734 138.863 124.984 139.545 124.984C140.524 124.984 141.191 124.547 141.545 123.672C141.738 123.203 141.834 122.56 141.834 121.742V117.633H143.241V126H141.912L141.928 124.766C141.746 125.083 141.519 125.352 141.248 125.57C140.712 126.008 140.061 126.227 139.295 126.227C138.103 126.227 137.29 125.828 136.858 125.031C136.623 124.604 136.506 124.034 136.506 123.32V117.633H137.944ZM145.284 117.633H146.62V118.82C147.016 118.331 147.435 117.979 147.878 117.766C148.32 117.552 148.812 117.445 149.354 117.445C150.542 117.445 151.344 117.859 151.76 118.688C151.989 119.141 152.104 119.789 152.104 120.633V126H150.674V120.727C150.674 120.216 150.599 119.805 150.448 119.492C150.198 118.971 149.745 118.711 149.088 118.711C148.755 118.711 148.482 118.745 148.268 118.812C147.883 118.927 147.544 119.156 147.253 119.5C147.018 119.776 146.864 120.062 146.792 120.359C146.724 120.651 146.69 121.07 146.69 121.617V126H145.284V117.633ZM154.069 114.523H155.475V126H154.069V114.523ZM157.432 117.672H158.862V126H157.432V117.672ZM157.432 114.523H158.862V116.117H157.432V114.523ZM160.835 117.633H162.226V118.82C162.559 118.409 162.861 118.109 163.132 117.922C163.595 117.604 164.121 117.445 164.71 117.445C165.377 117.445 165.913 117.609 166.319 117.938C166.549 118.125 166.757 118.401 166.944 118.766C167.257 118.318 167.624 117.987 168.046 117.773C168.468 117.555 168.942 117.445 169.468 117.445C170.593 117.445 171.358 117.852 171.765 118.664C171.983 119.102 172.093 119.69 172.093 120.43V126H170.632V120.188C170.632 119.63 170.491 119.247 170.21 119.039C169.934 118.831 169.595 118.727 169.194 118.727C168.642 118.727 168.166 118.911 167.765 119.281C167.369 119.651 167.171 120.268 167.171 121.133V126H165.741V120.539C165.741 119.971 165.674 119.557 165.538 119.297C165.325 118.906 164.926 118.711 164.343 118.711C163.812 118.711 163.327 118.917 162.89 119.328C162.457 119.74 162.241 120.484 162.241 121.562V126H160.835V117.633ZM174.003 117.672H175.433V126H174.003V117.672ZM174.003 114.523H175.433V116.117H174.003V114.523ZM177.687 115.297H179.109V117.633H180.445V118.781H179.109V124.242C179.109 124.534 179.208 124.729 179.406 124.828C179.515 124.885 179.697 124.914 179.952 124.914C180.02 124.914 180.093 124.914 180.171 124.914C180.249 124.909 180.341 124.901 180.445 124.891V126C180.283 126.047 180.114 126.081 179.937 126.102C179.765 126.122 179.577 126.133 179.374 126.133C178.718 126.133 178.273 125.966 178.038 125.633C177.804 125.294 177.687 124.857 177.687 124.32V118.781H176.554V117.633H177.687V115.297ZM185.183 117.445C185.777 117.445 186.352 117.586 186.91 117.867C187.467 118.143 187.891 118.503 188.183 118.945C188.464 119.367 188.652 119.859 188.746 120.422C188.829 120.807 188.871 121.422 188.871 122.266H182.738C182.764 123.115 182.964 123.797 183.339 124.312C183.714 124.823 184.295 125.078 185.082 125.078C185.816 125.078 186.402 124.836 186.839 124.352C187.089 124.07 187.266 123.745 187.371 123.375H188.753C188.717 123.682 188.595 124.026 188.386 124.406C188.183 124.781 187.954 125.089 187.699 125.328C187.272 125.745 186.743 126.026 186.113 126.172C185.774 126.255 185.391 126.297 184.964 126.297C183.923 126.297 183.04 125.919 182.316 125.164C181.592 124.404 181.23 123.341 181.23 121.977C181.23 120.633 181.595 119.542 182.324 118.703C183.053 117.865 184.006 117.445 185.183 117.445ZM187.425 121.148C187.368 120.539 187.235 120.052 187.027 119.688C186.641 119.01 185.998 118.672 185.097 118.672C184.451 118.672 183.91 118.906 183.472 119.375C183.035 119.839 182.803 120.43 182.777 121.148H187.425ZM191.336 121.914C191.336 122.81 191.526 123.56 191.906 124.164C192.286 124.768 192.896 125.07 193.734 125.07C194.385 125.07 194.919 124.792 195.336 124.234C195.758 123.672 195.968 122.867 195.968 121.82C195.968 120.763 195.752 119.982 195.32 119.477C194.888 118.966 194.354 118.711 193.718 118.711C193.01 118.711 192.435 118.982 191.992 119.523C191.554 120.065 191.336 120.862 191.336 121.914ZM193.453 117.484C194.093 117.484 194.63 117.62 195.062 117.891C195.312 118.047 195.596 118.32 195.914 118.711V114.484H197.265V126H196V124.836C195.672 125.352 195.284 125.724 194.836 125.953C194.388 126.182 193.875 126.297 193.297 126.297C192.364 126.297 191.557 125.906 190.875 125.125C190.192 124.339 189.851 123.294 189.851 121.992C189.851 120.773 190.161 119.719 190.781 118.828C191.406 117.932 192.297 117.484 193.453 117.484ZM28.5625 143.055C29.2188 143.055 29.763 142.781 30.1953 142.234C30.6328 141.682 30.8516 140.859 30.8516 139.766C30.8516 139.099 30.7552 138.526 30.5625 138.047C30.1979 137.125 29.5312 136.664 28.5625 136.664C27.5885 136.664 26.9219 137.151 26.5625 138.125C26.3698 138.646 26.2734 139.307 26.2734 140.109C26.2734 140.755 26.3698 141.305 26.5625 141.758C26.9271 142.622 27.5938 143.055 28.5625 143.055ZM24.9219 135.672H26.2891V136.781C26.5703 136.401 26.8776 136.107 27.2109 135.898C27.6849 135.586 28.2422 135.43 28.8828 135.43C29.8307 135.43 30.6354 135.794 31.2969 136.523C31.9583 137.247 32.2891 138.284 32.2891 139.633C32.2891 141.456 31.8125 142.758 30.8594 143.539C30.2552 144.034 29.5521 144.281 28.75 144.281C28.1198 144.281 27.5911 144.143 27.1641 143.867C26.9141 143.711 26.6354 143.443 26.3281 143.062V147.336H24.9219V135.672ZM37.0978 143.094C38.0301 143.094 38.6681 142.742 39.0119 142.039C39.3608 141.331 39.5353 140.544 39.5353 139.68C39.5353 138.898 39.4103 138.263 39.1603 137.773C38.7645 137.003 38.0822 136.617 37.1134 136.617C36.2541 136.617 35.6291 136.945 35.2384 137.602C34.8478 138.258 34.6525 139.049 34.6525 139.977C34.6525 140.867 34.8478 141.609 35.2384 142.203C35.6291 142.797 36.2489 143.094 37.0978 143.094ZM37.1525 135.391C38.2306 135.391 39.1421 135.75 39.8869 136.469C40.6317 137.188 41.0041 138.245 41.0041 139.641C41.0041 140.99 40.6759 142.104 40.0197 142.984C39.3634 143.865 38.3452 144.305 36.965 144.305C35.814 144.305 34.8999 143.917 34.2228 143.141C33.5457 142.359 33.2072 141.312 33.2072 140C33.2072 138.594 33.564 137.474 34.2775 136.641C34.991 135.807 35.9494 135.391 37.1525 135.391ZM42.805 133.297H44.2269V135.633H45.5628V136.781H44.2269V142.242C44.2269 142.534 44.3258 142.729 44.5238 142.828C44.6331 142.885 44.8154 142.914 45.0706 142.914C45.1383 142.914 45.2113 142.914 45.2894 142.914C45.3675 142.909 45.4586 142.901 45.5628 142.891V144C45.4014 144.047 45.2321 144.081 45.055 144.102C44.8831 144.122 44.6956 144.133 44.4925 144.133C43.8363 144.133 43.3909 143.966 43.1566 143.633C42.9222 143.294 42.805 142.857 42.805 142.32V136.781H41.6722V135.633H42.805V133.297ZM50.3013 135.445C50.895 135.445 51.4705 135.586 52.0278 135.867C52.5851 136.143 53.0096 136.503 53.3013 136.945C53.5825 137.367 53.77 137.859 53.8638 138.422C53.9471 138.807 53.9888 139.422 53.9888 140.266H47.8559C47.882 141.115 48.0825 141.797 48.4575 142.312C48.8325 142.823 49.4132 143.078 50.1997 143.078C50.9341 143.078 51.52 142.836 51.9575 142.352C52.2075 142.07 52.3846 141.745 52.4888 141.375H53.8716C53.8351 141.682 53.7127 142.026 53.5044 142.406C53.3013 142.781 53.0721 143.089 52.8169 143.328C52.3898 143.745 51.8611 144.026 51.2309 144.172C50.8924 144.255 50.5096 144.297 50.0825 144.297C49.0408 144.297 48.158 143.919 47.4341 143.164C46.7101 142.404 46.3481 141.341 46.3481 139.977C46.3481 138.633 46.7127 137.542 47.4419 136.703C48.171 135.865 49.1242 135.445 50.3013 135.445ZM52.5434 139.148C52.4861 138.539 52.3533 138.052 52.145 137.688C51.7596 137.01 51.1164 136.672 50.2153 136.672C49.5695 136.672 49.0278 136.906 48.5903 137.375C48.1528 137.839 47.921 138.43 47.895 139.148H52.5434ZM55.5631 135.633H56.8991V136.82C57.2949 136.331 57.7142 135.979 58.1569 135.766C58.5996 135.552 59.0918 135.445 59.6334 135.445C60.8209 135.445 61.623 135.859 62.0397 136.688C62.2689 137.141 62.3834 137.789 62.3834 138.633V144H60.9538V138.727C60.9538 138.216 60.8782 137.805 60.7272 137.492C60.4772 136.971 60.0241 136.711 59.3678 136.711C59.0345 136.711 58.761 136.745 58.5475 136.812C58.1621 136.927 57.8235 137.156 57.5319 137.5C57.2975 137.776 57.1439 138.062 57.0709 138.359C57.0032 138.651 56.9694 139.07 56.9694 139.617V144H55.5631V135.633ZM64.5906 133.297H66.0125V135.633H67.3484V136.781H66.0125V142.242C66.0125 142.534 66.1115 142.729 66.3094 142.828C66.4188 142.885 66.601 142.914 66.8563 142.914C66.924 142.914 66.9969 142.914 67.075 142.914C67.1531 142.909 67.2443 142.901 67.3484 142.891V144C67.187 144.047 67.0177 144.081 66.8406 144.102C66.6688 144.122 66.4813 144.133 66.2781 144.133C65.6219 144.133 65.1766 143.966 64.9422 143.633C64.7078 143.294 64.5906 142.857 64.5906 142.32V136.781H63.4578V135.633H64.5906V133.297ZM68.6025 135.672H70.0322V144H68.6025V135.672ZM68.6025 132.523H70.0322V134.117H68.6025V132.523ZM73.0831 141.773C73.0831 142.18 73.2316 142.5 73.5284 142.734C73.8253 142.969 74.1769 143.086 74.5831 143.086C75.0779 143.086 75.5571 142.971 76.0206 142.742C76.8019 142.362 77.1925 141.74 77.1925 140.875V139.742C77.0206 139.852 76.7993 139.943 76.5284 140.016C76.2576 140.089 75.992 140.141 75.7316 140.172L74.88 140.281C74.3696 140.349 73.9868 140.456 73.7316 140.602C73.2993 140.846 73.0831 141.237 73.0831 141.773ZM76.4894 138.93C76.8123 138.888 77.0284 138.753 77.1378 138.523C77.2003 138.398 77.2316 138.219 77.2316 137.984C77.2316 137.505 77.0597 137.159 76.7159 136.945C76.3774 136.727 75.8904 136.617 75.255 136.617C74.5206 136.617 73.9998 136.815 73.6925 137.211C73.5206 137.43 73.4086 137.755 73.3566 138.188H72.0441C72.0701 137.156 72.4034 136.44 73.0441 136.039C73.6899 135.633 74.4373 135.43 75.2863 135.43C76.2706 135.43 77.0701 135.617 77.6847 135.992C78.2941 136.367 78.5988 136.951 78.5988 137.742V142.562C78.5988 142.708 78.6274 142.826 78.6847 142.914C78.7472 143.003 78.8748 143.047 79.0675 143.047C79.13 143.047 79.2003 143.044 79.2784 143.039C79.3566 143.029 79.4399 143.016 79.5284 143V144.039C79.3097 144.102 79.143 144.141 79.0284 144.156C78.9139 144.172 78.7576 144.18 78.5597 144.18C78.0753 144.18 77.7238 144.008 77.505 143.664C77.3904 143.482 77.3097 143.224 77.2628 142.891C76.9764 143.266 76.5649 143.591 76.0284 143.867C75.492 144.143 74.9008 144.281 74.255 144.281C73.479 144.281 72.8435 144.047 72.3488 143.578C71.8592 143.104 71.6144 142.513 71.6144 141.805C71.6144 141.029 71.8566 140.427 72.3409 140C72.8253 139.573 73.4607 139.31 74.2472 139.211L76.4894 138.93ZM80.7903 132.523H82.1966V144H80.7903V132.523ZM88.7984 134.359C88.8193 133.776 88.9208 133.349 89.1031 133.078C89.4313 132.599 90.0641 132.359 91.0016 132.359C91.0901 132.359 91.1813 132.362 91.275 132.367C91.3688 132.372 91.4755 132.38 91.5953 132.391V133.672C91.4495 133.661 91.3427 133.656 91.275 133.656C91.2125 133.651 91.1526 133.648 91.0953 133.648C90.6682 133.648 90.413 133.76 90.3297 133.984C90.2464 134.203 90.2047 134.766 90.2047 135.672H91.5953V136.781H90.1891V144H88.7984V136.781H87.6344V135.672H88.7984V134.359ZM96.0603 143.094C96.9926 143.094 97.6306 142.742 97.9744 142.039C98.3233 141.331 98.4978 140.544 98.4978 139.68C98.4978 138.898 98.3728 138.263 98.1228 137.773C97.727 137.003 97.0447 136.617 96.0759 136.617C95.2166 136.617 94.5916 136.945 94.2009 137.602C93.8103 138.258 93.615 139.049 93.615 139.977C93.615 140.867 93.8103 141.609 94.2009 142.203C94.5916 142.797 95.2114 143.094 96.0603 143.094ZM96.115 135.391C97.1931 135.391 98.1046 135.75 98.8494 136.469C99.5942 137.188 99.9666 138.245 99.9666 139.641C99.9666 140.99 99.6384 142.104 98.9822 142.984C98.3259 143.865 97.3077 144.305 95.9275 144.305C94.7765 144.305 93.8624 143.917 93.1853 143.141C92.5082 142.359 92.1697 141.312 92.1697 140C92.1697 138.594 92.5265 137.474 93.24 136.641C93.9535 135.807 94.9119 135.391 96.115 135.391ZM101.525 135.633H102.861V137.078C102.971 136.797 103.239 136.456 103.666 136.055C104.093 135.648 104.585 135.445 105.143 135.445C105.169 135.445 105.213 135.448 105.275 135.453C105.338 135.458 105.445 135.469 105.596 135.484V136.969C105.512 136.953 105.434 136.943 105.361 136.938C105.294 136.932 105.218 136.93 105.135 136.93C104.426 136.93 103.882 137.159 103.502 137.617C103.122 138.07 102.932 138.594 102.932 139.188V144H101.525V135.633ZM112.026 141.773C112.026 142.18 112.174 142.5 112.471 142.734C112.768 142.969 113.119 143.086 113.526 143.086C114.02 143.086 114.5 142.971 114.963 142.742C115.744 142.362 116.135 141.74 116.135 140.875V139.742C115.963 139.852 115.742 139.943 115.471 140.016C115.2 140.089 114.934 140.141 114.674 140.172L113.823 140.281C113.312 140.349 112.929 140.456 112.674 140.602C112.242 140.846 112.026 141.237 112.026 141.773ZM115.432 138.93C115.755 138.888 115.971 138.753 116.08 138.523C116.143 138.398 116.174 138.219 116.174 137.984C116.174 137.505 116.002 137.159 115.658 136.945C115.32 136.727 114.833 136.617 114.198 136.617C113.463 136.617 112.942 136.815 112.635 137.211C112.463 137.43 112.351 137.755 112.299 138.188H110.987C111.013 137.156 111.346 136.44 111.987 136.039C112.632 135.633 113.38 135.43 114.229 135.43C115.213 135.43 116.013 135.617 116.627 135.992C117.237 136.367 117.541 136.951 117.541 137.742V142.562C117.541 142.708 117.57 142.826 117.627 142.914C117.69 143.003 117.817 143.047 118.01 143.047C118.073 143.047 118.143 143.044 118.221 143.039C118.299 143.029 118.382 143.016 118.471 143V144.039C118.252 144.102 118.086 144.141 117.971 144.156C117.856 144.172 117.7 144.18 117.502 144.18C117.018 144.18 116.666 144.008 116.448 143.664C116.333 143.482 116.252 143.224 116.205 142.891C115.919 143.266 115.507 143.591 114.971 143.867C114.434 144.143 113.843 144.281 113.198 144.281C112.421 144.281 111.786 144.047 111.291 143.578C110.802 143.104 110.557 142.513 110.557 141.805C110.557 141.029 110.799 140.427 111.283 140C111.768 139.573 112.403 139.31 113.19 139.211L115.432 138.93ZM119.694 135.633H121.03V136.82C121.426 136.331 121.845 135.979 122.287 135.766C122.73 135.552 123.222 135.445 123.764 135.445C124.952 135.445 125.754 135.859 126.17 136.688C126.399 137.141 126.514 137.789 126.514 138.633V144H125.084V138.727C125.084 138.216 125.009 137.805 124.858 137.492C124.608 136.971 124.155 136.711 123.498 136.711C123.165 136.711 122.892 136.745 122.678 136.812C122.293 136.927 121.954 137.156 121.662 137.5C121.428 137.776 121.274 138.062 121.202 138.359C121.134 138.651 121.1 139.07 121.1 139.617V144H119.694V135.633ZM133.811 141.773C133.811 142.18 133.96 142.5 134.257 142.734C134.553 142.969 134.905 143.086 135.311 143.086C135.806 143.086 136.285 142.971 136.749 142.742C137.53 142.362 137.921 141.74 137.921 140.875V139.742C137.749 139.852 137.527 139.943 137.257 140.016C136.986 140.089 136.72 140.141 136.46 140.172L135.608 140.281C135.098 140.349 134.715 140.456 134.46 140.602C134.027 140.846 133.811 141.237 133.811 141.773ZM137.217 138.93C137.54 138.888 137.757 138.753 137.866 138.523C137.928 138.398 137.96 138.219 137.96 137.984C137.96 137.505 137.788 137.159 137.444 136.945C137.106 136.727 136.619 136.617 135.983 136.617C135.249 136.617 134.728 136.815 134.421 137.211C134.249 137.43 134.137 137.755 134.085 138.188H132.772C132.798 137.156 133.132 136.44 133.772 136.039C134.418 135.633 135.165 135.43 136.014 135.43C136.999 135.43 137.798 135.617 138.413 135.992C139.022 136.367 139.327 136.951 139.327 137.742V142.562C139.327 142.708 139.356 142.826 139.413 142.914C139.475 143.003 139.603 143.047 139.796 143.047C139.858 143.047 139.928 143.044 140.007 143.039C140.085 143.029 140.168 143.016 140.257 143V144.039C140.038 144.102 139.871 144.141 139.757 144.156C139.642 144.172 139.486 144.18 139.288 144.18C138.803 144.18 138.452 144.008 138.233 143.664C138.119 143.482 138.038 143.224 137.991 142.891C137.704 143.266 137.293 143.591 136.757 143.867C136.22 144.143 135.629 144.281 134.983 144.281C134.207 144.281 133.572 144.047 133.077 143.578C132.587 143.104 132.342 142.513 132.342 141.805C132.342 141.029 132.585 140.427 133.069 140C133.553 139.573 134.189 139.31 134.975 139.211L137.217 138.93ZM144.706 135.391C145.649 135.391 146.414 135.62 147.003 136.078C147.597 136.536 147.953 137.326 148.073 138.445H146.706C146.623 137.93 146.433 137.503 146.136 137.164C145.839 136.82 145.362 136.648 144.706 136.648C143.81 136.648 143.169 137.086 142.784 137.961C142.534 138.529 142.409 139.229 142.409 140.062C142.409 140.901 142.586 141.607 142.94 142.18C143.294 142.753 143.852 143.039 144.612 143.039C145.196 143.039 145.656 142.862 145.995 142.508C146.339 142.148 146.576 141.659 146.706 141.039H148.073C147.917 142.148 147.526 142.961 146.901 143.477C146.276 143.987 145.477 144.242 144.503 144.242C143.409 144.242 142.537 143.844 141.886 143.047C141.235 142.245 140.909 141.245 140.909 140.047C140.909 138.578 141.266 137.435 141.979 136.617C142.693 135.799 143.602 135.391 144.706 135.391ZM152.546 135.391C153.489 135.391 154.254 135.62 154.843 136.078C155.437 136.536 155.793 137.326 155.913 138.445H154.546C154.463 137.93 154.272 137.503 153.976 137.164C153.679 136.82 153.202 136.648 152.546 136.648C151.65 136.648 151.009 137.086 150.624 137.961C150.374 138.529 150.249 139.229 150.249 140.062C150.249 140.901 150.426 141.607 150.78 142.18C151.134 142.753 151.692 143.039 152.452 143.039C153.036 143.039 153.496 142.862 153.835 142.508C154.179 142.148 154.416 141.659 154.546 141.039H155.913C155.757 142.148 155.366 142.961 154.741 143.477C154.116 143.987 153.317 144.242 152.343 144.242C151.249 144.242 150.377 143.844 149.726 143.047C149.075 142.245 148.749 141.245 148.749 140.047C148.749 138.578 149.106 137.435 149.819 136.617C150.533 135.799 151.442 135.391 152.546 135.391ZM160.644 135.445C161.238 135.445 161.813 135.586 162.37 135.867C162.928 136.143 163.352 136.503 163.644 136.945C163.925 137.367 164.113 137.859 164.206 138.422C164.29 138.807 164.331 139.422 164.331 140.266H158.198C158.224 141.115 158.425 141.797 158.8 142.312C159.175 142.823 159.756 143.078 160.542 143.078C161.277 143.078 161.863 142.836 162.3 142.352C162.55 142.07 162.727 141.745 162.831 141.375H164.214C164.178 141.682 164.055 142.026 163.847 142.406C163.644 142.781 163.415 143.089 163.159 143.328C162.732 143.745 162.204 144.026 161.573 144.172C161.235 144.255 160.852 144.297 160.425 144.297C159.383 144.297 158.501 143.919 157.777 143.164C157.053 142.404 156.691 141.341 156.691 139.977C156.691 138.633 157.055 137.542 157.784 136.703C158.514 135.865 159.467 135.445 160.644 135.445ZM162.886 139.148C162.829 138.539 162.696 138.052 162.488 137.688C162.102 137.01 161.459 136.672 160.558 136.672C159.912 136.672 159.37 136.906 158.933 137.375C158.495 137.839 158.264 138.43 158.238 139.148H162.886ZM166.742 141.375C166.783 141.844 166.9 142.203 167.093 142.453C167.447 142.906 168.062 143.133 168.937 143.133C169.458 143.133 169.916 143.021 170.312 142.797C170.708 142.568 170.906 142.216 170.906 141.742C170.906 141.383 170.747 141.109 170.429 140.922C170.226 140.807 169.825 140.674 169.226 140.523L168.109 140.242C167.395 140.065 166.869 139.867 166.531 139.648C165.926 139.268 165.624 138.742 165.624 138.07C165.624 137.279 165.908 136.638 166.476 136.148C167.049 135.659 167.817 135.414 168.781 135.414C170.041 135.414 170.95 135.784 171.507 136.523C171.856 136.992 172.025 137.497 172.015 138.039H170.687C170.661 137.721 170.549 137.432 170.351 137.172C170.028 136.802 169.468 136.617 168.671 136.617C168.14 136.617 167.736 136.719 167.46 136.922C167.189 137.125 167.054 137.393 167.054 137.727C167.054 138.091 167.234 138.383 167.593 138.602C167.801 138.732 168.109 138.846 168.515 138.945L169.445 139.172C170.455 139.417 171.132 139.654 171.476 139.883C172.023 140.242 172.296 140.807 172.296 141.578C172.296 142.323 172.012 142.966 171.445 143.508C170.882 144.049 170.023 144.32 168.867 144.32C167.622 144.32 166.739 144.039 166.218 143.477C165.702 142.909 165.426 142.208 165.39 141.375H166.742ZM174.582 141.375C174.623 141.844 174.74 142.203 174.933 142.453C175.287 142.906 175.902 143.133 176.777 143.133C177.298 143.133 177.756 143.021 178.152 142.797C178.548 142.568 178.746 142.216 178.746 141.742C178.746 141.383 178.587 141.109 178.269 140.922C178.066 140.807 177.665 140.674 177.066 140.523L175.949 140.242C175.235 140.065 174.709 139.867 174.371 139.648C173.766 139.268 173.464 138.742 173.464 138.07C173.464 137.279 173.748 136.638 174.316 136.148C174.889 135.659 175.657 135.414 176.621 135.414C177.881 135.414 178.79 135.784 179.347 136.523C179.696 136.992 179.865 137.497 179.855 138.039H178.527C178.501 137.721 178.389 137.432 178.191 137.172C177.868 136.802 177.308 136.617 176.511 136.617C175.98 136.617 175.576 136.719 175.3 136.922C175.029 137.125 174.894 137.393 174.894 137.727C174.894 138.091 175.074 138.383 175.433 138.602C175.641 138.732 175.949 138.846 176.355 138.945L177.285 139.172C178.295 139.417 178.972 139.654 179.316 139.883C179.863 140.242 180.136 140.807 180.136 141.578C180.136 142.323 179.852 142.966 179.285 143.508C178.722 144.049 177.863 144.32 176.707 144.32C175.462 144.32 174.579 144.039 174.058 143.477C173.542 142.909 173.266 142.208 173.23 141.375H174.582ZM181.586 135.672H183.015V144H181.586V135.672ZM181.586 132.523H183.015V134.117H181.586V132.523ZM184.879 132.484H186.246V136.648C186.553 136.247 186.92 135.943 187.348 135.734C187.775 135.521 188.238 135.414 188.738 135.414C189.78 135.414 190.624 135.773 191.269 136.492C191.92 137.206 192.246 138.26 192.246 139.656C192.246 140.979 191.926 142.078 191.285 142.953C190.644 143.828 189.756 144.266 188.621 144.266C187.986 144.266 187.449 144.112 187.012 143.805C186.751 143.622 186.473 143.331 186.176 142.93V144H184.879V132.484ZM188.535 143.023C189.295 143.023 189.863 142.721 190.238 142.117C190.618 141.513 190.808 140.716 190.808 139.727C190.808 138.846 190.618 138.117 190.238 137.539C189.863 136.961 189.308 136.672 188.574 136.672C187.933 136.672 187.371 136.909 186.887 137.383C186.407 137.857 186.168 138.638 186.168 139.727C186.168 140.513 186.267 141.151 186.465 141.641C186.834 142.562 187.525 143.023 188.535 143.023ZM193.773 132.523H195.18V144H193.773V132.523ZM200.621 135.445C201.215 135.445 201.791 135.586 202.348 135.867C202.905 136.143 203.33 136.503 203.621 136.945C203.902 137.367 204.09 137.859 204.184 138.422C204.267 138.807 204.309 139.422 204.309 140.266H198.176C198.202 141.115 198.402 141.797 198.777 142.312C199.152 142.823 199.733 143.078 200.52 143.078C201.254 143.078 201.84 142.836 202.277 142.352C202.527 142.07 202.705 141.745 202.809 141.375H204.192C204.155 141.682 204.033 142.026 203.824 142.406C203.621 142.781 203.392 143.089 203.137 143.328C202.71 143.745 202.181 144.026 201.551 144.172C201.212 144.255 200.83 144.297 200.402 144.297C199.361 144.297 198.478 143.919 197.754 143.164C197.03 142.404 196.668 141.341 196.668 139.977C196.668 138.633 197.033 137.542 197.762 136.703C198.491 135.865 199.444 135.445 200.621 135.445ZM202.863 139.148C202.806 138.539 202.673 138.052 202.465 137.688C202.08 137.01 201.436 136.672 200.535 136.672C199.889 136.672 199.348 136.906 198.91 137.375C198.473 137.839 198.241 138.43 198.215 139.148H202.863ZM28.5625 161.055C29.2188 161.055 29.763 160.781 30.1953 160.234C30.6328 159.682 30.8516 158.859 30.8516 157.766C30.8516 157.099 30.7552 156.526 30.5625 156.047C30.1979 155.125 29.5312 154.664 28.5625 154.664C27.5885 154.664 26.9219 155.151 26.5625 156.125C26.3698 156.646 26.2734 157.307 26.2734 158.109C26.2734 158.755 26.3698 159.305 26.5625 159.758C26.9271 160.622 27.5938 161.055 28.5625 161.055ZM24.9219 153.672H26.2891V154.781C26.5703 154.401 26.8776 154.107 27.2109 153.898C27.6849 153.586 28.2422 153.43 28.8828 153.43C29.8307 153.43 30.6354 153.794 31.2969 154.523C31.9583 155.247 32.2891 156.284 32.2891 157.633C32.2891 159.456 31.8125 160.758 30.8594 161.539C30.2552 162.034 29.5521 162.281 28.75 162.281C28.1198 162.281 27.5911 162.143 27.1641 161.867C26.9141 161.711 26.6354 161.443 26.3281 161.062V165.336H24.9219V153.672ZM33.8166 153.633H35.1525V155.078C35.2619 154.797 35.5301 154.456 35.9572 154.055C36.3843 153.648 36.8765 153.445 37.4338 153.445C37.4598 153.445 37.5041 153.448 37.5666 153.453C37.6291 153.458 37.7358 153.469 37.8869 153.484V154.969C37.8035 154.953 37.7254 154.943 37.6525 154.938C37.5848 154.932 37.5093 154.93 37.4259 154.93C36.7176 154.93 36.1733 155.159 35.7931 155.617C35.4129 156.07 35.2228 156.594 35.2228 157.188V162H33.8166V153.633ZM38.9456 153.672H40.3753V162H38.9456V153.672ZM38.9456 150.523H40.3753V152.117H38.9456V150.523ZM45.5747 153.391C46.5174 153.391 47.283 153.62 47.8716 154.078C48.4653 154.536 48.8221 155.326 48.9419 156.445H47.5747C47.4914 155.93 47.3013 155.503 47.0044 155.164C46.7075 154.82 46.2309 154.648 45.5747 154.648C44.6789 154.648 44.0382 155.086 43.6528 155.961C43.4028 156.529 43.2778 157.229 43.2778 158.062C43.2778 158.901 43.4549 159.607 43.8091 160.18C44.1632 160.753 44.7205 161.039 45.4809 161.039C46.0643 161.039 46.5252 160.862 46.8638 160.508C47.2075 160.148 47.4445 159.659 47.5747 159.039H48.9419C48.7856 160.148 48.395 160.961 47.77 161.477C47.145 161.987 46.3455 162.242 45.3716 162.242C44.2778 162.242 43.4054 161.844 42.7544 161.047C42.1033 160.245 41.7778 159.245 41.7778 158.047C41.7778 156.578 42.1346 155.435 42.8481 154.617C43.5617 153.799 44.4705 153.391 45.5747 153.391ZM53.6725 153.445C54.2663 153.445 54.8418 153.586 55.3991 153.867C55.9564 154.143 56.3808 154.503 56.6725 154.945C56.9538 155.367 57.1413 155.859 57.235 156.422C57.3183 156.807 57.36 157.422 57.36 158.266H51.2272C51.2532 159.115 51.4538 159.797 51.8288 160.312C52.2038 160.823 52.7845 161.078 53.5709 161.078C54.3053 161.078 54.8913 160.836 55.3288 160.352C55.5788 160.07 55.7558 159.745 55.86 159.375H57.2428C57.2064 159.682 57.084 160.026 56.8756 160.406C56.6725 160.781 56.4433 161.089 56.1881 161.328C55.761 161.745 55.2324 162.026 54.6022 162.172C54.2636 162.255 53.8808 162.297 53.4538 162.297C52.4121 162.297 51.5293 161.919 50.8053 161.164C50.0814 160.404 49.7194 159.341 49.7194 157.977C49.7194 156.633 50.084 155.542 50.8131 154.703C51.5423 153.865 52.4954 153.445 53.6725 153.445ZM55.9147 157.148C55.8574 156.539 55.7246 156.052 55.5163 155.688C55.1308 155.01 54.4876 154.672 53.5866 154.672C52.9407 154.672 52.3991 154.906 51.9616 155.375C51.5241 155.839 51.2923 156.43 51.2663 157.148H55.9147Z" fill="#373737"/>
</svg>
