<svg width="270" height="205" viewBox="0 0 270 205" fill="none" xmlns="http://www.w3.org/2000/svg">
<rect width="270" height="205" rx="24" fill="#F5F5F5"/>
<path d="M44 44.0001C42.1667 44.0001 40.5972 43.3473 39.2917 42.0417C37.9861 40.7362 37.3333 39.1667 37.3333 37.3334C37.3333 35.5001 37.9861 33.9306 39.2917 32.6251C40.5972 31.3195 42.1667 30.6667 44 30.6667C45.8333 30.6667 47.4028 31.3195 48.7083 32.6251C50.0139 33.9306 50.6667 35.5001 50.6667 37.3334C50.6667 39.1667 50.0139 40.7362 48.7083 42.0417C47.4028 43.3473 45.8333 44.0001 44 44.0001ZM30.6667 57.3334V52.6667C30.6667 51.7223 30.9097 50.8542 31.3958 50.0626C31.8819 49.2709 32.5278 48.6667 33.3333 48.2501C35.0555 47.389 36.8055 46.7431 38.5833 46.3126C40.3611 45.882 42.1667 45.6667 44 45.6667C45.8333 45.6667 47.6389 45.882 49.4167 46.3126C51.1944 46.7431 52.9444 47.389 54.6667 48.2501C55.4722 48.6667 56.118 49.2709 56.6042 50.0626C57.0903 50.8542 57.3333 51.7223 57.3333 52.6667V57.3334H30.6667ZM34 54.0001H54V52.6667C54 52.3612 53.9236 52.0834 53.7708 51.8334C53.618 51.5834 53.4167 51.389 53.1667 51.2501C51.6667 50.5001 50.1528 49.9376 48.625 49.5626C47.0972 49.1876 45.5555 49.0001 44 49.0001C42.4444 49.0001 40.9028 49.1876 39.375 49.5626C37.8472 49.9376 36.3333 50.5001 34.8333 51.2501C34.5833 51.389 34.3819 51.5834 34.2292 51.8334C34.0764 52.0834 34 52.3612 34 52.6667V54.0001ZM44 40.6667C44.9167 40.6667 45.7014 40.3404 46.3542 39.6876C47.0069 39.0348 47.3333 38.2501 47.3333 37.3334C47.3333 36.4167 47.0069 35.632 46.3542 34.9792C45.7014 34.3265 44.9167 34.0001 44 34.0001C43.0833 34.0001 42.2986 34.3265 41.6458 34.9792C40.993 35.632 40.6667 36.4167 40.6667 37.3334C40.6667 38.2501 40.993 39.0348 41.6458 39.6876C42.2986 40.3404 43.0833 40.6667 44 40.6667Z" fill="#49454F"/>
<path d="M33.6289 80.1855C33.6289 79.4368 33.4303 78.903 33.0332 78.584C32.6426 78.265 32.0924 78.1055 31.3828 78.1055H28.5801V82.3438H31.3828C32.0924 82.3438 32.6426 82.1712 33.0332 81.8262C33.4303 81.4811 33.6289 80.9342 33.6289 80.1855ZM36.6074 80.166C36.6074 81.8652 36.1777 83.0664 35.3184 83.7695C34.459 84.4727 33.2318 84.8242 31.6367 84.8242H28.5801V90H25.5918V75.6055H31.8613C33.3066 75.6055 34.459 75.9766 35.3184 76.7188C36.1777 77.4609 36.6074 78.61 36.6074 80.166ZM42.6379 81.3672C41.9934 81.3672 41.4921 81.569 41.134 81.9727C40.7824 82.3763 40.5611 82.9232 40.4699 83.6133H44.7961C44.7505 82.8776 44.5259 82.321 44.1223 81.9434C43.7251 81.5592 43.2303 81.3672 42.6379 81.3672ZM42.6379 79.0723C43.5233 79.0723 44.3208 79.2383 45.0305 79.5703C45.7401 79.9023 46.326 80.4264 46.7883 81.1426C47.2049 81.7741 47.4751 82.5065 47.5988 83.3398C47.6704 83.8281 47.6997 84.5312 47.6867 85.4492H40.4016C40.4406 86.5169 40.7759 87.2656 41.4074 87.6953C41.7915 87.9622 42.2538 88.0957 42.7941 88.0957C43.3671 88.0957 43.8326 87.9329 44.1906 87.6074C44.3859 87.4316 44.5585 87.1875 44.7082 86.875H47.55C47.4784 87.5065 47.1496 88.1478 46.5637 88.7988C45.6522 89.834 44.3762 90.3516 42.7355 90.3516C41.3814 90.3516 40.1867 89.9154 39.1516 89.043C38.1164 88.1706 37.5988 86.7513 37.5988 84.7852C37.5988 82.9427 38.0643 81.5299 38.9953 80.5469C39.9328 79.5638 41.147 79.0723 42.6379 79.0723ZM55.1527 79.1016C55.2048 79.1016 55.2471 79.1048 55.2797 79.1113C55.3188 79.1113 55.4001 79.1146 55.5238 79.1211V81.9727C55.348 81.9531 55.1918 81.9401 55.0551 81.9336C54.9184 81.9271 54.8077 81.9238 54.723 81.9238C53.6033 81.9238 52.8513 82.2884 52.4672 83.0176C52.2523 83.4277 52.1449 84.0592 52.1449 84.9121V90H49.3422V79.3555H51.9984V81.2109C52.4281 80.5013 52.8025 80.0163 53.1215 79.7559C53.6423 79.3197 54.3194 79.1016 55.1527 79.1016ZM59.1324 86.6016C59.191 87.0964 59.318 87.4479 59.5133 87.6562C59.8583 88.0273 60.4964 88.2129 61.4273 88.2129C61.9742 88.2129 62.4072 88.1315 62.7262 87.9688C63.0517 87.806 63.2145 87.5618 63.2145 87.2363C63.2145 86.9238 63.0842 86.6862 62.8238 86.5234C62.5634 86.3607 61.5966 86.0807 59.9234 85.6836C58.719 85.3841 57.8694 85.0098 57.3746 84.5605C56.8798 84.1178 56.6324 83.4798 56.6324 82.6465C56.6324 81.6634 57.0165 80.8203 57.7848 80.1172C58.5595 79.4076 59.6467 79.0527 61.0465 79.0527C62.3746 79.0527 63.4553 79.3197 64.2887 79.8535C65.1285 80.3809 65.6103 81.2956 65.734 82.5977H62.9508C62.9117 82.2396 62.8108 81.9564 62.648 81.748C62.3421 81.3704 61.8212 81.1816 61.0855 81.1816C60.4801 81.1816 60.0471 81.276 59.7867 81.4648C59.5328 81.6536 59.4059 81.875 59.4059 82.1289C59.4059 82.4479 59.5426 82.679 59.816 82.8223C60.0895 82.972 61.0562 83.2292 62.7164 83.5938C63.8232 83.8542 64.6533 84.248 65.2066 84.7754C65.7535 85.3092 66.027 85.9766 66.027 86.7773C66.027 87.832 65.6331 88.6947 64.8453 89.3652C64.0641 90.0293 62.8531 90.3613 61.2125 90.3613C59.5393 90.3613 58.3023 90.0098 57.5016 89.3066C56.7073 88.597 56.3102 87.6953 56.3102 86.6016H59.1324ZM72.6727 88.0371C73.4865 88.0371 74.1115 87.7474 74.5477 87.168C74.9839 86.5885 75.202 85.765 75.202 84.6973C75.202 83.6296 74.9839 82.8092 74.5477 82.2363C74.1115 81.6569 73.4865 81.3672 72.6727 81.3672C71.8589 81.3672 71.2306 81.6569 70.7879 82.2363C70.3517 82.8092 70.1336 83.6296 70.1336 84.6973C70.1336 85.765 70.3517 86.5885 70.7879 87.168C71.2306 87.7474 71.8589 88.0371 72.6727 88.0371ZM78.1219 84.6973C78.1219 86.2598 77.6727 87.5977 76.7742 88.7109C75.8758 89.8177 74.5118 90.3711 72.6824 90.3711C70.853 90.3711 69.4891 89.8177 68.5906 88.7109C67.6922 87.5977 67.243 86.2598 67.243 84.6973C67.243 83.1608 67.6922 81.8294 68.5906 80.7031C69.4891 79.5768 70.853 79.0137 72.6824 79.0137C74.5118 79.0137 75.8758 79.5768 76.7742 80.7031C77.6727 81.8294 78.1219 83.1608 78.1219 84.6973ZM85.8223 79.1016C86.9225 79.1016 87.821 79.3913 88.5176 79.9707C89.2207 80.5436 89.5723 81.4974 89.5723 82.832V90H86.7207V83.5254C86.7207 82.9655 86.6458 82.5358 86.4961 82.2363C86.2227 81.6895 85.7018 81.416 84.9336 81.416C83.9896 81.416 83.3418 81.8164 82.9902 82.6172C82.8079 83.0404 82.7168 83.5807 82.7168 84.2383V90H79.9434V79.375H82.6289V80.9277C82.987 80.3809 83.3255 79.987 83.6445 79.7461C84.2174 79.3164 84.9434 79.1016 85.8223 79.1016ZM97.8195 84.8242C97.6438 84.9349 97.4647 85.026 97.2824 85.0977C97.1066 85.1628 96.8625 85.2246 96.55 85.2832L95.925 85.4004C95.3391 85.5046 94.9191 85.6315 94.6652 85.7812C94.2355 86.0352 94.0207 86.429 94.0207 86.9629C94.0207 87.4382 94.1509 87.7832 94.4113 87.998C94.6783 88.2064 95.0005 88.3105 95.3781 88.3105C95.9771 88.3105 96.5272 88.1348 97.0285 87.7832C97.5363 87.4316 97.8 86.7904 97.8195 85.8594V84.8242ZM96.1301 83.5254C96.6444 83.4603 97.0122 83.3789 97.2336 83.2812C97.6307 83.112 97.8293 82.8483 97.8293 82.4902C97.8293 82.054 97.6763 81.7546 97.3703 81.5918C97.0708 81.4225 96.6281 81.3379 96.0422 81.3379C95.3846 81.3379 94.9191 81.5007 94.6457 81.8262C94.4504 82.0671 94.3202 82.3926 94.2551 82.8027H91.5695C91.6281 81.8717 91.8885 81.1068 92.3508 80.5078C93.0865 79.5703 94.3495 79.1016 96.1398 79.1016C97.3052 79.1016 98.3404 79.3327 99.2453 79.7949C100.15 80.2572 100.603 81.1296 100.603 82.4121V87.2949C100.603 87.6335 100.609 88.0436 100.622 88.5254C100.642 88.89 100.697 89.1374 100.788 89.2676C100.879 89.3978 101.016 89.5052 101.198 89.5898V90H98.1711C98.0865 89.7852 98.0279 89.5833 97.9953 89.3945C97.9628 89.2057 97.9367 88.9909 97.9172 88.75C97.5331 89.1667 97.0904 89.5215 96.5891 89.8145C95.9901 90.1595 95.313 90.332 94.5578 90.332C93.5943 90.332 92.7967 90.0586 92.1652 89.5117C91.5402 88.9583 91.2277 88.1771 91.2277 87.168C91.2277 85.8594 91.7323 84.9121 92.7414 84.3262C93.2948 84.0072 94.1086 83.7793 95.1828 83.6426L96.1301 83.5254ZM105.725 90H102.942V75.6055H105.725V90ZM111.111 78.0859H108.289V75.5176H111.111V78.0859ZM108.289 79.3555H111.111V90H108.289V79.3555ZM113.011 81.6211V79.3555H121.643V81.6699L116.243 87.7148H121.829V90H112.639V87.832L118.098 81.6211H113.011ZM127.615 81.3672C126.971 81.3672 126.469 81.569 126.111 81.9727C125.76 82.3763 125.538 82.9232 125.447 83.6133H129.773C129.728 82.8776 129.503 82.321 129.1 81.9434C128.702 81.5592 128.208 81.3672 127.615 81.3672ZM127.615 79.0723C128.501 79.0723 129.298 79.2383 130.008 79.5703C130.717 79.9023 131.303 80.4264 131.766 81.1426C132.182 81.7741 132.452 82.5065 132.576 83.3398C132.648 83.8281 132.677 84.5312 132.664 85.4492H125.379C125.418 86.5169 125.753 87.2656 126.385 87.6953C126.769 87.9622 127.231 88.0957 127.771 88.0957C128.344 88.0957 128.81 87.9329 129.168 87.6074C129.363 87.4316 129.536 87.1875 129.686 86.875H132.527C132.456 87.5065 132.127 88.1478 131.541 88.7988C130.63 89.834 129.354 90.3516 127.713 90.3516C126.359 90.3516 125.164 89.9154 124.129 89.043C123.094 88.1706 122.576 86.7513 122.576 84.7852C122.576 82.9427 123.042 81.5299 123.973 80.5469C124.91 79.5638 126.124 79.0723 127.615 79.0723ZM138.275 79.1016C138.919 79.1016 139.492 79.2448 139.993 79.5312C140.495 79.8112 140.902 80.2018 141.214 80.7031V75.625H144.036V90H141.331V88.5254C140.934 89.1569 140.482 89.6159 139.974 89.9023C139.466 90.1888 138.835 90.332 138.079 90.332C136.836 90.332 135.788 89.8307 134.935 88.8281C134.088 87.819 133.665 86.5267 133.665 84.9512C133.665 83.1348 134.082 81.7057 134.915 80.6641C135.755 79.6224 136.875 79.1016 138.275 79.1016ZM138.88 87.9883C139.668 87.9883 140.267 87.6953 140.677 87.1094C141.087 86.5234 141.292 85.765 141.292 84.834C141.292 83.5319 140.963 82.6009 140.306 82.041C139.902 81.7025 139.433 81.5332 138.9 81.5332C138.086 81.5332 137.487 81.8424 137.103 82.4609C136.725 83.0729 136.536 83.8346 136.536 84.7461C136.536 85.7292 136.728 86.5169 137.113 87.1094C137.503 87.6953 138.092 87.9883 138.88 87.9883Z" fill="#373737"/>
<path d="M30.5547 119.781C31.2839 119.781 31.8594 119.635 32.2812 119.344C32.7083 119.052 32.9219 118.526 32.9219 117.766C32.9219 116.948 32.625 116.391 32.0312 116.094C31.7135 115.938 31.2891 115.859 30.7578 115.859H26.9609V119.781H30.5547ZM25.4062 114.523H30.7188C31.5938 114.523 32.3151 114.651 32.8828 114.906C33.9609 115.396 34.5 116.299 34.5 117.617C34.5 118.305 34.3568 118.867 34.0703 119.305C33.7891 119.742 33.3932 120.094 32.8828 120.359C33.3307 120.542 33.6667 120.781 33.8906 121.078C34.1198 121.375 34.2474 121.857 34.2734 122.523L34.3281 124.062C34.3438 124.5 34.3802 124.826 34.4375 125.039C34.5312 125.404 34.6979 125.638 34.9375 125.742V126H33.0312C32.9792 125.901 32.9375 125.773 32.9062 125.617C32.875 125.461 32.849 125.159 32.8281 124.711L32.7344 122.797C32.6979 122.047 32.4193 121.544 31.8984 121.289C31.6016 121.148 31.1354 121.078 30.5 121.078H26.9609V126H25.4062V114.523ZM39.9181 117.445C40.5119 117.445 41.0874 117.586 41.6447 117.867C42.202 118.143 42.6265 118.503 42.9181 118.945C43.1994 119.367 43.3869 119.859 43.4806 120.422C43.564 120.807 43.6056 121.422 43.6056 122.266H37.4728C37.4989 123.115 37.6994 123.797 38.0744 124.312C38.4494 124.823 39.0301 125.078 39.8166 125.078C40.5509 125.078 41.1369 124.836 41.5744 124.352C41.8244 124.07 42.0015 123.745 42.1056 123.375H43.4884C43.452 123.682 43.3296 124.026 43.1213 124.406C42.9181 124.781 42.689 125.089 42.4338 125.328C42.0067 125.745 41.478 126.026 40.8478 126.172C40.5093 126.255 40.1265 126.297 39.6994 126.297C38.6577 126.297 37.7749 125.919 37.0509 125.164C36.327 124.404 35.965 123.341 35.965 121.977C35.965 120.633 36.3296 119.542 37.0588 118.703C37.7879 117.865 38.741 117.445 39.9181 117.445ZM42.1603 121.148C42.103 120.539 41.9702 120.052 41.7619 119.688C41.3765 119.01 40.7332 118.672 39.8322 118.672C39.1864 118.672 38.6447 118.906 38.2072 119.375C37.7697 119.839 37.5379 120.43 37.5119 121.148H42.1603ZM45.5159 114.523H53.4769V115.93H47.0706V119.414H52.7034V120.781H47.0706V126H45.5159V114.523ZM54.8403 114.523H56.2466V126H54.8403V114.523ZM61.6881 117.445C62.2819 117.445 62.8574 117.586 63.4147 117.867C63.972 118.143 64.3965 118.503 64.6881 118.945C64.9694 119.367 65.1569 119.859 65.2506 120.422C65.334 120.807 65.3756 121.422 65.3756 122.266H59.2428C59.2689 123.115 59.4694 123.797 59.8444 124.312C60.2194 124.823 60.8001 125.078 61.5866 125.078C62.3209 125.078 62.9069 124.836 63.3444 124.352C63.5944 124.07 63.7715 123.745 63.8756 123.375H65.2584C65.222 123.682 65.0996 124.026 64.8913 124.406C64.6881 124.781 64.459 125.089 64.2038 125.328C63.7767 125.745 63.248 126.026 62.6178 126.172C62.2793 126.255 61.8965 126.297 61.4694 126.297C60.4277 126.297 59.5449 125.919 58.8209 125.164C58.097 124.404 57.735 123.341 57.735 121.977C57.735 120.633 58.0996 119.542 58.8288 118.703C59.5579 117.865 60.511 117.445 61.6881 117.445ZM63.9303 121.148C63.873 120.539 63.7402 120.052 63.5319 119.688C63.1465 119.01 62.5032 118.672 61.6022 118.672C60.9564 118.672 60.4147 118.906 59.9772 119.375C59.5397 119.839 59.3079 120.43 59.2819 121.148H63.9303ZM66.1531 117.633H67.9734L69.8953 120.578L71.8406 117.633L73.5516 117.672L70.7313 121.711L73.6766 126H71.8797L69.8016 122.859L67.7859 126H66.0047L68.95 121.711L66.1531 117.633ZM79.9191 123.375C79.9607 123.844 80.0779 124.203 80.2706 124.453C80.6248 124.906 81.2394 125.133 82.1144 125.133C82.6352 125.133 83.0935 125.021 83.4894 124.797C83.8852 124.568 84.0831 124.216 84.0831 123.742C84.0831 123.383 83.9243 123.109 83.6066 122.922C83.4034 122.807 83.0024 122.674 82.4034 122.523L81.2863 122.242C80.5727 122.065 80.0467 121.867 79.7081 121.648C79.104 121.268 78.8019 120.742 78.8019 120.07C78.8019 119.279 79.0857 118.638 79.6534 118.148C80.2264 117.659 80.9946 117.414 81.9581 117.414C83.2185 117.414 84.1274 117.784 84.6847 118.523C85.0336 118.992 85.2029 119.497 85.1925 120.039H83.8644C83.8383 119.721 83.7264 119.432 83.5284 119.172C83.2055 118.802 82.6456 118.617 81.8488 118.617C81.3175 118.617 80.9139 118.719 80.6378 118.922C80.367 119.125 80.2316 119.393 80.2316 119.727C80.2316 120.091 80.4113 120.383 80.7706 120.602C80.979 120.732 81.2863 120.846 81.6925 120.945L82.6222 121.172C83.6326 121.417 84.3097 121.654 84.6534 121.883C85.2003 122.242 85.4738 122.807 85.4738 123.578C85.4738 124.323 85.1899 124.966 84.6222 125.508C84.0597 126.049 83.2003 126.32 82.0441 126.32C80.7993 126.32 79.9165 126.039 79.3956 125.477C78.88 124.909 78.604 124.208 78.5675 123.375H79.9191ZM90.4075 117.445C91.0013 117.445 91.5768 117.586 92.1341 117.867C92.6914 118.143 93.1158 118.503 93.4075 118.945C93.6888 119.367 93.8763 119.859 93.97 120.422C94.0533 120.807 94.095 121.422 94.095 122.266H87.9622C87.9882 123.115 88.1888 123.797 88.5638 124.312C88.9388 124.823 89.5195 125.078 90.3059 125.078C91.0403 125.078 91.6263 124.836 92.0638 124.352C92.3138 124.07 92.4908 123.745 92.595 123.375H93.9778C93.9414 123.682 93.819 124.026 93.6106 124.406C93.4075 124.781 93.1783 125.089 92.9231 125.328C92.496 125.745 91.9674 126.026 91.3372 126.172C90.9986 126.255 90.6158 126.297 90.1888 126.297C89.1471 126.297 88.2643 125.919 87.5403 125.164C86.8164 124.404 86.4544 123.341 86.4544 121.977C86.4544 120.633 86.819 119.542 87.5481 118.703C88.2773 117.865 89.2304 117.445 90.4075 117.445ZM92.6497 121.148C92.5924 120.539 92.4596 120.052 92.2513 119.688C91.8658 119.01 91.2226 118.672 90.3216 118.672C89.6757 118.672 89.1341 118.906 88.6966 119.375C88.2591 119.839 88.0273 120.43 88.0013 121.148H92.6497ZM96.7475 123.773C96.7475 124.18 96.8959 124.5 97.1928 124.734C97.4897 124.969 97.8412 125.086 98.2475 125.086C98.7423 125.086 99.2215 124.971 99.685 124.742C100.466 124.362 100.857 123.74 100.857 122.875V121.742C100.685 121.852 100.464 121.943 100.193 122.016C99.922 122.089 99.6564 122.141 99.3959 122.172L98.5444 122.281C98.034 122.349 97.6511 122.456 97.3959 122.602C96.9636 122.846 96.7475 123.237 96.7475 123.773ZM100.154 120.93C100.477 120.888 100.693 120.753 100.802 120.523C100.865 120.398 100.896 120.219 100.896 119.984C100.896 119.505 100.724 119.159 100.38 118.945C100.042 118.727 99.5548 118.617 98.9194 118.617C98.185 118.617 97.6642 118.815 97.3569 119.211C97.185 119.43 97.073 119.755 97.0209 120.188H95.7084C95.7345 119.156 96.0678 118.44 96.7084 118.039C97.3543 117.633 98.1017 117.43 98.9506 117.43C99.935 117.43 100.734 117.617 101.349 117.992C101.958 118.367 102.263 118.951 102.263 119.742V124.562C102.263 124.708 102.292 124.826 102.349 124.914C102.412 125.003 102.539 125.047 102.732 125.047C102.794 125.047 102.865 125.044 102.943 125.039C103.021 125.029 103.104 125.016 103.193 125V126.039C102.974 126.102 102.807 126.141 102.693 126.156C102.578 126.172 102.422 126.18 102.224 126.18C101.74 126.18 101.388 126.008 101.169 125.664C101.055 125.482 100.974 125.224 100.927 124.891C100.641 125.266 100.229 125.591 99.6928 125.867C99.1564 126.143 98.5652 126.281 97.9194 126.281C97.1433 126.281 96.5079 126.047 96.0131 125.578C95.5235 125.104 95.2787 124.513 95.2787 123.805C95.2787 123.029 95.5209 122.427 96.0053 122C96.4897 121.573 97.1251 121.31 97.9116 121.211L100.154 120.93ZM104.416 117.633H105.806V118.82C106.14 118.409 106.442 118.109 106.713 117.922C107.176 117.604 107.702 117.445 108.291 117.445C108.957 117.445 109.494 117.609 109.9 117.938C110.129 118.125 110.338 118.401 110.525 118.766C110.838 118.318 111.205 117.987 111.627 117.773C112.048 117.555 112.522 117.445 113.048 117.445C114.173 117.445 114.939 117.852 115.345 118.664C115.564 119.102 115.673 119.69 115.673 120.43V126H114.213V120.188C114.213 119.63 114.072 119.247 113.791 119.039C113.515 118.831 113.176 118.727 112.775 118.727C112.223 118.727 111.746 118.911 111.345 119.281C110.949 119.651 110.752 120.268 110.752 121.133V126H109.322V120.539C109.322 119.971 109.254 119.557 109.119 119.297C108.905 118.906 108.507 118.711 107.923 118.711C107.392 118.711 106.908 118.917 106.47 119.328C106.038 119.74 105.822 120.484 105.822 121.562V126H104.416V117.633ZM117.623 114.523H119.029V126H117.623V114.523ZM124.471 117.445C125.064 117.445 125.64 117.586 126.197 117.867C126.754 118.143 127.179 118.503 127.471 118.945C127.752 119.367 127.939 119.859 128.033 120.422C128.116 120.807 128.158 121.422 128.158 122.266H122.025C122.051 123.115 122.252 123.797 122.627 124.312C123.002 124.823 123.583 125.078 124.369 125.078C125.103 125.078 125.689 124.836 126.127 124.352C126.377 124.07 126.554 123.745 126.658 123.375H128.041C128.004 123.682 127.882 124.026 127.674 124.406C127.471 124.781 127.241 125.089 126.986 125.328C126.559 125.745 126.031 126.026 125.4 126.172C125.062 126.255 124.679 126.297 124.252 126.297C123.21 126.297 122.327 125.919 121.603 125.164C120.879 124.404 120.518 123.341 120.518 121.977C120.518 120.633 120.882 119.542 121.611 118.703C122.34 117.865 123.294 117.445 124.471 117.445ZM126.713 121.148C126.656 120.539 126.523 120.052 126.314 119.688C125.929 119.01 125.286 118.672 124.385 118.672C123.739 118.672 123.197 118.906 122.76 119.375C122.322 119.839 122.09 120.43 122.064 121.148H126.713ZM130.568 123.375C130.61 123.844 130.727 124.203 130.92 124.453C131.274 124.906 131.889 125.133 132.764 125.133C133.285 125.133 133.743 125.021 134.139 124.797C134.535 124.568 134.732 124.216 134.732 123.742C134.732 123.383 134.574 123.109 134.256 122.922C134.053 122.807 133.652 122.674 133.053 122.523L131.936 122.242C131.222 122.065 130.696 121.867 130.357 121.648C129.753 121.268 129.451 120.742 129.451 120.07C129.451 119.279 129.735 118.638 130.303 118.148C130.876 117.659 131.644 117.414 132.607 117.414C133.868 117.414 134.777 117.784 135.334 118.523C135.683 118.992 135.852 119.497 135.842 120.039H134.514C134.488 119.721 134.376 119.432 134.178 119.172C133.855 118.802 133.295 118.617 132.498 118.617C131.967 118.617 131.563 118.719 131.287 118.922C131.016 119.125 130.881 119.393 130.881 119.727C130.881 120.091 131.061 120.383 131.42 120.602C131.628 120.732 131.936 120.846 132.342 120.945L133.272 121.172C134.282 121.417 134.959 121.654 135.303 121.883C135.85 122.242 136.123 122.807 136.123 123.578C136.123 124.323 135.839 124.966 135.272 125.508C134.709 126.049 133.85 126.32 132.693 126.32C131.449 126.32 130.566 126.039 130.045 125.477C129.529 124.909 129.253 124.208 129.217 123.375H130.568ZM138.408 123.375C138.45 123.844 138.567 124.203 138.76 124.453C139.114 124.906 139.729 125.133 140.604 125.133C141.125 125.133 141.583 125.021 141.979 124.797C142.375 124.568 142.573 124.216 142.573 123.742C142.573 123.383 142.414 123.109 142.096 122.922C141.893 122.807 141.492 122.674 140.893 122.523L139.776 122.242C139.062 122.065 138.536 121.867 138.198 121.648C137.593 121.268 137.291 120.742 137.291 120.07C137.291 119.279 137.575 118.638 138.143 118.148C138.716 117.659 139.484 117.414 140.448 117.414C141.708 117.414 142.617 117.784 143.174 118.523C143.523 118.992 143.692 119.497 143.682 120.039H142.354C142.328 119.721 142.216 119.432 142.018 119.172C141.695 118.802 141.135 118.617 140.338 118.617C139.807 118.617 139.403 118.719 139.127 118.922C138.856 119.125 138.721 119.393 138.721 119.727C138.721 120.091 138.901 120.383 139.26 120.602C139.468 120.732 139.776 120.846 140.182 120.945L141.112 121.172C142.122 121.417 142.799 121.654 143.143 121.883C143.69 122.242 143.963 122.807 143.963 123.578C143.963 124.323 143.679 124.966 143.112 125.508C142.549 126.049 141.69 126.32 140.533 126.32C139.289 126.32 138.406 126.039 137.885 125.477C137.369 124.909 137.093 124.208 137.057 123.375H138.408ZM145.452 114.523H146.858V126H145.452V114.523ZM154.042 117.633H155.596C155.398 118.169 154.958 119.393 154.276 121.305C153.766 122.742 153.338 123.914 152.995 124.82C152.182 126.956 151.609 128.258 151.276 128.727C150.943 129.195 150.37 129.43 149.557 129.43C149.359 129.43 149.206 129.422 149.096 129.406C148.992 129.391 148.862 129.362 148.706 129.32V128.039C148.95 128.107 149.128 128.148 149.237 128.164C149.346 128.18 149.443 128.188 149.526 128.188C149.786 128.188 149.976 128.143 150.096 128.055C150.221 127.971 150.325 127.867 150.409 127.742C150.435 127.701 150.529 127.487 150.69 127.102C150.851 126.716 150.969 126.43 151.042 126.242L147.948 117.633H149.542L151.784 124.445L154.042 117.633ZM160.948 117.672H162.378V126H160.948V117.672ZM160.948 114.523H162.378V116.117H160.948V114.523ZM164.351 117.633H165.687V118.82C166.082 118.331 166.502 117.979 166.944 117.766C167.387 117.552 167.879 117.445 168.421 117.445C169.608 117.445 170.411 117.859 170.827 118.688C171.056 119.141 171.171 119.789 171.171 120.633V126H169.741V120.727C169.741 120.216 169.666 119.805 169.515 119.492C169.265 118.971 168.812 118.711 168.155 118.711C167.822 118.711 167.549 118.745 167.335 118.812C166.95 118.927 166.611 119.156 166.319 119.5C166.085 119.776 165.931 120.062 165.858 120.359C165.791 120.651 165.757 121.07 165.757 121.617V126H164.351V117.633ZM173.378 115.297H174.8V117.633H176.136V118.781H174.8V124.242C174.8 124.534 174.899 124.729 175.097 124.828C175.206 124.885 175.389 124.914 175.644 124.914C175.711 124.914 175.784 124.914 175.863 124.914C175.941 124.909 176.032 124.901 176.136 124.891V126C175.974 126.047 175.805 126.081 175.628 126.102C175.456 126.122 175.269 126.133 175.066 126.133C174.409 126.133 173.964 125.966 173.73 125.633C173.495 125.294 173.378 124.857 173.378 124.32V118.781H172.245V117.633H173.378V115.297ZM180.874 117.445C181.468 117.445 182.044 117.586 182.601 117.867C183.158 118.143 183.583 118.503 183.874 118.945C184.156 119.367 184.343 119.859 184.437 120.422C184.52 120.807 184.562 121.422 184.562 122.266H178.429C178.455 123.115 178.656 123.797 179.031 124.312C179.406 124.823 179.986 125.078 180.773 125.078C181.507 125.078 182.093 124.836 182.531 124.352C182.781 124.07 182.958 123.745 183.062 123.375H184.445C184.408 123.682 184.286 124.026 184.077 124.406C183.874 124.781 183.645 125.089 183.39 125.328C182.963 125.745 182.434 126.026 181.804 126.172C181.466 126.255 181.083 126.297 180.656 126.297C179.614 126.297 178.731 125.919 178.007 125.164C177.283 124.404 176.921 123.341 176.921 121.977C176.921 120.633 177.286 119.542 178.015 118.703C178.744 117.865 179.697 117.445 180.874 117.445ZM183.117 121.148C183.059 120.539 182.926 120.052 182.718 119.688C182.333 119.01 181.689 118.672 180.788 118.672C180.143 118.672 179.601 118.906 179.163 119.375C178.726 119.839 178.494 120.43 178.468 121.148H183.117ZM189.089 117.484C189.746 117.484 190.319 117.646 190.808 117.969C191.074 118.151 191.345 118.417 191.621 118.766V117.711H192.917V125.32C192.917 126.383 192.761 127.221 192.449 127.836C191.865 128.971 190.764 129.539 189.144 129.539C188.243 129.539 187.485 129.336 186.871 128.93C186.256 128.529 185.912 127.898 185.839 127.039H187.269C187.337 127.414 187.472 127.703 187.675 127.906C187.993 128.219 188.493 128.375 189.175 128.375C190.253 128.375 190.959 127.995 191.292 127.234C191.49 126.786 191.582 125.987 191.566 124.836C191.285 125.263 190.946 125.581 190.55 125.789C190.154 125.997 189.631 126.102 188.98 126.102C188.074 126.102 187.279 125.781 186.597 125.141C185.92 124.495 185.582 123.43 185.582 121.945C185.582 120.544 185.923 119.451 186.605 118.664C187.292 117.878 188.121 117.484 189.089 117.484ZM191.621 121.781C191.621 120.745 191.407 119.977 190.98 119.477C190.553 118.977 190.009 118.727 189.347 118.727C188.358 118.727 187.681 119.19 187.316 120.117C187.123 120.612 187.027 121.26 187.027 122.062C187.027 123.005 187.217 123.724 187.597 124.219C187.983 124.708 188.498 124.953 189.144 124.953C190.154 124.953 190.865 124.497 191.277 123.586C191.506 123.07 191.621 122.469 191.621 121.781ZM194.922 117.633H196.258V119.078C196.367 118.797 196.635 118.456 197.062 118.055C197.489 117.648 197.981 117.445 198.539 117.445C198.565 117.445 198.609 117.448 198.672 117.453C198.734 117.458 198.841 117.469 198.992 117.484V118.969C198.909 118.953 198.83 118.943 198.758 118.938C198.69 118.932 198.614 118.93 198.531 118.93C197.823 118.93 197.278 119.159 196.898 119.617C196.518 120.07 196.328 120.594 196.328 121.188V126H194.922V117.633ZM201.129 123.773C201.129 124.18 201.277 124.5 201.574 124.734C201.871 124.969 202.223 125.086 202.629 125.086C203.124 125.086 203.603 124.971 204.066 124.742C204.848 124.362 205.238 123.74 205.238 122.875V121.742C205.066 121.852 204.845 121.943 204.574 122.016C204.303 122.089 204.038 122.141 203.777 122.172L202.926 122.281C202.415 122.349 202.032 122.456 201.777 122.602C201.345 122.846 201.129 123.237 201.129 123.773ZM204.535 120.93C204.858 120.888 205.074 120.753 205.183 120.523C205.246 120.398 205.277 120.219 205.277 119.984C205.277 119.505 205.105 119.159 204.762 118.945C204.423 118.727 203.936 118.617 203.301 118.617C202.566 118.617 202.045 118.815 201.738 119.211C201.566 119.43 201.454 119.755 201.402 120.188H200.09C200.116 119.156 200.449 118.44 201.09 118.039C201.736 117.633 202.483 117.43 203.332 117.43C204.316 117.43 205.116 117.617 205.73 117.992C206.34 118.367 206.644 118.951 206.644 119.742V124.562C206.644 124.708 206.673 124.826 206.73 124.914C206.793 125.003 206.92 125.047 207.113 125.047C207.176 125.047 207.246 125.044 207.324 125.039C207.402 125.029 207.486 125.016 207.574 125V126.039C207.355 126.102 207.189 126.141 207.074 126.156C206.959 126.172 206.803 126.18 206.605 126.18C206.121 126.18 205.769 126.008 205.551 125.664C205.436 125.482 205.355 125.224 205.308 124.891C205.022 125.266 204.611 125.591 204.074 125.867C203.538 126.143 202.946 126.281 202.301 126.281C201.525 126.281 200.889 126.047 200.394 125.578C199.905 125.104 199.66 124.513 199.66 123.805C199.66 123.029 199.902 122.427 200.387 122C200.871 121.573 201.506 121.31 202.293 121.211L204.535 120.93ZM209.078 115.297H210.5V117.633H211.836V118.781H210.5V124.242C210.5 124.534 210.599 124.729 210.797 124.828C210.906 124.885 211.089 124.914 211.344 124.914C211.411 124.914 211.484 124.914 211.562 124.914C211.641 124.909 211.732 124.901 211.836 124.891V126C211.674 126.047 211.505 126.081 211.328 126.102C211.156 126.122 210.969 126.133 210.766 126.133C210.109 126.133 209.664 125.966 209.43 125.633C209.195 125.294 209.078 124.857 209.078 124.32V118.781H207.945V117.633H209.078V115.297ZM216.574 117.445C217.168 117.445 217.744 117.586 218.301 117.867C218.858 118.143 219.283 118.503 219.574 118.945C219.856 119.367 220.043 119.859 220.137 120.422C220.22 120.807 220.262 121.422 220.262 122.266H214.129C214.155 123.115 214.356 123.797 214.731 124.312C215.106 124.823 215.686 125.078 216.473 125.078C217.207 125.078 217.793 124.836 218.231 124.352C218.481 124.07 218.658 123.745 218.762 123.375H220.145C220.108 123.682 219.986 124.026 219.777 124.406C219.574 124.781 219.345 125.089 219.09 125.328C218.663 125.745 218.134 126.026 217.504 126.172C217.166 126.255 216.783 126.297 216.356 126.297C215.314 126.297 214.431 125.919 213.707 125.164C212.983 124.404 212.621 123.341 212.621 121.977C212.621 120.633 212.986 119.542 213.715 118.703C214.444 117.865 215.397 117.445 216.574 117.445ZM218.817 121.148C218.759 120.539 218.626 120.052 218.418 119.688C218.033 119.01 217.389 118.672 216.488 118.672C215.843 118.672 215.301 118.906 214.863 119.375C214.426 119.839 214.194 120.43 214.168 121.148H218.817ZM222.672 123.375C222.714 123.844 222.831 124.203 223.024 124.453C223.378 124.906 223.992 125.133 224.867 125.133C225.388 125.133 225.847 125.021 226.242 124.797C226.638 124.568 226.836 124.216 226.836 123.742C226.836 123.383 226.677 123.109 226.36 122.922C226.157 122.807 225.756 122.674 225.157 122.523L224.039 122.242C223.326 122.065 222.8 121.867 222.461 121.648C221.857 121.268 221.555 120.742 221.555 120.07C221.555 119.279 221.839 118.638 222.407 118.148C222.979 117.659 223.748 117.414 224.711 117.414C225.972 117.414 226.881 117.784 227.438 118.523C227.787 118.992 227.956 119.497 227.946 120.039H226.617C226.591 119.721 226.479 119.432 226.282 119.172C225.959 118.802 225.399 118.617 224.602 118.617C224.071 118.617 223.667 118.719 223.391 118.922C223.12 119.125 222.985 119.393 222.985 119.727C222.985 120.091 223.164 120.383 223.524 120.602C223.732 120.732 224.039 120.846 224.446 120.945L225.375 121.172C226.386 121.417 227.063 121.654 227.407 121.883C227.953 122.242 228.227 122.807 228.227 123.578C228.227 124.323 227.943 124.966 227.375 125.508C226.813 126.049 225.953 126.32 224.797 126.32C223.552 126.32 222.67 126.039 222.149 125.477C221.633 124.909 221.357 124.208 221.321 123.375H222.672ZM25.0312 135.672H26.4609V144H25.0312V135.672ZM25.0312 132.523H26.4609V134.117H25.0312V132.523ZM28.4337 135.633H29.7697V136.82C30.1655 136.331 30.5848 135.979 31.0275 135.766C31.4702 135.552 31.9624 135.445 32.5041 135.445C33.6916 135.445 34.4936 135.859 34.9103 136.688C35.1395 137.141 35.2541 137.789 35.2541 138.633V144H33.8244V138.727C33.8244 138.216 33.7489 137.805 33.5978 137.492C33.3478 136.971 32.8947 136.711 32.2384 136.711C31.9051 136.711 31.6317 136.745 31.4181 136.812C31.0327 136.927 30.6942 137.156 30.4025 137.5C30.1681 137.776 30.0145 138.062 29.9416 138.359C29.8739 138.651 29.84 139.07 29.84 139.617V144H28.4337V135.633ZM37.4613 133.297H38.8831V135.633H40.2191V136.781H38.8831V142.242C38.8831 142.534 38.9821 142.729 39.18 142.828C39.2894 142.885 39.4717 142.914 39.7269 142.914C39.7946 142.914 39.8675 142.914 39.9456 142.914C40.0238 142.909 40.1149 142.901 40.2191 142.891V144C40.0576 144.047 39.8883 144.081 39.7113 144.102C39.5394 144.122 39.3519 144.133 39.1488 144.133C38.4925 144.133 38.0472 143.966 37.8128 143.633C37.5784 143.294 37.4613 142.857 37.4613 142.32V136.781H36.3284V135.633H37.4613V133.297ZM44.7934 143.094C45.7257 143.094 46.3638 142.742 46.7075 142.039C47.0565 141.331 47.2309 140.544 47.2309 139.68C47.2309 138.898 47.1059 138.263 46.8559 137.773C46.4601 137.003 45.7778 136.617 44.8091 136.617C43.9497 136.617 43.3247 136.945 42.9341 137.602C42.5434 138.258 42.3481 139.049 42.3481 139.977C42.3481 140.867 42.5434 141.609 42.9341 142.203C43.3247 142.797 43.9445 143.094 44.7934 143.094ZM44.8481 135.391C45.9263 135.391 46.8377 135.75 47.5825 136.469C48.3273 137.188 48.6997 138.245 48.6997 139.641C48.6997 140.99 48.3716 142.104 47.7153 142.984C47.0591 143.865 46.0408 144.305 44.6606 144.305C43.5096 144.305 42.5955 143.917 41.9184 143.141C41.2414 142.359 40.9028 141.312 40.9028 140C40.9028 138.594 41.2596 137.474 41.9731 136.641C42.6867 135.807 43.645 135.391 44.8481 135.391ZM59.7391 135.633H61.2938C61.0958 136.169 60.6557 137.393 59.9734 139.305C59.463 140.742 59.0359 141.914 58.6922 142.82C57.8797 144.956 57.3068 146.258 56.9734 146.727C56.6401 147.195 56.0672 147.43 55.2547 147.43C55.0568 147.43 54.9031 147.422 54.7938 147.406C54.6896 147.391 54.5594 147.362 54.4031 147.32V146.039C54.6479 146.107 54.825 146.148 54.9344 146.164C55.0438 146.18 55.1401 146.188 55.2234 146.188C55.4839 146.188 55.674 146.143 55.7938 146.055C55.9188 145.971 56.0229 145.867 56.1063 145.742C56.1323 145.701 56.226 145.487 56.3875 145.102C56.549 144.716 56.6661 144.43 56.7391 144.242L53.6453 135.633H55.2391L57.4813 142.445L59.7391 135.633ZM65.6728 143.094C66.6051 143.094 67.2431 142.742 67.5869 142.039C67.9358 141.331 68.1103 140.544 68.1103 139.68C68.1103 138.898 67.9853 138.263 67.7353 137.773C67.3395 137.003 66.6572 136.617 65.6884 136.617C64.8291 136.617 64.2041 136.945 63.8134 137.602C63.4228 138.258 63.2275 139.049 63.2275 139.977C63.2275 140.867 63.4228 141.609 63.8134 142.203C64.2041 142.797 64.8239 143.094 65.6728 143.094ZM65.7275 135.391C66.8056 135.391 67.7171 135.75 68.4619 136.469C69.2067 137.188 69.5791 138.245 69.5791 139.641C69.5791 140.99 69.2509 142.104 68.5947 142.984C67.9384 143.865 66.9202 144.305 65.54 144.305C64.389 144.305 63.4749 143.917 62.7978 143.141C62.1207 142.359 61.7822 141.312 61.7822 140C61.7822 138.594 62.139 137.474 62.8525 136.641C63.566 135.807 64.5244 135.391 65.7275 135.391ZM72.505 135.633V141.188C72.505 141.615 72.5727 141.964 72.7081 142.234C72.9581 142.734 73.4243 142.984 74.1066 142.984C75.0857 142.984 75.7524 142.547 76.1066 141.672C76.2993 141.203 76.3956 140.56 76.3956 139.742V135.633H77.8019V144H76.4738L76.4894 142.766C76.3071 143.083 76.0805 143.352 75.8097 143.57C75.2732 144.008 74.6222 144.227 73.8566 144.227C72.6639 144.227 71.8514 143.828 71.4191 143.031C71.1847 142.604 71.0675 142.034 71.0675 141.32V135.633H72.505ZM79.8841 135.633H81.22V137.078C81.3294 136.797 81.5976 136.456 82.0247 136.055C82.4518 135.648 82.944 135.445 83.5013 135.445C83.5273 135.445 83.5716 135.448 83.6341 135.453C83.6966 135.458 83.8033 135.469 83.9544 135.484V136.969C83.871 136.953 83.7929 136.943 83.72 136.938C83.6523 136.932 83.5768 136.93 83.4934 136.93C82.7851 136.93 82.2408 137.159 81.8606 137.617C81.4804 138.07 81.2903 138.594 81.2903 139.188V144H79.8841V135.633ZM89.9547 135.633L91.5641 142.227L93.1969 135.633H94.775L96.4156 142.188L98.1266 135.633H99.5328L97.1031 144H95.6422L93.9391 137.523L92.2906 144H90.8297L88.4156 135.633H89.9547ZM104.029 143.094C104.961 143.094 105.599 142.742 105.943 142.039C106.292 141.331 106.467 140.544 106.467 139.68C106.467 138.898 106.342 138.263 106.092 137.773C105.696 137.003 105.013 136.617 104.045 136.617C103.185 136.617 102.56 136.945 102.17 137.602C101.779 138.258 101.584 139.049 101.584 139.977C101.584 140.867 101.779 141.609 102.17 142.203C102.56 142.797 103.18 143.094 104.029 143.094ZM104.084 135.391C105.162 135.391 106.073 135.75 106.818 136.469C107.563 137.188 107.935 138.245 107.935 139.641C107.935 140.99 107.607 142.104 106.951 142.984C106.295 143.865 105.276 144.305 103.896 144.305C102.745 144.305 101.831 143.917 101.154 143.141C100.477 142.359 100.138 141.312 100.138 140C100.138 138.594 100.495 137.474 101.209 136.641C101.922 135.807 102.881 135.391 104.084 135.391ZM109.494 135.633H110.83V137.078C110.939 136.797 111.208 136.456 111.635 136.055C112.062 135.648 112.554 135.445 113.111 135.445C113.137 135.445 113.182 135.448 113.244 135.453C113.307 135.458 113.413 135.469 113.564 135.484V136.969C113.481 136.953 113.403 136.943 113.33 136.938C113.262 136.932 113.187 136.93 113.103 136.93C112.395 136.93 111.851 137.159 111.471 137.617C111.09 138.07 110.9 138.594 110.9 139.188V144H109.494V135.633ZM114.592 132.523H115.943V139.188L119.553 135.633H121.35L118.147 138.766L121.529 144H119.732L117.123 139.781L115.943 140.859V144H114.592V132.523ZM125.783 143.094C126.716 143.094 127.354 142.742 127.698 142.039C128.046 141.331 128.221 140.544 128.221 139.68C128.221 138.898 128.096 138.263 127.846 137.773C127.45 137.003 126.768 136.617 125.799 136.617C124.94 136.617 124.315 136.945 123.924 137.602C123.533 138.258 123.338 139.049 123.338 139.977C123.338 140.867 123.533 141.609 123.924 142.203C124.315 142.797 124.934 143.094 125.783 143.094ZM125.838 135.391C126.916 135.391 127.828 135.75 128.573 136.469C129.317 137.188 129.69 138.245 129.69 139.641C129.69 140.99 129.362 142.104 128.705 142.984C128.049 143.865 127.031 144.305 125.651 144.305C124.5 144.305 123.586 143.917 122.908 143.141C122.231 142.359 121.893 141.312 121.893 140C121.893 138.594 122.25 137.474 122.963 136.641C123.677 135.807 124.635 135.391 125.838 135.391ZM132.616 135.633V141.188C132.616 141.615 132.683 141.964 132.819 142.234C133.069 142.734 133.535 142.984 134.217 142.984C135.196 142.984 135.863 142.547 136.217 141.672C136.41 141.203 136.506 140.56 136.506 139.742V135.633H137.912V144H136.584L136.6 142.766C136.418 143.083 136.191 143.352 135.92 143.57C135.384 144.008 134.733 144.227 133.967 144.227C132.774 144.227 131.962 143.828 131.53 143.031C131.295 142.604 131.178 142.034 131.178 141.32V135.633H132.616ZM140.237 133.297H141.659V135.633H142.995V136.781H141.659V142.242C141.659 142.534 141.758 142.729 141.956 142.828C142.065 142.885 142.247 142.914 142.503 142.914C142.57 142.914 142.643 142.914 142.721 142.914C142.799 142.909 142.891 142.901 142.995 142.891V144C142.833 144.047 142.664 144.081 142.487 144.102C142.315 144.122 142.128 144.133 141.924 144.133C141.268 144.133 140.823 143.966 140.588 143.633C140.354 143.294 140.237 142.857 140.237 142.32V136.781H139.104V135.633H140.237V133.297ZM148.581 135.633H149.917V137.078C150.026 136.797 150.294 136.456 150.722 136.055C151.149 135.648 151.641 135.445 152.198 135.445C152.224 135.445 152.268 135.448 152.331 135.453C152.393 135.458 152.5 135.469 152.651 135.484V136.969C152.568 136.953 152.49 136.943 152.417 136.938C152.349 136.932 152.274 136.93 152.19 136.93C151.482 136.93 150.938 137.159 150.558 137.617C150.177 138.07 149.987 138.594 149.987 139.188V144H148.581V135.633ZM157.03 143.094C157.963 143.094 158.601 142.742 158.944 142.039C159.293 141.331 159.468 140.544 159.468 139.68C159.468 138.898 159.343 138.263 159.093 137.773C158.697 137.003 158.015 136.617 157.046 136.617C156.187 136.617 155.562 136.945 155.171 137.602C154.78 138.258 154.585 139.049 154.585 139.977C154.585 140.867 154.78 141.609 155.171 142.203C155.562 142.797 156.181 143.094 157.03 143.094ZM157.085 135.391C158.163 135.391 159.075 135.75 159.819 136.469C160.564 137.188 160.937 138.245 160.937 139.641C160.937 140.99 160.608 142.104 159.952 142.984C159.296 143.865 158.278 144.305 156.898 144.305C155.746 144.305 154.832 143.917 154.155 143.141C153.478 142.359 153.14 141.312 153.14 140C153.14 138.594 153.496 137.474 154.21 136.641C154.924 135.807 155.882 135.391 157.085 135.391ZM163.863 135.633V141.188C163.863 141.615 163.93 141.964 164.066 142.234C164.316 142.734 164.782 142.984 165.464 142.984C166.443 142.984 167.11 142.547 167.464 141.672C167.657 141.203 167.753 140.56 167.753 139.742V135.633H169.159V144H167.831L167.847 142.766C167.665 143.083 167.438 143.352 167.167 143.57C166.631 144.008 165.98 144.227 165.214 144.227C164.021 144.227 163.209 143.828 162.777 143.031C162.542 142.604 162.425 142.034 162.425 141.32V135.633H163.863ZM171.484 133.297H172.906V135.633H174.242V136.781H172.906V142.242C172.906 142.534 173.005 142.729 173.202 142.828C173.312 142.885 173.494 142.914 173.749 142.914C173.817 142.914 173.89 142.914 173.968 142.914C174.046 142.909 174.137 142.901 174.242 142.891V144C174.08 144.047 173.911 144.081 173.734 144.102C173.562 144.122 173.374 144.133 173.171 144.133C172.515 144.133 172.07 143.966 171.835 143.633C171.601 143.294 171.484 142.857 171.484 142.32V136.781H170.351V135.633H171.484V133.297ZM175.496 135.672H176.925V144H175.496V135.672ZM175.496 132.523H176.925V134.117H175.496V132.523ZM178.898 135.633H180.234V136.82C180.63 136.331 181.049 135.979 181.492 135.766C181.935 135.552 182.427 135.445 182.968 135.445C184.156 135.445 184.958 135.859 185.375 136.688C185.604 137.141 185.718 137.789 185.718 138.633V144H184.289V138.727C184.289 138.216 184.213 137.805 184.062 137.492C183.812 136.971 183.359 136.711 182.703 136.711C182.369 136.711 182.096 136.745 181.883 136.812C181.497 136.927 181.159 137.156 180.867 137.5C180.633 137.776 180.479 138.062 180.406 138.359C180.338 138.651 180.304 139.07 180.304 139.617V144H178.898V135.633ZM191.129 135.445C191.723 135.445 192.298 135.586 192.855 135.867C193.413 136.143 193.837 136.503 194.129 136.945C194.41 137.367 194.598 137.859 194.691 138.422C194.775 138.807 194.816 139.422 194.816 140.266H188.683C188.709 141.115 188.91 141.797 189.285 142.312C189.66 142.823 190.241 143.078 191.027 143.078C191.762 143.078 192.348 142.836 192.785 142.352C193.035 142.07 193.212 141.745 193.316 141.375H194.699C194.663 141.682 194.54 142.026 194.332 142.406C194.129 142.781 193.9 143.089 193.644 143.328C193.217 143.745 192.689 144.026 192.058 144.172C191.72 144.255 191.337 144.297 190.91 144.297C189.868 144.297 188.986 143.919 188.262 143.164C187.538 142.404 187.176 141.341 187.176 139.977C187.176 138.633 187.54 137.542 188.269 136.703C188.999 135.865 189.952 135.445 191.129 135.445ZM193.371 139.148C193.314 138.539 193.181 138.052 192.973 137.688C192.587 137.01 191.944 136.672 191.043 136.672C190.397 136.672 189.855 136.906 189.418 137.375C188.98 137.839 188.749 138.43 188.723 139.148H193.371ZM196.688 145.633C197.047 145.57 197.299 145.318 197.445 144.875C197.523 144.641 197.562 144.414 197.562 144.195C197.562 144.159 197.56 144.125 197.555 144.094C197.555 144.068 197.549 144.036 197.539 144H196.688V142.297H198.359V143.875C198.359 144.495 198.234 145.039 197.984 145.508C197.734 145.977 197.302 146.266 196.688 146.375V145.633ZM26.1094 159.773C26.1094 160.18 26.2578 160.5 26.5547 160.734C26.8516 160.969 27.2031 161.086 27.6094 161.086C28.1042 161.086 28.5833 160.971 29.0469 160.742C29.8281 160.362 30.2188 159.74 30.2188 158.875V157.742C30.0469 157.852 29.8255 157.943 29.5547 158.016C29.2839 158.089 29.0182 158.141 28.7578 158.172L27.9062 158.281C27.3958 158.349 27.013 158.456 26.7578 158.602C26.3255 158.846 26.1094 159.237 26.1094 159.773ZM29.5156 156.93C29.8385 156.888 30.0547 156.753 30.1641 156.523C30.2266 156.398 30.2578 156.219 30.2578 155.984C30.2578 155.505 30.0859 155.159 29.7422 154.945C29.4036 154.727 28.9167 154.617 28.2812 154.617C27.5469 154.617 27.026 154.815 26.7188 155.211C26.5469 155.43 26.4349 155.755 26.3828 156.188H25.0703C25.0964 155.156 25.4297 154.44 26.0703 154.039C26.7161 153.633 27.4635 153.43 28.3125 153.43C29.2969 153.43 30.0964 153.617 30.7109 153.992C31.3203 154.367 31.625 154.951 31.625 155.742V160.562C31.625 160.708 31.6536 160.826 31.7109 160.914C31.7734 161.003 31.901 161.047 32.0938 161.047C32.1562 161.047 32.2266 161.044 32.3047 161.039C32.3828 161.029 32.4661 161.016 32.5547 161V162.039C32.3359 162.102 32.1693 162.141 32.0547 162.156C31.9401 162.172 31.7839 162.18 31.5859 162.18C31.1016 162.18 30.75 162.008 30.5312 161.664C30.4167 161.482 30.3359 161.224 30.2891 160.891C30.0026 161.266 29.5911 161.591 29.0547 161.867C28.5182 162.143 27.9271 162.281 27.2812 162.281C26.5052 162.281 25.8698 162.047 25.375 161.578C24.8854 161.104 24.6406 160.513 24.6406 159.805C24.6406 159.029 24.8828 158.427 25.3672 158C25.8516 157.573 26.487 157.31 27.2734 157.211L29.5156 156.93ZM34.6681 157.914C34.6681 158.81 34.8582 159.56 35.2384 160.164C35.6186 160.768 36.228 161.07 37.0666 161.07C37.7176 161.07 38.2515 160.792 38.6681 160.234C39.09 159.672 39.3009 158.867 39.3009 157.82C39.3009 156.763 39.0848 155.982 38.6525 155.477C38.2202 154.966 37.6864 154.711 37.0509 154.711C36.3426 154.711 35.7671 154.982 35.3244 155.523C34.8869 156.065 34.6681 156.862 34.6681 157.914ZM36.7853 153.484C37.4259 153.484 37.9624 153.62 38.3947 153.891C38.6447 154.047 38.9285 154.32 39.2463 154.711V150.484H40.5978V162H39.3322V160.836C39.0041 161.352 38.616 161.724 38.1681 161.953C37.7202 162.182 37.2072 162.297 36.6291 162.297C35.6968 162.297 34.8895 161.906 34.2072 161.125C33.5249 160.339 33.1838 159.294 33.1838 157.992C33.1838 156.773 33.4936 155.719 34.1134 154.828C34.7384 153.932 35.6291 153.484 36.7853 153.484ZM43.6019 159.773C43.6019 160.18 43.7503 160.5 44.0472 160.734C44.3441 160.969 44.6956 161.086 45.1019 161.086C45.5967 161.086 46.0758 160.971 46.5394 160.742C47.3206 160.362 47.7113 159.74 47.7113 158.875V157.742C47.5394 157.852 47.318 157.943 47.0472 158.016C46.7764 158.089 46.5107 158.141 46.2503 158.172L45.3988 158.281C44.8883 158.349 44.5055 158.456 44.2503 158.602C43.818 158.846 43.6019 159.237 43.6019 159.773ZM47.0081 156.93C47.331 156.888 47.5472 156.753 47.6566 156.523C47.7191 156.398 47.7503 156.219 47.7503 155.984C47.7503 155.505 47.5784 155.159 47.2347 154.945C46.8961 154.727 46.4092 154.617 45.7738 154.617C45.0394 154.617 44.5185 154.815 44.2113 155.211C44.0394 155.43 43.9274 155.755 43.8753 156.188H42.5628C42.5889 155.156 42.9222 154.44 43.5628 154.039C44.2086 153.633 44.956 153.43 45.805 153.43C46.7894 153.43 47.5889 153.617 48.2034 153.992C48.8128 154.367 49.1175 154.951 49.1175 155.742V160.562C49.1175 160.708 49.1461 160.826 49.2034 160.914C49.2659 161.003 49.3935 161.047 49.5863 161.047C49.6488 161.047 49.7191 161.044 49.7972 161.039C49.8753 161.029 49.9586 161.016 50.0472 161V162.039C49.8284 162.102 49.6618 162.141 49.5472 162.156C49.4326 162.172 49.2764 162.18 49.0784 162.18C48.5941 162.18 48.2425 162.008 48.0238 161.664C47.9092 161.482 47.8284 161.224 47.7816 160.891C47.4951 161.266 47.0836 161.591 46.5472 161.867C46.0107 162.143 45.4196 162.281 44.7738 162.281C43.9977 162.281 43.3623 162.047 42.8675 161.578C42.3779 161.104 42.1331 160.513 42.1331 159.805C42.1331 159.029 42.3753 158.427 42.8597 158C43.3441 157.573 43.9795 157.31 44.7659 157.211L47.0081 156.93ZM54.8013 161.055C55.4575 161.055 56.0018 160.781 56.4341 160.234C56.8716 159.682 57.0903 158.859 57.0903 157.766C57.0903 157.099 56.994 156.526 56.8013 156.047C56.4367 155.125 55.77 154.664 54.8013 154.664C53.8273 154.664 53.1606 155.151 52.8013 156.125C52.6085 156.646 52.5122 157.307 52.5122 158.109C52.5122 158.755 52.6085 159.305 52.8013 159.758C53.1658 160.622 53.8325 161.055 54.8013 161.055ZM51.1606 153.672H52.5278V154.781C52.8091 154.401 53.1164 154.107 53.4497 153.898C53.9236 153.586 54.4809 153.43 55.1216 153.43C56.0695 153.43 56.8742 153.794 57.5356 154.523C58.1971 155.247 58.5278 156.284 58.5278 157.633C58.5278 159.456 58.0513 160.758 57.0981 161.539C56.494 162.034 55.7908 162.281 54.9888 162.281C54.3585 162.281 53.8299 162.143 53.4028 161.867C53.1528 161.711 52.8742 161.443 52.5669 161.062V165.336H51.1606V153.672ZM60.2975 151.297H61.7194V153.633H63.0553V154.781H61.7194V160.242C61.7194 160.534 61.8183 160.729 62.0163 160.828C62.1256 160.885 62.3079 160.914 62.5631 160.914C62.6308 160.914 62.7038 160.914 62.7819 160.914C62.86 160.909 62.9511 160.901 63.0553 160.891V162C62.8939 162.047 62.7246 162.081 62.5475 162.102C62.3756 162.122 62.1881 162.133 61.985 162.133C61.3288 162.133 60.8834 161.966 60.6491 161.633C60.4147 161.294 60.2975 160.857 60.2975 160.32V154.781H59.1647V153.633H60.2975V151.297ZM64.3094 153.672H65.7391V162H64.3094V153.672ZM64.3094 150.523H65.7391V152.117H64.3094V150.523ZM67.7119 153.633H69.0478V154.82C69.4436 154.331 69.8629 153.979 70.3056 153.766C70.7483 153.552 71.2405 153.445 71.7822 153.445C72.9697 153.445 73.7718 153.859 74.1884 154.688C74.4176 155.141 74.5322 155.789 74.5322 156.633V162H73.1025V156.727C73.1025 156.216 73.027 155.805 72.8759 155.492C72.6259 154.971 72.1728 154.711 71.5166 154.711C71.1832 154.711 70.9098 154.745 70.6963 154.812C70.3108 154.927 69.9723 155.156 69.6806 155.5C69.4463 155.776 69.2926 156.062 69.2197 156.359C69.152 156.651 69.1181 157.07 69.1181 157.617V162H67.7119V153.633ZM79.4113 153.484C80.0675 153.484 80.6404 153.646 81.13 153.969C81.3956 154.151 81.6665 154.417 81.9425 154.766V153.711H83.2394V161.32C83.2394 162.383 83.0831 163.221 82.7706 163.836C82.1873 164.971 81.0857 165.539 79.4659 165.539C78.5649 165.539 77.8071 165.336 77.1925 164.93C76.5779 164.529 76.2342 163.898 76.1613 163.039H77.5909C77.6586 163.414 77.7941 163.703 77.9972 163.906C78.3149 164.219 78.8149 164.375 79.4972 164.375C80.5753 164.375 81.281 163.995 81.6144 163.234C81.8123 162.786 81.9034 161.987 81.8878 160.836C81.6066 161.263 81.268 161.581 80.8722 161.789C80.4764 161.997 79.9529 162.102 79.3019 162.102C78.3956 162.102 77.6014 161.781 76.9191 161.141C76.242 160.495 75.9034 159.43 75.9034 157.945C75.9034 156.544 76.2446 155.451 76.9269 154.664C77.6144 153.878 78.4425 153.484 79.4113 153.484ZM81.9425 157.781C81.9425 156.745 81.729 155.977 81.3019 155.477C80.8748 154.977 80.3305 154.727 79.6691 154.727C78.6795 154.727 78.0024 155.19 77.6378 156.117C77.4451 156.612 77.3488 157.26 77.3488 158.062C77.3488 159.005 77.5389 159.724 77.9191 160.219C78.3045 160.708 78.8201 160.953 79.4659 160.953C80.4764 160.953 81.1873 160.497 81.5988 159.586C81.8279 159.07 81.9425 158.469 81.9425 157.781ZM89.7787 151.297H91.2006V153.633H92.5366V154.781H91.2006V160.242C91.2006 160.534 91.2996 160.729 91.4975 160.828C91.6069 160.885 91.7892 160.914 92.0444 160.914C92.1121 160.914 92.185 160.914 92.2631 160.914C92.3412 160.909 92.4324 160.901 92.5366 160.891V162C92.3751 162.047 92.2058 162.081 92.0287 162.102C91.8569 162.122 91.6694 162.133 91.4662 162.133C90.81 162.133 90.3647 161.966 90.1303 161.633C89.8959 161.294 89.7787 160.857 89.7787 160.32V154.781H88.6459V153.633H89.7787V151.297ZM97.1109 161.094C98.0432 161.094 98.6813 160.742 99.025 160.039C99.374 159.331 99.5484 158.544 99.5484 157.68C99.5484 156.898 99.4234 156.263 99.1734 155.773C98.7776 155.003 98.0953 154.617 97.1266 154.617C96.2672 154.617 95.6422 154.945 95.2516 155.602C94.8609 156.258 94.6656 157.049 94.6656 157.977C94.6656 158.867 94.8609 159.609 95.2516 160.203C95.6422 160.797 96.262 161.094 97.1109 161.094ZM97.1656 153.391C98.2438 153.391 99.1552 153.75 99.9 154.469C100.645 155.188 101.017 156.245 101.017 157.641C101.017 158.99 100.689 160.104 100.033 160.984C99.3766 161.865 98.3583 162.305 96.9781 162.305C95.8271 162.305 94.913 161.917 94.2359 161.141C93.5589 160.359 93.2203 159.312 93.2203 158C93.2203 156.594 93.5771 155.474 94.2906 154.641C95.0042 153.807 95.9625 153.391 97.1656 153.391ZM112.057 153.633H113.611C113.413 154.169 112.973 155.393 112.291 157.305C111.781 158.742 111.353 159.914 111.01 160.82C110.197 162.956 109.624 164.258 109.291 164.727C108.958 165.195 108.385 165.43 107.572 165.43C107.374 165.43 107.221 165.422 107.111 165.406C107.007 165.391 106.877 165.362 106.721 165.32V164.039C106.965 164.107 107.143 164.148 107.252 164.164C107.361 164.18 107.458 164.188 107.541 164.188C107.801 164.188 107.991 164.143 108.111 164.055C108.236 163.971 108.34 163.867 108.424 163.742C108.45 163.701 108.544 163.487 108.705 163.102C108.866 162.716 108.984 162.43 109.057 162.242L105.963 153.633H107.557L109.799 160.445L112.057 153.633ZM117.99 161.094C118.923 161.094 119.561 160.742 119.904 160.039C120.253 159.331 120.428 158.544 120.428 157.68C120.428 156.898 120.303 156.263 120.053 155.773C119.657 155.003 118.975 154.617 118.006 154.617C117.147 154.617 116.522 154.945 116.131 155.602C115.74 156.258 115.545 157.049 115.545 157.977C115.545 158.867 115.74 159.609 116.131 160.203C116.522 160.797 117.141 161.094 117.99 161.094ZM118.045 153.391C119.123 153.391 120.035 153.75 120.779 154.469C121.524 155.188 121.897 156.245 121.897 157.641C121.897 158.99 121.568 160.104 120.912 160.984C120.256 161.865 119.238 162.305 117.857 162.305C116.706 162.305 115.792 161.917 115.115 161.141C114.438 160.359 114.1 159.312 114.1 158C114.1 156.594 114.456 155.474 115.17 154.641C115.884 153.807 116.842 153.391 118.045 153.391ZM124.823 153.633V159.188C124.823 159.615 124.89 159.964 125.026 160.234C125.276 160.734 125.742 160.984 126.424 160.984C127.403 160.984 128.07 160.547 128.424 159.672C128.617 159.203 128.713 158.56 128.713 157.742V153.633H130.119V162H128.791L128.807 160.766C128.625 161.083 128.398 161.352 128.127 161.57C127.591 162.008 126.94 162.227 126.174 162.227C124.981 162.227 124.169 161.828 123.737 161.031C123.502 160.604 123.385 160.034 123.385 159.32V153.633H124.823ZM132.202 153.633H133.537V155.078C133.647 154.797 133.915 154.456 134.342 154.055C134.769 153.648 135.261 153.445 135.819 153.445C135.845 153.445 135.889 153.448 135.952 153.453C136.014 153.458 136.121 153.469 136.272 153.484V154.969C136.189 154.953 136.11 154.943 136.037 154.938C135.97 154.932 135.894 154.93 135.811 154.93C135.103 154.93 134.558 155.159 134.178 155.617C133.798 156.07 133.608 156.594 133.608 157.188V162H132.202V153.633ZM144.577 153.484C145.233 153.484 145.806 153.646 146.296 153.969C146.561 154.151 146.832 154.417 147.108 154.766V153.711H148.405V161.32C148.405 162.383 148.249 163.221 147.936 163.836C147.353 164.971 146.251 165.539 144.632 165.539C143.731 165.539 142.973 165.336 142.358 164.93C141.744 164.529 141.4 163.898 141.327 163.039H142.757C142.824 163.414 142.96 163.703 143.163 163.906C143.481 164.219 143.981 164.375 144.663 164.375C145.741 164.375 146.447 163.995 146.78 163.234C146.978 162.786 147.069 161.987 147.053 160.836C146.772 161.263 146.434 161.581 146.038 161.789C145.642 161.997 145.119 162.102 144.467 162.102C143.561 162.102 142.767 161.781 142.085 161.141C141.408 160.495 141.069 159.43 141.069 157.945C141.069 156.544 141.41 155.451 142.092 154.664C142.78 153.878 143.608 153.484 144.577 153.484ZM147.108 157.781C147.108 156.745 146.895 155.977 146.467 155.477C146.04 154.977 145.496 154.727 144.835 154.727C143.845 154.727 143.168 155.19 142.803 156.117C142.611 156.612 142.514 157.26 142.514 158.062C142.514 159.005 142.704 159.724 143.085 160.219C143.47 160.708 143.986 160.953 144.632 160.953C145.642 160.953 146.353 160.497 146.764 159.586C146.994 159.07 147.108 158.469 147.108 157.781ZM153.69 161.094C154.623 161.094 155.261 160.742 155.604 160.039C155.953 159.331 156.128 158.544 156.128 157.68C156.128 156.898 156.003 156.263 155.753 155.773C155.357 155.003 154.675 154.617 153.706 154.617C152.847 154.617 152.222 154.945 151.831 155.602C151.44 156.258 151.245 157.049 151.245 157.977C151.245 158.867 151.44 159.609 151.831 160.203C152.222 160.797 152.841 161.094 153.69 161.094ZM153.745 153.391C154.823 153.391 155.735 153.75 156.479 154.469C157.224 155.188 157.597 156.245 157.597 157.641C157.597 158.99 157.268 160.104 156.612 160.984C155.956 161.865 154.938 162.305 153.558 162.305C152.406 162.305 151.492 161.917 150.815 161.141C150.138 160.359 149.8 159.312 149.8 158C149.8 156.594 150.156 155.474 150.87 154.641C151.584 153.807 152.542 153.391 153.745 153.391ZM160.194 159.773C160.194 160.18 160.343 160.5 160.64 160.734C160.937 160.969 161.288 161.086 161.694 161.086C162.189 161.086 162.668 160.971 163.132 160.742C163.913 160.362 164.304 159.74 164.304 158.875V157.742C164.132 157.852 163.911 157.943 163.64 158.016C163.369 158.089 163.103 158.141 162.843 158.172L161.991 158.281C161.481 158.349 161.098 158.456 160.843 158.602C160.411 158.846 160.194 159.237 160.194 159.773ZM163.601 156.93C163.924 156.888 164.14 156.753 164.249 156.523C164.312 156.398 164.343 156.219 164.343 155.984C164.343 155.505 164.171 155.159 163.827 154.945C163.489 154.727 163.002 154.617 162.366 154.617C161.632 154.617 161.111 154.815 160.804 155.211C160.632 155.43 160.52 155.755 160.468 156.188H159.155C159.181 155.156 159.515 154.44 160.155 154.039C160.801 153.633 161.549 153.43 162.398 153.43C163.382 153.43 164.181 153.617 164.796 153.992C165.405 154.367 165.71 154.951 165.71 155.742V160.562C165.71 160.708 165.739 160.826 165.796 160.914C165.858 161.003 165.986 161.047 166.179 161.047C166.241 161.047 166.312 161.044 166.39 161.039C166.468 161.029 166.551 161.016 166.64 161V162.039C166.421 162.102 166.254 162.141 166.14 162.156C166.025 162.172 165.869 162.18 165.671 162.18C165.187 162.18 164.835 162.008 164.616 161.664C164.502 161.482 164.421 161.224 164.374 160.891C164.088 161.266 163.676 161.591 163.14 161.867C162.603 162.143 162.012 162.281 161.366 162.281C160.59 162.281 159.955 162.047 159.46 161.578C158.97 161.104 158.726 160.513 158.726 159.805C158.726 159.029 158.968 158.427 159.452 158C159.937 157.573 160.572 157.31 161.358 157.211L163.601 156.93ZM167.902 150.523H169.308V162H167.902V150.523ZM172.101 159.375C172.143 159.844 172.26 160.203 172.452 160.453C172.807 160.906 173.421 161.133 174.296 161.133C174.817 161.133 175.275 161.021 175.671 160.797C176.067 160.568 176.265 160.216 176.265 159.742C176.265 159.383 176.106 159.109 175.788 158.922C175.585 158.807 175.184 158.674 174.585 158.523L173.468 158.242C172.755 158.065 172.229 157.867 171.89 157.648C171.286 157.268 170.984 156.742 170.984 156.07C170.984 155.279 171.268 154.638 171.835 154.148C172.408 153.659 173.176 153.414 174.14 153.414C175.4 153.414 176.309 153.784 176.867 154.523C177.216 154.992 177.385 155.497 177.374 156.039H176.046C176.02 155.721 175.908 155.432 175.71 155.172C175.387 154.802 174.827 154.617 174.031 154.617C173.499 154.617 173.096 154.719 172.82 154.922C172.549 155.125 172.413 155.393 172.413 155.727C172.413 156.091 172.593 156.383 172.952 156.602C173.161 156.732 173.468 156.846 173.874 156.945L174.804 157.172C175.814 157.417 176.492 157.654 176.835 157.883C177.382 158.242 177.656 158.807 177.656 159.578C177.656 160.323 177.372 160.966 176.804 161.508C176.242 162.049 175.382 162.32 174.226 162.32C172.981 162.32 172.098 162.039 171.577 161.477C171.062 160.909 170.786 160.208 170.749 159.375H172.101Z" fill="#373737"/>
</svg>
