<svg width="270" height="205" viewBox="0 0 270 205" fill="none" xmlns="http://www.w3.org/2000/svg">
<rect width="270" height="205" rx="24" fill="#F5F5F5"/>
<path d="M48.6679 38.9001L39.0512 48.5167C38.5638 49.0048 38.5638 49.7954 39.0512 50.2834C39.2843 50.5195 39.6028 50.6516 39.9345 50.6501C40.2667 50.6535 40.5858 50.5211 40.8179 50.2834L50.4345 40.6667C50.769 40.3551 50.9066 39.8858 50.7935 39.4429C50.6804 39 50.3346 38.6542 49.8917 38.5411C49.4488 38.428 48.9795 38.5656 48.6679 38.9001Z" fill="black"/>
<path d="M41.6679 40.8334C41.6679 41.5237 41.1082 42.0834 40.4179 42.0834C39.7275 42.0834 39.1679 41.5237 39.1679 40.8334C39.1679 40.143 39.7275 39.5834 40.4179 39.5834C41.1082 39.5834 41.6679 40.143 41.6679 40.8334Z" fill="black"/>
<path d="M50.4679 48.3501C50.4679 49.0404 49.9082 49.6001 49.2179 49.6001C48.5275 49.6001 47.9679 49.0404 47.9679 48.3501C47.9679 47.6597 48.5275 47.1001 49.2179 47.1001C49.9082 47.1001 50.4679 47.6597 50.4679 48.3501Z" fill="black"/>
<path fill-rule="evenodd" clip-rule="evenodd" d="M61.7325 37.7023C62.2829 39.1276 61.922 40.744 60.8177 41.7999C60.0182 42.5145 59.5612 43.5359 59.5612 44.6082C59.5612 45.6805 60.0182 46.702 60.8177 47.4165C61.9709 48.4644 62.3638 50.1121 61.8074 51.5676C61.251 53.0231 59.8592 53.9885 58.301 53.9999H57.8844C56.8498 54.0078 55.8631 54.4371 55.1522 55.1889C54.4413 55.9407 54.0677 56.9498 54.1177 57.9832C54.173 59.0222 53.7961 60.0378 53.0763 60.7891C52.3566 61.5404 51.3581 61.9606 50.3177 61.9499C49.2587 61.9503 48.2507 61.4949 47.551 60.6999C46.8337 59.9052 45.8132 59.4517 44.7427 59.4517C43.6721 59.4517 42.6517 59.9052 41.9344 60.6999C41.2347 61.4949 40.2267 61.9503 39.1677 61.9499C38.1212 61.9612 37.1171 61.5365 36.3963 60.7777C35.6754 60.0189 35.3028 58.9945 35.3677 57.9499C35.413 56.9193 35.0373 55.9145 34.3269 55.1665C33.6166 54.4184 32.6326 53.9913 31.601 53.9832H31.1844C29.6938 53.9125 28.384 52.9721 27.8404 51.5824C27.2967 50.1927 27.6208 48.6133 28.6677 47.5499C29.4616 46.8356 29.9149 45.8178 29.9149 44.7499C29.9149 43.6819 29.4616 42.6642 28.6677 41.9499C27.4489 40.915 27.0123 39.2256 27.5769 37.7298C28.1416 36.2339 29.5857 35.2545 31.1844 35.2832H31.601C32.6464 35.2809 33.6442 34.8462 34.3577 34.0821C35.0712 33.3181 35.4368 32.293 35.3677 31.2499C35.3312 30.2222 35.7166 29.2243 36.4342 28.4878C37.1518 27.7512 38.1394 27.3401 39.1677 27.3499C40.2308 27.347 41.2419 27.8099 41.9344 28.6165C42.6588 29.4044 43.6807 29.8519 44.751 29.8499C45.8155 29.8472 46.8305 29.4001 47.551 28.6165C48.2404 27.8037 49.2519 27.3345 50.3177 27.3332C51.3612 27.3223 52.3624 27.7447 53.0827 28.4997C53.803 29.2547 54.1778 30.2748 54.1177 31.3165C54.0676 32.3484 54.4417 33.3559 55.1531 34.1051C55.8645 34.8542 56.8513 35.2799 57.8844 35.2832H58.301C59.8284 35.3227 61.1821 36.277 61.7325 37.7023ZM58.9844 50.4665C59.1218 50.1763 59.0386 49.8295 58.7844 49.6332V49.5332C57.3876 48.2458 56.5931 46.4328 56.5931 44.5332C56.5931 42.6336 57.3876 40.8207 58.7844 39.5332C59.0386 39.337 59.1218 38.9901 58.9844 38.6999C58.8886 38.4053 58.6107 38.2087 58.301 38.2165H57.8844C56.025 38.2129 54.2483 37.448 52.9677 36.0999C51.6984 34.7521 51.0255 32.9498 51.101 31.0999C51.129 30.901 51.0681 30.6998 50.9344 30.5499C50.773 30.3817 50.5507 30.2856 50.3177 30.2832C50.0801 30.2612 49.8477 30.3617 49.701 30.5499C48.421 31.9622 46.607 32.7724 44.701 32.7832C42.7955 32.7704 40.9823 31.9605 39.701 30.5499C39.5719 30.3859 39.3763 30.2882 39.1677 30.2832C38.9346 30.2856 38.7124 30.3817 38.551 30.5499C38.4173 30.6998 38.3564 30.901 38.3844 31.0999C38.4945 32.9687 37.8293 34.8003 36.5455 36.1629C35.2618 37.5255 33.4731 38.2985 31.601 38.2999H31.2344C30.9083 38.2748 30.6065 38.4736 30.501 38.7832C30.3636 39.0735 30.4468 39.4203 30.701 39.6165C32.1099 40.899 32.9195 42.7114 32.9344 44.6165C32.9236 46.5226 32.1133 48.3365 30.701 49.6165C30.4468 49.8128 30.3636 50.1596 30.501 50.4499C30.5857 50.7546 30.8683 50.9614 31.1844 50.9499H31.601C33.4594 50.957 35.2342 51.7224 36.5148 53.0691C37.7954 54.4158 38.4707 56.2269 38.3844 58.0832C38.3543 58.2772 38.4158 58.4742 38.551 58.6165C38.7311 58.7961 38.9809 58.8875 39.2344 58.8665C39.4393 58.8614 39.6327 58.7708 39.7677 58.6165C41.0513 57.1826 42.8848 56.3631 44.8094 56.3631C46.7339 56.3631 48.5674 57.1826 49.851 58.6165C49.9672 58.7613 50.134 58.8566 50.3177 58.8832C50.5507 58.8809 50.773 58.7847 50.9344 58.6165C51.0696 58.4742 51.1311 58.2772 51.101 58.0832C51.033 56.2345 51.7048 54.435 52.9677 53.0832C54.2528 51.7416 56.0266 50.978 57.8844 50.9665H58.251C58.5834 50.996 58.8903 50.7867 58.9844 50.4665Z" fill="black"/>
<path d="M33.9512 87.041H28.6484L27.6523 90H24.5078L29.6445 75.6055H33.043L38.1406 90H34.8789L33.9512 87.041ZM33.1113 84.5605L31.3145 78.8965L29.459 84.5605H33.1113ZM44.5422 75.5176V77.7832C44.3859 77.7637 44.1223 77.7507 43.7512 77.7441C43.3866 77.7311 43.1327 77.8125 42.9895 77.9883C42.8527 78.1576 42.7844 78.3464 42.7844 78.5547V79.4531H44.6105V81.416H42.7844V90H40.0109V81.416H38.4582V79.4531H39.9816V78.7695C39.9816 77.6302 40.1737 76.8457 40.5578 76.416C40.9615 75.778 41.9348 75.459 43.4777 75.459C43.6535 75.459 43.813 75.4655 43.9563 75.4785C44.0995 75.485 44.2948 75.498 44.5422 75.5176ZM51.0023 75.5176V77.7832C50.8461 77.7637 50.5824 77.7507 50.2113 77.7441C49.8467 77.7311 49.5928 77.8125 49.4496 77.9883C49.3129 78.1576 49.2445 78.3464 49.2445 78.5547V79.4531H51.0707V81.416H49.2445V90H46.4711V81.416H44.9184V79.4531H46.4418V78.7695C46.4418 77.6302 46.6339 76.8457 47.018 76.416C47.4216 75.778 48.3949 75.459 49.9379 75.459C50.1137 75.459 50.2732 75.4655 50.4164 75.4785C50.5596 75.485 50.7549 75.498 51.0023 75.5176ZM61.3492 80.7031C62.2477 81.8294 62.6969 83.1608 62.6969 84.6973C62.6969 86.2598 62.2477 87.5977 61.3492 88.7109C60.4508 89.8177 59.0868 90.3711 57.2574 90.3711C55.428 90.3711 54.0641 89.8177 53.1656 88.7109C52.2672 87.5977 51.818 86.2598 51.818 84.6973C51.818 83.1608 52.2672 81.8294 53.1656 80.7031C54.0641 79.5768 55.428 79.0137 57.2574 79.0137C59.0868 79.0137 60.4508 79.5768 61.3492 80.7031ZM57.2477 81.3672C56.4339 81.3672 55.8056 81.6569 55.3629 82.2363C54.9267 82.8092 54.7086 83.6296 54.7086 84.6973C54.7086 85.765 54.9267 86.5885 55.3629 87.168C55.8056 87.7474 56.4339 88.0371 57.2477 88.0371C58.0615 88.0371 58.6865 87.7474 59.1227 87.168C59.5589 86.5885 59.777 85.765 59.777 84.6973C59.777 83.6296 59.5589 82.8092 59.1227 82.2363C58.6865 81.6569 58.0615 81.3672 57.2477 81.3672ZM69.8504 81.9238C68.7306 81.9238 67.9786 82.2884 67.5945 83.0176C67.3797 83.4277 67.2723 84.0592 67.2723 84.9121V90H64.4695V79.3555H67.1258V81.2109C67.5555 80.5013 67.9298 80.0163 68.2488 79.7559C68.7697 79.3197 69.4467 79.1016 70.2801 79.1016C70.3322 79.1016 70.3745 79.1048 70.407 79.1113C70.4461 79.1113 70.5275 79.1146 70.6512 79.1211V81.9727C70.4754 81.9531 70.3191 81.9401 70.1824 81.9336C70.0457 81.9271 69.935 81.9238 69.8504 81.9238ZM81.7793 75.625V90H79.0742V88.5254C78.6771 89.1569 78.2246 89.6159 77.7168 89.9023C77.209 90.1888 76.5775 90.332 75.8223 90.332C74.5788 90.332 73.5306 89.8307 72.6777 88.8281C71.8314 87.819 71.4082 86.5267 71.4082 84.9512C71.4082 83.1348 71.8249 81.7057 72.6582 80.6641C73.498 79.6224 74.6178 79.1016 76.0176 79.1016C76.6621 79.1016 77.235 79.2448 77.7363 79.5312C78.2376 79.8112 78.6445 80.2018 78.957 80.7031V75.625H81.7793ZM74.2793 84.7461C74.2793 85.7292 74.4746 86.5137 74.8652 87.0996C75.2493 87.6921 75.8353 87.9883 76.623 87.9883C77.4108 87.9883 78.0098 87.6953 78.4199 87.1094C78.8301 86.5234 79.0352 85.765 79.0352 84.834C79.0352 83.5319 78.7064 82.6009 78.0488 82.041C77.6452 81.7025 77.1764 81.5332 76.6426 81.5332C75.8288 81.5332 75.2298 81.8424 74.8457 82.4609C74.4681 83.0729 74.2793 83.8346 74.2793 84.7461ZM84.5187 80.5078C85.2544 79.5703 86.5174 79.1016 88.3078 79.1016C89.4732 79.1016 90.5083 79.3327 91.4133 79.7949C92.3182 80.2572 92.7707 81.1296 92.7707 82.4121V87.2949C92.7707 87.6335 92.7772 88.0436 92.7902 88.5254C92.8098 88.89 92.8651 89.1374 92.9562 89.2676C93.0474 89.3978 93.1841 89.5052 93.3664 89.5898V90H90.3391C90.2544 89.7852 90.1958 89.5833 90.1633 89.3945C90.1307 89.2057 90.1047 88.9909 90.0852 88.75C89.701 89.1667 89.2583 89.5215 88.757 89.8145C88.1581 90.1595 87.481 90.332 86.7258 90.332C85.7622 90.332 84.9647 90.0586 84.3332 89.5117C83.7082 88.9583 83.3957 88.1771 83.3957 87.168C83.3957 85.8594 83.9003 84.9121 84.9094 84.3262C85.4628 84.0072 86.2766 83.7793 87.3508 83.6426L88.298 83.5254C88.8124 83.4603 89.1802 83.3789 89.4016 83.2812C89.7987 83.112 89.9973 82.8483 89.9973 82.4902C89.9973 82.054 89.8443 81.7546 89.5383 81.5918C89.2388 81.4225 88.7961 81.3379 88.2102 81.3379C87.5526 81.3379 87.0871 81.5007 86.8137 81.8262C86.6184 82.0671 86.4882 82.3926 86.423 82.8027H83.7375C83.7961 81.8717 84.0565 81.1068 84.5187 80.5078ZM86.5891 87.9883C86.8495 88.2031 87.1685 88.3105 87.5461 88.3105C88.1451 88.3105 88.6952 88.1348 89.1965 87.7832C89.7043 87.4316 89.968 86.7904 89.9875 85.8594V84.8242C89.8117 84.9349 89.6327 85.026 89.4504 85.0977C89.2746 85.1628 89.0305 85.2246 88.718 85.2832L88.093 85.4004C87.507 85.5046 87.0871 85.6315 86.8332 85.7812C86.4035 86.0352 86.1887 86.429 86.1887 86.9629C86.1887 87.4382 86.3221 87.7799 86.5891 87.9883ZM100.832 90.2832C99.9535 90.2832 99.2471 90.1074 98.7133 89.7559C98.3943 89.5475 98.0492 89.1829 97.6781 88.6621V90H94.9535V75.625H97.727V80.7422C98.0785 80.2474 98.4659 79.8698 98.8891 79.6094C99.3904 79.2839 100.028 79.1211 100.803 79.1211C102.203 79.1211 103.297 79.6257 104.084 80.6348C104.879 81.6439 105.276 82.946 105.276 84.541C105.276 86.1947 104.885 87.5651 104.104 88.6523C103.323 89.7396 102.232 90.2832 100.832 90.2832ZM102.356 84.834C102.356 84.0788 102.258 83.4538 102.063 82.959C101.692 82.0215 101.008 81.5527 100.012 81.5527C99.003 81.5527 98.3096 82.0117 97.932 82.9297C97.7367 83.418 97.6391 84.0495 97.6391 84.8242C97.6391 85.7357 97.8409 86.4909 98.2445 87.0898C98.6482 87.6888 99.2634 87.9883 100.09 87.9883C100.806 87.9883 101.363 87.6986 101.76 87.1191C102.157 86.5397 102.356 85.778 102.356 84.834ZM107.136 75.6055H109.92V90H107.136V75.6055ZM121.555 86.875C121.484 87.5065 121.155 88.1478 120.569 88.7988C119.658 89.834 118.382 90.3516 116.741 90.3516C115.387 90.3516 114.192 89.9154 113.157 89.043C112.122 88.1706 111.604 86.7513 111.604 84.7852C111.604 82.9427 112.07 81.5299 113.001 80.5469C113.938 79.5638 115.152 79.0723 116.643 79.0723C117.529 79.0723 118.326 79.2383 119.036 79.5703C119.746 79.9023 120.332 80.4264 120.794 81.1426C121.21 81.7741 121.481 82.5065 121.604 83.3398C121.676 83.8281 121.705 84.5312 121.692 85.4492H114.407C114.446 86.5169 114.781 87.2656 115.413 87.6953C115.797 87.9622 116.259 88.0957 116.8 88.0957C117.373 88.0957 117.838 87.9329 118.196 87.6074C118.391 87.4316 118.564 87.1875 118.714 86.875H121.555ZM118.802 83.6133C118.756 82.8776 118.531 82.321 118.128 81.9434C117.731 81.5592 117.236 81.3672 116.643 81.3672C115.999 81.3672 115.498 81.569 115.139 81.9727C114.788 82.3763 114.567 82.9232 114.475 83.6133H118.802Z" fill="#373737"/>
<path d="M31.1094 121.297L29.3672 116.227L27.5156 121.297H31.1094ZM28.5547 114.523H30.3125L34.4766 126H32.7734L31.6094 122.562H27.0703L25.8281 126H24.2344L28.5547 114.523ZM35.8947 116.359C35.9155 115.776 36.0171 115.349 36.1994 115.078C36.5275 114.599 37.1603 114.359 38.0978 114.359C38.1864 114.359 38.2775 114.362 38.3713 114.367C38.465 114.372 38.5718 114.38 38.6916 114.391V115.672C38.5457 115.661 38.439 115.656 38.3713 115.656C38.3088 115.651 38.2489 115.648 38.1916 115.648C37.7645 115.648 37.5093 115.76 37.4259 115.984C37.3426 116.203 37.3009 116.766 37.3009 117.672H38.6916V118.781H37.2853V126H35.8947V118.781H34.7306V117.672H35.8947V116.359ZM39.9066 116.359C39.9274 115.776 40.029 115.349 40.2113 115.078C40.5394 114.599 41.1722 114.359 42.1097 114.359C42.1982 114.359 42.2894 114.362 42.3831 114.367C42.4769 114.372 42.5836 114.38 42.7034 114.391V115.672C42.5576 115.661 42.4508 115.656 42.3831 115.656C42.3206 115.651 42.2607 115.648 42.2034 115.648C41.7764 115.648 41.5211 115.76 41.4378 115.984C41.3545 116.203 41.3128 116.766 41.3128 117.672H42.7034V118.781H41.2972V126H39.9066V118.781H38.7425V117.672H39.9066V116.359ZM47.1684 125.094C48.1007 125.094 48.7388 124.742 49.0825 124.039C49.4315 123.331 49.6059 122.544 49.6059 121.68C49.6059 120.898 49.4809 120.263 49.2309 119.773C48.8351 119.003 48.1528 118.617 47.1841 118.617C46.3247 118.617 45.6997 118.945 45.3091 119.602C44.9184 120.258 44.7231 121.049 44.7231 121.977C44.7231 122.867 44.9184 123.609 45.3091 124.203C45.6997 124.797 46.3195 125.094 47.1684 125.094ZM47.2231 117.391C48.3013 117.391 49.2127 117.75 49.9575 118.469C50.7023 119.188 51.0747 120.245 51.0747 121.641C51.0747 122.99 50.7466 124.104 50.0903 124.984C49.4341 125.865 48.4158 126.305 47.0356 126.305C45.8846 126.305 44.9705 125.917 44.2934 125.141C43.6164 124.359 43.2778 123.312 43.2778 122C43.2778 120.594 43.6346 119.474 44.3481 118.641C45.0617 117.807 46.02 117.391 47.2231 117.391ZM52.6334 117.633H53.9694V119.078C54.0788 118.797 54.347 118.456 54.7741 118.055C55.2011 117.648 55.6933 117.445 56.2506 117.445C56.2767 117.445 56.3209 117.448 56.3834 117.453C56.4459 117.458 56.5527 117.469 56.7038 117.484V118.969C56.6204 118.953 56.5423 118.943 56.4694 118.938C56.4017 118.932 56.3261 118.93 56.2428 118.93C55.5345 118.93 54.9902 119.159 54.61 119.617C54.2298 120.07 54.0397 120.594 54.0397 121.188V126H52.6334V117.633ZM58.6531 121.914C58.6531 122.81 58.8432 123.56 59.2234 124.164C59.6036 124.768 60.213 125.07 61.0516 125.07C61.7026 125.07 62.2365 124.792 62.6531 124.234C63.075 123.672 63.2859 122.867 63.2859 121.82C63.2859 120.763 63.0698 119.982 62.6375 119.477C62.2052 118.966 61.6714 118.711 61.0359 118.711C60.3276 118.711 59.7521 118.982 59.3094 119.523C58.8719 120.065 58.6531 120.862 58.6531 121.914ZM60.7703 117.484C61.4109 117.484 61.9474 117.62 62.3797 117.891C62.6297 118.047 62.9135 118.32 63.2313 118.711V114.484H64.5828V126H63.3172V124.836C62.9891 125.352 62.601 125.724 62.1531 125.953C61.7052 126.182 61.1922 126.297 60.6141 126.297C59.6818 126.297 58.8745 125.906 58.1922 125.125C57.5099 124.339 57.1688 123.294 57.1688 121.992C57.1688 120.773 57.4786 119.719 58.0984 118.828C58.7234 117.932 59.6141 117.484 60.7703 117.484ZM67.5869 123.773C67.5869 124.18 67.7353 124.5 68.0322 124.734C68.3291 124.969 68.6806 125.086 69.0869 125.086C69.5817 125.086 70.0608 124.971 70.5244 124.742C71.3056 124.362 71.6963 123.74 71.6963 122.875V121.742C71.5244 121.852 71.303 121.943 71.0322 122.016C70.7614 122.089 70.4957 122.141 70.2353 122.172L69.3838 122.281C68.8733 122.349 68.4905 122.456 68.2353 122.602C67.803 122.846 67.5869 123.237 67.5869 123.773ZM70.9931 120.93C71.316 120.888 71.5322 120.753 71.6416 120.523C71.7041 120.398 71.7353 120.219 71.7353 119.984C71.7353 119.505 71.5634 119.159 71.2197 118.945C70.8811 118.727 70.3942 118.617 69.7588 118.617C69.0244 118.617 68.5035 118.815 68.1963 119.211C68.0244 119.43 67.9124 119.755 67.8603 120.188H66.5478C66.5739 119.156 66.9072 118.44 67.5478 118.039C68.1936 117.633 68.941 117.43 69.79 117.43C70.7744 117.43 71.5739 117.617 72.1884 117.992C72.7978 118.367 73.1025 118.951 73.1025 119.742V124.562C73.1025 124.708 73.1311 124.826 73.1884 124.914C73.2509 125.003 73.3785 125.047 73.5713 125.047C73.6338 125.047 73.7041 125.044 73.7822 125.039C73.8603 125.029 73.9436 125.016 74.0322 125V126.039C73.8134 126.102 73.6468 126.141 73.5322 126.156C73.4176 126.172 73.2614 126.18 73.0634 126.18C72.5791 126.18 72.2275 126.008 72.0088 125.664C71.8942 125.482 71.8134 125.224 71.7666 124.891C71.4801 125.266 71.0686 125.591 70.5322 125.867C69.9957 126.143 69.4046 126.281 68.7588 126.281C67.9827 126.281 67.3473 126.047 66.8525 125.578C66.3629 125.104 66.1181 124.513 66.1181 123.805C66.1181 123.029 66.3603 122.427 66.8447 122C67.3291 121.573 67.9645 121.31 68.7509 121.211L70.9931 120.93ZM75.1456 114.484H76.5128V118.648C76.8201 118.247 77.1873 117.943 77.6144 117.734C78.0415 117.521 78.505 117.414 79.005 117.414C80.0467 117.414 80.8904 117.773 81.5363 118.492C82.1873 119.206 82.5128 120.26 82.5128 121.656C82.5128 122.979 82.1925 124.078 81.5519 124.953C80.9113 125.828 80.0232 126.266 78.8878 126.266C78.2524 126.266 77.7159 126.112 77.2784 125.805C77.018 125.622 76.7394 125.331 76.4425 124.93V126H75.1456V114.484ZM78.8019 125.023C79.5623 125.023 80.13 124.721 80.505 124.117C80.8852 123.513 81.0753 122.716 81.0753 121.727C81.0753 120.846 80.8852 120.117 80.505 119.539C80.13 118.961 79.5753 118.672 78.8409 118.672C78.2003 118.672 77.6378 118.909 77.1534 119.383C76.6743 119.857 76.4347 120.638 76.4347 121.727C76.4347 122.513 76.5336 123.151 76.7316 123.641C77.1014 124.562 77.7915 125.023 78.8019 125.023ZM84.0403 114.523H85.4466V126H84.0403V114.523ZM90.8881 117.445C91.4819 117.445 92.0574 117.586 92.6147 117.867C93.172 118.143 93.5965 118.503 93.8881 118.945C94.1694 119.367 94.3569 119.859 94.4506 120.422C94.534 120.807 94.5756 121.422 94.5756 122.266H88.4428C88.4689 123.115 88.6694 123.797 89.0444 124.312C89.4194 124.823 90.0001 125.078 90.7866 125.078C91.5209 125.078 92.1069 124.836 92.5444 124.352C92.7944 124.07 92.9715 123.745 93.0756 123.375H94.4584C94.422 123.682 94.2996 124.026 94.0913 124.406C93.8881 124.781 93.659 125.089 93.4038 125.328C92.9767 125.745 92.448 126.026 91.8178 126.172C91.4793 126.255 91.0965 126.297 90.6694 126.297C89.6277 126.297 88.7449 125.919 88.0209 125.164C87.297 124.404 86.935 123.341 86.935 121.977C86.935 120.633 87.2996 119.542 88.0288 118.703C88.7579 117.865 89.711 117.445 90.8881 117.445ZM93.1303 121.148C93.073 120.539 92.9402 120.052 92.7319 119.688C92.3465 119.01 91.7032 118.672 90.8022 118.672C90.1564 118.672 89.6147 118.906 89.1772 119.375C88.7397 119.839 88.5079 120.43 88.4819 121.148H93.1303ZM103.974 125.055C104.631 125.055 105.175 124.781 105.607 124.234C106.045 123.682 106.263 122.859 106.263 121.766C106.263 121.099 106.167 120.526 105.974 120.047C105.61 119.125 104.943 118.664 103.974 118.664C103 118.664 102.334 119.151 101.974 120.125C101.782 120.646 101.685 121.307 101.685 122.109C101.685 122.755 101.782 123.305 101.974 123.758C102.339 124.622 103.006 125.055 103.974 125.055ZM100.334 117.672H101.701V118.781C101.982 118.401 102.289 118.107 102.623 117.898C103.097 117.586 103.654 117.43 104.295 117.43C105.243 117.43 106.047 117.794 106.709 118.523C107.37 119.247 107.701 120.284 107.701 121.633C107.701 123.456 107.224 124.758 106.271 125.539C105.667 126.034 104.964 126.281 104.162 126.281C103.532 126.281 103.003 126.143 102.576 125.867C102.326 125.711 102.047 125.443 101.74 125.062V129.336H100.334V117.672ZM109.228 117.633H110.564V119.078C110.674 118.797 110.942 118.456 111.369 118.055C111.796 117.648 112.288 117.445 112.846 117.445C112.872 117.445 112.916 117.448 112.978 117.453C113.041 117.458 113.148 117.469 113.299 117.484V118.969C113.215 118.953 113.137 118.943 113.064 118.938C112.997 118.932 112.921 118.93 112.838 118.93C112.129 118.93 111.585 119.159 111.205 119.617C110.825 120.07 110.635 120.594 110.635 121.188V126H109.228V117.633ZM114.357 117.672H115.787V126H114.357V117.672ZM114.357 114.523H115.787V116.117H114.357V114.523ZM120.987 117.391C121.929 117.391 122.695 117.62 123.283 118.078C123.877 118.536 124.234 119.326 124.354 120.445H122.987C122.903 119.93 122.713 119.503 122.416 119.164C122.119 118.82 121.643 118.648 120.987 118.648C120.091 118.648 119.45 119.086 119.065 119.961C118.815 120.529 118.69 121.229 118.69 122.062C118.69 122.901 118.867 123.607 119.221 124.18C119.575 124.753 120.132 125.039 120.893 125.039C121.476 125.039 121.937 124.862 122.276 124.508C122.619 124.148 122.856 123.659 122.987 123.039H124.354C124.198 124.148 123.807 124.961 123.182 125.477C122.557 125.987 121.757 126.242 120.783 126.242C119.69 126.242 118.817 125.844 118.166 125.047C117.515 124.245 117.19 123.245 117.19 122.047C117.19 120.578 117.546 119.435 118.26 118.617C118.974 117.799 119.882 117.391 120.987 117.391ZM129.084 117.445C129.678 117.445 130.254 117.586 130.811 117.867C131.368 118.143 131.793 118.503 132.084 118.945C132.366 119.367 132.553 119.859 132.647 120.422C132.73 120.807 132.772 121.422 132.772 122.266H126.639C126.665 123.115 126.866 123.797 127.241 124.312C127.616 124.823 128.196 125.078 128.983 125.078C129.717 125.078 130.303 124.836 130.741 124.352C130.991 124.07 131.168 123.745 131.272 123.375H132.655C132.618 123.682 132.496 124.026 132.287 124.406C132.084 124.781 131.855 125.089 131.6 125.328C131.173 125.745 130.644 126.026 130.014 126.172C129.676 126.255 129.293 126.297 128.866 126.297C127.824 126.297 126.941 125.919 126.217 125.164C125.493 124.404 125.131 123.341 125.131 121.977C125.131 120.633 125.496 119.542 126.225 118.703C126.954 117.865 127.907 117.445 129.084 117.445ZM131.327 121.148C131.269 120.539 131.136 120.052 130.928 119.688C130.543 119.01 129.899 118.672 128.998 118.672C128.353 118.672 127.811 118.906 127.373 119.375C126.936 119.839 126.704 120.43 126.678 121.148H131.327ZM138.639 117.672H140.069V126H138.639V117.672ZM138.639 114.523H140.069V116.117H138.639V114.523ZM142.042 117.633H143.378V118.82C143.774 118.331 144.193 117.979 144.636 117.766C145.078 117.552 145.571 117.445 146.112 117.445C147.3 117.445 148.102 117.859 148.518 118.688C148.748 119.141 148.862 119.789 148.862 120.633V126H147.433V120.727C147.433 120.216 147.357 119.805 147.206 119.492C146.956 118.971 146.503 118.711 145.847 118.711C145.513 118.711 145.24 118.745 145.026 118.812C144.641 118.927 144.302 119.156 144.011 119.5C143.776 119.776 143.623 120.062 143.55 120.359C143.482 120.651 143.448 121.07 143.448 121.617V126H142.042V117.633ZM155.081 117.672H156.511V126H155.081V117.672ZM155.081 114.523H156.511V116.117H155.081V114.523ZM158.765 115.297H160.187V117.633H161.523V118.781H160.187V124.242C160.187 124.534 160.286 124.729 160.484 124.828C160.593 124.885 160.775 124.914 161.031 124.914C161.098 124.914 161.171 124.914 161.249 124.914C161.327 124.909 161.419 124.901 161.523 124.891V126C161.361 126.047 161.192 126.081 161.015 126.102C160.843 126.122 160.656 126.133 160.452 126.133C159.796 126.133 159.351 125.966 159.117 125.633C158.882 125.294 158.765 124.857 158.765 124.32V118.781H157.632V117.633H158.765V115.297ZM163.613 123.375C163.654 123.844 163.772 124.203 163.964 124.453C164.319 124.906 164.933 125.133 165.808 125.133C166.329 125.133 166.787 125.021 167.183 124.797C167.579 124.568 167.777 124.216 167.777 123.742C167.777 123.383 167.618 123.109 167.3 122.922C167.097 122.807 166.696 122.674 166.097 122.523L164.98 122.242C164.266 122.065 163.74 121.867 163.402 121.648C162.798 121.268 162.496 120.742 162.496 120.07C162.496 119.279 162.779 118.638 163.347 118.148C163.92 117.659 164.688 117.414 165.652 117.414C166.912 117.414 167.821 117.784 168.378 118.523C168.727 118.992 168.897 119.497 168.886 120.039H167.558C167.532 119.721 167.42 119.432 167.222 119.172C166.899 118.802 166.339 118.617 165.542 118.617C165.011 118.617 164.608 118.719 164.332 118.922C164.061 119.125 163.925 119.393 163.925 119.727C163.925 120.091 164.105 120.383 164.464 120.602C164.673 120.732 164.98 120.846 165.386 120.945L166.316 121.172C167.326 121.417 168.003 121.654 168.347 121.883C168.894 122.242 169.167 122.807 169.167 123.578C169.167 124.323 168.884 124.966 168.316 125.508C167.753 126.049 166.894 126.32 165.738 126.32C164.493 126.32 163.61 126.039 163.089 125.477C162.574 124.909 162.298 124.208 162.261 123.375H163.613ZM178.137 117.391C179.079 117.391 179.845 117.62 180.433 118.078C181.027 118.536 181.384 119.326 181.504 120.445H180.137C180.053 119.93 179.863 119.503 179.566 119.164C179.269 118.82 178.793 118.648 178.137 118.648C177.241 118.648 176.6 119.086 176.215 119.961C175.965 120.529 175.84 121.229 175.84 122.062C175.84 122.901 176.017 123.607 176.371 124.18C176.725 124.753 177.282 125.039 178.043 125.039C178.626 125.039 179.087 124.862 179.426 124.508C179.769 124.148 180.006 123.659 180.137 123.039H181.504C181.348 124.148 180.957 124.961 180.332 125.477C179.707 125.987 178.907 126.242 177.933 126.242C176.84 126.242 175.967 125.844 175.316 125.047C174.665 124.245 174.34 123.245 174.34 122.047C174.34 120.578 174.696 119.435 175.41 118.617C176.124 117.799 177.032 117.391 178.137 117.391ZM182.789 114.523H184.195V126H182.789V114.523ZM187.231 123.773C187.231 124.18 187.379 124.5 187.676 124.734C187.973 124.969 188.324 125.086 188.731 125.086C189.225 125.086 189.705 124.971 190.168 124.742C190.949 124.362 191.34 123.74 191.34 122.875V121.742C191.168 121.852 190.947 121.943 190.676 122.016C190.405 122.089 190.139 122.141 189.879 122.172L189.027 122.281C188.517 122.349 188.134 122.456 187.879 122.602C187.447 122.846 187.231 123.237 187.231 123.773ZM190.637 120.93C190.96 120.888 191.176 120.753 191.285 120.523C191.348 120.398 191.379 120.219 191.379 119.984C191.379 119.505 191.207 119.159 190.863 118.945C190.525 118.727 190.038 118.617 189.402 118.617C188.668 118.617 188.147 118.815 187.84 119.211C187.668 119.43 187.556 119.755 187.504 120.188H186.192C186.218 119.156 186.551 118.44 187.192 118.039C187.837 117.633 188.585 117.43 189.434 117.43C190.418 117.43 191.218 117.617 191.832 117.992C192.442 118.367 192.746 118.951 192.746 119.742V124.562C192.746 124.708 192.775 124.826 192.832 124.914C192.895 125.003 193.022 125.047 193.215 125.047C193.277 125.047 193.348 125.044 193.426 125.039C193.504 125.029 193.587 125.016 193.676 125V126.039C193.457 126.102 193.291 126.141 193.176 126.156C193.061 126.172 192.905 126.18 192.707 126.18C192.223 126.18 191.871 126.008 191.652 125.664C191.538 125.482 191.457 125.224 191.41 124.891C191.124 125.266 190.712 125.591 190.176 125.867C189.639 126.143 189.048 126.281 188.402 126.281C187.626 126.281 186.991 126.047 186.496 125.578C186.007 125.104 185.762 124.513 185.762 123.805C185.762 123.029 186.004 122.427 186.488 122C186.973 121.573 187.608 121.31 188.395 121.211L190.637 120.93ZM195.735 123.375C195.776 123.844 195.894 124.203 196.086 124.453C196.44 124.906 197.055 125.133 197.93 125.133C198.451 125.133 198.909 125.021 199.305 124.797C199.701 124.568 199.899 124.216 199.899 123.742C199.899 123.383 199.74 123.109 199.422 122.922C199.219 122.807 198.818 122.674 198.219 122.523L197.102 122.242C196.388 122.065 195.862 121.867 195.524 121.648C194.92 121.268 194.617 120.742 194.617 120.07C194.617 119.279 194.901 118.638 195.469 118.148C196.042 117.659 196.81 117.414 197.774 117.414C199.034 117.414 199.943 117.784 200.5 118.523C200.849 118.992 201.019 119.497 201.008 120.039H199.68C199.654 119.721 199.542 119.432 199.344 119.172C199.021 118.802 198.461 118.617 197.664 118.617C197.133 118.617 196.729 118.719 196.453 118.922C196.183 119.125 196.047 119.393 196.047 119.727C196.047 120.091 196.227 120.383 196.586 120.602C196.795 120.732 197.102 120.846 197.508 120.945L198.438 121.172C199.448 121.417 200.125 121.654 200.469 121.883C201.016 122.242 201.289 122.807 201.289 123.578C201.289 124.323 201.006 124.966 200.438 125.508C199.875 126.049 199.016 126.32 197.86 126.32C196.615 126.32 195.732 126.039 195.211 125.477C194.696 124.909 194.42 124.208 194.383 123.375H195.735ZM203.575 123.375C203.616 123.844 203.734 124.203 203.926 124.453C204.28 124.906 204.895 125.133 205.77 125.133C206.291 125.133 206.749 125.021 207.145 124.797C207.541 124.568 207.739 124.216 207.739 123.742C207.739 123.383 207.58 123.109 207.262 122.922C207.059 122.807 206.658 122.674 206.059 122.523L204.942 122.242C204.228 122.065 203.702 121.867 203.364 121.648C202.76 121.268 202.458 120.742 202.458 120.07C202.458 119.279 202.741 118.638 203.309 118.148C203.882 117.659 204.65 117.414 205.614 117.414C206.874 117.414 207.783 117.784 208.34 118.523C208.689 118.992 208.859 119.497 208.848 120.039H207.52C207.494 119.721 207.382 119.432 207.184 119.172C206.861 118.802 206.301 118.617 205.504 118.617C204.973 118.617 204.569 118.719 204.293 118.922C204.023 119.125 203.887 119.393 203.887 119.727C203.887 120.091 204.067 120.383 204.426 120.602C204.635 120.732 204.942 120.846 205.348 120.945L206.278 121.172C207.288 121.417 207.965 121.654 208.309 121.883C208.856 122.242 209.129 122.807 209.129 123.578C209.129 124.323 208.846 124.966 208.278 125.508C207.715 126.049 206.856 126.32 205.7 126.32C204.455 126.32 203.572 126.039 203.051 125.477C202.536 124.909 202.26 124.208 202.223 123.375H203.575ZM210.915 124.297H212.548V126H210.915V124.297Z" fill="#373737"/>
</svg>
