<svg width="270" height="205" viewBox="0 0 270 205" fill="none" xmlns="http://www.w3.org/2000/svg">
<rect width="270" height="205" rx="24" fill="#F5F5F5"/>
<path fill-rule="evenodd" clip-rule="evenodd" d="M33.6825 27.3333H54.3175C57.824 27.3333 60.6667 30.1759 60.6667 33.6825V54.3174C60.6667 57.8239 57.824 60.6666 54.3175 60.6666H33.6825C30.176 60.6666 27.3333 57.8239 27.3333 54.3174V33.6825C27.3333 30.1759 30.176 27.3333 33.6825 27.3333ZM54.3175 58.2856C56.5091 58.2856 58.2857 56.509 58.2857 54.3174V33.6825C58.2857 31.4909 56.5091 29.7142 54.3175 29.7142H33.6825C31.4909 29.7142 29.7143 31.4909 29.7143 33.6825V54.3174C29.7143 56.509 31.4909 58.2856 33.6825 58.2856H54.3175Z" fill="#373737"/>
<path d="M52.7302 38.8412H47.9683C47.3108 38.8412 46.7778 39.3742 46.7778 40.0317C46.7778 40.6891 47.3108 41.2221 47.9683 41.2221H49.4445L43.7937 46.8729L40.6191 43.6983C39.7766 42.8588 38.4139 42.8588 37.5714 43.6983L33.4286 47.7142C32.9644 48.179 32.9644 48.932 33.4286 49.3967C33.6506 49.6216 33.9539 49.7474 34.2699 49.746C34.5862 49.7493 34.8901 49.6231 35.1111 49.3967L39.0318 45.4761L42.2064 48.6507C43.0542 49.4921 44.422 49.4921 45.2699 48.6507L51.4762 42.4444V44.7936C51.4762 45.4511 52.0092 45.984 52.6667 45.984C53.3242 45.984 53.8572 45.4511 53.8572 44.7936V40.0317C53.8502 39.4013 53.3592 38.8826 52.7302 38.8412Z" fill="#373737"/>
<path d="M30.748 87.9199C31.4577 87.9199 32.0339 87.8418 32.4766 87.6855C33.3164 87.3861 33.7363 86.8294 33.7363 86.0156C33.7363 85.5404 33.528 85.1725 33.1113 84.9121C32.6947 84.6582 32.0404 84.4336 31.1484 84.2383L29.625 83.8965C28.1276 83.5579 27.0924 83.1901 26.5195 82.793C25.5495 82.1289 25.0645 81.0905 25.0645 79.6777C25.0645 78.3887 25.5332 77.3177 26.4707 76.4648C27.4082 75.612 28.7852 75.1855 30.6016 75.1855C32.1185 75.1855 33.4108 75.5892 34.4785 76.3965C35.5527 77.1973 36.1159 78.3626 36.168 79.8926H33.2773C33.2253 79.0267 32.8477 78.4115 32.1445 78.0469C31.6758 77.806 31.0931 77.6855 30.3965 77.6855C29.6217 77.6855 29.0033 77.8418 28.541 78.1543C28.0788 78.4668 27.8477 78.903 27.8477 79.4629C27.8477 79.9772 28.0755 80.3613 28.5312 80.6152C28.8242 80.7845 29.4492 80.9831 30.4062 81.2109L32.8867 81.8066C33.974 82.0671 34.7943 82.4154 35.3477 82.8516C36.207 83.5286 36.6367 84.5085 36.6367 85.791C36.6367 87.1061 36.1322 88.1999 35.123 89.0723C34.1204 89.9382 32.7012 90.3711 30.8652 90.3711C28.9902 90.3711 27.5156 89.9447 26.4414 89.0918C25.3672 88.2324 24.8301 87.054 24.8301 85.5566H27.7012C27.7923 86.2142 27.9714 86.7057 28.2383 87.0312C28.7266 87.6237 29.5632 87.9199 30.748 87.9199ZM41.3 79.3555V90H38.4777V79.3555H41.3ZM41.3 75.5176V78.0859H38.4777V75.5176H41.3ZM49.7816 82.2852C49.5473 81.7708 49.0883 81.5137 48.4047 81.5137C47.6104 81.5137 47.0766 81.7708 46.8031 82.2852C46.6534 82.5781 46.5785 83.0143 46.5785 83.5938V90H43.7563V79.375H46.4613V80.9277C46.8064 80.3743 47.1319 79.9805 47.4379 79.7461C47.9783 79.3294 48.6781 79.1211 49.5375 79.1211C50.3513 79.1211 51.0089 79.3001 51.5102 79.6582C51.9138 79.9902 52.2198 80.4167 52.4281 80.9375C52.7927 80.3125 53.2452 79.8535 53.7855 79.5605C54.3585 79.2676 54.9965 79.1211 55.6996 79.1211C56.1684 79.1211 56.6306 79.2122 57.0863 79.3945C57.5421 79.5768 57.9555 79.8958 58.3266 80.3516C58.626 80.7227 58.8279 81.1784 58.932 81.7188C58.9971 82.0768 59.0297 82.6009 59.0297 83.291L59.0102 90H56.1586V83.2227C56.1586 82.819 56.0935 82.487 55.9633 82.2266C55.7159 81.7318 55.2602 81.4844 54.5961 81.4844C53.8279 81.4844 53.2973 81.8034 53.0043 82.4414C52.8546 82.7799 52.7797 83.1868 52.7797 83.6621V90H49.977V83.6621C49.977 83.0306 49.9118 82.5716 49.7816 82.2852ZM70.3141 80.498C71.1734 81.416 71.6031 82.7637 71.6031 84.541C71.6031 86.416 71.1799 87.8451 70.3336 88.8281C69.4938 89.8112 68.4098 90.3027 67.0816 90.3027C66.2353 90.3027 65.5322 90.0911 64.9723 89.668C64.6663 89.4336 64.3668 89.0918 64.0738 88.6426V94.1895H61.3199V79.3555H63.9859V80.9277C64.2854 80.4655 64.6044 80.1009 64.943 79.834C65.5615 79.3587 66.2971 79.1211 67.15 79.1211C68.3935 79.1211 69.4482 79.5801 70.3141 80.498ZM68.732 84.6777C68.732 83.8574 68.5432 83.1315 68.1656 82.5C67.7945 81.8685 67.1891 81.5527 66.3492 81.5527C65.3401 81.5527 64.6467 82.0312 64.2691 82.9883C64.0738 83.4961 63.9762 84.1406 63.9762 84.9219C63.9762 86.1589 64.3049 87.028 64.9625 87.5293C65.3531 87.8223 65.8154 87.9688 66.3492 87.9688C67.124 87.9688 67.7132 87.6693 68.1168 87.0703C68.527 86.4714 68.732 85.6738 68.732 84.6777ZM73.4832 75.6055H76.2664V90H73.4832V75.6055ZM87.9023 86.875C87.8307 87.5065 87.502 88.1478 86.916 88.7988C86.0046 89.834 84.7285 90.3516 83.0879 90.3516C81.7337 90.3516 80.5391 89.9154 79.5039 89.043C78.4688 88.1706 77.9512 86.7513 77.9512 84.7852C77.9512 82.9427 78.4167 81.5299 79.3477 80.5469C80.2852 79.5638 81.4993 79.0723 82.9902 79.0723C83.8757 79.0723 84.6732 79.2383 85.3828 79.5703C86.0924 79.9023 86.6784 80.4264 87.1406 81.1426C87.5573 81.7741 87.8275 82.5065 87.9512 83.3398C88.0228 83.8281 88.0521 84.5312 88.0391 85.4492H80.7539C80.793 86.5169 81.1283 87.2656 81.7598 87.6953C82.1439 87.9622 82.6061 88.0957 83.1465 88.0957C83.7194 88.0957 84.1849 87.9329 84.543 87.6074C84.7383 87.4316 84.9108 87.1875 85.0605 86.875H87.9023ZM85.1484 83.6133C85.1029 82.8776 84.8783 82.321 84.4746 81.9434C84.0775 81.5592 83.5827 81.3672 82.9902 81.3672C82.3457 81.3672 81.8444 81.569 81.4863 81.9727C81.1348 82.3763 80.9134 82.9232 80.8223 83.6133H85.1484ZM99.5238 90.3516C98.0655 90.3516 96.9262 89.9219 96.1059 89.0625C95.2855 88.2031 94.8754 87.2493 94.8754 86.2012C94.8754 85.3353 95.0902 84.5931 95.5199 83.9746C95.9496 83.3561 96.6527 82.7441 97.6293 82.1387L97.932 81.9531C97.5154 81.4844 97.1931 81.0059 96.9652 80.5176C96.7374 80.0293 96.6234 79.5215 96.6234 78.9941C96.6234 77.946 96.975 77.1289 97.6781 76.543C98.3812 75.9505 99.2927 75.6543 100.412 75.6543C101.435 75.6543 102.278 75.957 102.942 76.5625C103.612 77.1615 103.948 77.9297 103.948 78.8672C103.948 79.7135 103.746 80.4004 103.342 80.9277C102.945 81.4551 102.359 81.9434 101.584 82.3926L103.625 84.9121C103.86 84.5736 104.039 84.2057 104.162 83.8086C104.293 83.4115 104.361 82.9915 104.368 82.5488H106.838C106.799 83.4212 106.591 84.3034 106.213 85.1953C106.005 85.6966 105.666 86.25 105.198 86.8555L107.815 90H104.436L103.44 88.7793C102.958 89.2285 102.509 89.5605 102.092 89.7754C101.35 90.1595 100.494 90.3516 99.5238 90.3516ZM99.3676 83.7305C98.671 84.1927 98.2087 84.5996 97.9809 84.9512C97.7595 85.3027 97.6488 85.6901 97.6488 86.1133C97.6488 86.5885 97.8409 87.0247 98.225 87.4219C98.6156 87.819 99.1137 88.0176 99.7191 88.0176C100.175 88.0176 100.605 87.9134 101.008 87.7051C101.418 87.4902 101.75 87.2526 102.004 86.9922L99.3676 83.7305ZM99.182 78.8965C99.182 79.1569 99.2732 79.4303 99.4555 79.7168C99.5727 79.9056 99.8266 80.2409 100.217 80.7227C100.608 80.4492 100.888 80.2181 101.057 80.0293C101.383 79.6777 101.545 79.2969 101.545 78.8867C101.545 78.5872 101.448 78.3203 101.252 78.0859C101.057 77.8516 100.761 77.7344 100.364 77.7344C100.116 77.7344 99.8852 77.8027 99.6703 77.9395C99.3448 78.1413 99.182 78.4603 99.182 78.8965ZM122.62 87.041H117.317L116.321 90H113.177L118.313 75.6055H121.712L126.809 90H123.548L122.62 87.041ZM121.78 84.5605L119.983 78.8965L118.128 84.5605H121.78ZM137.43 83.1738H134.578C134.526 82.7767 134.393 82.4186 134.178 82.0996C133.865 81.6699 133.38 81.4551 132.723 81.4551C131.785 81.4551 131.144 81.9206 130.799 82.8516C130.617 83.3464 130.525 84.0039 130.525 84.8242C130.525 85.6055 130.617 86.2337 130.799 86.709C131.131 87.5944 131.756 88.0371 132.674 88.0371C133.325 88.0371 133.787 87.8613 134.061 87.5098C134.334 87.1582 134.5 86.7025 134.559 86.1426H137.4C137.335 86.9889 137.029 87.7897 136.482 88.5449C135.61 89.7624 134.318 90.3711 132.605 90.3711C130.893 90.3711 129.633 89.8633 128.826 88.8477C128.019 87.832 127.615 86.5137 127.615 84.8926C127.615 83.0632 128.061 81.6406 128.953 80.625C129.845 79.6094 131.076 79.1016 132.645 79.1016C133.979 79.1016 135.07 79.401 135.916 80C136.769 80.599 137.273 81.6569 137.43 83.1738ZM148.363 83.1738H145.511C145.459 82.7767 145.325 82.4186 145.111 82.0996C144.798 81.6699 144.313 81.4551 143.655 81.4551C142.718 81.4551 142.077 81.9206 141.732 82.8516C141.549 83.3464 141.458 84.0039 141.458 84.8242C141.458 85.6055 141.549 86.2337 141.732 86.709C142.064 87.5944 142.689 88.0371 143.607 88.0371C144.258 88.0371 144.72 87.8613 144.993 87.5098C145.267 87.1582 145.433 86.7025 145.491 86.1426H148.333C148.268 86.9889 147.962 87.7897 147.415 88.5449C146.543 89.7624 145.251 90.3711 143.538 90.3711C141.826 90.3711 140.566 89.8633 139.759 88.8477C138.952 87.832 138.548 86.5137 138.548 84.8926C138.548 83.0632 138.994 81.6406 139.886 80.625C140.778 79.6094 142.008 79.1016 143.577 79.1016C144.912 79.1016 146.002 79.401 146.849 80C147.702 80.599 148.206 81.6569 148.363 83.1738ZM156.912 88.4961C156.886 88.5286 156.821 88.6263 156.717 88.7891C156.613 88.9518 156.489 89.0951 156.346 89.2188C155.91 89.6094 155.487 89.8763 155.077 90.0195C154.673 90.1628 154.198 90.2344 153.651 90.2344C152.075 90.2344 151.014 89.668 150.467 88.5352C150.161 87.9102 150.008 86.9889 150.008 85.7715V79.3555H152.86V85.7715C152.86 86.377 152.931 86.8327 153.075 87.1387C153.329 87.679 153.827 87.9492 154.569 87.9492C155.519 87.9492 156.17 87.5651 156.522 86.7969C156.704 86.3802 156.795 85.8301 156.795 85.1465V79.3555H159.618V90H156.912V88.4961ZM167.464 81.9238C166.345 81.9238 165.593 82.2884 165.209 83.0176C164.994 83.4277 164.886 84.0592 164.886 84.9121V90H162.084V79.3555H164.74V81.2109C165.17 80.5013 165.544 80.0163 165.863 79.7559C166.384 79.3197 167.061 79.1016 167.894 79.1016C167.946 79.1016 167.989 79.1048 168.021 79.1113C168.06 79.1113 168.142 79.1146 168.265 79.1211V81.9727C168.089 81.9531 167.933 81.9401 167.796 81.9336C167.66 81.9271 167.549 81.9238 167.464 81.9238ZM170.106 80.5078C170.842 79.5703 172.105 79.1016 173.895 79.1016C175.061 79.1016 176.096 79.3327 177.001 79.7949C177.906 80.2572 178.358 81.1296 178.358 82.4121V87.2949C178.358 87.6335 178.365 88.0436 178.378 88.5254C178.397 88.89 178.453 89.1374 178.544 89.2676C178.635 89.3978 178.772 89.5052 178.954 89.5898V90H175.927C175.842 89.7852 175.783 89.5833 175.751 89.3945C175.718 89.2057 175.692 88.9909 175.673 88.75C175.289 89.1667 174.846 89.5215 174.345 89.8145C173.746 90.1595 173.068 90.332 172.313 90.332C171.35 90.332 170.552 90.0586 169.921 89.5117C169.296 88.9583 168.983 88.1771 168.983 87.168C168.983 85.8594 169.488 84.9121 170.497 84.3262C171.05 84.0072 171.864 83.7793 172.938 83.6426L173.886 83.5254C174.4 83.4603 174.768 83.3789 174.989 83.2812C175.386 83.112 175.585 82.8483 175.585 82.4902C175.585 82.054 175.432 81.7546 175.126 81.5918C174.826 81.4225 174.384 81.3379 173.798 81.3379C173.14 81.3379 172.675 81.5007 172.401 81.8262C172.206 82.0671 172.076 82.3926 172.011 82.8027H169.325C169.384 81.8717 169.644 81.1068 170.106 80.5078ZM172.177 87.9883C172.437 88.2031 172.756 88.3105 173.134 88.3105C173.733 88.3105 174.283 88.1348 174.784 87.7832C175.292 87.4316 175.555 86.7904 175.575 85.8594V84.8242C175.399 84.9349 175.22 85.026 175.038 85.0977C174.862 85.1628 174.618 85.2246 174.305 85.2832L173.68 85.4004C173.095 85.5046 172.675 85.6315 172.421 85.7812C171.991 86.0352 171.776 86.429 171.776 86.9629C171.776 87.4382 171.91 87.7799 172.177 87.9883ZM185.512 88.0176V90.0977L184.193 90.1465C182.878 90.1921 181.98 89.9642 181.498 89.4629C181.186 89.1439 181.029 88.6523 181.029 87.9883V81.4355H179.545V79.4531H181.029V76.4844H183.783V79.4531H185.512V81.4355H183.783V87.0605C183.783 87.4967 183.839 87.7702 183.949 87.8809C184.06 87.985 184.398 88.0371 184.965 88.0371C185.049 88.0371 185.137 88.0371 185.229 88.0371C185.326 88.0306 185.421 88.0241 185.512 88.0176ZM196.21 86.875C196.139 87.5065 195.81 88.1478 195.224 88.7988C194.312 89.834 193.036 90.3516 191.396 90.3516C190.042 90.3516 188.847 89.9154 187.812 89.043C186.777 88.1706 186.259 86.7513 186.259 84.7852C186.259 82.9427 186.724 81.5299 187.655 80.5469C188.593 79.5638 189.807 79.0723 191.298 79.0723C192.183 79.0723 192.981 79.2383 193.691 79.5703C194.4 79.9023 194.986 80.4264 195.448 81.1426C195.865 81.7741 196.135 82.5065 196.259 83.3398C196.331 83.8281 196.36 84.5312 196.347 85.4492H189.062C189.101 86.5169 189.436 87.2656 190.068 87.6953C190.452 87.9622 190.914 88.0957 191.454 88.0957C192.027 88.0957 192.493 87.9329 192.851 87.6074C193.046 87.4316 193.219 87.1875 193.368 86.875H196.21ZM193.456 83.6133C193.411 82.8776 193.186 82.321 192.782 81.9434C192.385 81.5592 191.89 81.3672 191.298 81.3672C190.654 81.3672 190.152 81.569 189.794 81.9727C189.443 82.3763 189.221 82.9232 189.13 83.6133H193.456Z" fill="#373737"/>
<path d="M30.0547 114.211C31.5078 114.211 32.6354 114.594 33.4375 115.359C34.2396 116.125 34.6849 116.995 34.7734 117.969H33.2578C33.0859 117.229 32.7422 116.643 32.2266 116.211C31.7161 115.779 30.9974 115.562 30.0703 115.562C28.9401 115.562 28.026 115.961 27.3281 116.758C26.6354 117.549 26.2891 118.766 26.2891 120.406C26.2891 121.75 26.6016 122.841 27.2266 123.68C27.8568 124.513 28.7943 124.93 30.0391 124.93C31.1849 124.93 32.0573 124.49 32.6562 123.609C32.974 123.146 33.2109 122.536 33.3672 121.781H34.8828C34.7474 122.99 34.2995 124.003 33.5391 124.82C32.6276 125.805 31.3984 126.297 29.8516 126.297C28.5182 126.297 27.3984 125.893 26.4922 125.086C25.2995 124.018 24.7031 122.37 24.7031 120.141C24.7031 118.448 25.151 117.06 26.0469 115.977C27.0156 114.799 28.3516 114.211 30.0547 114.211ZM37.84 117.633V123.188C37.84 123.615 37.9077 123.964 38.0431 124.234C38.2931 124.734 38.7593 124.984 39.4416 124.984C40.4207 124.984 41.0874 124.547 41.4416 123.672C41.6343 123.203 41.7306 122.56 41.7306 121.742V117.633H43.1369V126H41.8088L41.8244 124.766C41.6421 125.083 41.4155 125.352 41.1447 125.57C40.6082 126.008 39.9572 126.227 39.1916 126.227C37.9989 126.227 37.1864 125.828 36.7541 125.031C36.5197 124.604 36.4025 124.034 36.4025 123.32V117.633H37.84ZM45.4613 115.297H46.8831V117.633H48.2191V118.781H46.8831V124.242C46.8831 124.534 46.9821 124.729 47.18 124.828C47.2894 124.885 47.4717 124.914 47.7269 124.914C47.7946 124.914 47.8675 124.914 47.9456 124.914C48.0238 124.909 48.1149 124.901 48.2191 124.891V126C48.0576 126.047 47.8883 126.081 47.7113 126.102C47.5394 126.122 47.3519 126.133 47.1488 126.133C46.4925 126.133 46.0472 125.966 45.8128 125.633C45.5784 125.294 45.4613 124.857 45.4613 124.32V118.781H44.3284V117.633H45.4613V115.297ZM49.7544 115.297H51.1763V117.633H52.5122V118.781H51.1763V124.242C51.1763 124.534 51.2752 124.729 51.4731 124.828C51.5825 124.885 51.7648 124.914 52.02 124.914C52.0877 124.914 52.1606 124.914 52.2388 124.914C52.3169 124.909 52.408 124.901 52.5122 124.891V126C52.3507 126.047 52.1815 126.081 52.0044 126.102C51.8325 126.122 51.645 126.133 51.4419 126.133C50.7856 126.133 50.3403 125.966 50.1059 125.633C49.8716 125.294 49.7544 124.857 49.7544 124.32V118.781H48.6216V117.633H49.7544V115.297ZM53.7663 117.672H55.1959V126H53.7663V117.672ZM53.7663 114.523H55.1959V116.117H53.7663V114.523ZM57.1688 117.633H58.5047V118.82C58.9005 118.331 59.3198 117.979 59.7625 117.766C60.2052 117.552 60.6974 117.445 61.2391 117.445C62.4266 117.445 63.2286 117.859 63.6453 118.688C63.8745 119.141 63.9891 119.789 63.9891 120.633V126H62.5594V120.727C62.5594 120.216 62.4839 119.805 62.3328 119.492C62.0828 118.971 61.6297 118.711 60.9734 118.711C60.6401 118.711 60.3667 118.745 60.1531 118.812C59.7677 118.927 59.4292 119.156 59.1375 119.5C58.9031 119.776 58.7495 120.062 58.6766 120.359C58.6089 120.651 58.575 121.07 58.575 121.617V126H57.1688V117.633ZM68.8681 117.484C69.5244 117.484 70.0973 117.646 70.5869 117.969C70.8525 118.151 71.1233 118.417 71.3994 118.766V117.711H72.6963V125.32C72.6963 126.383 72.54 127.221 72.2275 127.836C71.6442 128.971 70.5426 129.539 68.9228 129.539C68.0218 129.539 67.264 129.336 66.6494 128.93C66.0348 128.529 65.691 127.898 65.6181 127.039H67.0478C67.1155 127.414 67.2509 127.703 67.4541 127.906C67.7718 128.219 68.2718 128.375 68.9541 128.375C70.0322 128.375 70.7379 127.995 71.0713 127.234C71.2692 126.786 71.3603 125.987 71.3447 124.836C71.0634 125.263 70.7249 125.581 70.3291 125.789C69.9332 125.997 69.4098 126.102 68.7588 126.102C67.8525 126.102 67.0582 125.781 66.3759 125.141C65.6989 124.495 65.3603 123.43 65.3603 121.945C65.3603 120.544 65.7015 119.451 66.3838 118.664C67.0713 117.878 67.8994 117.484 68.8681 117.484ZM71.3994 121.781C71.3994 120.745 71.1858 119.977 70.7588 119.477C70.3317 118.977 69.7874 118.727 69.1259 118.727C68.1364 118.727 67.4593 119.19 67.0947 120.117C66.902 120.612 66.8056 121.26 66.8056 122.062C66.8056 123.005 66.9957 123.724 67.3759 124.219C67.7614 124.708 68.277 124.953 68.9228 124.953C69.9332 124.953 70.6442 124.497 71.0556 123.586C71.2848 123.07 71.3994 122.469 71.3994 121.781ZM74.2941 120.82H78.2159V122.266H74.2941V120.82ZM83.3138 117.445C83.9075 117.445 84.483 117.586 85.0403 117.867C85.5976 118.143 86.0221 118.503 86.3138 118.945C86.595 119.367 86.7825 119.859 86.8763 120.422C86.9596 120.807 87.0013 121.422 87.0013 122.266H80.8684C80.8945 123.115 81.095 123.797 81.47 124.312C81.845 124.823 82.4257 125.078 83.2122 125.078C83.9466 125.078 84.5325 124.836 84.97 124.352C85.22 124.07 85.3971 123.745 85.5013 123.375H86.8841C86.8476 123.682 86.7252 124.026 86.5169 124.406C86.3138 124.781 86.0846 125.089 85.8294 125.328C85.4023 125.745 84.8736 126.026 84.2434 126.172C83.9049 126.255 83.5221 126.297 83.095 126.297C82.0533 126.297 81.1705 125.919 80.4466 125.164C79.7226 124.404 79.3606 123.341 79.3606 121.977C79.3606 120.633 79.7252 119.542 80.4544 118.703C81.1835 117.865 82.1367 117.445 83.3138 117.445ZM85.5559 121.148C85.4986 120.539 85.3658 120.052 85.1575 119.688C84.7721 119.01 84.1289 118.672 83.2278 118.672C82.582 118.672 82.0403 118.906 81.6028 119.375C81.1653 119.839 80.9335 120.43 80.9075 121.148H85.5559ZM89.4663 121.914C89.4663 122.81 89.6564 123.56 90.0366 124.164C90.4168 124.768 91.0261 125.07 91.8647 125.07C92.5157 125.07 93.0496 124.792 93.4663 124.234C93.8881 123.672 94.0991 122.867 94.0991 121.82C94.0991 120.763 93.8829 119.982 93.4506 119.477C93.0183 118.966 92.4845 118.711 91.8491 118.711C91.1407 118.711 90.5652 118.982 90.1225 119.523C89.685 120.065 89.4663 120.862 89.4663 121.914ZM91.5834 117.484C92.2241 117.484 92.7605 117.62 93.1928 117.891C93.4428 118.047 93.7267 118.32 94.0444 118.711V114.484H95.3959V126H94.1303V124.836C93.8022 125.352 93.4142 125.724 92.9663 125.953C92.5183 126.182 92.0053 126.297 91.4272 126.297C90.4949 126.297 89.6876 125.906 89.0053 125.125C88.323 124.339 87.9819 123.294 87.9819 121.992C87.9819 120.773 88.2918 119.719 88.9116 118.828C89.5366 117.932 90.4272 117.484 91.5834 117.484ZM100.275 117.484C100.931 117.484 101.504 117.646 101.994 117.969C102.259 118.151 102.53 118.417 102.806 118.766V117.711H104.103V125.32C104.103 126.383 103.947 127.221 103.634 127.836C103.051 128.971 101.949 129.539 100.33 129.539C99.4286 129.539 98.6708 129.336 98.0563 128.93C97.4417 128.529 97.0979 127.898 97.025 127.039H98.4547C98.5224 127.414 98.6578 127.703 98.8609 127.906C99.1786 128.219 99.6786 128.375 100.361 128.375C101.439 128.375 102.145 127.995 102.478 127.234C102.676 126.786 102.767 125.987 102.752 124.836C102.47 125.263 102.132 125.581 101.736 125.789C101.34 125.997 100.817 126.102 100.166 126.102C99.2594 126.102 98.4651 125.781 97.7828 125.141C97.1057 124.495 96.7672 123.43 96.7672 121.945C96.7672 120.544 97.1083 119.451 97.7906 118.664C98.4781 117.878 99.3063 117.484 100.275 117.484ZM102.806 121.781C102.806 120.745 102.593 119.977 102.166 119.477C101.739 118.977 101.194 118.727 100.533 118.727C99.5432 118.727 98.8661 119.19 98.5016 120.117C98.3089 120.612 98.2125 121.26 98.2125 122.062C98.2125 123.005 98.4026 123.724 98.7828 124.219C99.1682 124.708 99.6839 124.953 100.33 124.953C101.34 124.953 102.051 124.497 102.463 123.586C102.692 123.07 102.806 122.469 102.806 121.781ZM109.552 117.445C110.146 117.445 110.722 117.586 111.279 117.867C111.836 118.143 112.261 118.503 112.552 118.945C112.834 119.367 113.021 119.859 113.115 120.422C113.198 120.807 113.24 121.422 113.24 122.266H107.107C107.133 123.115 107.334 123.797 107.709 124.312C108.084 124.823 108.664 125.078 109.451 125.078C110.185 125.078 110.771 124.836 111.209 124.352C111.459 124.07 111.636 123.745 111.74 123.375H113.123C113.086 123.682 112.964 124.026 112.756 124.406C112.552 124.781 112.323 125.089 112.068 125.328C111.641 125.745 111.112 126.026 110.482 126.172C110.144 126.255 109.761 126.297 109.334 126.297C108.292 126.297 107.409 125.919 106.685 125.164C105.961 124.404 105.599 123.341 105.599 121.977C105.599 120.633 105.964 119.542 106.693 118.703C107.422 117.865 108.375 117.445 109.552 117.445ZM111.795 121.148C111.737 120.539 111.605 120.052 111.396 119.688C111.011 119.01 110.368 118.672 109.467 118.672C108.821 118.672 108.279 118.906 107.842 119.375C107.404 119.839 107.172 120.43 107.146 121.148H111.795ZM119.998 121.914C119.998 122.81 120.188 123.56 120.568 124.164C120.949 124.768 121.558 125.07 122.397 125.07C123.048 125.07 123.581 124.792 123.998 124.234C124.42 123.672 124.631 122.867 124.631 121.82C124.631 120.763 124.415 119.982 123.982 119.477C123.55 118.966 123.016 118.711 122.381 118.711C121.673 118.711 121.097 118.982 120.654 119.523C120.217 120.065 119.998 120.862 119.998 121.914ZM122.115 117.484C122.756 117.484 123.292 117.62 123.725 117.891C123.975 118.047 124.259 118.32 124.576 118.711V114.484H125.928V126H124.662V124.836C124.334 125.352 123.946 125.724 123.498 125.953C123.05 126.182 122.537 126.297 121.959 126.297C121.027 126.297 120.219 125.906 119.537 125.125C118.855 124.339 118.514 123.294 118.514 121.992C118.514 120.773 118.824 119.719 119.443 118.828C120.068 117.932 120.959 117.484 122.115 117.484ZM131.174 125.094C132.106 125.094 132.744 124.742 133.088 124.039C133.437 123.331 133.612 122.544 133.612 121.68C133.612 120.898 133.487 120.263 133.237 119.773C132.841 119.003 132.158 118.617 131.19 118.617C130.33 118.617 129.705 118.945 129.315 119.602C128.924 120.258 128.729 121.049 128.729 121.977C128.729 122.867 128.924 123.609 129.315 124.203C129.705 124.797 130.325 125.094 131.174 125.094ZM131.229 117.391C132.307 117.391 133.218 117.75 133.963 118.469C134.708 119.188 135.08 120.245 135.08 121.641C135.08 122.99 134.752 124.104 134.096 124.984C133.44 125.865 132.421 126.305 131.041 126.305C129.89 126.305 128.976 125.917 128.299 125.141C127.622 124.359 127.283 123.312 127.283 122C127.283 120.594 127.64 119.474 128.354 118.641C129.067 117.807 130.026 117.391 131.229 117.391ZM140.084 117.445C140.678 117.445 141.254 117.586 141.811 117.867C142.368 118.143 142.793 118.503 143.084 118.945C143.366 119.367 143.553 119.859 143.647 120.422C143.73 120.807 143.772 121.422 143.772 122.266H137.639C137.665 123.115 137.866 123.797 138.241 124.312C138.616 124.823 139.196 125.078 139.983 125.078C140.717 125.078 141.303 124.836 141.741 124.352C141.991 124.07 142.168 123.745 142.272 123.375H143.655C143.618 123.682 143.496 124.026 143.287 124.406C143.084 124.781 142.855 125.089 142.6 125.328C142.173 125.745 141.644 126.026 141.014 126.172C140.676 126.255 140.293 126.297 139.866 126.297C138.824 126.297 137.941 125.919 137.217 125.164C136.493 124.404 136.131 123.341 136.131 121.977C136.131 120.633 136.496 119.542 137.225 118.703C137.954 117.865 138.907 117.445 140.084 117.445ZM142.327 121.148C142.269 120.539 142.136 120.052 141.928 119.688C141.543 119.01 140.899 118.672 139.998 118.672C139.353 118.672 138.811 118.906 138.373 119.375C137.936 119.839 137.704 120.43 137.678 121.148H142.327ZM146.182 123.375C146.224 123.844 146.341 124.203 146.534 124.453C146.888 124.906 147.503 125.133 148.378 125.133C148.898 125.133 149.357 125.021 149.753 124.797C150.148 124.568 150.346 124.216 150.346 123.742C150.346 123.383 150.187 123.109 149.87 122.922C149.667 122.807 149.266 122.674 148.667 122.523L147.549 122.242C146.836 122.065 146.31 121.867 145.971 121.648C145.367 121.268 145.065 120.742 145.065 120.07C145.065 119.279 145.349 118.638 145.917 118.148C146.489 117.659 147.258 117.414 148.221 117.414C149.482 117.414 150.391 117.784 150.948 118.523C151.297 118.992 151.466 119.497 151.456 120.039H150.128C150.101 119.721 149.989 119.432 149.792 119.172C149.469 118.802 148.909 118.617 148.112 118.617C147.581 118.617 147.177 118.719 146.901 118.922C146.63 119.125 146.495 119.393 146.495 119.727C146.495 120.091 146.674 120.383 147.034 120.602C147.242 120.732 147.549 120.846 147.956 120.945L148.885 121.172C149.896 121.417 150.573 121.654 150.917 121.883C151.463 122.242 151.737 122.807 151.737 123.578C151.737 124.323 151.453 124.966 150.885 125.508C150.323 126.049 149.463 126.32 148.307 126.32C147.062 126.32 146.18 126.039 145.659 125.477C145.143 124.909 144.867 124.208 144.831 123.375H146.182ZM153.186 117.633H154.522V118.82C154.918 118.331 155.337 117.979 155.78 117.766C156.223 117.552 156.715 117.445 157.257 117.445C158.444 117.445 159.246 117.859 159.663 118.688C159.892 119.141 160.007 119.789 160.007 120.633V126H158.577V120.727C158.577 120.216 158.501 119.805 158.35 119.492C158.1 118.971 157.647 118.711 156.991 118.711C156.658 118.711 156.384 118.745 156.171 118.812C155.785 118.927 155.447 119.156 155.155 119.5C154.921 119.776 154.767 120.062 154.694 120.359C154.626 120.651 154.592 121.07 154.592 121.617V126H153.186V117.633ZM162.229 117.859C162.516 117.812 162.732 117.651 162.878 117.375C163.029 117.099 163.104 116.781 163.104 116.422C163.104 116.385 163.102 116.354 163.097 116.328C163.097 116.297 163.091 116.263 163.081 116.227H162.229V114.523H163.901V116.094C163.901 116.76 163.763 117.328 163.487 117.797C163.211 118.26 162.792 118.526 162.229 118.594V117.859ZM165.616 115.297H167.038V117.633H168.374V118.781H167.038V124.242C167.038 124.534 167.137 124.729 167.335 124.828C167.444 124.885 167.627 124.914 167.882 124.914C167.95 124.914 168.023 124.914 168.101 124.914C168.179 124.909 168.27 124.901 168.374 124.891V126C168.213 126.047 168.043 126.081 167.866 126.102C167.694 126.122 167.507 126.133 167.304 126.133C166.648 126.133 166.202 125.966 165.968 125.633C165.733 125.294 165.616 124.857 165.616 124.32V118.781H164.483V117.633H165.616V115.297ZM173.921 114.484H175.327V118.766C175.661 118.344 175.96 118.047 176.226 117.875C176.679 117.578 177.244 117.43 177.921 117.43C179.135 117.43 179.958 117.854 180.39 118.703C180.624 119.167 180.742 119.81 180.742 120.633V126H179.296V120.727C179.296 120.112 179.218 119.661 179.062 119.375C178.807 118.917 178.327 118.688 177.624 118.688C177.041 118.688 176.512 118.888 176.038 119.289C175.564 119.69 175.327 120.448 175.327 121.562V126H173.921V114.484ZM183.746 123.773C183.746 124.18 183.894 124.5 184.191 124.734C184.488 124.969 184.839 125.086 185.246 125.086C185.74 125.086 186.22 124.971 186.683 124.742C187.464 124.362 187.855 123.74 187.855 122.875V121.742C187.683 121.852 187.462 121.943 187.191 122.016C186.92 122.089 186.654 122.141 186.394 122.172L185.542 122.281C185.032 122.349 184.649 122.456 184.394 122.602C183.962 122.846 183.746 123.237 183.746 123.773ZM187.152 120.93C187.475 120.888 187.691 120.753 187.8 120.523C187.863 120.398 187.894 120.219 187.894 119.984C187.894 119.505 187.722 119.159 187.378 118.945C187.04 118.727 186.553 118.617 185.917 118.617C185.183 118.617 184.662 118.815 184.355 119.211C184.183 119.43 184.071 119.755 184.019 120.188H182.707C182.733 119.156 183.066 118.44 183.707 118.039C184.352 117.633 185.1 117.43 185.949 117.43C186.933 117.43 187.733 117.617 188.347 117.992C188.957 118.367 189.261 118.951 189.261 119.742V124.562C189.261 124.708 189.29 124.826 189.347 124.914C189.41 125.003 189.537 125.047 189.73 125.047C189.792 125.047 189.863 125.044 189.941 125.039C190.019 125.029 190.102 125.016 190.191 125V126.039C189.972 126.102 189.806 126.141 189.691 126.156C189.576 126.172 189.42 126.18 189.222 126.18C188.738 126.18 188.386 126.008 188.167 125.664C188.053 125.482 187.972 125.224 187.925 124.891C187.639 125.266 187.227 125.591 186.691 125.867C186.154 126.143 185.563 126.281 184.917 126.281C184.141 126.281 183.506 126.047 183.011 125.578C182.522 125.104 182.277 124.513 182.277 123.805C182.277 123.029 182.519 122.427 183.003 122C183.488 121.573 184.123 121.31 184.91 121.211L187.152 120.93ZM192.101 117.633L194.336 124.445L196.672 117.633H198.211L195.054 126H193.554L190.468 117.633H192.101ZM202.738 117.445C203.332 117.445 203.907 117.586 204.465 117.867C205.022 118.143 205.446 118.503 205.738 118.945C206.019 119.367 206.207 119.859 206.301 120.422C206.384 120.807 206.426 121.422 206.426 122.266H200.293C200.319 123.115 200.519 123.797 200.894 124.312C201.269 124.823 201.85 125.078 202.637 125.078C203.371 125.078 203.957 124.836 204.394 124.352C204.644 124.07 204.821 123.745 204.926 123.375H206.308C206.272 123.682 206.15 124.026 205.941 124.406C205.738 124.781 205.509 125.089 205.254 125.328C204.827 125.745 204.298 126.026 203.668 126.172C203.329 126.255 202.946 126.297 202.519 126.297C201.478 126.297 200.595 125.919 199.871 125.164C199.147 124.404 198.785 123.341 198.785 121.977C198.785 120.633 199.15 119.542 199.879 118.703C200.608 117.865 201.561 117.445 202.738 117.445ZM204.98 121.148C204.923 120.539 204.79 120.052 204.582 119.688C204.196 119.01 203.553 118.672 202.652 118.672C202.006 118.672 201.465 118.906 201.027 119.375C200.59 119.839 200.358 120.43 200.332 121.148H204.98ZM212.574 115.297H213.996V117.633H215.332V118.781H213.996V124.242C213.996 124.534 214.095 124.729 214.293 124.828C214.402 124.885 214.585 124.914 214.84 124.914C214.908 124.914 214.981 124.914 215.059 124.914C215.137 124.909 215.228 124.901 215.332 124.891V126C215.171 126.047 215.001 126.081 214.824 126.102C214.652 126.122 214.465 126.133 214.262 126.133C213.606 126.133 213.16 125.966 212.926 125.633C212.692 125.294 212.574 124.857 212.574 124.32V118.781H211.442V117.633H212.574V115.297ZM219.907 125.094C220.839 125.094 221.477 124.742 221.821 124.039C222.17 123.331 222.344 122.544 222.344 121.68C222.344 120.898 222.219 120.263 221.969 119.773C221.573 119.003 220.891 118.617 219.922 118.617C219.063 118.617 218.438 118.945 218.047 119.602C217.657 120.258 217.461 121.049 217.461 121.977C217.461 122.867 217.657 123.609 218.047 124.203C218.438 124.797 219.058 125.094 219.907 125.094ZM219.961 117.391C221.039 117.391 221.951 117.75 222.696 118.469C223.44 119.188 223.813 120.245 223.813 121.641C223.813 122.99 223.485 124.104 222.828 124.984C222.172 125.865 221.154 126.305 219.774 126.305C218.623 126.305 217.709 125.917 217.032 125.141C216.354 124.359 216.016 123.312 216.016 122C216.016 120.594 216.373 119.474 217.086 118.641C217.8 117.807 218.758 117.391 219.961 117.391ZM24.9219 132.484H26.2891V136.648C26.5964 136.247 26.9635 135.943 27.3906 135.734C27.8177 135.521 28.2812 135.414 28.7812 135.414C29.8229 135.414 30.6667 135.773 31.3125 136.492C31.9635 137.206 32.2891 138.26 32.2891 139.656C32.2891 140.979 31.9688 142.078 31.3281 142.953C30.6875 143.828 29.7995 144.266 28.6641 144.266C28.0286 144.266 27.4922 144.112 27.0547 143.805C26.7943 143.622 26.5156 143.331 26.2188 142.93V144H24.9219V132.484ZM28.5781 143.023C29.3385 143.023 29.9062 142.721 30.2812 142.117C30.6615 141.513 30.8516 140.716 30.8516 139.727C30.8516 138.846 30.6615 138.117 30.2812 137.539C29.9062 136.961 29.3516 136.672 28.6172 136.672C27.9766 136.672 27.4141 136.909 26.9297 137.383C26.4505 137.857 26.2109 138.638 26.2109 139.727C26.2109 140.513 26.3099 141.151 26.5078 141.641C26.8776 142.562 27.5677 143.023 28.5781 143.023ZM37.2619 135.445C37.8556 135.445 38.4311 135.586 38.9884 135.867C39.5457 136.143 39.9702 136.503 40.2619 136.945C40.5431 137.367 40.7306 137.859 40.8244 138.422C40.9077 138.807 40.9494 139.422 40.9494 140.266H34.8166C34.8426 141.115 35.0431 141.797 35.4181 142.312C35.7931 142.823 36.3739 143.078 37.1603 143.078C37.8947 143.078 38.4806 142.836 38.9181 142.352C39.1681 142.07 39.3452 141.745 39.4494 141.375H40.8322C40.7957 141.682 40.6733 142.026 40.465 142.406C40.2619 142.781 40.0327 143.089 39.7775 143.328C39.3504 143.745 38.8218 144.026 38.1916 144.172C37.853 144.255 37.4702 144.297 37.0431 144.297C36.0015 144.297 35.1186 143.919 34.3947 143.164C33.6707 142.404 33.3088 141.341 33.3088 139.977C33.3088 138.633 33.6733 137.542 34.4025 136.703C35.1317 135.865 36.0848 135.445 37.2619 135.445ZM39.5041 139.148C39.4468 138.539 39.314 138.052 39.1056 137.688C38.7202 137.01 38.077 136.672 37.1759 136.672C36.5301 136.672 35.9884 136.906 35.5509 137.375C35.1134 137.839 34.8817 138.43 34.8556 139.148H39.5041ZM50.0434 135.391C50.9861 135.391 51.7518 135.62 52.3403 136.078C52.9341 136.536 53.2908 137.326 53.4106 138.445H52.0434C51.9601 137.93 51.77 137.503 51.4731 137.164C51.1763 136.82 50.6997 136.648 50.0434 136.648C49.1476 136.648 48.507 137.086 48.1216 137.961C47.8716 138.529 47.7466 139.229 47.7466 140.062C47.7466 140.901 47.9236 141.607 48.2778 142.18C48.632 142.753 49.1893 143.039 49.9497 143.039C50.533 143.039 50.994 142.862 51.3325 142.508C51.6763 142.148 51.9132 141.659 52.0434 141.039H53.4106C53.2544 142.148 52.8638 142.961 52.2388 143.477C51.6138 143.987 50.8143 144.242 49.8403 144.242C48.7466 144.242 47.8742 143.844 47.2231 143.047C46.5721 142.245 46.2466 141.245 46.2466 140.047C46.2466 138.578 46.6033 137.435 47.3169 136.617C48.0304 135.799 48.9393 135.391 50.0434 135.391ZM57.9772 143.094C58.9095 143.094 59.5475 142.742 59.8913 142.039C60.2402 141.331 60.4147 140.544 60.4147 139.68C60.4147 138.898 60.2897 138.263 60.0397 137.773C59.6439 137.003 58.9616 136.617 57.9928 136.617C57.1334 136.617 56.5084 136.945 56.1178 137.602C55.7272 138.258 55.5319 139.049 55.5319 139.977C55.5319 140.867 55.7272 141.609 56.1178 142.203C56.5084 142.797 57.1282 143.094 57.9772 143.094ZM58.0319 135.391C59.11 135.391 60.0215 135.75 60.7663 136.469C61.511 137.188 61.8834 138.245 61.8834 139.641C61.8834 140.99 61.5553 142.104 60.8991 142.984C60.2428 143.865 59.2246 144.305 57.8444 144.305C56.6933 144.305 55.7793 143.917 55.1022 143.141C54.4251 142.359 54.0866 141.312 54.0866 140C54.0866 138.594 54.4433 137.474 55.1569 136.641C55.8704 135.807 56.8288 135.391 58.0319 135.391ZM63.4031 135.633H64.7938V136.82C65.1271 136.409 65.4292 136.109 65.7 135.922C66.1635 135.604 66.6896 135.445 67.2781 135.445C67.9448 135.445 68.4813 135.609 68.8875 135.938C69.1167 136.125 69.325 136.401 69.5125 136.766C69.825 136.318 70.1922 135.987 70.6141 135.773C71.0359 135.555 71.5099 135.445 72.0359 135.445C73.1609 135.445 73.9266 135.852 74.3328 136.664C74.5516 137.102 74.6609 137.69 74.6609 138.43V144H73.2V138.188C73.2 137.63 73.0594 137.247 72.7781 137.039C72.5021 136.831 72.1635 136.727 71.7625 136.727C71.2104 136.727 70.7339 136.911 70.3328 137.281C69.937 137.651 69.7391 138.268 69.7391 139.133V144H68.3094V138.539C68.3094 137.971 68.2417 137.557 68.1063 137.297C67.8927 136.906 67.4943 136.711 66.9109 136.711C66.3797 136.711 65.8953 136.917 65.4578 137.328C65.0255 137.74 64.8094 138.484 64.8094 139.562V144H63.4031V135.633ZM80.1025 143.055C80.7588 143.055 81.303 142.781 81.7353 142.234C82.1728 141.682 82.3916 140.859 82.3916 139.766C82.3916 139.099 82.2952 138.526 82.1025 138.047C81.7379 137.125 81.0713 136.664 80.1025 136.664C79.1285 136.664 78.4619 137.151 78.1025 138.125C77.9098 138.646 77.8134 139.307 77.8134 140.109C77.8134 140.755 77.9098 141.305 78.1025 141.758C78.4671 142.622 79.1338 143.055 80.1025 143.055ZM76.4619 135.672H77.8291V136.781C78.1103 136.401 78.4176 136.107 78.7509 135.898C79.2249 135.586 79.7822 135.43 80.4228 135.43C81.3707 135.43 82.1754 135.794 82.8369 136.523C83.4983 137.247 83.8291 138.284 83.8291 139.633C83.8291 141.456 83.3525 142.758 82.3994 143.539C81.7952 144.034 81.0921 144.281 80.29 144.281C79.6598 144.281 79.1311 144.143 78.7041 143.867C78.4541 143.711 78.1754 143.443 77.8681 143.062V147.336H76.4619V135.672ZM85.3566 132.523H86.7628V144H85.3566V132.523ZM88.72 135.672H90.1497V144H88.72V135.672ZM88.72 132.523H90.1497V134.117H88.72V132.523ZM95.3491 135.391C96.2918 135.391 97.0574 135.62 97.6459 136.078C98.2397 136.536 98.5965 137.326 98.7162 138.445H97.3491C97.2657 137.93 97.0756 137.503 96.7787 137.164C96.4819 136.82 96.0053 136.648 95.3491 136.648C94.4532 136.648 93.8126 137.086 93.4272 137.961C93.1772 138.529 93.0522 139.229 93.0522 140.062C93.0522 140.901 93.2293 141.607 93.5834 142.18C93.9376 142.753 94.4949 143.039 95.2553 143.039C95.8386 143.039 96.2996 142.862 96.6381 142.508C96.9819 142.148 97.2189 141.659 97.3491 141.039H98.7162C98.56 142.148 98.1694 142.961 97.5444 143.477C96.9194 143.987 96.1199 144.242 95.1459 144.242C94.0522 144.242 93.1798 143.844 92.5287 143.047C91.8777 142.245 91.5522 141.245 91.5522 140.047C91.5522 138.578 91.909 137.435 92.6225 136.617C93.336 135.799 94.2449 135.391 95.3491 135.391ZM101.041 141.773C101.041 142.18 101.189 142.5 101.486 142.734C101.783 142.969 102.134 143.086 102.541 143.086C103.035 143.086 103.515 142.971 103.978 142.742C104.759 142.362 105.15 141.74 105.15 140.875V139.742C104.978 139.852 104.757 139.943 104.486 140.016C104.215 140.089 103.949 140.141 103.689 140.172L102.838 140.281C102.327 140.349 101.944 140.456 101.689 140.602C101.257 140.846 101.041 141.237 101.041 141.773ZM104.447 138.93C104.77 138.888 104.986 138.753 105.095 138.523C105.158 138.398 105.189 138.219 105.189 137.984C105.189 137.505 105.017 137.159 104.673 136.945C104.335 136.727 103.848 136.617 103.213 136.617C102.478 136.617 101.957 136.815 101.65 137.211C101.478 137.43 101.366 137.755 101.314 138.188H100.002C100.028 137.156 100.361 136.44 101.002 136.039C101.647 135.633 102.395 135.43 103.244 135.43C104.228 135.43 105.028 135.617 105.642 135.992C106.252 136.367 106.556 136.951 106.556 137.742V142.562C106.556 142.708 106.585 142.826 106.642 142.914C106.705 143.003 106.832 143.047 107.025 143.047C107.088 143.047 107.158 143.044 107.236 143.039C107.314 143.029 107.397 143.016 107.486 143V144.039C107.267 144.102 107.101 144.141 106.986 144.156C106.871 144.172 106.715 144.18 106.517 144.18C106.033 144.18 105.681 144.008 105.463 143.664C105.348 143.482 105.267 143.224 105.22 142.891C104.934 143.266 104.522 143.591 103.986 143.867C103.449 144.143 102.858 144.281 102.213 144.281C101.436 144.281 100.801 144.047 100.306 143.578C99.8167 143.104 99.5719 142.513 99.5719 141.805C99.5719 141.029 99.8141 140.427 100.298 140C100.783 139.573 101.418 139.31 102.205 139.211L104.447 138.93ZM108.99 133.297H110.412V135.633H111.748V136.781H110.412V142.242C110.412 142.534 110.511 142.729 110.709 142.828C110.818 142.885 111 142.914 111.256 142.914C111.323 142.914 111.396 142.914 111.474 142.914C111.552 142.909 111.644 142.901 111.748 142.891V144C111.586 144.047 111.417 144.081 111.24 144.102C111.068 144.122 110.881 144.133 110.677 144.133C110.021 144.133 109.576 143.966 109.342 143.633C109.107 143.294 108.99 142.857 108.99 142.32V136.781H107.857V135.633H108.99V133.297ZM116.486 135.445C117.08 135.445 117.656 135.586 118.213 135.867C118.77 136.143 119.195 136.503 119.486 136.945C119.768 137.367 119.955 137.859 120.049 138.422C120.132 138.807 120.174 139.422 120.174 140.266H114.041C114.067 141.115 114.268 141.797 114.643 142.312C115.018 142.823 115.598 143.078 116.385 143.078C117.119 143.078 117.705 142.836 118.143 142.352C118.393 142.07 118.57 141.745 118.674 141.375H120.057C120.02 141.682 119.898 142.026 119.689 142.406C119.486 142.781 119.257 143.089 119.002 143.328C118.575 143.745 118.046 144.026 117.416 144.172C117.077 144.255 116.695 144.297 116.268 144.297C115.226 144.297 114.343 143.919 113.619 143.164C112.895 142.404 112.533 141.341 112.533 139.977C112.533 138.633 112.898 137.542 113.627 136.703C114.356 135.865 115.309 135.445 116.486 135.445ZM118.728 139.148C118.671 138.539 118.538 138.052 118.33 137.688C117.945 137.01 117.301 136.672 116.4 136.672C115.754 136.672 115.213 136.906 114.775 137.375C114.338 137.839 114.106 138.43 114.08 139.148H118.728ZM122.639 139.914C122.639 140.81 122.829 141.56 123.209 142.164C123.589 142.768 124.199 143.07 125.037 143.07C125.688 143.07 126.222 142.792 126.639 142.234C127.061 141.672 127.272 140.867 127.272 139.82C127.272 138.763 127.055 137.982 126.623 137.477C126.191 136.966 125.657 136.711 125.022 136.711C124.313 136.711 123.738 136.982 123.295 137.523C122.857 138.065 122.639 138.862 122.639 139.914ZM124.756 135.484C125.397 135.484 125.933 135.62 126.365 135.891C126.615 136.047 126.899 136.32 127.217 136.711V132.484H128.568V144H127.303V142.836C126.975 143.352 126.587 143.724 126.139 143.953C125.691 144.182 125.178 144.297 124.6 144.297C123.667 144.297 122.86 143.906 122.178 143.125C121.496 142.339 121.154 141.294 121.154 139.992C121.154 138.773 121.464 137.719 122.084 136.828C122.709 135.932 123.6 135.484 124.756 135.484ZM130.83 142.297H132.463V144H130.83V142.297Z" fill="#373737"/>
</svg>
