<svg width="270" height="205" viewBox="0 0 270 205" fill="none" xmlns="http://www.w3.org/2000/svg">
<rect width="270" height="205" rx="24" fill="#F5F5F5"/>
<path d="M49.8333 42.3333C50.5278 42.3333 51.118 42.0902 51.6041 41.6041C52.0903 41.118 52.3333 40.5277 52.3333 39.8333C52.3333 39.1388 52.0903 38.5485 51.6041 38.0624C51.118 37.5763 50.5278 37.3333 49.8333 37.3333C49.1389 37.3333 48.5486 37.5763 48.0625 38.0624C47.5764 38.5485 47.3333 39.1388 47.3333 39.8333C47.3333 40.5277 47.5764 41.118 48.0625 41.6041C48.5486 42.0902 49.1389 42.3333 49.8333 42.3333ZM38.1666 42.3333C38.8611 42.3333 39.4514 42.0902 39.9375 41.6041C40.4236 41.118 40.6666 40.5277 40.6666 39.8333C40.6666 39.1388 40.4236 38.5485 39.9375 38.0624C39.4514 37.5763 38.8611 37.3333 38.1666 37.3333C37.4722 37.3333 36.8819 37.5763 36.3958 38.0624C35.9097 38.5485 35.6666 39.1388 35.6666 39.8333C35.6666 40.5277 35.9097 41.118 36.3958 41.6041C36.8819 42.0902 37.4722 42.3333 38.1666 42.3333ZM44 53.1666C45.8889 53.1666 47.6041 52.6319 49.1458 51.5624C50.6875 50.493 51.8055 49.0833 52.5 47.3333H35.5C36.1944 49.0833 37.3125 50.493 38.8541 51.5624C40.3958 52.6319 42.1111 53.1666 44 53.1666ZM44 60.6666C41.6944 60.6666 39.5278 60.2291 37.5 59.3541C35.4722 58.4791 33.7083 57.2916 32.2083 55.7916C30.7083 54.2916 29.5208 52.5277 28.6458 50.4999C27.7708 48.4721 27.3333 46.3055 27.3333 43.9999C27.3333 41.6944 27.7708 39.5277 28.6458 37.4999C29.5208 35.4721 30.7083 33.7083 32.2083 32.2083C33.7083 30.7083 35.4722 29.5208 37.5 28.6458C39.5278 27.7708 41.6944 27.3333 44 27.3333C46.3055 27.3333 48.4722 27.7708 50.5 28.6458C52.5278 29.5208 54.2916 30.7083 55.7916 32.2083C57.2916 33.7083 58.4791 35.4721 59.3541 37.4999C60.2291 39.5277 60.6666 41.6944 60.6666 43.9999C60.6666 46.3055 60.2291 48.4721 59.3541 50.4999C58.4791 52.5277 57.2916 54.2916 55.7916 55.7916C54.2916 57.2916 52.5278 58.4791 50.5 59.3541C48.4722 60.2291 46.3055 60.6666 44 60.6666ZM44 57.3333C47.7222 57.3333 50.875 56.0416 53.4583 53.4583C56.0416 50.8749 57.3333 47.7221 57.3333 43.9999C57.3333 40.2777 56.0416 37.1249 53.4583 34.5416C50.875 31.9583 47.7222 30.6666 44 30.6666C40.2778 30.6666 37.125 31.9583 34.5416 34.5416C31.9583 37.1249 30.6666 40.2777 30.6666 43.9999C30.6666 47.7221 31.9583 50.8749 34.5416 53.4583C37.125 56.0416 40.2778 57.3333 44 57.3333Z" fill="#1D1B20"/>
<path d="M27.7012 85.5566C27.7923 86.2142 27.9714 86.7057 28.2383 87.0312C28.7266 87.6237 29.5632 87.9199 30.748 87.9199C31.4577 87.9199 32.0339 87.8418 32.4766 87.6855C33.3164 87.3861 33.7363 86.8294 33.7363 86.0156C33.7363 85.5404 33.528 85.1725 33.1113 84.9121C32.6947 84.6582 32.0404 84.4336 31.1484 84.2383L29.625 83.8965C28.1276 83.5579 27.0924 83.1901 26.5195 82.793C25.5495 82.1289 25.0645 81.0905 25.0645 79.6777C25.0645 78.3887 25.5332 77.3177 26.4707 76.4648C27.4082 75.612 28.7852 75.1855 30.6016 75.1855C32.1185 75.1855 33.4108 75.5892 34.4785 76.3965C35.5527 77.1973 36.1159 78.3626 36.168 79.8926H33.2773C33.2253 79.0267 32.8477 78.4115 32.1445 78.0469C31.6758 77.806 31.0931 77.6855 30.3965 77.6855C29.6217 77.6855 29.0033 77.8418 28.541 78.1543C28.0788 78.4668 27.8477 78.903 27.8477 79.4629C27.8477 79.9772 28.0755 80.3613 28.5312 80.6152C28.8242 80.7845 29.4492 80.9831 30.4062 81.2109L32.8867 81.8066C33.974 82.0671 34.7943 82.4154 35.3477 82.8516C36.207 83.5286 36.6367 84.5085 36.6367 85.791C36.6367 87.1061 36.1322 88.1999 35.123 89.0723C34.1204 89.9382 32.7012 90.3711 30.8652 90.3711C28.9902 90.3711 27.5156 89.9447 26.4414 89.0918C25.3672 88.2324 24.8301 87.054 24.8301 85.5566H27.7012ZM41.3 78.0859H38.4777V75.5176H41.3V78.0859ZM38.4777 79.3555H41.3V90H38.4777V79.3555ZM55.6996 79.1211C56.1684 79.1211 56.6306 79.2122 57.0863 79.3945C57.5421 79.5768 57.9555 79.8958 58.3266 80.3516C58.626 80.7227 58.8279 81.1784 58.932 81.7188C58.9971 82.0768 59.0297 82.6009 59.0297 83.291L59.0102 90H56.1586V83.2227C56.1586 82.819 56.0935 82.487 55.9633 82.2266C55.7159 81.7318 55.2602 81.4844 54.5961 81.4844C53.8279 81.4844 53.2973 81.8034 53.0043 82.4414C52.8546 82.7799 52.7797 83.1868 52.7797 83.6621V90H49.977V83.6621C49.977 83.0306 49.9118 82.5716 49.7816 82.2852C49.5473 81.7708 49.0883 81.5137 48.4047 81.5137C47.6104 81.5137 47.0766 81.7708 46.8031 82.2852C46.6534 82.5781 46.5785 83.0143 46.5785 83.5938V90H43.7563V79.375H46.4613V80.9277C46.8064 80.3743 47.1319 79.9805 47.4379 79.7461C47.9783 79.3294 48.6781 79.1211 49.5375 79.1211C50.3513 79.1211 51.0089 79.3001 51.5102 79.6582C51.9138 79.9902 52.2198 80.4167 52.4281 80.9375C52.7927 80.3125 53.2452 79.8535 53.7855 79.5605C54.3585 79.2676 54.9965 79.1211 55.6996 79.1211ZM68.732 84.6777C68.732 83.8574 68.5432 83.1315 68.1656 82.5C67.7945 81.8685 67.1891 81.5527 66.3492 81.5527C65.3401 81.5527 64.6467 82.0312 64.2691 82.9883C64.0738 83.4961 63.9762 84.1406 63.9762 84.9219C63.9762 86.1589 64.3049 87.028 64.9625 87.5293C65.3531 87.8223 65.8154 87.9688 66.3492 87.9688C67.124 87.9688 67.7132 87.6693 68.1168 87.0703C68.527 86.4714 68.732 85.6738 68.732 84.6777ZM67.15 79.1211C68.3935 79.1211 69.4449 79.5801 70.3043 80.498C71.1702 81.416 71.6031 82.7637 71.6031 84.541C71.6031 86.416 71.1799 87.8451 70.3336 88.8281C69.4938 89.8112 68.4098 90.3027 67.0816 90.3027C66.2353 90.3027 65.5322 90.0911 64.9723 89.668C64.6663 89.4336 64.3668 89.0918 64.0738 88.6426V94.1895H61.3199V79.3555H63.9859V80.9277C64.2854 80.4655 64.6044 80.1009 64.943 79.834C65.5615 79.3587 66.2971 79.1211 67.15 79.1211ZM76.2664 90H73.4832V75.6055H76.2664V90ZM82.9902 81.3672C82.3457 81.3672 81.8444 81.569 81.4863 81.9727C81.1348 82.3763 80.9134 82.9232 80.8223 83.6133H85.1484C85.1029 82.8776 84.8783 82.321 84.4746 81.9434C84.0775 81.5592 83.5827 81.3672 82.9902 81.3672ZM82.9902 79.0723C83.8757 79.0723 84.6732 79.2383 85.3828 79.5703C86.0924 79.9023 86.6784 80.4264 87.1406 81.1426C87.5573 81.7741 87.8275 82.5065 87.9512 83.3398C88.0228 83.8281 88.0521 84.5312 88.0391 85.4492H80.7539C80.793 86.5169 81.1283 87.2656 81.7598 87.6953C82.1439 87.9622 82.6061 88.0957 83.1465 88.0957C83.7194 88.0957 84.1849 87.9329 84.543 87.6074C84.7383 87.4316 84.9108 87.1875 85.0605 86.875H87.9023C87.8307 87.5065 87.502 88.1478 86.916 88.7988C86.0046 89.834 84.7285 90.3516 83.0879 90.3516C81.7337 90.3516 80.5391 89.9154 79.5039 89.043C78.4688 88.1706 77.9512 86.7513 77.9512 84.7852C77.9512 82.9427 78.4167 81.5299 79.3477 80.5469C80.2852 79.5638 81.4993 79.0723 82.9902 79.0723ZM100.959 84.8242C100.784 84.9349 100.605 85.026 100.422 85.0977C100.246 85.1628 100.002 85.2246 99.6898 85.2832L99.0648 85.4004C98.4789 85.5046 98.059 85.6315 97.8051 85.7812C97.3754 86.0352 97.1605 86.429 97.1605 86.9629C97.1605 87.4382 97.2908 87.7832 97.5512 87.998C97.8181 88.2064 98.1404 88.3105 98.518 88.3105C99.1169 88.3105 99.6671 88.1348 100.168 87.7832C100.676 87.4316 100.94 86.7904 100.959 85.8594V84.8242ZM99.2699 83.5254C99.7842 83.4603 100.152 83.3789 100.373 83.2812C100.771 83.112 100.969 82.8483 100.969 82.4902C100.969 82.054 100.816 81.7546 100.51 81.5918C100.211 81.4225 99.768 81.3379 99.182 81.3379C98.5245 81.3379 98.059 81.5007 97.7855 81.8262C97.5902 82.0671 97.46 82.3926 97.3949 82.8027H94.7094C94.768 81.8717 95.0284 81.1068 95.4906 80.5078C96.2263 79.5703 97.4893 79.1016 99.2797 79.1016C100.445 79.1016 101.48 79.3327 102.385 79.7949C103.29 80.2572 103.743 81.1296 103.743 82.4121V87.2949C103.743 87.6335 103.749 88.0436 103.762 88.5254C103.782 88.89 103.837 89.1374 103.928 89.2676C104.019 89.3978 104.156 89.5052 104.338 89.5898V90H101.311C101.226 89.7852 101.168 89.5833 101.135 89.3945C101.103 89.2057 101.077 88.9909 101.057 88.75C100.673 89.1667 100.23 89.5215 99.7289 89.8145C99.1299 90.1595 98.4529 90.332 97.6977 90.332C96.7341 90.332 95.9366 90.0586 95.3051 89.5117C94.6801 88.9583 94.3676 88.1771 94.3676 87.168C94.3676 85.8594 94.8721 84.9121 95.8812 84.3262C96.4346 84.0072 97.2484 83.7793 98.3227 83.6426L99.2699 83.5254ZM111.921 79.1016C113.022 79.1016 113.92 79.3913 114.617 79.9707C115.32 80.5436 115.671 81.4974 115.671 82.832V90H112.82V83.5254C112.82 82.9655 112.745 82.5358 112.595 82.2363C112.322 81.6895 111.801 81.416 111.033 81.416C110.089 81.416 109.441 81.8164 109.089 82.6172C108.907 83.0404 108.816 83.5807 108.816 84.2383V90H106.043V79.375H108.728V80.9277C109.086 80.3809 109.425 79.987 109.744 79.7461C110.317 79.3164 111.043 79.1016 111.921 79.1016ZM121.975 79.1016C122.62 79.1016 123.193 79.2448 123.694 79.5312C124.195 79.8112 124.602 80.2018 124.915 80.7031V75.625H127.737V90H125.032V88.5254C124.635 89.1569 124.182 89.6159 123.675 89.9023C123.167 90.1888 122.535 90.332 121.78 90.332C120.537 90.332 119.488 89.8307 118.636 88.8281C117.789 87.819 117.366 86.5267 117.366 84.9512C117.366 83.1348 117.783 81.7057 118.616 80.6641C119.456 79.6224 120.576 79.1016 121.975 79.1016ZM122.581 87.9883C123.369 87.9883 123.968 87.6953 124.378 87.1094C124.788 86.5234 124.993 85.765 124.993 84.834C124.993 83.5319 124.664 82.6009 124.007 82.041C123.603 81.7025 123.134 81.5332 122.6 81.5332C121.787 81.5332 121.188 81.8424 120.804 82.4609C120.426 83.0729 120.237 83.8346 120.237 84.7461C120.237 85.7292 120.429 86.5169 120.813 87.1094C121.204 87.6953 121.793 87.9883 122.581 87.9883ZM138.861 84.5605H142.513L140.716 78.8965L138.861 84.5605ZM139.046 75.6055H142.445L147.542 90H144.28L143.353 87.041H138.05L137.054 90H133.909L139.046 75.6055ZM155.311 83.1738C155.259 82.7767 155.125 82.4186 154.911 82.0996C154.598 81.6699 154.113 81.4551 153.455 81.4551C152.518 81.4551 151.877 81.9206 151.532 82.8516C151.349 83.3464 151.258 84.0039 151.258 84.8242C151.258 85.6055 151.349 86.2337 151.532 86.709C151.864 87.5944 152.489 88.0371 153.407 88.0371C154.058 88.0371 154.52 87.8613 154.793 87.5098C155.067 87.1582 155.233 86.7025 155.291 86.1426H158.133C158.068 86.9889 157.762 87.7897 157.215 88.5449C156.343 89.7624 155.051 90.3711 153.338 90.3711C151.626 90.3711 150.366 89.8633 149.559 88.8477C148.752 87.832 148.348 86.5137 148.348 84.8926C148.348 83.0632 148.794 81.6406 149.686 80.625C150.578 79.6094 151.808 79.1016 153.377 79.1016C154.712 79.1016 155.802 79.401 156.649 80C157.502 80.599 158.006 81.6569 158.162 83.1738H155.311ZM166.244 83.1738C166.192 82.7767 166.058 82.4186 165.843 82.0996C165.531 81.6699 165.046 81.4551 164.388 81.4551C163.451 81.4551 162.809 81.9206 162.464 82.8516C162.282 83.3464 162.191 84.0039 162.191 84.8242C162.191 85.6055 162.282 86.2337 162.464 86.709C162.796 87.5944 163.421 88.0371 164.339 88.0371C164.99 88.0371 165.453 87.8613 165.726 87.5098C166 87.1582 166.166 86.7025 166.224 86.1426H169.066C169.001 86.9889 168.695 87.7897 168.148 88.5449C167.276 89.7624 165.983 90.3711 164.271 90.3711C162.559 90.3711 161.299 89.8633 160.492 88.8477C159.684 87.832 159.281 86.5137 159.281 84.8926C159.281 83.0632 159.727 81.6406 160.619 80.625C161.511 79.6094 162.741 79.1016 164.31 79.1016C165.645 79.1016 166.735 79.401 167.582 80C168.434 80.599 168.939 81.6569 169.095 83.1738H166.244ZM173.593 79.3555V85.7715C173.593 86.377 173.664 86.8327 173.807 87.1387C174.061 87.679 174.559 87.9492 175.302 87.9492C176.252 87.9492 176.903 87.5651 177.255 86.7969C177.437 86.3802 177.528 85.8301 177.528 85.1465V79.3555H180.35V90H177.645V88.4961C177.619 88.5286 177.554 88.6263 177.45 88.7891C177.346 88.9518 177.222 89.0951 177.079 89.2188C176.643 89.6094 176.22 89.8763 175.809 90.0195C175.406 90.1628 174.93 90.2344 174.384 90.2344C172.808 90.2344 171.747 89.668 171.2 88.5352C170.894 87.9102 170.741 86.9889 170.741 85.7715V79.3555H173.593ZM188.627 79.1016C188.679 79.1016 188.721 79.1048 188.754 79.1113C188.793 79.1113 188.874 79.1146 188.998 79.1211V81.9727C188.822 81.9531 188.666 81.9401 188.529 81.9336C188.393 81.9271 188.282 81.9238 188.197 81.9238C187.077 81.9238 186.326 82.2884 185.941 83.0176C185.727 83.4277 185.619 84.0592 185.619 84.9121V90H182.816V79.3555H185.473V81.2109C185.902 80.5013 186.277 80.0163 186.596 79.7559C187.117 79.3197 187.794 79.1016 188.627 79.1016ZM196.308 84.8242C196.132 84.9349 195.953 85.026 195.771 85.0977C195.595 85.1628 195.351 85.2246 195.038 85.2832L194.413 85.4004C193.827 85.5046 193.407 85.6315 193.154 85.7812C192.724 86.0352 192.509 86.429 192.509 86.9629C192.509 87.4382 192.639 87.7832 192.9 87.998C193.167 88.2064 193.489 88.3105 193.866 88.3105C194.465 88.3105 195.015 88.1348 195.517 87.7832C196.025 87.4316 196.288 86.7904 196.308 85.8594V84.8242ZM194.618 83.5254C195.133 83.4603 195.501 83.3789 195.722 83.2812C196.119 83.112 196.318 82.8483 196.318 82.4902C196.318 82.054 196.165 81.7546 195.859 81.5918C195.559 81.4225 195.116 81.3379 194.53 81.3379C193.873 81.3379 193.407 81.5007 193.134 81.8262C192.939 82.0671 192.808 82.3926 192.743 82.8027H190.058C190.116 81.8717 190.377 81.1068 190.839 80.5078C191.575 79.5703 192.838 79.1016 194.628 79.1016C195.793 79.1016 196.829 79.3327 197.734 79.7949C198.639 80.2572 199.091 81.1296 199.091 82.4121V87.2949C199.091 87.6335 199.098 88.0436 199.111 88.5254C199.13 88.89 199.185 89.1374 199.277 89.2676C199.368 89.3978 199.504 89.5052 199.687 89.5898V90H196.659C196.575 89.7852 196.516 89.5833 196.484 89.3945C196.451 89.2057 196.425 88.9909 196.405 88.75C196.021 89.1667 195.579 89.5215 195.077 89.8145C194.478 90.1595 193.801 90.332 193.046 90.332C192.083 90.332 191.285 90.0586 190.654 89.5117C190.029 88.9583 189.716 88.1771 189.716 87.168C189.716 85.8594 190.221 84.9121 191.23 84.3262C191.783 84.0072 192.597 83.7793 193.671 83.6426L194.618 83.5254ZM200.278 81.4355V79.4531H201.762V76.4844H204.516V79.4531H206.245V81.4355H204.516V87.0605C204.516 87.4967 204.571 87.7702 204.682 87.8809C204.793 87.985 205.131 88.0371 205.698 88.0371C205.782 88.0371 205.87 88.0371 205.961 88.0371C206.059 88.0306 206.153 88.0241 206.245 88.0176V90.0977L204.926 90.1465C203.611 90.1921 202.713 89.9642 202.231 89.4629C201.918 89.1439 201.762 88.6523 201.762 87.9883V81.4355H200.278ZM212.031 81.3672C211.386 81.3672 210.885 81.569 210.527 81.9727C210.175 82.3763 209.954 82.9232 209.863 83.6133H214.189C214.143 82.8776 213.919 82.321 213.515 81.9434C213.118 81.5592 212.623 81.3672 212.031 81.3672ZM212.031 79.0723C212.916 79.0723 213.714 79.2383 214.423 79.5703C215.133 79.9023 215.719 80.4264 216.181 81.1426C216.598 81.7741 216.868 82.5065 216.992 83.3398C217.063 83.8281 217.093 84.5312 217.08 85.4492H209.795C209.834 86.5169 210.169 87.2656 210.8 87.6953C211.184 87.9622 211.647 88.0957 212.187 88.0957C212.76 88.0957 213.226 87.9329 213.584 87.6074C213.779 87.4316 213.951 87.1875 214.101 86.875H216.943C216.871 87.5065 216.543 88.1478 215.957 88.7988C215.045 89.834 213.769 90.3516 212.129 90.3516C210.774 90.3516 209.58 89.9154 208.545 89.043C207.509 88.1706 206.992 86.7513 206.992 84.7852C206.992 82.9427 207.457 81.5299 208.388 80.5469C209.326 79.5638 210.54 79.0723 212.031 79.0723Z" fill="#373737"/>
<path d="M30.5547 119.781C31.2839 119.781 31.8594 119.635 32.2812 119.344C32.7083 119.052 32.9219 118.526 32.9219 117.766C32.9219 116.948 32.625 116.391 32.0312 116.094C31.7135 115.938 31.2891 115.859 30.7578 115.859H26.9609V119.781H30.5547ZM25.4062 114.523H30.7188C31.5938 114.523 32.3151 114.651 32.8828 114.906C33.9609 115.396 34.5 116.299 34.5 117.617C34.5 118.305 34.3568 118.867 34.0703 119.305C33.7891 119.742 33.3932 120.094 32.8828 120.359C33.3307 120.542 33.6667 120.781 33.8906 121.078C34.1198 121.375 34.2474 121.857 34.2734 122.523L34.3281 124.062C34.3438 124.5 34.3802 124.826 34.4375 125.039C34.5312 125.404 34.6979 125.638 34.9375 125.742V126H33.0312C32.9792 125.901 32.9375 125.773 32.9062 125.617C32.875 125.461 32.849 125.159 32.8281 124.711L32.7344 122.797C32.6979 122.047 32.4193 121.544 31.8984 121.289C31.6016 121.148 31.1354 121.078 30.5 121.078H26.9609V126H25.4062V114.523ZM39.9181 117.445C40.5119 117.445 41.0874 117.586 41.6447 117.867C42.202 118.143 42.6265 118.503 42.9181 118.945C43.1994 119.367 43.3869 119.859 43.4806 120.422C43.564 120.807 43.6056 121.422 43.6056 122.266H37.4728C37.4989 123.115 37.6994 123.797 38.0744 124.312C38.4494 124.823 39.0301 125.078 39.8166 125.078C40.5509 125.078 41.1369 124.836 41.5744 124.352C41.8244 124.07 42.0015 123.745 42.1056 123.375H43.4884C43.452 123.682 43.3296 124.026 43.1213 124.406C42.9181 124.781 42.689 125.089 42.4338 125.328C42.0067 125.745 41.478 126.026 40.8478 126.172C40.5093 126.255 40.1265 126.297 39.6994 126.297C38.6577 126.297 37.7749 125.919 37.0509 125.164C36.327 124.404 35.965 123.341 35.965 121.977C35.965 120.633 36.3296 119.542 37.0588 118.703C37.7879 117.865 38.741 117.445 39.9181 117.445ZM42.1603 121.148C42.103 120.539 41.9702 120.052 41.7619 119.688C41.3765 119.01 40.7332 118.672 39.8322 118.672C39.1864 118.672 38.6447 118.906 38.2072 119.375C37.7697 119.839 37.5379 120.43 37.5119 121.148H42.1603ZM45.5159 114.523H53.4769V115.93H47.0706V119.414H52.7034V120.781H47.0706V126H45.5159V114.523ZM54.8403 114.523H56.2466V126H54.8403V114.523ZM61.6881 117.445C62.2819 117.445 62.8574 117.586 63.4147 117.867C63.972 118.143 64.3965 118.503 64.6881 118.945C64.9694 119.367 65.1569 119.859 65.2506 120.422C65.334 120.807 65.3756 121.422 65.3756 122.266H59.2428C59.2689 123.115 59.4694 123.797 59.8444 124.312C60.2194 124.823 60.8001 125.078 61.5866 125.078C62.3209 125.078 62.9069 124.836 63.3444 124.352C63.5944 124.07 63.7715 123.745 63.8756 123.375H65.2584C65.222 123.682 65.0996 124.026 64.8913 124.406C64.6881 124.781 64.459 125.089 64.2038 125.328C63.7767 125.745 63.248 126.026 62.6178 126.172C62.2793 126.255 61.8965 126.297 61.4694 126.297C60.4277 126.297 59.5449 125.919 58.8209 125.164C58.097 124.404 57.735 123.341 57.735 121.977C57.735 120.633 58.0996 119.542 58.8288 118.703C59.5579 117.865 60.511 117.445 61.6881 117.445ZM63.9303 121.148C63.873 120.539 63.7402 120.052 63.5319 119.688C63.1465 119.01 62.5032 118.672 61.6022 118.672C60.9564 118.672 60.4147 118.906 59.9772 119.375C59.5397 119.839 59.3079 120.43 59.2819 121.148H63.9303ZM66.1531 117.633H67.9734L69.8953 120.578L71.8406 117.633L73.5516 117.672L70.7313 121.711L73.6766 126H71.8797L69.8016 122.859L67.7859 126H66.0047L68.95 121.711L66.1531 117.633ZM79.0831 117.672H80.5128V126H79.0831V117.672ZM79.0831 114.523H80.5128V116.117H79.0831V114.523ZM83.3216 123.375C83.3632 123.844 83.4804 124.203 83.6731 124.453C84.0273 124.906 84.6419 125.133 85.5169 125.133C86.0377 125.133 86.496 125.021 86.8919 124.797C87.2877 124.568 87.4856 124.216 87.4856 123.742C87.4856 123.383 87.3268 123.109 87.0091 122.922C86.8059 122.807 86.4049 122.674 85.8059 122.523L84.6888 122.242C83.9752 122.065 83.4492 121.867 83.1106 121.648C82.5065 121.268 82.2044 120.742 82.2044 120.07C82.2044 119.279 82.4882 118.638 83.0559 118.148C83.6289 117.659 84.3971 117.414 85.3606 117.414C86.621 117.414 87.5299 117.784 88.0872 118.523C88.4361 118.992 88.6054 119.497 88.595 120.039H87.2669C87.2408 119.721 87.1289 119.432 86.9309 119.172C86.608 118.802 86.0481 118.617 85.2513 118.617C84.72 118.617 84.3164 118.719 84.0403 118.922C83.7695 119.125 83.6341 119.393 83.6341 119.727C83.6341 120.091 83.8138 120.383 84.1731 120.602C84.3815 120.732 84.6888 120.846 85.095 120.945L86.0247 121.172C87.0351 121.417 87.7122 121.654 88.0559 121.883C88.6028 122.242 88.8763 122.807 88.8763 123.578C88.8763 124.323 88.5924 124.966 88.0247 125.508C87.4622 126.049 86.6028 126.32 85.4466 126.32C84.2018 126.32 83.319 126.039 82.7981 125.477C82.2825 124.909 82.0065 124.208 81.97 123.375H83.3216ZM98.1031 117.445C98.6969 117.445 99.2724 117.586 99.8297 117.867C100.387 118.143 100.811 118.503 101.103 118.945C101.384 119.367 101.572 119.859 101.666 120.422C101.749 120.807 101.791 121.422 101.791 122.266H95.6578C95.6839 123.115 95.8844 123.797 96.2594 124.312C96.6344 124.823 97.2151 125.078 98.0016 125.078C98.7359 125.078 99.3219 124.836 99.7594 124.352C100.009 124.07 100.186 123.745 100.291 123.375H101.673C101.637 123.682 101.515 124.026 101.306 124.406C101.103 124.781 100.874 125.089 100.619 125.328C100.192 125.745 99.663 126.026 99.0328 126.172C98.6943 126.255 98.3115 126.297 97.8844 126.297C96.8427 126.297 95.9599 125.919 95.2359 125.164C94.512 124.404 94.15 123.341 94.15 121.977C94.15 120.633 94.5146 119.542 95.2438 118.703C95.9729 117.865 96.926 117.445 98.1031 117.445ZM100.345 121.148C100.288 120.539 100.155 120.052 99.9469 119.688C99.5615 119.01 98.9182 118.672 98.0172 118.672C97.3714 118.672 96.8297 118.906 96.3922 119.375C95.9547 119.839 95.7229 120.43 95.6969 121.148H100.345ZM104.443 123.773C104.443 124.18 104.592 124.5 104.888 124.734C105.185 124.969 105.537 125.086 105.943 125.086C106.438 125.086 106.917 124.971 107.381 124.742C108.162 124.362 108.552 123.74 108.552 122.875V121.742C108.381 121.852 108.159 121.943 107.888 122.016C107.618 122.089 107.352 122.141 107.092 122.172L106.24 122.281C105.73 122.349 105.347 122.456 105.092 122.602C104.659 122.846 104.443 123.237 104.443 123.773ZM107.849 120.93C108.172 120.888 108.388 120.753 108.498 120.523C108.56 120.398 108.592 120.219 108.592 119.984C108.592 119.505 108.42 119.159 108.076 118.945C107.737 118.727 107.25 118.617 106.615 118.617C105.881 118.617 105.36 118.815 105.052 119.211C104.881 119.43 104.769 119.755 104.717 120.188H103.404C103.43 119.156 103.763 118.44 104.404 118.039C105.05 117.633 105.797 117.43 106.646 117.43C107.631 117.43 108.43 117.617 109.045 117.992C109.654 118.367 109.959 118.951 109.959 119.742V124.562C109.959 124.708 109.987 124.826 110.045 124.914C110.107 125.003 110.235 125.047 110.427 125.047C110.49 125.047 110.56 125.044 110.638 125.039C110.717 125.029 110.8 125.016 110.888 125V126.039C110.67 126.102 110.503 126.141 110.388 126.156C110.274 126.172 110.118 126.18 109.92 126.18C109.435 126.18 109.084 126.008 108.865 125.664C108.75 125.482 108.67 125.224 108.623 124.891C108.336 125.266 107.925 125.591 107.388 125.867C106.852 126.143 106.261 126.281 105.615 126.281C104.839 126.281 104.204 126.047 103.709 125.578C103.219 125.104 102.974 124.513 102.974 123.805C102.974 123.029 103.217 122.427 103.701 122C104.185 121.573 104.821 121.31 105.607 121.211L107.849 120.93ZM112.947 123.375C112.989 123.844 113.106 124.203 113.299 124.453C113.653 124.906 114.268 125.133 115.143 125.133C115.663 125.133 116.122 125.021 116.518 124.797C116.913 124.568 117.111 124.216 117.111 123.742C117.111 123.383 116.952 123.109 116.635 122.922C116.432 122.807 116.031 122.674 115.432 122.523L114.314 122.242C113.601 122.065 113.075 121.867 112.736 121.648C112.132 121.268 111.83 120.742 111.83 120.07C111.83 119.279 112.114 118.638 112.682 118.148C113.254 117.659 114.023 117.414 114.986 117.414C116.247 117.414 117.156 117.784 117.713 118.523C118.062 118.992 118.231 119.497 118.221 120.039H116.893C116.866 119.721 116.754 119.432 116.557 119.172C116.234 118.802 115.674 118.617 114.877 118.617C114.346 118.617 113.942 118.719 113.666 118.922C113.395 119.125 113.26 119.393 113.26 119.727C113.26 120.091 113.439 120.383 113.799 120.602C114.007 120.732 114.314 120.846 114.721 120.945L115.65 121.172C116.661 121.417 117.338 121.654 117.682 121.883C118.228 122.242 118.502 122.807 118.502 123.578C118.502 124.323 118.218 124.966 117.65 125.508C117.088 126.049 116.228 126.32 115.072 126.32C113.827 126.32 112.945 126.039 112.424 125.477C111.908 124.909 111.632 124.208 111.596 123.375H112.947ZM125.178 117.633H126.732C126.535 118.169 126.094 119.393 125.412 121.305C124.902 122.742 124.475 123.914 124.131 124.82C123.318 126.956 122.746 128.258 122.412 128.727C122.079 129.195 121.506 129.43 120.693 129.43C120.496 129.43 120.342 129.422 120.232 129.406C120.128 129.391 119.998 129.362 119.842 129.32V128.039C120.087 128.107 120.264 128.148 120.373 128.164C120.482 128.18 120.579 128.188 120.662 128.188C120.923 128.188 121.113 128.143 121.232 128.055C121.357 127.971 121.462 127.867 121.545 127.742C121.571 127.701 121.665 127.487 121.826 127.102C121.988 126.716 122.105 126.43 122.178 126.242L119.084 117.633H120.678L122.92 124.445L125.178 117.633ZM132.366 115.297H133.787V117.633H135.123V118.781H133.787V124.242C133.787 124.534 133.886 124.729 134.084 124.828C134.194 124.885 134.376 124.914 134.631 124.914C134.699 124.914 134.772 124.914 134.85 124.914C134.928 124.909 135.019 124.901 135.123 124.891V126C134.962 126.047 134.793 126.081 134.616 126.102C134.444 126.122 134.256 126.133 134.053 126.133C133.397 126.133 132.952 125.966 132.717 125.633C132.483 125.294 132.366 124.857 132.366 124.32V118.781H131.233V117.633H132.366V115.297ZM139.698 125.094C140.63 125.094 141.268 124.742 141.612 124.039C141.961 123.331 142.135 122.544 142.135 121.68C142.135 120.898 142.01 120.263 141.76 119.773C141.364 119.003 140.682 118.617 139.713 118.617C138.854 118.617 138.229 118.945 137.838 119.602C137.448 120.258 137.253 121.049 137.253 121.977C137.253 122.867 137.448 123.609 137.838 124.203C138.229 124.797 138.849 125.094 139.698 125.094ZM139.753 117.391C140.831 117.391 141.742 117.75 142.487 118.469C143.232 119.188 143.604 120.245 143.604 121.641C143.604 122.99 143.276 124.104 142.62 124.984C141.963 125.865 140.945 126.305 139.565 126.305C138.414 126.305 137.5 125.917 136.823 125.141C136.146 124.359 135.807 123.312 135.807 122C135.807 120.594 136.164 119.474 136.878 118.641C137.591 117.807 138.549 117.391 139.753 117.391ZM150.823 117.633V123.188C150.823 123.615 150.891 123.964 151.026 124.234C151.276 124.734 151.742 124.984 152.425 124.984C153.404 124.984 154.071 124.547 154.425 123.672C154.617 123.203 154.714 122.56 154.714 121.742V117.633H156.12V126H154.792L154.808 124.766C154.625 125.083 154.399 125.352 154.128 125.57C153.591 126.008 152.94 126.227 152.175 126.227C150.982 126.227 150.169 125.828 149.737 125.031C149.503 124.604 149.386 124.034 149.386 123.32V117.633H150.823ZM158.999 123.375C159.041 123.844 159.158 124.203 159.351 124.453C159.705 124.906 160.319 125.133 161.194 125.133C161.715 125.133 162.174 125.021 162.569 124.797C162.965 124.568 163.163 124.216 163.163 123.742C163.163 123.383 163.004 123.109 162.687 122.922C162.483 122.807 162.082 122.674 161.483 122.523L160.366 122.242C159.653 122.065 159.127 121.867 158.788 121.648C158.184 121.268 157.882 120.742 157.882 120.07C157.882 119.279 158.166 118.638 158.733 118.148C159.306 117.659 160.075 117.414 161.038 117.414C162.299 117.414 163.207 117.784 163.765 118.523C164.114 118.992 164.283 119.497 164.273 120.039H162.944C162.918 119.721 162.806 119.432 162.608 119.172C162.286 118.802 161.726 118.617 160.929 118.617C160.398 118.617 159.994 118.719 159.718 118.922C159.447 119.125 159.312 119.393 159.312 119.727C159.312 120.091 159.491 120.383 159.851 120.602C160.059 120.732 160.366 120.846 160.773 120.945L161.702 121.172C162.713 121.417 163.39 121.654 163.733 121.883C164.28 122.242 164.554 122.807 164.554 123.578C164.554 124.323 164.27 124.966 163.702 125.508C163.14 126.049 162.28 126.32 161.124 126.32C159.879 126.32 158.996 126.039 158.476 125.477C157.96 124.909 157.684 124.208 157.648 123.375H158.999ZM169.488 117.445C170.081 117.445 170.657 117.586 171.214 117.867C171.771 118.143 172.196 118.503 172.488 118.945C172.769 119.367 172.956 119.859 173.05 120.422C173.133 120.807 173.175 121.422 173.175 122.266H167.042C167.068 123.115 167.269 123.797 167.644 124.312C168.019 124.823 168.599 125.078 169.386 125.078C170.12 125.078 170.706 124.836 171.144 124.352C171.394 124.07 171.571 123.745 171.675 123.375H173.058C173.021 123.682 172.899 124.026 172.691 124.406C172.488 124.781 172.258 125.089 172.003 125.328C171.576 125.745 171.047 126.026 170.417 126.172C170.079 126.255 169.696 126.297 169.269 126.297C168.227 126.297 167.344 125.919 166.62 125.164C165.896 124.404 165.534 123.341 165.534 121.977C165.534 120.633 165.899 119.542 166.628 118.703C167.357 117.865 168.31 117.445 169.488 117.445ZM171.73 121.148C171.672 120.539 171.54 120.052 171.331 119.688C170.946 119.01 170.303 118.672 169.402 118.672C168.756 118.672 168.214 118.906 167.777 119.375C167.339 119.839 167.107 120.43 167.081 121.148H171.73ZM179.691 117.633L181.3 124.227L182.933 117.633H184.511L186.152 124.188L187.863 117.633H189.269L186.839 126H185.378L183.675 119.523L182.027 126H180.566L178.152 117.633H179.691ZM190.445 117.672H191.875V126H190.445V117.672ZM190.445 114.523H191.875V116.117H190.445V114.523ZM194.129 115.297H195.551V117.633H196.887V118.781H195.551V124.242C195.551 124.534 195.65 124.729 195.848 124.828C195.957 124.885 196.139 124.914 196.394 124.914C196.462 124.914 196.535 124.914 196.613 124.914C196.691 124.909 196.782 124.901 196.887 124.891V126C196.725 126.047 196.556 126.081 196.379 126.102C196.207 126.122 196.019 126.133 195.816 126.133C195.16 126.133 194.715 125.966 194.48 125.633C194.246 125.294 194.129 124.857 194.129 124.32V118.781H192.996V117.633H194.129V115.297ZM198.141 114.484H199.547V118.766C199.88 118.344 200.18 118.047 200.445 117.875C200.898 117.578 201.464 117.43 202.141 117.43C203.354 117.43 204.177 117.854 204.609 118.703C204.844 119.167 204.961 119.81 204.961 120.633V126H203.516V120.727C203.516 120.112 203.438 119.661 203.281 119.375C203.026 118.917 202.547 118.688 201.844 118.688C201.26 118.688 200.732 118.888 200.258 119.289C199.784 119.69 199.547 120.448 199.547 121.562V126H198.141V114.484ZM28.2578 135.391C29.2005 135.391 29.9661 135.62 30.5547 136.078C31.1484 136.536 31.5052 137.326 31.625 138.445H30.2578C30.1745 137.93 29.9844 137.503 29.6875 137.164C29.3906 136.82 28.9141 136.648 28.2578 136.648C27.362 136.648 26.7214 137.086 26.3359 137.961C26.0859 138.529 25.9609 139.229 25.9609 140.062C25.9609 140.901 26.138 141.607 26.4922 142.18C26.8464 142.753 27.4036 143.039 28.1641 143.039C28.7474 143.039 29.2083 142.862 29.5469 142.508C29.8906 142.148 30.1276 141.659 30.2578 141.039H31.625C31.4688 142.148 31.0781 142.961 30.4531 143.477C29.8281 143.987 29.0286 144.242 28.0547 144.242C26.9609 144.242 26.0885 143.844 25.4375 143.047C24.7865 142.245 24.4609 141.245 24.4609 140.047C24.4609 138.578 24.8177 137.435 25.5312 136.617C26.2448 135.799 27.1536 135.391 28.2578 135.391ZM32.9103 132.523H34.3166V144H32.9103V132.523ZM39.7581 135.445C40.3519 135.445 40.9274 135.586 41.4847 135.867C42.042 136.143 42.4665 136.503 42.7581 136.945C43.0394 137.367 43.2269 137.859 43.3206 138.422C43.404 138.807 43.4456 139.422 43.4456 140.266H37.3128C37.3389 141.115 37.5394 141.797 37.9144 142.312C38.2894 142.823 38.8701 143.078 39.6566 143.078C40.3909 143.078 40.9769 142.836 41.4144 142.352C41.6644 142.07 41.8415 141.745 41.9456 141.375H43.3284C43.292 141.682 43.1696 142.026 42.9613 142.406C42.7581 142.781 42.529 143.089 42.2738 143.328C41.8467 143.745 41.318 144.026 40.6878 144.172C40.3493 144.255 39.9665 144.297 39.5394 144.297C38.4977 144.297 37.6149 143.919 36.8909 143.164C36.167 142.404 35.805 141.341 35.805 139.977C35.805 138.633 36.1696 137.542 36.8988 136.703C37.6279 135.865 38.581 135.445 39.7581 135.445ZM42.0003 139.148C41.943 138.539 41.8102 138.052 41.6019 137.688C41.2165 137.01 40.5732 136.672 39.6722 136.672C39.0264 136.672 38.4847 136.906 38.0472 137.375C37.6097 137.839 37.3779 138.43 37.3519 139.148H42.0003ZM46.0981 141.773C46.0981 142.18 46.2466 142.5 46.5434 142.734C46.8403 142.969 47.1919 143.086 47.5981 143.086C48.0929 143.086 48.5721 142.971 49.0356 142.742C49.8169 142.362 50.2075 141.74 50.2075 140.875V139.742C50.0356 139.852 49.8143 139.943 49.5434 140.016C49.2726 140.089 49.007 140.141 48.7466 140.172L47.895 140.281C47.3846 140.349 47.0018 140.456 46.7466 140.602C46.3143 140.846 46.0981 141.237 46.0981 141.773ZM49.5044 138.93C49.8273 138.888 50.0434 138.753 50.1528 138.523C50.2153 138.398 50.2466 138.219 50.2466 137.984C50.2466 137.505 50.0747 137.159 49.7309 136.945C49.3924 136.727 48.9054 136.617 48.27 136.617C47.5356 136.617 47.0148 136.815 46.7075 137.211C46.5356 137.43 46.4236 137.755 46.3716 138.188H45.0591C45.0851 137.156 45.4184 136.44 46.0591 136.039C46.7049 135.633 47.4523 135.43 48.3013 135.43C49.2856 135.43 50.0851 135.617 50.6997 135.992C51.3091 136.367 51.6138 136.951 51.6138 137.742V142.562C51.6138 142.708 51.6424 142.826 51.6997 142.914C51.7622 143.003 51.8898 143.047 52.0825 143.047C52.145 143.047 52.2153 143.044 52.2934 143.039C52.3716 143.029 52.4549 143.016 52.5434 143V144.039C52.3247 144.102 52.158 144.141 52.0434 144.156C51.9289 144.172 51.7726 144.18 51.5747 144.18C51.0903 144.18 50.7388 144.008 50.52 143.664C50.4054 143.482 50.3247 143.224 50.2778 142.891C49.9914 143.266 49.5799 143.591 49.0434 143.867C48.507 144.143 47.9158 144.281 47.27 144.281C46.494 144.281 45.8585 144.047 45.3638 143.578C44.8742 143.104 44.6294 142.513 44.6294 141.805C44.6294 141.029 44.8716 140.427 45.3559 140C45.8403 139.573 46.4757 139.31 47.2622 139.211L49.5044 138.93ZM53.8053 135.633H55.1413V137.078C55.2506 136.797 55.5189 136.456 55.9459 136.055C56.373 135.648 56.8652 135.445 57.4225 135.445C57.4485 135.445 57.4928 135.448 57.5553 135.453C57.6178 135.458 57.7246 135.469 57.8756 135.484V136.969C57.7923 136.953 57.7142 136.943 57.6413 136.938C57.5735 136.932 57.498 136.93 57.4147 136.93C56.7064 136.93 56.1621 137.159 55.7819 137.617C55.4017 138.07 55.2116 138.594 55.2116 139.188V144H53.8053V135.633ZM63.2275 135.672H64.6572V144H63.2275V135.672ZM63.2275 132.523H64.6572V134.117H63.2275V132.523ZM66.63 135.633H67.9659V136.82C68.3618 136.331 68.781 135.979 69.2238 135.766C69.6665 135.552 70.1586 135.445 70.7003 135.445C71.8878 135.445 72.6899 135.859 73.1066 136.688C73.3357 137.141 73.4503 137.789 73.4503 138.633V144H72.0206V138.727C72.0206 138.216 71.9451 137.805 71.7941 137.492C71.5441 136.971 71.0909 136.711 70.4347 136.711C70.1014 136.711 69.8279 136.745 69.6144 136.812C69.229 136.927 68.8904 137.156 68.5988 137.5C68.3644 137.776 68.2107 138.062 68.1378 138.359C68.0701 138.651 68.0363 139.07 68.0363 139.617V144H66.63V135.633ZM76.2122 141.375C76.2539 141.844 76.371 142.203 76.5638 142.453C76.9179 142.906 77.5325 143.133 78.4075 143.133C78.9283 143.133 79.3867 143.021 79.7825 142.797C80.1783 142.568 80.3763 142.216 80.3763 141.742C80.3763 141.383 80.2174 141.109 79.8997 140.922C79.6966 140.807 79.2955 140.674 78.6966 140.523L77.5794 140.242C76.8658 140.065 76.3398 139.867 76.0013 139.648C75.3971 139.268 75.095 138.742 75.095 138.07C75.095 137.279 75.3789 136.638 75.9466 136.148C76.5195 135.659 77.2877 135.414 78.2513 135.414C79.5117 135.414 80.4205 135.784 80.9778 136.523C81.3268 136.992 81.496 137.497 81.4856 138.039H80.1575C80.1315 137.721 80.0195 137.432 79.8216 137.172C79.4986 136.802 78.9388 136.617 78.1419 136.617C77.6106 136.617 77.207 136.719 76.9309 136.922C76.6601 137.125 76.5247 137.393 76.5247 137.727C76.5247 138.091 76.7044 138.383 77.0638 138.602C77.2721 138.732 77.5794 138.846 77.9856 138.945L78.9153 139.172C79.9257 139.417 80.6028 139.654 80.9466 139.883C81.4934 140.242 81.7669 140.807 81.7669 141.578C81.7669 142.323 81.483 142.966 80.9153 143.508C80.3528 144.049 79.4934 144.32 78.3372 144.32C77.0924 144.32 76.2096 144.039 75.6888 143.477C75.1731 142.909 74.8971 142.208 74.8606 141.375H76.2122ZM83.2163 135.672H84.6459V144H83.2163V135.672ZM83.2163 132.523H84.6459V134.117H83.2163V132.523ZM89.5719 135.484C90.2281 135.484 90.801 135.646 91.2906 135.969C91.5563 136.151 91.8271 136.417 92.1031 136.766V135.711H93.4V143.32C93.4 144.383 93.2438 145.221 92.9313 145.836C92.3479 146.971 91.2464 147.539 89.6266 147.539C88.7255 147.539 87.9677 147.336 87.3531 146.93C86.7385 146.529 86.3948 145.898 86.3219 145.039H87.7516C87.8193 145.414 87.9547 145.703 88.1578 145.906C88.4755 146.219 88.9755 146.375 89.6578 146.375C90.7359 146.375 91.4417 145.995 91.775 145.234C91.9729 144.786 92.0641 143.987 92.0484 142.836C91.7672 143.263 91.4286 143.581 91.0328 143.789C90.637 143.997 90.1135 144.102 89.4625 144.102C88.5563 144.102 87.762 143.781 87.0797 143.141C86.4026 142.495 86.0641 141.43 86.0641 139.945C86.0641 138.544 86.4052 137.451 87.0875 136.664C87.775 135.878 88.6031 135.484 89.5719 135.484ZM92.1031 139.781C92.1031 138.745 91.8896 137.977 91.4625 137.477C91.0354 136.977 90.4911 136.727 89.8297 136.727C88.8401 136.727 88.163 137.19 87.7984 138.117C87.6057 138.612 87.5094 139.26 87.5094 140.062C87.5094 141.005 87.6995 141.724 88.0797 142.219C88.4651 142.708 88.9807 142.953 89.6266 142.953C90.637 142.953 91.3479 142.497 91.7594 141.586C91.9885 141.07 92.1031 140.469 92.1031 139.781ZM95.365 132.484H96.7712V136.766C97.1046 136.344 97.4041 136.047 97.6697 135.875C98.1228 135.578 98.6879 135.43 99.365 135.43C100.579 135.43 101.401 135.854 101.834 136.703C102.068 137.167 102.185 137.81 102.185 138.633V144H100.74V138.727C100.74 138.112 100.662 137.661 100.506 137.375C100.25 136.917 99.7712 136.688 99.0681 136.688C98.4848 136.688 97.9561 136.888 97.4822 137.289C97.0082 137.69 96.7712 138.448 96.7712 139.562V144H95.365V132.484ZM104.393 133.297H105.814V135.633H107.15V136.781H105.814V142.242C105.814 142.534 105.913 142.729 106.111 142.828C106.221 142.885 106.403 142.914 106.658 142.914C106.726 142.914 106.799 142.914 106.877 142.914C106.955 142.909 107.046 142.901 107.15 142.891V144C106.989 144.047 106.82 144.081 106.643 144.102C106.471 144.122 106.283 144.133 106.08 144.133C105.424 144.133 104.978 143.966 104.744 143.633C104.51 143.294 104.393 142.857 104.393 142.32V136.781H103.26V135.633H104.393V133.297ZM109.24 141.375C109.282 141.844 109.399 142.203 109.592 142.453C109.946 142.906 110.561 143.133 111.436 143.133C111.956 143.133 112.415 143.021 112.811 142.797C113.206 142.568 113.404 142.216 113.404 141.742C113.404 141.383 113.246 141.109 112.928 140.922C112.725 140.807 112.324 140.674 111.725 140.523L110.607 140.242C109.894 140.065 109.368 139.867 109.029 139.648C108.425 139.268 108.123 138.742 108.123 138.07C108.123 137.279 108.407 136.638 108.975 136.148C109.548 135.659 110.316 135.414 111.279 135.414C112.54 135.414 113.449 135.784 114.006 136.523C114.355 136.992 114.524 137.497 114.514 138.039H113.186C113.16 137.721 113.048 137.432 112.85 137.172C112.527 136.802 111.967 136.617 111.17 136.617C110.639 136.617 110.235 136.719 109.959 136.922C109.688 137.125 109.553 137.393 109.553 137.727C109.553 138.091 109.732 138.383 110.092 138.602C110.3 138.732 110.607 138.846 111.014 138.945L111.943 139.172C112.954 139.417 113.631 139.654 113.975 139.883C114.522 140.242 114.795 140.807 114.795 141.578C114.795 142.323 114.511 142.966 113.943 143.508C113.381 144.049 112.522 144.32 111.365 144.32C110.121 144.32 109.238 144.039 108.717 143.477C108.201 142.909 107.925 142.208 107.889 141.375H109.24ZM121.373 141.375C121.415 141.844 121.532 142.203 121.725 142.453C122.079 142.906 122.694 143.133 123.569 143.133C124.09 143.133 124.548 143.021 124.944 142.797C125.34 142.568 125.537 142.216 125.537 141.742C125.537 141.383 125.379 141.109 125.061 140.922C124.858 140.807 124.457 140.674 123.858 140.523L122.741 140.242C122.027 140.065 121.501 139.867 121.162 139.648C120.558 139.268 120.256 138.742 120.256 138.07C120.256 137.279 120.54 136.638 121.108 136.148C121.681 135.659 122.449 135.414 123.412 135.414C124.673 135.414 125.582 135.784 126.139 136.523C126.488 136.992 126.657 137.497 126.647 138.039H125.319C125.293 137.721 125.181 137.432 124.983 137.172C124.66 136.802 124.1 136.617 123.303 136.617C122.772 136.617 122.368 136.719 122.092 136.922C121.821 137.125 121.686 137.393 121.686 137.727C121.686 138.091 121.866 138.383 122.225 138.602C122.433 138.732 122.741 138.846 123.147 138.945L124.077 139.172C125.087 139.417 125.764 139.654 126.108 139.883C126.655 140.242 126.928 140.807 126.928 141.578C126.928 142.323 126.644 142.966 126.077 143.508C125.514 144.049 124.655 144.32 123.498 144.32C122.254 144.32 121.371 144.039 120.85 143.477C120.334 142.909 120.058 142.208 120.022 141.375H121.373ZM131.698 143.094C132.63 143.094 133.268 142.742 133.612 142.039C133.961 141.331 134.135 140.544 134.135 139.68C134.135 138.898 134.01 138.263 133.76 137.773C133.364 137.003 132.682 136.617 131.713 136.617C130.854 136.617 130.229 136.945 129.838 137.602C129.448 138.258 129.253 139.049 129.253 139.977C129.253 140.867 129.448 141.609 129.838 142.203C130.229 142.797 130.849 143.094 131.698 143.094ZM131.753 135.391C132.831 135.391 133.742 135.75 134.487 136.469C135.232 137.188 135.604 138.245 135.604 139.641C135.604 140.99 135.276 142.104 134.62 142.984C133.963 143.865 132.945 144.305 131.565 144.305C130.414 144.305 129.5 143.917 128.823 143.141C128.146 142.359 127.807 141.312 127.807 140C127.807 138.594 128.164 137.474 128.878 136.641C129.591 135.807 130.549 135.391 131.753 135.391ZM146.643 135.633H148.198C148 136.169 147.56 137.393 146.878 139.305C146.367 140.742 145.94 141.914 145.597 142.82C144.784 144.956 144.211 146.258 143.878 146.727C143.544 147.195 142.972 147.43 142.159 147.43C141.961 147.43 141.808 147.422 141.698 147.406C141.594 147.391 141.464 147.362 141.308 147.32V146.039C141.552 146.107 141.729 146.148 141.839 146.164C141.948 146.18 142.044 146.188 142.128 146.188C142.388 146.188 142.578 146.143 142.698 146.055C142.823 145.971 142.927 145.867 143.011 145.742C143.037 145.701 143.13 145.487 143.292 145.102C143.453 144.716 143.571 144.43 143.643 144.242L140.55 135.633H142.143L144.386 142.445L146.643 135.633ZM152.577 143.094C153.509 143.094 154.147 142.742 154.491 142.039C154.84 141.331 155.015 140.544 155.015 139.68C155.015 138.898 154.89 138.263 154.64 137.773C154.244 137.003 153.562 136.617 152.593 136.617C151.733 136.617 151.108 136.945 150.718 137.602C150.327 138.258 150.132 139.049 150.132 139.977C150.132 140.867 150.327 141.609 150.718 142.203C151.108 142.797 151.728 143.094 152.577 143.094ZM152.632 135.391C153.71 135.391 154.621 135.75 155.366 136.469C156.111 137.188 156.483 138.245 156.483 139.641C156.483 140.99 156.155 142.104 155.499 142.984C154.843 143.865 153.825 144.305 152.444 144.305C151.293 144.305 150.379 143.917 149.702 143.141C149.025 142.359 148.687 141.312 148.687 140C148.687 138.594 149.043 137.474 149.757 136.641C150.47 135.807 151.429 135.391 152.632 135.391ZM159.409 135.633V141.188C159.409 141.615 159.477 141.964 159.613 142.234C159.863 142.734 160.329 142.984 161.011 142.984C161.99 142.984 162.657 142.547 163.011 141.672C163.204 141.203 163.3 140.56 163.3 139.742V135.633H164.706V144H163.378L163.394 142.766C163.211 143.083 162.985 143.352 162.714 143.57C162.178 144.008 161.527 144.227 160.761 144.227C159.568 144.227 158.756 143.828 158.323 143.031C158.089 142.604 157.972 142.034 157.972 141.32V135.633H159.409ZM174.269 135.391C175.212 135.391 175.977 135.62 176.566 136.078C177.16 136.536 177.516 137.326 177.636 138.445H176.269C176.186 137.93 175.996 137.503 175.699 137.164C175.402 136.82 174.925 136.648 174.269 136.648C173.373 136.648 172.733 137.086 172.347 137.961C172.097 138.529 171.972 139.229 171.972 140.062C171.972 140.901 172.149 141.607 172.503 142.18C172.858 142.753 173.415 143.039 174.175 143.039C174.759 143.039 175.22 142.862 175.558 142.508C175.902 142.148 176.139 141.659 176.269 141.039H177.636C177.48 142.148 177.089 142.961 176.464 143.477C175.839 143.987 175.04 144.242 174.066 144.242C172.972 144.242 172.1 143.844 171.449 143.047C170.798 142.245 170.472 141.245 170.472 140.047C170.472 138.578 170.829 137.435 171.542 136.617C172.256 135.799 173.165 135.391 174.269 135.391ZM179.961 141.773C179.961 142.18 180.109 142.5 180.406 142.734C180.703 142.969 181.054 143.086 181.461 143.086C181.955 143.086 182.435 142.971 182.898 142.742C183.679 142.362 184.07 141.74 184.07 140.875V139.742C183.898 139.852 183.677 139.943 183.406 140.016C183.135 140.089 182.869 140.141 182.609 140.172L181.758 140.281C181.247 140.349 180.864 140.456 180.609 140.602C180.177 140.846 179.961 141.237 179.961 141.773ZM183.367 138.93C183.69 138.888 183.906 138.753 184.015 138.523C184.078 138.398 184.109 138.219 184.109 137.984C184.109 137.505 183.937 137.159 183.593 136.945C183.255 136.727 182.768 136.617 182.133 136.617C181.398 136.617 180.877 136.815 180.57 137.211C180.398 137.43 180.286 137.755 180.234 138.188H178.922C178.948 137.156 179.281 136.44 179.922 136.039C180.567 135.633 181.315 135.43 182.164 135.43C183.148 135.43 183.948 135.617 184.562 135.992C185.172 136.367 185.476 136.951 185.476 137.742V142.562C185.476 142.708 185.505 142.826 185.562 142.914C185.625 143.003 185.752 143.047 185.945 143.047C186.008 143.047 186.078 143.044 186.156 143.039C186.234 143.029 186.317 143.016 186.406 143V144.039C186.187 144.102 186.021 144.141 185.906 144.156C185.791 144.172 185.635 144.18 185.437 144.18C184.953 144.18 184.601 144.008 184.383 143.664C184.268 143.482 184.187 143.224 184.14 142.891C183.854 143.266 183.442 143.591 182.906 143.867C182.369 144.143 181.778 144.281 181.133 144.281C180.356 144.281 179.721 144.047 179.226 143.578C178.737 143.104 178.492 142.513 178.492 141.805C178.492 141.029 178.734 140.427 179.218 140C179.703 139.573 180.338 139.31 181.125 139.211L183.367 138.93ZM187.629 135.633H188.965V136.82C189.361 136.331 189.78 135.979 190.223 135.766C190.665 135.552 191.157 135.445 191.699 135.445C192.887 135.445 193.689 135.859 194.105 136.688C194.334 137.141 194.449 137.789 194.449 138.633V144H193.019V138.727C193.019 138.216 192.944 137.805 192.793 137.492C192.543 136.971 192.09 136.711 191.433 136.711C191.1 136.711 190.827 136.745 190.613 136.812C190.228 136.927 189.889 137.156 189.598 137.5C189.363 137.776 189.209 138.062 189.137 138.359C189.069 138.651 189.035 139.07 189.035 139.617V144H187.629V135.633ZM201.02 134.359C201.041 133.776 201.142 133.349 201.324 133.078C201.652 132.599 202.285 132.359 203.223 132.359C203.311 132.359 203.402 132.362 203.496 132.367C203.59 132.372 203.697 132.38 203.817 132.391V133.672C203.671 133.661 203.564 133.656 203.496 133.656C203.434 133.651 203.374 133.648 203.317 133.648C202.889 133.648 202.634 133.76 202.551 133.984C202.468 134.203 202.426 134.766 202.426 135.672H203.817V136.781H202.41V144H201.02V136.781H199.856V135.672H201.02V134.359ZM208.282 143.094C209.214 143.094 209.852 142.742 210.196 142.039C210.545 141.331 210.719 140.544 210.719 139.68C210.719 138.898 210.594 138.263 210.344 137.773C209.948 137.003 209.266 136.617 208.297 136.617C207.438 136.617 206.813 136.945 206.422 137.602C206.032 138.258 205.836 139.049 205.836 139.977C205.836 140.867 206.032 141.609 206.422 142.203C206.813 142.797 207.433 143.094 208.282 143.094ZM208.336 135.391C209.414 135.391 210.326 135.75 211.071 136.469C211.815 137.188 212.188 138.245 212.188 139.641C212.188 140.99 211.86 142.104 211.203 142.984C210.547 143.865 209.529 144.305 208.149 144.305C206.998 144.305 206.084 143.917 205.407 143.141C204.729 142.359 204.391 141.312 204.391 140C204.391 138.594 204.748 137.474 205.461 136.641C206.175 135.807 207.133 135.391 208.336 135.391ZM216.934 135.391C217.877 135.391 218.642 135.62 219.231 136.078C219.825 136.536 220.181 137.326 220.301 138.445H218.934C218.851 137.93 218.661 137.503 218.364 137.164C218.067 136.82 217.59 136.648 216.934 136.648C216.038 136.648 215.398 137.086 215.012 137.961C214.762 138.529 214.637 139.229 214.637 140.062C214.637 140.901 214.814 141.607 215.168 142.18C215.523 142.753 216.08 143.039 216.84 143.039C217.424 143.039 217.885 142.862 218.223 142.508C218.567 142.148 218.804 141.659 218.934 141.039H220.301C220.145 142.148 219.754 142.961 219.129 143.477C218.504 143.987 217.705 144.242 216.731 144.242C215.637 144.242 214.765 143.844 214.114 143.047C213.463 142.245 213.137 141.245 213.137 140.047C213.137 138.578 213.494 137.435 214.208 136.617C214.921 135.799 215.83 135.391 216.934 135.391ZM222.954 135.633V141.188C222.954 141.615 223.021 141.964 223.157 142.234C223.407 142.734 223.873 142.984 224.555 142.984C225.534 142.984 226.201 142.547 226.555 141.672C226.748 141.203 226.844 140.56 226.844 139.742V135.633H228.251V144H226.923L226.938 142.766C226.756 143.083 226.529 143.352 226.258 143.57C225.722 144.008 225.071 144.227 224.305 144.227C223.113 144.227 222.3 143.828 221.868 143.031C221.633 142.604 221.516 142.034 221.516 141.32V135.633H222.954ZM231.13 141.375C231.171 141.844 231.289 142.203 231.481 142.453C231.835 142.906 232.45 143.133 233.325 143.133C233.846 143.133 234.304 143.021 234.7 142.797C235.096 142.568 235.294 142.216 235.294 141.742C235.294 141.383 235.135 141.109 234.817 140.922C234.614 140.807 234.213 140.674 233.614 140.523L232.497 140.242C231.783 140.065 231.257 139.867 230.919 139.648C230.315 139.268 230.012 138.742 230.012 138.07C230.012 137.279 230.296 136.638 230.864 136.148C231.437 135.659 232.205 135.414 233.169 135.414C234.429 135.414 235.338 135.784 235.895 136.523C236.244 136.992 236.414 137.497 236.403 138.039H235.075C235.049 137.721 234.937 137.432 234.739 137.172C234.416 136.802 233.856 136.617 233.059 136.617C232.528 136.617 232.124 136.719 231.848 136.922C231.578 137.125 231.442 137.393 231.442 137.727C231.442 138.091 231.622 138.383 231.981 138.602C232.19 138.732 232.497 138.846 232.903 138.945L233.833 139.172C234.843 139.417 235.52 139.654 235.864 139.883C236.411 140.242 236.684 140.807 236.684 141.578C236.684 142.323 236.401 142.966 235.833 143.508C235.27 144.049 234.411 144.32 233.255 144.32C232.01 144.32 231.127 144.039 230.606 143.477C230.091 142.909 229.815 142.208 229.778 141.375H231.13ZM28.3516 161.094C29.2839 161.094 29.9219 160.742 30.2656 160.039C30.6146 159.331 30.7891 158.544 30.7891 157.68C30.7891 156.898 30.6641 156.263 30.4141 155.773C30.0182 155.003 29.3359 154.617 28.3672 154.617C27.5078 154.617 26.8828 154.945 26.4922 155.602C26.1016 156.258 25.9062 157.049 25.9062 157.977C25.9062 158.867 26.1016 159.609 26.4922 160.203C26.8828 160.797 27.5026 161.094 28.3516 161.094ZM28.4062 153.391C29.4844 153.391 30.3958 153.75 31.1406 154.469C31.8854 155.188 32.2578 156.245 32.2578 157.641C32.2578 158.99 31.9297 160.104 31.2734 160.984C30.6172 161.865 29.599 162.305 28.2188 162.305C27.0677 162.305 26.1536 161.917 25.4766 161.141C24.7995 160.359 24.4609 159.312 24.4609 158C24.4609 156.594 24.8177 155.474 25.5312 154.641C26.2448 153.807 27.2031 153.391 28.4062 153.391ZM33.7775 153.633H35.1134V154.82C35.5093 154.331 35.9285 153.979 36.3713 153.766C36.814 153.552 37.3061 153.445 37.8478 153.445C39.0353 153.445 39.8374 153.859 40.2541 154.688C40.4832 155.141 40.5978 155.789 40.5978 156.633V162H39.1681V156.727C39.1681 156.216 39.0926 155.805 38.9416 155.492C38.6916 154.971 38.2384 154.711 37.5822 154.711C37.2489 154.711 36.9754 154.745 36.7619 154.812C36.3765 154.927 36.0379 155.156 35.7463 155.5C35.5119 155.776 35.3582 156.062 35.2853 156.359C35.2176 156.651 35.1838 157.07 35.1838 157.617V162H33.7775V153.633ZM47.4653 153.633L49.0747 160.227L50.7075 153.633H52.2856L53.9263 160.188L55.6372 153.633H57.0434L54.6138 162H53.1528L51.4497 155.523L49.8013 162H48.3403L45.9263 153.633H47.4653ZM58.2194 150.484H59.6256V154.766C59.959 154.344 60.2584 154.047 60.5241 153.875C60.9772 153.578 61.5423 153.43 62.2194 153.43C63.4329 153.43 64.2558 153.854 64.6881 154.703C64.9225 155.167 65.0397 155.81 65.0397 156.633V162H63.5944V156.727C63.5944 156.112 63.5163 155.661 63.36 155.375C63.1048 154.917 62.6256 154.688 61.9225 154.688C61.3392 154.688 60.8105 154.888 60.3366 155.289C59.8626 155.69 59.6256 156.448 59.6256 157.562V162H58.2194V150.484ZM68.0438 159.773C68.0438 160.18 68.1922 160.5 68.4891 160.734C68.7859 160.969 69.1375 161.086 69.5438 161.086C70.0385 161.086 70.5177 160.971 70.9813 160.742C71.7625 160.362 72.1531 159.74 72.1531 158.875V157.742C71.9813 157.852 71.7599 157.943 71.4891 158.016C71.2182 158.089 70.9526 158.141 70.6922 158.172L69.8406 158.281C69.3302 158.349 68.9474 158.456 68.6922 158.602C68.2599 158.846 68.0438 159.237 68.0438 159.773ZM71.45 156.93C71.7729 156.888 71.9891 156.753 72.0984 156.523C72.1609 156.398 72.1922 156.219 72.1922 155.984C72.1922 155.505 72.0203 155.159 71.6766 154.945C71.338 154.727 70.851 154.617 70.2156 154.617C69.4813 154.617 68.9604 154.815 68.6531 155.211C68.4813 155.43 68.3693 155.755 68.3172 156.188H67.0047C67.0307 155.156 67.3641 154.44 68.0047 154.039C68.6505 153.633 69.3979 153.43 70.2469 153.43C71.2313 153.43 72.0307 153.617 72.6453 153.992C73.2547 154.367 73.5594 154.951 73.5594 155.742V160.562C73.5594 160.708 73.588 160.826 73.6453 160.914C73.7078 161.003 73.8354 161.047 74.0281 161.047C74.0906 161.047 74.1609 161.044 74.2391 161.039C74.3172 161.029 74.4005 161.016 74.4891 161V162.039C74.2703 162.102 74.1036 162.141 73.9891 162.156C73.8745 162.172 73.7182 162.18 73.5203 162.18C73.0359 162.18 72.6844 162.008 72.4656 161.664C72.351 161.482 72.2703 161.224 72.2234 160.891C71.937 161.266 71.5255 161.591 70.9891 161.867C70.4526 162.143 69.8615 162.281 69.2156 162.281C68.4396 162.281 67.8042 162.047 67.3094 161.578C66.8198 161.104 66.575 160.513 66.575 159.805C66.575 159.029 66.8172 158.427 67.3016 158C67.7859 157.573 68.4214 157.31 69.2078 157.211L71.45 156.93ZM75.9931 151.297H77.415V153.633H78.7509V154.781H77.415V160.242C77.415 160.534 77.514 160.729 77.7119 160.828C77.8213 160.885 78.0035 160.914 78.2588 160.914C78.3265 160.914 78.3994 160.914 78.4775 160.914C78.5556 160.909 78.6468 160.901 78.7509 160.891V162C78.5895 162.047 78.4202 162.081 78.2431 162.102C78.0713 162.122 77.8838 162.133 77.6806 162.133C77.0244 162.133 76.5791 161.966 76.3447 161.633C76.1103 161.294 75.9931 160.857 75.9931 160.32V154.781H74.8603V153.633H75.9931V151.297ZM84.2981 153.633H85.6888V154.82C86.0221 154.409 86.3242 154.109 86.595 153.922C87.0585 153.604 87.5846 153.445 88.1731 153.445C88.8398 153.445 89.3763 153.609 89.7825 153.938C90.0117 154.125 90.22 154.401 90.4075 154.766C90.72 154.318 91.0872 153.987 91.5091 153.773C91.9309 153.555 92.4049 153.445 92.9309 153.445C94.0559 153.445 94.8216 153.852 95.2278 154.664C95.4466 155.102 95.5559 155.69 95.5559 156.43V162H94.095V156.188C94.095 155.63 93.9544 155.247 93.6731 155.039C93.3971 154.831 93.0585 154.727 92.6575 154.727C92.1054 154.727 91.6289 154.911 91.2278 155.281C90.832 155.651 90.6341 156.268 90.6341 157.133V162H89.2044V156.539C89.2044 155.971 89.1367 155.557 89.0013 155.297C88.7877 154.906 88.3893 154.711 87.8059 154.711C87.2747 154.711 86.7903 154.917 86.3528 155.328C85.9205 155.74 85.7044 156.484 85.7044 157.562V162H84.2981V153.633ZM98.5444 159.773C98.5444 160.18 98.6928 160.5 98.9897 160.734C99.2866 160.969 99.6381 161.086 100.044 161.086C100.539 161.086 101.018 160.971 101.482 160.742C102.263 160.362 102.654 159.74 102.654 158.875V157.742C102.482 157.852 102.261 157.943 101.99 158.016C101.719 158.089 101.453 158.141 101.193 158.172L100.341 158.281C99.8308 158.349 99.448 158.456 99.1928 158.602C98.7605 158.846 98.5444 159.237 98.5444 159.773ZM101.951 156.93C102.274 156.888 102.49 156.753 102.599 156.523C102.662 156.398 102.693 156.219 102.693 155.984C102.693 155.505 102.521 155.159 102.177 154.945C101.839 154.727 101.352 154.617 100.716 154.617C99.9819 154.617 99.461 154.815 99.1537 155.211C98.9819 155.43 98.8699 155.755 98.8178 156.188H97.5053C97.5314 155.156 97.8647 154.44 98.5053 154.039C99.1511 153.633 99.8985 153.43 100.747 153.43C101.732 153.43 102.531 153.617 103.146 153.992C103.755 154.367 104.06 154.951 104.06 155.742V160.562C104.06 160.708 104.089 160.826 104.146 160.914C104.208 161.003 104.336 161.047 104.529 161.047C104.591 161.047 104.662 161.044 104.74 161.039C104.818 161.029 104.901 161.016 104.99 161V162.039C104.771 162.102 104.604 162.141 104.49 162.156C104.375 162.172 104.219 162.18 104.021 162.18C103.537 162.18 103.185 162.008 102.966 161.664C102.852 161.482 102.771 161.224 102.724 160.891C102.438 161.266 102.026 161.591 101.49 161.867C100.953 162.143 100.362 162.281 99.7162 162.281C98.9402 162.281 98.3048 162.047 97.81 161.578C97.3204 161.104 97.0756 160.513 97.0756 159.805C97.0756 159.029 97.3178 158.427 97.8022 158C98.2866 157.573 98.922 157.31 99.7084 157.211L101.951 156.93ZM106.494 151.297H107.916V153.633H109.252V154.781H107.916V160.242C107.916 160.534 108.015 160.729 108.213 160.828C108.322 160.885 108.504 160.914 108.759 160.914C108.827 160.914 108.9 160.914 108.978 160.914C109.056 160.909 109.147 160.901 109.252 160.891V162C109.09 162.047 108.921 162.081 108.744 162.102C108.572 162.122 108.384 162.133 108.181 162.133C107.525 162.133 107.08 161.966 106.845 161.633C106.611 161.294 106.494 160.857 106.494 160.32V154.781H105.361V153.633H106.494V151.297ZM110.787 151.297H112.209V153.633H113.545V154.781H112.209V160.242C112.209 160.534 112.308 160.729 112.506 160.828C112.615 160.885 112.797 160.914 113.052 160.914C113.12 160.914 113.193 160.914 113.271 160.914C113.349 160.909 113.441 160.901 113.545 160.891V162C113.383 162.047 113.214 162.081 113.037 162.102C112.865 162.122 112.677 162.133 112.474 162.133C111.818 162.133 111.373 161.966 111.138 161.633C110.904 161.294 110.787 160.857 110.787 160.32V154.781H109.654V153.633H110.787V151.297ZM118.283 153.445C118.877 153.445 119.452 153.586 120.01 153.867C120.567 154.143 120.991 154.503 121.283 154.945C121.564 155.367 121.752 155.859 121.846 156.422C121.929 156.807 121.971 157.422 121.971 158.266H115.838C115.864 159.115 116.064 159.797 116.439 160.312C116.814 160.823 117.395 161.078 118.182 161.078C118.916 161.078 119.502 160.836 119.939 160.352C120.189 160.07 120.366 159.745 120.471 159.375H121.853C121.817 159.682 121.695 160.026 121.486 160.406C121.283 160.781 121.054 161.089 120.799 161.328C120.372 161.745 119.843 162.026 119.213 162.172C118.874 162.255 118.491 162.297 118.064 162.297C117.023 162.297 116.14 161.919 115.416 161.164C114.692 160.404 114.33 159.341 114.33 157.977C114.33 156.633 114.695 155.542 115.424 154.703C116.153 153.865 117.106 153.445 118.283 153.445ZM120.525 157.148C120.468 156.539 120.335 156.052 120.127 155.688C119.741 155.01 119.098 154.672 118.197 154.672C117.551 154.672 117.01 154.906 116.572 155.375C116.135 155.839 115.903 156.43 115.877 157.148H120.525ZM123.584 153.633H124.92V155.078C125.029 154.797 125.298 154.456 125.725 154.055C126.152 153.648 126.644 153.445 127.201 153.445C127.227 153.445 127.272 153.448 127.334 153.453C127.397 153.458 127.503 153.469 127.654 153.484V154.969C127.571 154.953 127.493 154.943 127.42 154.938C127.352 154.932 127.277 154.93 127.193 154.93C126.485 154.93 125.941 155.159 125.561 155.617C125.18 156.07 124.99 156.594 124.99 157.188V162H123.584V153.633ZM129.549 159.375C129.591 159.844 129.708 160.203 129.901 160.453C130.255 160.906 130.869 161.133 131.744 161.133C132.265 161.133 132.724 161.021 133.119 160.797C133.515 160.568 133.713 160.216 133.713 159.742C133.713 159.383 133.554 159.109 133.237 158.922C133.033 158.807 132.632 158.674 132.033 158.523L130.916 158.242C130.203 158.065 129.677 157.867 129.338 157.648C128.734 157.268 128.432 156.742 128.432 156.07C128.432 155.279 128.716 154.638 129.283 154.148C129.856 153.659 130.625 153.414 131.588 153.414C132.849 153.414 133.757 153.784 134.315 154.523C134.664 154.992 134.833 155.497 134.823 156.039H133.494C133.468 155.721 133.356 155.432 133.158 155.172C132.836 154.802 132.276 154.617 131.479 154.617C130.948 154.617 130.544 154.719 130.268 154.922C129.997 155.125 129.862 155.393 129.862 155.727C129.862 156.091 130.041 156.383 130.401 156.602C130.609 156.732 130.916 156.846 131.323 156.945L132.252 157.172C133.263 157.417 133.94 157.654 134.283 157.883C134.83 158.242 135.104 158.807 135.104 159.578C135.104 160.323 134.82 160.966 134.252 161.508C133.69 162.049 132.83 162.32 131.674 162.32C130.429 162.32 129.546 162.039 129.026 161.477C128.51 160.909 128.234 160.208 128.198 159.375H129.549ZM140.846 153.633H142.237V154.82C142.57 154.409 142.872 154.109 143.143 153.922C143.607 153.604 144.133 153.445 144.721 153.445C145.388 153.445 145.924 153.609 146.331 153.938C146.56 154.125 146.768 154.401 146.956 154.766C147.268 154.318 147.635 153.987 148.057 153.773C148.479 153.555 148.953 153.445 149.479 153.445C150.604 153.445 151.37 153.852 151.776 154.664C151.995 155.102 152.104 155.69 152.104 156.43V162H150.643V156.188C150.643 155.63 150.503 155.247 150.221 155.039C149.945 154.831 149.607 154.727 149.206 154.727C148.654 154.727 148.177 154.911 147.776 155.281C147.38 155.651 147.182 156.268 147.182 157.133V162H145.753V156.539C145.753 155.971 145.685 155.557 145.549 155.297C145.336 154.906 144.937 154.711 144.354 154.711C143.823 154.711 143.338 154.917 142.901 155.328C142.469 155.74 142.253 156.484 142.253 157.562V162H140.846V153.633ZM157.335 161.094C158.267 161.094 158.905 160.742 159.249 160.039C159.598 159.331 159.772 158.544 159.772 157.68C159.772 156.898 159.647 156.263 159.397 155.773C159.001 155.003 158.319 154.617 157.35 154.617C156.491 154.617 155.866 154.945 155.475 155.602C155.085 156.258 154.889 157.049 154.889 157.977C154.889 158.867 155.085 159.609 155.475 160.203C155.866 160.797 156.486 161.094 157.335 161.094ZM157.389 153.391C158.467 153.391 159.379 153.75 160.124 154.469C160.869 155.188 161.241 156.245 161.241 157.641C161.241 158.99 160.913 160.104 160.257 160.984C159.6 161.865 158.582 162.305 157.202 162.305C156.051 162.305 155.137 161.917 154.46 161.141C153.783 160.359 153.444 159.312 153.444 158C153.444 156.594 153.801 155.474 154.514 154.641C155.228 153.807 156.186 153.391 157.389 153.391ZM163.597 159.375C163.638 159.844 163.755 160.203 163.948 160.453C164.302 160.906 164.917 161.133 165.792 161.133C166.313 161.133 166.771 161.021 167.167 160.797C167.563 160.568 167.761 160.216 167.761 159.742C167.761 159.383 167.602 159.109 167.284 158.922C167.081 158.807 166.68 158.674 166.081 158.523L164.964 158.242C164.25 158.065 163.724 157.867 163.386 157.648C162.781 157.268 162.479 156.742 162.479 156.07C162.479 155.279 162.763 154.638 163.331 154.148C163.904 153.659 164.672 153.414 165.636 153.414C166.896 153.414 167.805 153.784 168.362 154.523C168.711 154.992 168.88 155.497 168.87 156.039H167.542C167.516 155.721 167.404 155.432 167.206 155.172C166.883 154.802 166.323 154.617 165.526 154.617C164.995 154.617 164.591 154.719 164.315 154.922C164.044 155.125 163.909 155.393 163.909 155.727C163.909 156.091 164.089 156.383 164.448 156.602C164.656 156.732 164.964 156.846 165.37 156.945L166.3 157.172C167.31 157.417 167.987 157.654 168.331 157.883C168.878 158.242 169.151 158.807 169.151 159.578C169.151 160.323 168.867 160.966 168.3 161.508C167.737 162.049 166.878 162.32 165.722 162.32C164.477 162.32 163.594 162.039 163.073 161.477C162.557 160.909 162.281 160.208 162.245 159.375H163.597ZM170.882 151.297H172.304V153.633H173.64V154.781H172.304V160.242C172.304 160.534 172.403 160.729 172.601 160.828C172.71 160.885 172.892 160.914 173.148 160.914C173.215 160.914 173.288 160.914 173.366 160.914C173.444 160.909 173.536 160.901 173.64 160.891V162C173.478 162.047 173.309 162.081 173.132 162.102C172.96 162.122 172.773 162.133 172.569 162.133C171.913 162.133 171.468 161.966 171.233 161.633C170.999 161.294 170.882 160.857 170.882 160.32V154.781H169.749V153.633H170.882V151.297ZM175.636 153.742H177.269V155.445H175.636V153.742ZM175.636 160.297H177.269V162H175.636V160.297ZM188.707 153.633H190.261C190.063 154.169 189.623 155.393 188.941 157.305C188.431 158.742 188.003 159.914 187.66 160.82C186.847 162.956 186.274 164.258 185.941 164.727C185.608 165.195 185.035 165.43 184.222 165.43C184.024 165.43 183.871 165.422 183.761 165.406C183.657 165.391 183.527 165.362 183.371 165.32V164.039C183.615 164.107 183.792 164.148 183.902 164.164C184.011 164.18 184.108 164.188 184.191 164.188C184.451 164.188 184.641 164.143 184.761 164.055C184.886 163.971 184.99 163.867 185.074 163.742C185.1 163.701 185.194 163.487 185.355 163.102C185.516 162.716 185.634 162.43 185.707 162.242L182.613 153.633H184.207L186.449 160.445L188.707 153.633ZM194.64 161.094C195.573 161.094 196.211 160.742 196.554 160.039C196.903 159.331 197.078 158.544 197.078 157.68C197.078 156.898 196.953 156.263 196.703 155.773C196.307 155.003 195.625 154.617 194.656 154.617C193.797 154.617 193.172 154.945 192.781 155.602C192.39 156.258 192.195 157.049 192.195 157.977C192.195 158.867 192.39 159.609 192.781 160.203C193.172 160.797 193.791 161.094 194.64 161.094ZM194.695 153.391C195.773 153.391 196.685 153.75 197.429 154.469C198.174 155.188 198.547 156.245 198.547 157.641C198.547 158.99 198.218 160.104 197.562 160.984C196.906 161.865 195.888 162.305 194.508 162.305C193.356 162.305 192.442 161.917 191.765 161.141C191.088 160.359 190.75 159.312 190.75 158C190.75 156.594 191.106 155.474 191.82 154.641C192.534 153.807 193.492 153.391 194.695 153.391ZM201.473 153.633V159.188C201.473 159.615 201.54 159.964 201.676 160.234C201.926 160.734 202.392 160.984 203.074 160.984C204.053 160.984 204.72 160.547 205.074 159.672C205.267 159.203 205.363 158.56 205.363 157.742V153.633H206.769V162H205.441L205.457 160.766C205.275 161.083 205.048 161.352 204.777 161.57C204.241 162.008 203.59 162.227 202.824 162.227C201.631 162.227 200.819 161.828 200.387 161.031C200.152 160.604 200.035 160.034 200.035 159.32V153.633H201.473ZM208.852 153.633H210.188V155.078C210.297 154.797 210.565 154.456 210.992 154.055C211.419 153.648 211.911 153.445 212.469 153.445C212.495 153.445 212.539 153.448 212.602 153.453C212.664 153.458 212.771 153.469 212.922 153.484V154.969C212.839 154.953 212.76 154.943 212.688 154.938C212.62 154.932 212.544 154.93 212.461 154.93C211.753 154.93 211.208 155.159 210.828 155.617C210.448 156.07 210.258 156.594 210.258 157.188V162H208.852V153.633ZM25.3828 170.359C25.4036 169.776 25.5052 169.349 25.6875 169.078C26.0156 168.599 26.6484 168.359 27.5859 168.359C27.6745 168.359 27.7656 168.362 27.8594 168.367C27.9531 168.372 28.0599 168.38 28.1797 168.391V169.672C28.0339 169.661 27.9271 169.656 27.8594 169.656C27.7969 169.651 27.737 169.648 27.6797 169.648C27.2526 169.648 26.9974 169.76 26.9141 169.984C26.8307 170.203 26.7891 170.766 26.7891 171.672H28.1797V172.781H26.7734V180H25.3828V172.781H24.2188V171.672H25.3828V170.359ZM29.5312 170.117V168.523H30.9375V170.117H29.5312ZM29.5312 171.672H30.9375V180H29.5312V171.672ZM33.1525 169.297H34.5744V171.633H35.9103V172.781H34.5744V178.242C34.5744 178.534 34.6733 178.729 34.8713 178.828C34.9806 178.885 35.1629 178.914 35.4181 178.914C35.4858 178.914 35.5588 178.914 35.6369 178.914C35.715 178.909 35.8061 178.901 35.9103 178.891V180C35.7489 180.047 35.5796 180.081 35.4025 180.102C35.2306 180.122 35.0431 180.133 34.84 180.133C34.1838 180.133 33.7384 179.966 33.5041 179.633C33.2697 179.294 33.1525 178.857 33.1525 178.32V172.781H32.0197V171.633H33.1525V169.297ZM37.1644 171.633H38.5003V172.82C38.8961 172.331 39.3154 171.979 39.7581 171.766C40.2008 171.552 40.693 171.445 41.2347 171.445C42.4222 171.445 43.2243 171.859 43.6409 172.688C43.8701 173.141 43.9847 173.789 43.9847 174.633V180H42.555V174.727C42.555 174.216 42.4795 173.805 42.3284 173.492C42.0784 172.971 41.6253 172.711 40.9691 172.711C40.6357 172.711 40.3623 172.745 40.1488 172.812C39.7633 172.927 39.4248 173.156 39.1331 173.5C38.8988 173.776 38.7451 174.062 38.6722 174.359C38.6045 174.651 38.5706 175.07 38.5706 175.617V180H37.1644V171.633ZM49.395 171.445C49.9888 171.445 50.5643 171.586 51.1216 171.867C51.6789 172.143 52.1033 172.503 52.395 172.945C52.6763 173.367 52.8638 173.859 52.9575 174.422C53.0408 174.807 53.0825 175.422 53.0825 176.266H46.9497C46.9757 177.115 47.1763 177.797 47.5513 178.312C47.9263 178.823 48.507 179.078 49.2934 179.078C50.0278 179.078 50.6138 178.836 51.0513 178.352C51.3013 178.07 51.4783 177.745 51.5825 177.375H52.9653C52.9289 177.682 52.8065 178.026 52.5981 178.406C52.395 178.781 52.1658 179.089 51.9106 179.328C51.4835 179.745 50.9549 180.026 50.3247 180.172C49.9861 180.255 49.6033 180.297 49.1763 180.297C48.1346 180.297 47.2518 179.919 46.5278 179.164C45.8039 178.404 45.4419 177.341 45.4419 175.977C45.4419 174.633 45.8065 173.542 46.5356 172.703C47.2648 171.865 48.2179 171.445 49.395 171.445ZM51.6372 175.148C51.5799 174.539 51.4471 174.052 51.2388 173.688C50.8533 173.01 50.2101 172.672 49.3091 172.672C48.6632 172.672 48.1216 172.906 47.6841 173.375C47.2466 173.839 47.0148 174.43 46.9888 175.148H51.6372ZM55.4928 177.375C55.5345 177.844 55.6517 178.203 55.8444 178.453C56.1985 178.906 56.8131 179.133 57.6881 179.133C58.209 179.133 58.6673 179.021 59.0631 178.797C59.459 178.568 59.6569 178.216 59.6569 177.742C59.6569 177.383 59.498 177.109 59.1803 176.922C58.9772 176.807 58.5761 176.674 57.9772 176.523L56.86 176.242C56.1465 176.065 55.6204 175.867 55.2819 175.648C54.6777 175.268 54.3756 174.742 54.3756 174.07C54.3756 173.279 54.6595 172.638 55.2272 172.148C55.8001 171.659 56.5683 171.414 57.5319 171.414C58.7923 171.414 59.7011 171.784 60.2584 172.523C60.6074 172.992 60.7767 173.497 60.7663 174.039H59.4381C59.4121 173.721 59.3001 173.432 59.1022 173.172C58.7793 172.802 58.2194 172.617 57.4225 172.617C56.8913 172.617 56.4876 172.719 56.2116 172.922C55.9407 173.125 55.8053 173.393 55.8053 173.727C55.8053 174.091 55.985 174.383 56.3444 174.602C56.5527 174.732 56.86 174.846 57.2663 174.945L58.1959 175.172C59.2064 175.417 59.8834 175.654 60.2272 175.883C60.7741 176.242 61.0475 176.807 61.0475 177.578C61.0475 178.323 60.7636 178.966 60.1959 179.508C59.6334 180.049 58.7741 180.32 57.6178 180.32C56.373 180.32 55.4902 180.039 54.9694 179.477C54.4538 178.909 54.1777 178.208 54.1413 177.375H55.4928ZM63.3328 177.375C63.3745 177.844 63.4917 178.203 63.6844 178.453C64.0385 178.906 64.6531 179.133 65.5281 179.133C66.049 179.133 66.5073 179.021 66.9031 178.797C67.299 178.568 67.4969 178.216 67.4969 177.742C67.4969 177.383 67.338 177.109 67.0203 176.922C66.8172 176.807 66.4161 176.674 65.8172 176.523L64.7 176.242C63.9865 176.065 63.4604 175.867 63.1219 175.648C62.5177 175.268 62.2156 174.742 62.2156 174.07C62.2156 173.279 62.4995 172.638 63.0672 172.148C63.6401 171.659 64.4083 171.414 65.3719 171.414C66.6323 171.414 67.5411 171.784 68.0984 172.523C68.4474 172.992 68.6167 173.497 68.6063 174.039H67.2781C67.2521 173.721 67.1401 173.432 66.9422 173.172C66.6193 172.802 66.0594 172.617 65.2625 172.617C64.7313 172.617 64.3276 172.719 64.0516 172.922C63.7807 173.125 63.6453 173.393 63.6453 173.727C63.6453 174.091 63.825 174.383 64.1844 174.602C64.3927 174.732 64.7 174.846 65.1063 174.945L66.0359 175.172C67.0464 175.417 67.7234 175.654 68.0672 175.883C68.6141 176.242 68.8875 176.807 68.8875 177.578C68.8875 178.323 68.6036 178.966 68.0359 179.508C67.4734 180.049 66.6141 180.32 65.4578 180.32C64.213 180.32 63.3302 180.039 62.8094 179.477C62.2938 178.909 62.0177 178.208 61.9813 177.375H63.3328Z" fill="#373737"/>
</svg>
