<svg width="270" height="205" viewBox="0 0 270 205" fill="none" xmlns="http://www.w3.org/2000/svg">
<rect width="270" height="205" rx="24" fill="#F5F5F5"/>
<path d="M48.6679 38.9001L39.0512 48.5167C38.5638 49.0048 38.5638 49.7954 39.0512 50.2834C39.2843 50.5195 39.6028 50.6516 39.9345 50.6501C40.2667 50.6535 40.5858 50.5211 40.8179 50.2834L50.4345 40.6667C50.769 40.3551 50.9066 39.8858 50.7935 39.4429C50.6804 39 50.3346 38.6542 49.8917 38.5411C49.4488 38.428 48.9795 38.5656 48.6679 38.9001Z" fill="black"/>
<path d="M41.6679 40.8334C41.6679 41.5237 41.1082 42.0834 40.4179 42.0834C39.7275 42.0834 39.1679 41.5237 39.1679 40.8334C39.1679 40.143 39.7275 39.5834 40.4179 39.5834C41.1082 39.5834 41.6679 40.143 41.6679 40.8334Z" fill="black"/>
<path d="M50.4679 48.3501C50.4679 49.0404 49.9082 49.6001 49.2179 49.6001C48.5275 49.6001 47.9679 49.0404 47.9679 48.3501C47.9679 47.6597 48.5275 47.1001 49.2179 47.1001C49.9082 47.1001 50.4679 47.6597 50.4679 48.3501Z" fill="black"/>
<path fill-rule="evenodd" clip-rule="evenodd" d="M61.7325 37.7023C62.2829 39.1276 61.922 40.744 60.8177 41.7999C60.0182 42.5145 59.5612 43.5359 59.5612 44.6082C59.5612 45.6805 60.0182 46.702 60.8177 47.4165C61.9709 48.4644 62.3638 50.1121 61.8074 51.5676C61.251 53.0231 59.8592 53.9885 58.301 53.9999H57.8844C56.8498 54.0078 55.8631 54.4371 55.1522 55.1889C54.4413 55.9407 54.0677 56.9498 54.1177 57.9832C54.173 59.0222 53.7961 60.0378 53.0763 60.7891C52.3566 61.5404 51.3581 61.9606 50.3177 61.9499C49.2587 61.9503 48.2507 61.4949 47.551 60.6999C46.8337 59.9052 45.8132 59.4517 44.7427 59.4517C43.6721 59.4517 42.6517 59.9052 41.9344 60.6999C41.2347 61.4949 40.2267 61.9503 39.1677 61.9499C38.1212 61.9612 37.1171 61.5365 36.3963 60.7777C35.6754 60.0189 35.3028 58.9945 35.3677 57.9499C35.413 56.9193 35.0373 55.9145 34.3269 55.1665C33.6166 54.4184 32.6326 53.9913 31.601 53.9832H31.1844C29.6938 53.9125 28.384 52.9721 27.8404 51.5824C27.2967 50.1927 27.6208 48.6133 28.6677 47.5499C29.4616 46.8356 29.9149 45.8178 29.9149 44.7499C29.9149 43.6819 29.4616 42.6642 28.6677 41.9499C27.4489 40.915 27.0123 39.2256 27.5769 37.7298C28.1416 36.2339 29.5857 35.2545 31.1844 35.2832H31.601C32.6464 35.2809 33.6442 34.8462 34.3577 34.0821C35.0712 33.3181 35.4368 32.293 35.3677 31.2499C35.3312 30.2222 35.7166 29.2243 36.4342 28.4878C37.1518 27.7512 38.1394 27.3401 39.1677 27.3499C40.2308 27.347 41.2419 27.8099 41.9344 28.6165C42.6588 29.4044 43.6807 29.8519 44.751 29.8499C45.8155 29.8472 46.8305 29.4001 47.551 28.6165C48.2404 27.8037 49.2519 27.3345 50.3177 27.3332C51.3612 27.3223 52.3624 27.7447 53.0827 28.4997C53.803 29.2547 54.1778 30.2748 54.1177 31.3165C54.0676 32.3484 54.4417 33.3559 55.1531 34.1051C55.8645 34.8542 56.8513 35.2799 57.8844 35.2832H58.301C59.8284 35.3227 61.1821 36.277 61.7325 37.7023ZM58.9844 50.4665C59.1218 50.1763 59.0386 49.8295 58.7844 49.6332V49.5332C57.3876 48.2458 56.5931 46.4328 56.5931 44.5332C56.5931 42.6336 57.3876 40.8207 58.7844 39.5332C59.0386 39.337 59.1218 38.9901 58.9844 38.6999C58.8886 38.4053 58.6107 38.2087 58.301 38.2165H57.8844C56.025 38.2129 54.2483 37.448 52.9677 36.0999C51.6984 34.7521 51.0255 32.9498 51.101 31.0999C51.129 30.901 51.0681 30.6998 50.9344 30.5499C50.773 30.3817 50.5507 30.2856 50.3177 30.2832C50.0801 30.2612 49.8477 30.3617 49.701 30.5499C48.421 31.9622 46.607 32.7724 44.701 32.7832C42.7955 32.7704 40.9823 31.9605 39.701 30.5499C39.5719 30.3859 39.3763 30.2882 39.1677 30.2832C38.9346 30.2856 38.7124 30.3817 38.551 30.5499C38.4173 30.6998 38.3564 30.901 38.3844 31.0999C38.4945 32.9687 37.8293 34.8003 36.5455 36.1629C35.2618 37.5255 33.4731 38.2985 31.601 38.2999H31.2344C30.9083 38.2748 30.6065 38.4736 30.501 38.7832C30.3636 39.0735 30.4468 39.4203 30.701 39.6165C32.1099 40.899 32.9195 42.7114 32.9344 44.6165C32.9236 46.5226 32.1133 48.3365 30.701 49.6165C30.4468 49.8128 30.3636 50.1596 30.501 50.4499C30.5857 50.7546 30.8683 50.9614 31.1844 50.9499H31.601C33.4594 50.957 35.2342 51.7224 36.5148 53.0691C37.7954 54.4158 38.4707 56.2269 38.3844 58.0832C38.3543 58.2772 38.4158 58.4742 38.551 58.6165C38.7311 58.7961 38.9809 58.8875 39.2344 58.8665C39.4393 58.8614 39.6327 58.7708 39.7677 58.6165C41.0513 57.1826 42.8848 56.3631 44.8094 56.3631C46.7339 56.3631 48.5674 57.1826 49.851 58.6165C49.9672 58.7613 50.134 58.8566 50.3177 58.8832C50.5507 58.8809 50.773 58.7847 50.9344 58.6165C51.0696 58.4742 51.1311 58.2772 51.101 58.0832C51.033 56.2345 51.7048 54.435 52.9677 53.0832C54.2528 51.7416 56.0266 50.978 57.8844 50.9665H58.251C58.5834 50.996 58.8903 50.7867 58.9844 50.4665Z" fill="black"/>
<path d="M31.7246 90H25.5234V75.6055H31.7246C32.6165 75.6185 33.3587 75.7227 33.9512 75.918C34.9603 76.25 35.7773 76.8587 36.4023 77.7441C36.9036 78.4603 37.2454 79.235 37.4277 80.0684C37.61 80.9017 37.7012 81.696 37.7012 82.4512C37.7012 84.3652 37.3171 85.9863 36.5488 87.3145C35.5072 89.1048 33.8991 90 31.7246 90ZM33.9609 79.2773C33.4987 78.4961 32.584 78.1055 31.2168 78.1055H28.4434V87.5H31.2168C32.6361 87.5 33.6257 86.8001 34.1855 85.4004C34.4915 84.6322 34.6445 83.7174 34.6445 82.6562C34.6445 81.1914 34.4167 80.0651 33.9609 79.2773ZM48.4289 80.7031C49.3273 81.8294 49.7766 83.1608 49.7766 84.6973C49.7766 86.2598 49.3273 87.5977 48.4289 88.7109C47.5305 89.8177 46.1665 90.3711 44.3371 90.3711C42.5077 90.3711 41.1438 89.8177 40.2453 88.7109C39.3469 87.5977 38.8977 86.2598 38.8977 84.6973C38.8977 83.1608 39.3469 81.8294 40.2453 80.7031C41.1438 79.5768 42.5077 79.0137 44.3371 79.0137C46.1665 79.0137 47.5305 79.5768 48.4289 80.7031ZM44.3273 81.3672C43.5135 81.3672 42.8853 81.6569 42.4426 82.2363C42.0064 82.8092 41.7883 83.6296 41.7883 84.6973C41.7883 85.765 42.0064 86.5885 42.4426 87.168C42.8853 87.7474 43.5135 88.0371 44.3273 88.0371C45.1411 88.0371 45.7661 87.7474 46.2023 87.168C46.6385 86.5885 46.8566 85.765 46.8566 84.6973C46.8566 83.6296 46.6385 82.8092 46.2023 82.2363C45.7661 81.6569 45.1411 81.3672 44.3273 81.3672ZM57.5551 82.2852C57.3207 81.7708 56.8617 81.5137 56.1781 81.5137C55.3839 81.5137 54.85 81.7708 54.5766 82.2852C54.4268 82.5781 54.352 83.0143 54.352 83.5938V90H51.5297V79.375H54.2348V80.9277C54.5798 80.3743 54.9053 79.9805 55.2113 79.7461C55.7517 79.3294 56.4516 79.1211 57.3109 79.1211C58.1247 79.1211 58.7823 79.3001 59.2836 79.6582C59.6872 79.9902 59.9932 80.4167 60.2016 80.9375C60.5661 80.3125 61.0186 79.8535 61.559 79.5605C62.1319 79.2676 62.7699 79.1211 63.473 79.1211C63.9418 79.1211 64.404 79.2122 64.8598 79.3945C65.3155 79.5768 65.7289 79.8958 66.1 80.3516C66.3995 80.7227 66.6013 81.1784 66.7055 81.7188C66.7706 82.0768 66.8031 82.6009 66.8031 83.291L66.7836 90H63.932V83.2227C63.932 82.819 63.8669 82.487 63.7367 82.2266C63.4893 81.7318 63.0336 81.4844 62.3695 81.4844C61.6013 81.4844 61.0707 81.8034 60.7777 82.4414C60.628 82.7799 60.5531 83.1868 60.5531 83.6621V90H57.7504V83.6621C57.7504 83.0306 57.6853 82.5716 57.5551 82.2852ZM78.2828 86.875C78.2112 87.5065 77.8824 88.1478 77.2965 88.7988C76.385 89.834 75.109 90.3516 73.4684 90.3516C72.1142 90.3516 70.9195 89.9154 69.8844 89.043C68.8492 88.1706 68.3316 86.7513 68.3316 84.7852C68.3316 82.9427 68.7971 81.5299 69.7281 80.5469C70.6656 79.5638 71.8798 79.0723 73.3707 79.0723C74.2561 79.0723 75.0536 79.2383 75.7633 79.5703C76.4729 79.9023 77.0589 80.4264 77.5211 81.1426C77.9378 81.7741 78.2079 82.5065 78.3316 83.3398C78.4033 83.8281 78.4326 84.5312 78.4195 85.4492H71.1344C71.1734 86.5169 71.5087 87.2656 72.1402 87.6953C72.5244 87.9622 72.9866 88.0957 73.527 88.0957C74.0999 88.0957 74.5654 87.9329 74.9234 87.6074C75.1188 87.4316 75.2913 87.1875 75.441 86.875H78.2828ZM75.5289 83.6133C75.4833 82.8776 75.2587 82.321 74.8551 81.9434C74.4579 81.5592 73.9632 81.3672 73.3707 81.3672C72.7262 81.3672 72.2249 81.569 71.8668 81.9727C71.5152 82.3763 71.2939 82.9232 71.2027 83.6133H75.5289ZM87.4383 79.8438C88.2716 80.3776 88.7501 81.2956 88.8738 82.5977H86.0906C86.0516 82.2396 85.9507 81.9564 85.7879 81.748C85.4819 81.3704 84.9611 81.1816 84.2254 81.1816C83.6199 81.1816 83.187 81.276 82.9266 81.4648C82.6727 81.6536 82.5457 81.875 82.5457 82.1289C82.5457 82.4479 82.6824 82.679 82.9559 82.8223C83.2293 82.972 84.1961 83.2292 85.8563 83.5938C86.963 83.8542 87.7931 84.248 88.3465 84.7754C88.8934 85.3092 89.1668 85.9766 89.1668 86.7773C89.1668 87.832 88.7729 88.6947 87.9852 89.3652C87.2039 90.0293 85.993 90.3613 84.3523 90.3613C82.6792 90.3613 81.4422 90.0098 80.6414 89.3066C79.8471 88.597 79.45 87.6953 79.45 86.6016H82.2723C82.3309 87.0964 82.4578 87.4479 82.6531 87.6562C82.9982 88.0273 83.6362 88.2129 84.5672 88.2129C85.1141 88.2129 85.547 88.1315 85.866 87.9688C86.1915 87.806 86.3543 87.5618 86.3543 87.2363C86.3543 86.9238 86.2241 86.6862 85.9637 86.5234C85.7033 86.3607 84.7365 86.0807 83.0633 85.6836C81.8589 85.3841 81.0092 85.0098 80.5145 84.5605C80.0197 84.1178 79.7723 83.4798 79.7723 82.6465C79.7723 81.6634 80.1564 80.8203 80.9246 80.1172C81.6993 79.4076 82.7866 79.0527 84.1863 79.0527C85.5145 79.0527 86.5984 79.3164 87.4383 79.8438ZM95.9102 88.0176V90.0977L94.5918 90.1465C93.2767 90.1921 92.3783 89.9642 91.8965 89.4629C91.584 89.1439 91.4277 88.6523 91.4277 87.9883V81.4355H89.9434V79.4531H91.4277V76.4844H94.1816V79.4531H95.9102V81.4355H94.1816V87.0605C94.1816 87.4967 94.237 87.7702 94.3477 87.8809C94.4583 87.985 94.7969 88.0371 95.3633 88.0371C95.4479 88.0371 95.5358 88.0371 95.627 88.0371C95.7246 88.0306 95.819 88.0241 95.9102 88.0176ZM100.359 79.3555V90H97.5363V79.3555H100.359ZM100.359 75.5176V78.0859H97.5363V75.5176H100.359ZM112.073 83.1738H109.221C109.169 82.7767 109.036 82.4186 108.821 82.0996C108.508 81.6699 108.023 81.4551 107.366 81.4551C106.428 81.4551 105.787 81.9206 105.442 82.8516C105.26 83.3464 105.168 84.0039 105.168 84.8242C105.168 85.6055 105.26 86.2337 105.442 86.709C105.774 87.5944 106.399 88.0371 107.317 88.0371C107.968 88.0371 108.43 87.8613 108.704 87.5098C108.977 87.1582 109.143 86.7025 109.202 86.1426H112.043C111.978 86.9889 111.672 87.7897 111.125 88.5449C110.253 89.7624 108.961 90.3711 107.248 90.3711C105.536 90.3711 104.276 89.8633 103.469 88.8477C102.662 87.832 102.258 86.5137 102.258 84.8926C102.258 83.0632 102.704 81.6406 103.596 80.625C104.488 79.6094 105.718 79.1016 107.287 79.1016C108.622 79.1016 109.713 79.401 110.559 80C111.412 80.599 111.916 81.6569 112.073 83.1738ZM127.239 90L125.569 82.2461L123.88 90H120.989L118.001 79.3555H120.989L122.649 86.9922L124.182 79.3555H127.005L128.626 87.0215L130.286 79.3555H133.186L130.1 90H127.239ZM143.406 80.7031C144.305 81.8294 144.754 83.1608 144.754 84.6973C144.754 86.2598 144.305 87.5977 143.406 88.7109C142.508 89.8177 141.144 90.3711 139.314 90.3711C137.485 90.3711 136.121 89.8177 135.223 88.7109C134.324 87.5977 133.875 86.2598 133.875 84.6973C133.875 83.1608 134.324 81.8294 135.223 80.7031C136.121 79.5768 137.485 79.0137 139.314 79.0137C141.144 79.0137 142.508 79.5768 143.406 80.7031ZM139.305 81.3672C138.491 81.3672 137.863 81.6569 137.42 82.2363C136.984 82.8092 136.766 83.6296 136.766 84.6973C136.766 85.765 136.984 86.5885 137.42 87.168C137.863 87.7474 138.491 88.0371 139.305 88.0371C140.118 88.0371 140.743 87.7474 141.18 87.168C141.616 86.5885 141.834 85.765 141.834 84.6973C141.834 83.6296 141.616 82.8092 141.18 82.2363C140.743 81.6569 140.118 81.3672 139.305 81.3672ZM151.907 81.9238C150.788 81.9238 150.036 82.2884 149.652 83.0176C149.437 83.4277 149.329 84.0592 149.329 84.9121V90H146.527V79.3555H149.183V81.2109C149.613 80.5013 149.987 80.0163 150.306 79.7559C150.827 79.3197 151.504 79.1016 152.337 79.1016C152.389 79.1016 152.432 79.1048 152.464 79.1113C152.503 79.1113 152.585 79.1146 152.708 79.1211V81.9727C152.532 81.9531 152.376 81.9401 152.239 81.9336C152.103 81.9271 151.992 81.9238 151.907 81.9238ZM163.914 90H160.555L158.006 85.4492L156.854 86.6504V90H154.12V75.6543H156.854V83.4082L160.321 79.4043H163.768L160.047 83.4766L163.914 90ZM172.416 79.8438C173.249 80.3776 173.727 81.2956 173.851 82.5977H171.068C171.029 82.2396 170.928 81.9564 170.765 81.748C170.459 81.3704 169.938 81.1816 169.203 81.1816C168.597 81.1816 168.164 81.276 167.904 81.4648C167.65 81.6536 167.523 81.875 167.523 82.1289C167.523 82.4479 167.66 82.679 167.933 82.8223C168.207 82.972 169.173 83.2292 170.834 83.5938C171.94 83.8542 172.77 84.248 173.324 84.7754C173.871 85.3092 174.144 85.9766 174.144 86.7773C174.144 87.832 173.75 88.6947 172.962 89.3652C172.181 90.0293 170.97 90.3613 169.33 90.3613C167.657 90.3613 166.42 90.0098 165.619 89.3066C164.824 88.597 164.427 87.6953 164.427 86.6016H167.25C167.308 87.0964 167.435 87.4479 167.63 87.6562C167.976 88.0273 168.614 88.2129 169.545 88.2129C170.091 88.2129 170.524 88.1315 170.843 87.9688C171.169 87.806 171.332 87.5618 171.332 87.2363C171.332 86.9238 171.201 86.6862 170.941 86.5234C170.681 86.3607 169.714 86.0807 168.041 85.6836C166.836 85.3841 165.987 85.0098 165.492 84.5605C164.997 84.1178 164.75 83.4798 164.75 82.6465C164.75 81.6634 165.134 80.8203 165.902 80.1172C166.677 79.4076 167.764 79.0527 169.164 79.0527C170.492 79.0527 171.576 79.3164 172.416 79.8438Z" fill="#373737"/>
<path d="M29.625 124.672C30.151 124.672 30.5833 124.617 30.9219 124.508C31.526 124.305 32.0208 123.914 32.4062 123.336C32.7135 122.872 32.9349 122.279 33.0703 121.555C33.1484 121.122 33.1875 120.721 33.1875 120.352C33.1875 118.93 32.9036 117.826 32.3359 117.039C31.7734 116.253 30.8646 115.859 29.6094 115.859H26.8516V124.672H29.625ZM25.2891 114.523H29.9375C31.5156 114.523 32.7396 115.083 33.6094 116.203C34.3854 117.214 34.7734 118.508 34.7734 120.086C34.7734 121.305 34.5443 122.406 34.0859 123.391C33.2786 125.13 31.8906 126 29.9219 126H25.2891V114.523ZM39.9181 117.445C40.5119 117.445 41.0874 117.586 41.6447 117.867C42.202 118.143 42.6265 118.503 42.9181 118.945C43.1994 119.367 43.3869 119.859 43.4806 120.422C43.564 120.807 43.6056 121.422 43.6056 122.266H37.4728C37.4989 123.115 37.6994 123.797 38.0744 124.312C38.4494 124.823 39.0301 125.078 39.8166 125.078C40.5509 125.078 41.1369 124.836 41.5744 124.352C41.8244 124.07 42.0015 123.745 42.1056 123.375H43.4884C43.452 123.682 43.3296 124.026 43.1213 124.406C42.9181 124.781 42.689 125.089 42.4338 125.328C42.0067 125.745 41.478 126.026 40.8478 126.172C40.5093 126.255 40.1265 126.297 39.6994 126.297C38.6577 126.297 37.7749 125.919 37.0509 125.164C36.327 124.404 35.965 123.341 35.965 121.977C35.965 120.633 36.3296 119.542 37.0588 118.703C37.7879 117.865 38.741 117.445 39.9181 117.445ZM42.1603 121.148C42.103 120.539 41.9702 120.052 41.7619 119.688C41.3765 119.01 40.7332 118.672 39.8322 118.672C39.1864 118.672 38.6447 118.906 38.2072 119.375C37.7697 119.839 37.5379 120.43 37.5119 121.148H42.1603ZM46.0159 123.375C46.0576 123.844 46.1748 124.203 46.3675 124.453C46.7217 124.906 47.3363 125.133 48.2113 125.133C48.7321 125.133 49.1904 125.021 49.5863 124.797C49.9821 124.568 50.18 124.216 50.18 123.742C50.18 123.383 50.0211 123.109 49.7034 122.922C49.5003 122.807 49.0993 122.674 48.5003 122.523L47.3831 122.242C46.6696 122.065 46.1435 121.867 45.805 121.648C45.2008 121.268 44.8988 120.742 44.8988 120.07C44.8988 119.279 45.1826 118.638 45.7503 118.148C46.3232 117.659 47.0915 117.414 48.055 117.414C49.3154 117.414 50.2243 117.784 50.7816 118.523C51.1305 118.992 51.2998 119.497 51.2894 120.039H49.9613C49.9352 119.721 49.8232 119.432 49.6253 119.172C49.3024 118.802 48.7425 118.617 47.9456 118.617C47.4144 118.617 47.0107 118.719 46.7347 118.922C46.4639 119.125 46.3284 119.393 46.3284 119.727C46.3284 120.091 46.5081 120.383 46.8675 120.602C47.0758 120.732 47.3831 120.846 47.7894 120.945L48.7191 121.172C49.7295 121.417 50.4066 121.654 50.7503 121.883C51.2972 122.242 51.5706 122.807 51.5706 123.578C51.5706 124.323 51.2868 124.966 50.7191 125.508C50.1566 126.049 49.2972 126.32 48.1409 126.32C46.8961 126.32 46.0133 126.039 45.4925 125.477C44.9769 124.909 44.7008 124.208 44.6644 123.375H46.0159ZM53.02 117.672H54.4497V126H53.02V117.672ZM53.02 114.523H54.4497V116.117H53.02V114.523ZM59.3756 117.484C60.0319 117.484 60.6048 117.646 61.0944 117.969C61.36 118.151 61.6308 118.417 61.9069 118.766V117.711H63.2038V125.32C63.2038 126.383 63.0475 127.221 62.735 127.836C62.1517 128.971 61.0501 129.539 59.4303 129.539C58.5293 129.539 57.7715 129.336 57.1569 128.93C56.5423 128.529 56.1985 127.898 56.1256 127.039H57.5553C57.623 127.414 57.7584 127.703 57.9616 127.906C58.2793 128.219 58.7793 128.375 59.4616 128.375C60.5397 128.375 61.2454 127.995 61.5788 127.234C61.7767 126.786 61.8678 125.987 61.8522 124.836C61.5709 125.263 61.2324 125.581 60.8366 125.789C60.4407 125.997 59.9173 126.102 59.2663 126.102C58.36 126.102 57.5657 125.781 56.8834 125.141C56.2064 124.495 55.8678 123.43 55.8678 121.945C55.8678 120.544 56.209 119.451 56.8913 118.664C57.5788 117.878 58.4069 117.484 59.3756 117.484ZM61.9069 121.781C61.9069 120.745 61.6933 119.977 61.2663 119.477C60.8392 118.977 60.2949 118.727 59.6334 118.727C58.6439 118.727 57.9668 119.19 57.6022 120.117C57.4095 120.612 57.3131 121.26 57.3131 122.062C57.3131 123.005 57.5032 123.724 57.8834 124.219C58.2689 124.708 58.7845 124.953 59.4303 124.953C60.4407 124.953 61.1517 124.497 61.5631 123.586C61.7923 123.07 61.9069 122.469 61.9069 121.781ZM65.1688 117.633H66.5047V118.82C66.9005 118.331 67.3198 117.979 67.7625 117.766C68.2052 117.552 68.6974 117.445 69.2391 117.445C70.4266 117.445 71.2286 117.859 71.6453 118.688C71.8745 119.141 71.9891 119.789 71.9891 120.633V126H70.5594V120.727C70.5594 120.216 70.4839 119.805 70.3328 119.492C70.0828 118.971 69.6297 118.711 68.9734 118.711C68.6401 118.711 68.3667 118.745 68.1531 118.812C67.7677 118.927 67.4292 119.156 67.1375 119.5C66.9031 119.776 66.7495 120.062 66.6766 120.359C66.6089 120.651 66.575 121.07 66.575 121.617V126H65.1688V117.633ZM77.3994 117.445C77.9931 117.445 78.5686 117.586 79.1259 117.867C79.6832 118.143 80.1077 118.503 80.3994 118.945C80.6806 119.367 80.8681 119.859 80.9619 120.422C81.0452 120.807 81.0869 121.422 81.0869 122.266H74.9541C74.9801 123.115 75.1806 123.797 75.5556 124.312C75.9306 124.823 76.5114 125.078 77.2978 125.078C78.0322 125.078 78.6181 124.836 79.0556 124.352C79.3056 124.07 79.4827 123.745 79.5869 123.375H80.9697C80.9332 123.682 80.8108 124.026 80.6025 124.406C80.3994 124.781 80.1702 125.089 79.915 125.328C79.4879 125.745 78.9593 126.026 78.3291 126.172C77.9905 126.255 77.6077 126.297 77.1806 126.297C76.139 126.297 75.2561 125.919 74.5322 125.164C73.8082 124.404 73.4463 123.341 73.4463 121.977C73.4463 120.633 73.8108 119.542 74.54 118.703C75.2692 117.865 76.2223 117.445 77.3994 117.445ZM79.6416 121.148C79.5843 120.539 79.4515 120.052 79.2431 119.688C78.8577 119.01 78.2145 118.672 77.3134 118.672C76.6676 118.672 76.1259 118.906 75.6884 119.375C75.2509 119.839 75.0192 120.43 74.9931 121.148H79.6416ZM83.5519 121.914C83.5519 122.81 83.742 123.56 84.1222 124.164C84.5024 124.768 85.1118 125.07 85.9503 125.07C86.6014 125.07 87.1352 124.792 87.5519 124.234C87.9738 123.672 88.1847 122.867 88.1847 121.82C88.1847 120.763 87.9685 119.982 87.5363 119.477C87.104 118.966 86.5701 118.711 85.9347 118.711C85.2264 118.711 84.6508 118.982 84.2081 119.523C83.7706 120.065 83.5519 120.862 83.5519 121.914ZM85.6691 117.484C86.3097 117.484 86.8461 117.62 87.2784 117.891C87.5284 118.047 87.8123 118.32 88.13 118.711V114.484H89.4816V126H88.2159V124.836C87.8878 125.352 87.4998 125.724 87.0519 125.953C86.604 126.182 86.0909 126.297 85.5128 126.297C84.5805 126.297 83.7732 125.906 83.0909 125.125C82.4086 124.339 82.0675 123.294 82.0675 121.992C82.0675 120.773 82.3774 119.719 82.9972 118.828C83.6222 117.932 84.5128 117.484 85.6691 117.484ZM96.7787 123.773C96.7787 124.18 96.9272 124.5 97.2241 124.734C97.5209 124.969 97.8725 125.086 98.2787 125.086C98.7735 125.086 99.2527 124.971 99.7162 124.742C100.497 124.362 100.888 123.74 100.888 122.875V121.742C100.716 121.852 100.495 121.943 100.224 122.016C99.9532 122.089 99.6876 122.141 99.4272 122.172L98.5756 122.281C98.0652 122.349 97.6824 122.456 97.4272 122.602C96.9949 122.846 96.7787 123.237 96.7787 123.773ZM100.185 120.93C100.508 120.888 100.724 120.753 100.833 120.523C100.896 120.398 100.927 120.219 100.927 119.984C100.927 119.505 100.755 119.159 100.412 118.945C100.073 118.727 99.586 118.617 98.9506 118.617C98.2162 118.617 97.6954 118.815 97.3881 119.211C97.2162 119.43 97.1043 119.755 97.0522 120.188H95.7397C95.7657 119.156 96.0991 118.44 96.7397 118.039C97.3855 117.633 98.1329 117.43 98.9819 117.43C99.9662 117.43 100.766 117.617 101.38 117.992C101.99 118.367 102.294 118.951 102.294 119.742V124.562C102.294 124.708 102.323 124.826 102.38 124.914C102.443 125.003 102.57 125.047 102.763 125.047C102.826 125.047 102.896 125.044 102.974 125.039C103.052 125.029 103.136 125.016 103.224 125V126.039C103.005 126.102 102.839 126.141 102.724 126.156C102.609 126.172 102.453 126.18 102.255 126.18C101.771 126.18 101.419 126.008 101.201 125.664C101.086 125.482 101.005 125.224 100.958 124.891C100.672 125.266 100.261 125.591 99.7241 125.867C99.1876 126.143 98.5965 126.281 97.9506 126.281C97.1746 126.281 96.5392 126.047 96.0444 125.578C95.5548 125.104 95.31 124.513 95.31 123.805C95.31 123.029 95.5522 122.427 96.0366 122C96.5209 121.573 97.1564 121.31 97.9428 121.211L100.185 120.93ZM104.447 117.633H105.783V118.82C106.179 118.331 106.598 117.979 107.041 117.766C107.483 117.552 107.976 117.445 108.517 117.445C109.705 117.445 110.507 117.859 110.923 118.688C111.153 119.141 111.267 119.789 111.267 120.633V126H109.838V120.727C109.838 120.216 109.762 119.805 109.611 119.492C109.361 118.971 108.908 118.711 108.252 118.711C107.918 118.711 107.645 118.745 107.431 118.812C107.046 118.927 106.707 119.156 106.416 119.5C106.181 119.776 106.028 120.062 105.955 120.359C105.887 120.651 105.853 121.07 105.853 121.617V126H104.447V117.633ZM114.084 121.914C114.084 122.81 114.274 123.56 114.654 124.164C115.034 124.768 115.644 125.07 116.482 125.07C117.133 125.07 117.667 124.792 118.084 124.234C118.506 123.672 118.717 122.867 118.717 121.82C118.717 120.763 118.5 119.982 118.068 119.477C117.636 118.966 117.102 118.711 116.467 118.711C115.758 118.711 115.183 118.982 114.74 119.523C114.302 120.065 114.084 120.862 114.084 121.914ZM116.201 117.484C116.842 117.484 117.378 117.62 117.81 117.891C118.06 118.047 118.344 118.32 118.662 118.711V114.484H120.013V126H118.748V124.836C118.42 125.352 118.032 125.724 117.584 125.953C117.136 126.182 116.623 126.297 116.045 126.297C115.112 126.297 114.305 125.906 113.623 125.125C112.941 124.339 112.599 123.294 112.599 121.992C112.599 120.773 112.909 119.719 113.529 118.828C114.154 117.932 115.045 117.484 116.201 117.484ZM126.123 114.484H127.49V118.648C127.798 118.247 128.165 117.943 128.592 117.734C129.019 117.521 129.482 117.414 129.982 117.414C131.024 117.414 131.868 117.773 132.514 118.492C133.165 119.206 133.49 120.26 133.49 121.656C133.49 122.979 133.17 124.078 132.529 124.953C131.889 125.828 131.001 126.266 129.865 126.266C129.23 126.266 128.693 126.112 128.256 125.805C127.996 125.622 127.717 125.331 127.42 124.93V126H126.123V114.484ZM129.779 125.023C130.54 125.023 131.107 124.721 131.482 124.117C131.863 123.513 132.053 122.716 132.053 121.727C132.053 120.846 131.863 120.117 131.482 119.539C131.107 118.961 130.553 118.672 129.818 118.672C129.178 118.672 128.615 118.909 128.131 119.383C127.652 119.857 127.412 120.638 127.412 121.727C127.412 122.513 127.511 123.151 127.709 123.641C128.079 124.562 128.769 125.023 129.779 125.023ZM136.385 117.633V123.188C136.385 123.615 136.453 123.964 136.588 124.234C136.838 124.734 137.304 124.984 137.987 124.984C138.966 124.984 139.632 124.547 139.987 123.672C140.179 123.203 140.276 122.56 140.276 121.742V117.633H141.682V126H140.354L140.369 124.766C140.187 125.083 139.961 125.352 139.69 125.57C139.153 126.008 138.502 126.227 137.737 126.227C136.544 126.227 135.731 125.828 135.299 125.031C135.065 124.604 134.948 124.034 134.948 123.32V117.633H136.385ZM143.725 117.672H145.155V126H143.725V117.672ZM143.725 114.523H145.155V116.117H143.725V114.523ZM147.167 114.523H148.573V126H147.167V114.523ZM150.811 115.297H152.233V117.633H153.569V118.781H152.233V124.242C152.233 124.534 152.332 124.729 152.53 124.828C152.639 124.885 152.822 124.914 153.077 124.914C153.145 124.914 153.217 124.914 153.296 124.914C153.374 124.909 153.465 124.901 153.569 124.891V126C153.408 126.047 153.238 126.081 153.061 126.102C152.889 126.122 152.702 126.133 152.499 126.133C151.842 126.133 151.397 125.966 151.163 125.633C150.928 125.294 150.811 124.857 150.811 124.32V118.781H149.678V117.633H150.811V115.297ZM159.007 114.484H160.374V118.648C160.681 118.247 161.049 117.943 161.476 117.734C161.903 117.521 162.366 117.414 162.866 117.414C163.908 117.414 164.752 117.773 165.398 118.492C166.049 119.206 166.374 120.26 166.374 121.656C166.374 122.979 166.054 124.078 165.413 124.953C164.773 125.828 163.884 126.266 162.749 126.266C162.114 126.266 161.577 126.112 161.14 125.805C160.879 125.622 160.601 125.331 160.304 124.93V126H159.007V114.484ZM162.663 125.023C163.424 125.023 163.991 124.721 164.366 124.117C164.746 123.513 164.937 122.716 164.937 121.727C164.937 120.846 164.746 120.117 164.366 119.539C163.991 118.961 163.437 118.672 162.702 118.672C162.062 118.672 161.499 118.909 161.015 119.383C160.536 119.857 160.296 120.638 160.296 121.727C160.296 122.513 160.395 123.151 160.593 123.641C160.963 124.562 161.653 125.023 162.663 125.023ZM173.089 117.633H174.644C174.446 118.169 174.006 119.393 173.323 121.305C172.813 122.742 172.386 123.914 172.042 124.82C171.23 126.956 170.657 128.258 170.323 128.727C169.99 129.195 169.417 129.43 168.605 129.43C168.407 129.43 168.253 129.422 168.144 129.406C168.04 129.391 167.909 129.362 167.753 129.32V128.039C167.998 128.107 168.175 128.148 168.284 128.164C168.394 128.18 168.49 128.188 168.573 128.188C168.834 128.188 169.024 128.143 169.144 128.055C169.269 127.971 169.373 127.867 169.456 127.742C169.482 127.701 169.576 127.487 169.738 127.102C169.899 126.716 170.016 126.43 170.089 126.242L166.995 117.633H168.589L170.831 124.445L173.089 117.633ZM180.277 115.297H181.699V117.633H183.035V118.781H181.699V124.242C181.699 124.534 181.798 124.729 181.996 124.828C182.105 124.885 182.287 124.914 182.542 124.914C182.61 124.914 182.683 124.914 182.761 124.914C182.839 124.909 182.931 124.901 183.035 124.891V126C182.873 126.047 182.704 126.081 182.527 126.102C182.355 126.122 182.167 126.133 181.964 126.133C181.308 126.133 180.863 125.966 180.628 125.633C180.394 125.294 180.277 124.857 180.277 124.32V118.781H179.144V117.633H180.277V115.297ZM184.289 114.484H185.695V118.766C186.028 118.344 186.328 118.047 186.593 117.875C187.047 117.578 187.612 117.43 188.289 117.43C189.502 117.43 190.325 117.854 190.758 118.703C190.992 119.167 191.109 119.81 191.109 120.633V126H189.664V120.727C189.664 120.112 189.586 119.661 189.429 119.375C189.174 118.917 188.695 118.688 187.992 118.688C187.409 118.688 186.88 118.888 186.406 119.289C185.932 119.69 185.695 120.448 185.695 121.562V126H184.289V114.484ZM196.519 117.445C197.113 117.445 197.689 117.586 198.246 117.867C198.803 118.143 199.228 118.503 199.519 118.945C199.801 119.367 199.988 119.859 200.082 120.422C200.165 120.807 200.207 121.422 200.207 122.266H194.074C194.1 123.115 194.301 123.797 194.676 124.312C195.051 124.823 195.631 125.078 196.418 125.078C197.152 125.078 197.738 124.836 198.176 124.352C198.426 124.07 198.603 123.745 198.707 123.375H200.09C200.053 123.682 199.931 124.026 199.723 124.406C199.519 124.781 199.29 125.089 199.035 125.328C198.608 125.745 198.079 126.026 197.449 126.172C197.111 126.255 196.728 126.297 196.301 126.297C195.259 126.297 194.376 125.919 193.652 125.164C192.928 124.404 192.566 123.341 192.566 121.977C192.566 120.633 192.931 119.542 193.66 118.703C194.389 117.865 195.342 117.445 196.519 117.445ZM198.762 121.148C198.704 120.539 198.571 120.052 198.363 119.688C197.978 119.01 197.334 118.672 196.433 118.672C195.788 118.672 195.246 118.906 194.808 119.375C194.371 119.839 194.139 120.43 194.113 121.148H198.762ZM25.0312 135.633H26.3672V136.82C26.763 136.331 27.1823 135.979 27.625 135.766C28.0677 135.552 28.5599 135.445 29.1016 135.445C30.2891 135.445 31.0911 135.859 31.5078 136.688C31.737 137.141 31.8516 137.789 31.8516 138.633V144H30.4219V138.727C30.4219 138.216 30.3464 137.805 30.1953 137.492C29.9453 136.971 29.4922 136.711 28.8359 136.711C28.5026 136.711 28.2292 136.745 28.0156 136.812C27.6302 136.927 27.2917 137.156 27 137.5C26.7656 137.776 26.612 138.062 26.5391 138.359C26.4714 138.651 26.4375 139.07 26.4375 139.617V144H25.0312V135.633ZM34.8556 141.773C34.8556 142.18 35.0041 142.5 35.3009 142.734C35.5978 142.969 35.9494 143.086 36.3556 143.086C36.8504 143.086 37.3296 142.971 37.7931 142.742C38.5744 142.362 38.965 141.74 38.965 140.875V139.742C38.7931 139.852 38.5718 139.943 38.3009 140.016C38.0301 140.089 37.7645 140.141 37.5041 140.172L36.6525 140.281C36.1421 140.349 35.7593 140.456 35.5041 140.602C35.0718 140.846 34.8556 141.237 34.8556 141.773ZM38.2619 138.93C38.5848 138.888 38.8009 138.753 38.9103 138.523C38.9728 138.398 39.0041 138.219 39.0041 137.984C39.0041 137.505 38.8322 137.159 38.4884 136.945C38.1499 136.727 37.6629 136.617 37.0275 136.617C36.2931 136.617 35.7723 136.815 35.465 137.211C35.2931 137.43 35.1811 137.755 35.1291 138.188H33.8166C33.8426 137.156 34.1759 136.44 34.8166 136.039C35.4624 135.633 36.2098 135.43 37.0588 135.43C38.0431 135.43 38.8426 135.617 39.4572 135.992C40.0666 136.367 40.3713 136.951 40.3713 137.742V142.562C40.3713 142.708 40.3999 142.826 40.4572 142.914C40.5197 143.003 40.6473 143.047 40.84 143.047C40.9025 143.047 40.9728 143.044 41.0509 143.039C41.1291 143.029 41.2124 143.016 41.3009 143V144.039C41.0822 144.102 40.9155 144.141 40.8009 144.156C40.6864 144.172 40.5301 144.18 40.3322 144.18C39.8478 144.18 39.4963 144.008 39.2775 143.664C39.1629 143.482 39.0822 143.224 39.0353 142.891C38.7489 143.266 38.3374 143.591 37.8009 143.867C37.2645 144.143 36.6733 144.281 36.0275 144.281C35.2515 144.281 34.616 144.047 34.1213 143.578C33.6317 143.104 33.3869 142.513 33.3869 141.805C33.3869 141.029 33.6291 140.427 34.1134 140C34.5978 139.573 35.2332 139.31 36.0197 139.211L38.2619 138.93ZM42.805 133.297H44.2269V135.633H45.5628V136.781H44.2269V142.242C44.2269 142.534 44.3258 142.729 44.5238 142.828C44.6331 142.885 44.8154 142.914 45.0706 142.914C45.1383 142.914 45.2113 142.914 45.2894 142.914C45.3675 142.909 45.4586 142.901 45.5628 142.891V144C45.4014 144.047 45.2321 144.081 45.055 144.102C44.8831 144.122 44.6956 144.133 44.4925 144.133C43.8363 144.133 43.3909 143.966 43.1566 143.633C42.9222 143.294 42.805 142.857 42.805 142.32V136.781H41.6722V135.633H42.805V133.297ZM46.8169 135.672H48.2466V144H46.8169V135.672ZM46.8169 132.523H48.2466V134.117H46.8169V132.523ZM53.5397 143.094C54.472 143.094 55.11 142.742 55.4538 142.039C55.8027 141.331 55.9772 140.544 55.9772 139.68C55.9772 138.898 55.8522 138.263 55.6022 137.773C55.2064 137.003 54.5241 136.617 53.5553 136.617C52.6959 136.617 52.0709 136.945 51.6803 137.602C51.2897 138.258 51.0944 139.049 51.0944 139.977C51.0944 140.867 51.2897 141.609 51.6803 142.203C52.0709 142.797 52.6907 143.094 53.5397 143.094ZM53.5944 135.391C54.6725 135.391 55.584 135.75 56.3288 136.469C57.0735 137.188 57.4459 138.245 57.4459 139.641C57.4459 140.99 57.1178 142.104 56.4616 142.984C55.8053 143.865 54.7871 144.305 53.4069 144.305C52.2558 144.305 51.3418 143.917 50.6647 143.141C49.9876 142.359 49.6491 141.312 49.6491 140C49.6491 138.594 50.0058 137.474 50.7194 136.641C51.4329 135.807 52.3913 135.391 53.5944 135.391ZM58.9656 135.633H60.3016V136.82C60.6974 136.331 61.1167 135.979 61.5594 135.766C62.0021 135.552 62.4943 135.445 63.0359 135.445C64.2234 135.445 65.0255 135.859 65.4422 136.688C65.6714 137.141 65.7859 137.789 65.7859 138.633V144H64.3563V138.727C64.3563 138.216 64.2807 137.805 64.1297 137.492C63.8797 136.971 63.4266 136.711 62.7703 136.711C62.437 136.711 62.1635 136.745 61.95 136.812C61.5646 136.927 61.226 137.156 60.9344 137.5C60.7 137.776 60.5464 138.062 60.4734 138.359C60.4057 138.651 60.3719 139.07 60.3719 139.617V144H58.9656V135.633ZM69.3213 132.523L69.0634 137.117H68.1572L67.8994 132.523H69.3213ZM71.4503 141.375C71.492 141.844 71.6092 142.203 71.8019 142.453C72.156 142.906 72.7706 143.133 73.6456 143.133C74.1665 143.133 74.6248 143.021 75.0206 142.797C75.4165 142.568 75.6144 142.216 75.6144 141.742C75.6144 141.383 75.4555 141.109 75.1378 140.922C74.9347 140.807 74.5336 140.674 73.9347 140.523L72.8175 140.242C72.104 140.065 71.5779 139.867 71.2394 139.648C70.6352 139.268 70.3331 138.742 70.3331 138.07C70.3331 137.279 70.617 136.638 71.1847 136.148C71.7576 135.659 72.5258 135.414 73.4894 135.414C74.7498 135.414 75.6586 135.784 76.2159 136.523C76.5649 136.992 76.7342 137.497 76.7238 138.039H75.3956C75.3696 137.721 75.2576 137.432 75.0597 137.172C74.7368 136.802 74.1769 136.617 73.38 136.617C72.8488 136.617 72.4451 136.719 72.1691 136.922C71.8982 137.125 71.7628 137.393 71.7628 137.727C71.7628 138.091 71.9425 138.383 72.3019 138.602C72.5102 138.732 72.8175 138.846 73.2238 138.945L74.1534 139.172C75.1639 139.417 75.8409 139.654 76.1847 139.883C76.7316 140.242 77.005 140.807 77.005 141.578C77.005 142.323 76.7211 142.966 76.1534 143.508C75.5909 144.049 74.7316 144.32 73.5753 144.32C72.3305 144.32 71.4477 144.039 70.9269 143.477C70.4113 142.909 70.1352 142.208 70.0988 141.375H71.4503ZM85.9741 135.391C86.9168 135.391 87.6824 135.62 88.2709 136.078C88.8647 136.536 89.2215 137.326 89.3413 138.445H87.9741C87.8907 137.93 87.7006 137.503 87.4038 137.164C87.1069 136.82 86.6303 136.648 85.9741 136.648C85.0782 136.648 84.4376 137.086 84.0522 137.961C83.8022 138.529 83.6772 139.229 83.6772 140.062C83.6772 140.901 83.8543 141.607 84.2084 142.18C84.5626 142.753 85.1199 143.039 85.8803 143.039C86.4636 143.039 86.9246 142.862 87.2631 142.508C87.6069 142.148 87.8439 141.659 87.9741 141.039H89.3413C89.185 142.148 88.7944 142.961 88.1694 143.477C87.5444 143.987 86.7449 144.242 85.7709 144.242C84.6772 144.242 83.8048 143.844 83.1538 143.047C82.5027 142.245 82.1772 141.245 82.1772 140.047C82.1772 138.578 82.534 137.435 83.2475 136.617C83.961 135.799 84.8699 135.391 85.9741 135.391ZM90.5875 132.484H91.9938V136.766C92.3271 136.344 92.6266 136.047 92.8922 135.875C93.3453 135.578 93.9104 135.43 94.5875 135.43C95.801 135.43 96.624 135.854 97.0563 136.703C97.2906 137.167 97.4078 137.81 97.4078 138.633V144H95.9625V138.727C95.9625 138.112 95.8844 137.661 95.7281 137.375C95.4729 136.917 94.9938 136.688 94.2906 136.688C93.7073 136.688 93.1786 136.888 92.7047 137.289C92.2307 137.69 91.9938 138.448 91.9938 139.562V144H90.5875V132.484ZM99.3337 135.672H100.763V144H99.3337V135.672ZM99.3337 132.523H100.763V134.117H99.3337V132.523ZM102.775 132.523H104.182V144H102.775V132.523ZM107.029 139.914C107.029 140.81 107.219 141.56 107.6 142.164C107.98 142.768 108.589 143.07 109.428 143.07C110.079 143.07 110.613 142.792 111.029 142.234C111.451 141.672 111.662 140.867 111.662 139.82C111.662 138.763 111.446 137.982 111.014 137.477C110.581 136.966 110.048 136.711 109.412 136.711C108.704 136.711 108.128 136.982 107.686 137.523C107.248 138.065 107.029 138.862 107.029 139.914ZM109.147 135.484C109.787 135.484 110.324 135.62 110.756 135.891C111.006 136.047 111.29 136.32 111.607 136.711V132.484H112.959V144H111.693V142.836C111.365 143.352 110.977 143.724 110.529 143.953C110.081 144.182 109.568 144.297 108.99 144.297C108.058 144.297 107.251 143.906 106.568 143.125C105.886 142.339 105.545 141.294 105.545 139.992C105.545 138.773 105.855 137.719 106.475 136.828C107.1 135.932 107.99 135.484 109.147 135.484ZM114.924 135.633H116.26V137.078C116.369 136.797 116.638 136.456 117.065 136.055C117.492 135.648 117.984 135.445 118.541 135.445C118.567 135.445 118.612 135.448 118.674 135.453C118.737 135.458 118.843 135.469 118.994 135.484V136.969C118.911 136.953 118.833 136.943 118.76 136.938C118.692 136.932 118.617 136.93 118.533 136.93C117.825 136.93 117.281 137.159 116.901 137.617C116.52 138.07 116.33 138.594 116.33 139.188V144H114.924V135.633ZM123.537 135.445C124.131 135.445 124.707 135.586 125.264 135.867C125.821 136.143 126.246 136.503 126.537 136.945C126.819 137.367 127.006 137.859 127.1 138.422C127.183 138.807 127.225 139.422 127.225 140.266H121.092C121.118 141.115 121.319 141.797 121.694 142.312C122.069 142.823 122.649 143.078 123.436 143.078C124.17 143.078 124.756 142.836 125.194 142.352C125.444 142.07 125.621 141.745 125.725 141.375H127.108C127.071 141.682 126.949 142.026 126.741 142.406C126.537 142.781 126.308 143.089 126.053 143.328C125.626 143.745 125.097 144.026 124.467 144.172C124.129 144.255 123.746 144.297 123.319 144.297C122.277 144.297 121.394 143.919 120.67 143.164C119.946 142.404 119.584 141.341 119.584 139.977C119.584 138.633 119.949 137.542 120.678 136.703C121.407 135.865 122.36 135.445 123.537 135.445ZM125.78 139.148C125.722 138.539 125.59 138.052 125.381 137.688C124.996 137.01 124.353 136.672 123.452 136.672C122.806 136.672 122.264 136.906 121.827 137.375C121.389 137.839 121.157 138.43 121.131 139.148H125.78ZM128.799 135.633H130.135V136.82C130.531 136.331 130.95 135.979 131.393 135.766C131.836 135.552 132.328 135.445 132.87 135.445C134.057 135.445 134.859 135.859 135.276 136.688C135.505 137.141 135.62 137.789 135.62 138.633V144H134.19V138.727C134.19 138.216 134.114 137.805 133.963 137.492C133.713 136.971 133.26 136.711 132.604 136.711C132.271 136.711 131.997 136.745 131.784 136.812C131.398 136.927 131.06 137.156 130.768 137.5C130.534 137.776 130.38 138.062 130.307 138.359C130.239 138.651 130.206 139.07 130.206 139.617V144H128.799V135.633ZM137.882 142.297H139.514V144H137.882V142.297Z" fill="#373737"/>
</svg>
