<svg width="270" height="205" viewBox="0 0 270 205" fill="none" xmlns="http://www.w3.org/2000/svg">
<rect width="270" height="205" rx="24" fill="#F5F5F5"/>
<path d="M38.75 53.7083L44 50.5417L49.25 53.75L47.875 47.75L52.5 43.75L46.4167 43.2083L44 37.5417L41.5834 43.1667L35.5 43.7083L40.125 47.75L38.75 53.7083ZM33.7084 60.6667L36.4167 48.9583L27.3334 41.0833L39.3334 40.0417L44 29L48.6667 40.0417L60.6667 41.0833L51.5834 48.9583L54.2917 60.6667L44 54.4583L33.7084 60.6667Z" fill="#49454F"/>
<path d="M25.5039 90V75.6055H28.4824V81.0938H34.1074V75.6055H37.0957V90H34.1074V83.5742H28.4824V90H25.5039ZM42.4133 78.0859H39.591V75.5176H42.4133V78.0859ZM39.591 79.3555H42.4133V90H39.591V79.3555ZM49.4887 87.7148C50.1397 87.7148 50.6898 87.4707 51.1391 86.9824C51.5883 86.4876 51.8129 85.7031 51.8129 84.6289C51.8129 83.6198 51.598 82.8516 51.1684 82.3242C50.7452 81.7969 50.1755 81.5332 49.4594 81.5332C48.4828 81.5332 47.809 81.9922 47.4379 82.9102C47.2426 83.3984 47.1449 84.0007 47.1449 84.7168C47.1449 85.3353 47.2491 85.8854 47.4574 86.3672C47.835 87.2656 48.5121 87.7148 49.4887 87.7148ZM48.7953 79.1016C49.3292 79.1016 49.7947 79.1829 50.1918 79.3457C50.8689 79.6257 51.4158 80.14 51.8324 80.8887V79.3555H54.5375V89.4531C54.5375 90.8268 54.3064 91.862 53.8441 92.5586C53.0499 93.7565 51.5264 94.3555 49.2738 94.3555C47.9132 94.3555 46.8031 94.0885 45.9438 93.5547C45.0844 93.0208 44.6091 92.2233 44.518 91.1621H47.5453C47.6234 91.4876 47.7504 91.722 47.9262 91.8652C48.2257 92.1191 48.7302 92.2461 49.4398 92.2461C50.4424 92.2461 51.113 91.9108 51.4516 91.2402C51.6729 90.8105 51.7836 90.0879 51.7836 89.0723V88.3887C51.5167 88.8444 51.2302 89.1862 50.9242 89.4141C50.3708 89.8372 49.6514 90.0488 48.766 90.0488C47.3988 90.0488 46.3051 89.5703 45.4848 88.6133C44.671 87.6497 44.2641 86.3477 44.2641 84.707C44.2641 83.125 44.6579 81.7969 45.4457 80.7227C46.2335 79.6419 47.35 79.1016 48.7953 79.1016ZM62.8141 79.082C63.4716 79.082 64.0673 79.196 64.6012 79.4238C65.1415 79.6517 65.5842 80 65.9293 80.4688C66.2223 80.8659 66.4013 81.276 66.4664 81.6992C66.5315 82.1159 66.5641 82.7995 66.5641 83.75V90H63.7223V83.5254C63.7223 82.9525 63.6246 82.4902 63.4293 82.1387C63.1754 81.6439 62.6936 81.3965 61.984 81.3965C61.2483 81.3965 60.6884 81.6439 60.3043 82.1387C59.9267 82.627 59.7379 83.3268 59.7379 84.2383V90H56.9645V75.6543H59.7379V80.7422C60.1415 80.1237 60.607 79.694 61.1344 79.4531C61.6682 79.2057 62.2281 79.082 62.8141 79.082ZM80.9004 87.8516C81.2454 87.8516 81.5775 87.8092 81.8965 87.7246C82.0723 87.679 82.2969 87.5977 82.5703 87.4805L81.1152 86.0938L82.668 84.4727L84.123 85.8594C84.3509 85.3906 84.5104 84.9805 84.6016 84.6289C84.7448 84.1016 84.8164 83.4863 84.8164 82.7832C84.8164 81.1686 84.4844 79.9219 83.8203 79.043C83.1628 78.1576 82.1992 77.7148 80.9297 77.7148C79.7383 77.7148 78.7878 78.138 78.0781 78.9844C77.3685 79.8307 77.0137 81.097 77.0137 82.7832C77.0137 84.7559 77.5215 86.1686 78.5371 87.0215C79.1947 87.5749 79.9824 87.8516 80.9004 87.8516ZM87.8242 82.5684C87.8242 83.8509 87.668 84.9251 87.3555 85.791C87.1016 86.6178 86.7272 87.3047 86.2324 87.8516L87.8926 89.4043L86.3203 91.0449L84.582 89.4043C84.0547 89.7233 83.599 89.9479 83.2148 90.0781C82.5703 90.293 81.7988 90.4004 80.9004 90.4004C79.0254 90.4004 77.4759 89.8405 76.252 88.7207C74.7676 87.373 74.0254 85.3939 74.0254 82.7832C74.0254 80.153 74.7871 78.1641 76.3105 76.8164C77.554 75.7161 79.1003 75.166 80.9492 75.166C82.8112 75.166 84.3737 75.7487 85.6367 76.9141C87.0951 78.2617 87.8242 80.1465 87.8242 82.5684ZM92.4777 79.3555V85.7715C92.4777 86.377 92.5494 86.8327 92.6926 87.1387C92.9465 87.679 93.4445 87.9492 94.1867 87.9492C95.1372 87.9492 95.7883 87.5651 96.1398 86.7969C96.3221 86.3802 96.4133 85.8301 96.4133 85.1465V79.3555H99.2355V90H96.5305V88.4961C96.5044 88.5286 96.4393 88.6263 96.3352 88.7891C96.231 88.9518 96.1073 89.0951 95.9641 89.2188C95.5279 89.6094 95.1047 89.8763 94.6945 90.0195C94.2909 90.1628 93.8156 90.2344 93.2688 90.2344C91.6932 90.2344 90.632 89.668 90.0852 88.5352C89.7792 87.9102 89.6262 86.9889 89.6262 85.7715V79.3555H92.4777ZM107.6 84.8242C107.424 84.9349 107.245 85.026 107.063 85.0977C106.887 85.1628 106.643 85.2246 106.33 85.2832L105.705 85.4004C105.12 85.5046 104.7 85.6315 104.446 85.7812C104.016 86.0352 103.801 86.429 103.801 86.9629C103.801 87.4382 103.931 87.7832 104.192 87.998C104.459 88.2064 104.781 88.3105 105.159 88.3105C105.758 88.3105 106.308 88.1348 106.809 87.7832C107.317 87.4316 107.58 86.7904 107.6 85.8594V84.8242ZM105.911 83.5254C106.425 83.4603 106.793 83.3789 107.014 83.2812C107.411 83.112 107.61 82.8483 107.61 82.4902C107.61 82.054 107.457 81.7546 107.151 81.5918C106.851 81.4225 106.409 81.3379 105.823 81.3379C105.165 81.3379 104.7 81.5007 104.426 81.8262C104.231 82.0671 104.101 82.3926 104.036 82.8027H101.35C101.409 81.8717 101.669 81.1068 102.131 80.5078C102.867 79.5703 104.13 79.1016 105.92 79.1016C107.086 79.1016 108.121 79.3327 109.026 79.7949C109.931 80.2572 110.383 81.1296 110.383 82.4121V87.2949C110.383 87.6335 110.39 88.0436 110.403 88.5254C110.422 88.89 110.478 89.1374 110.569 89.2676C110.66 89.3978 110.797 89.5052 110.979 89.5898V90H107.952C107.867 89.7852 107.808 89.5833 107.776 89.3945C107.743 89.2057 107.717 88.9909 107.698 88.75C107.314 89.1667 106.871 89.5215 106.37 89.8145C105.771 90.1595 105.093 90.332 104.338 90.332C103.375 90.332 102.577 90.0586 101.946 89.5117C101.321 88.9583 101.008 88.1771 101.008 87.168C101.008 85.8594 101.513 84.9121 102.522 84.3262C103.075 84.0072 103.889 83.7793 104.963 83.6426L105.911 83.5254ZM115.505 90H112.722V75.6055H115.505V90ZM120.891 78.0859H118.069V75.5176H120.891V78.0859ZM118.069 79.3555H120.891V90H118.069V79.3555ZM122.303 81.4355V79.4531H123.787V76.4844H126.541V79.4531H128.27V81.4355H126.541V87.0605C126.541 87.4967 126.596 87.7702 126.707 87.8809C126.818 87.985 127.156 88.0371 127.723 88.0371C127.807 88.0371 127.895 88.0371 127.986 88.0371C128.084 88.0306 128.178 88.0241 128.27 88.0176V90.0977L126.951 90.1465C125.636 90.1921 124.738 89.9642 124.256 89.4629C123.943 89.1439 123.787 88.6523 123.787 87.9883V81.4355H122.303ZM130.286 92.041L130.638 92.0605C130.911 92.0736 131.172 92.0638 131.419 92.0312C131.667 91.9987 131.875 91.9238 132.044 91.8066C132.207 91.696 132.357 91.4648 132.493 91.1133C132.637 90.7617 132.695 90.5469 132.669 90.4688L128.763 79.3555H131.859L134.183 87.207L136.38 79.3555H139.339L135.687 89.8242C134.984 91.8424 134.427 93.0924 134.017 93.5742C133.607 94.0625 132.786 94.3066 131.556 94.3066C131.308 94.3066 131.11 94.3034 130.96 94.2969C130.81 94.2969 130.586 94.2871 130.286 94.2676V92.041Z" fill="#373737"/>
<path d="M25.1797 114.523H27.4062L30.7031 124.227L33.9766 114.523H36.1797V126H34.7031V119.227C34.7031 118.992 34.7083 118.604 34.7188 118.062C34.7292 117.521 34.7344 116.94 34.7344 116.32L31.4609 126H29.9219L26.625 116.32V116.672C26.625 116.953 26.6302 117.383 26.6406 117.961C26.6562 118.534 26.6641 118.956 26.6641 119.227V126H25.1797V114.523ZM39.2775 123.773C39.2775 124.18 39.4259 124.5 39.7228 124.734C40.0197 124.969 40.3713 125.086 40.7775 125.086C41.2723 125.086 41.7515 124.971 42.215 124.742C42.9963 124.362 43.3869 123.74 43.3869 122.875V121.742C43.215 121.852 42.9936 121.943 42.7228 122.016C42.452 122.089 42.1864 122.141 41.9259 122.172L41.0744 122.281C40.564 122.349 40.1811 122.456 39.9259 122.602C39.4936 122.846 39.2775 123.237 39.2775 123.773ZM42.6838 120.93C43.0067 120.888 43.2228 120.753 43.3322 120.523C43.3947 120.398 43.4259 120.219 43.4259 119.984C43.4259 119.505 43.2541 119.159 42.9103 118.945C42.5718 118.727 42.0848 118.617 41.4494 118.617C40.715 118.617 40.1942 118.815 39.8869 119.211C39.715 119.43 39.603 119.755 39.5509 120.188H38.2384C38.2645 119.156 38.5978 118.44 39.2384 118.039C39.8843 117.633 40.6317 117.43 41.4806 117.43C42.465 117.43 43.2645 117.617 43.8791 117.992C44.4884 118.367 44.7931 118.951 44.7931 119.742V124.562C44.7931 124.708 44.8218 124.826 44.8791 124.914C44.9416 125.003 45.0692 125.047 45.2619 125.047C45.3244 125.047 45.3947 125.044 45.4728 125.039C45.5509 125.029 45.6343 125.016 45.7228 125V126.039C45.5041 126.102 45.3374 126.141 45.2228 126.156C45.1082 126.172 44.952 126.18 44.7541 126.18C44.2697 126.18 43.9181 126.008 43.6994 125.664C43.5848 125.482 43.5041 125.224 43.4572 124.891C43.1707 125.266 42.7593 125.591 42.2228 125.867C41.6864 126.143 41.0952 126.281 40.4494 126.281C39.6733 126.281 39.0379 126.047 38.5431 125.578C38.0535 125.104 37.8088 124.513 37.8088 123.805C37.8088 123.029 38.0509 122.427 38.5353 122C39.0197 121.573 39.6551 121.31 40.4416 121.211L42.6838 120.93ZM47.8363 121.914C47.8363 122.81 48.0264 123.56 48.4066 124.164C48.7868 124.768 49.3961 125.07 50.2347 125.07C50.8857 125.07 51.4196 124.792 51.8363 124.234C52.2581 123.672 52.4691 122.867 52.4691 121.82C52.4691 120.763 52.2529 119.982 51.8206 119.477C51.3883 118.966 50.8545 118.711 50.2191 118.711C49.5107 118.711 48.9352 118.982 48.4925 119.523C48.055 120.065 47.8363 120.862 47.8363 121.914ZM49.9534 117.484C50.5941 117.484 51.1305 117.62 51.5628 117.891C51.8128 118.047 52.0967 118.32 52.4144 118.711V114.484H53.7659V126H52.5003V124.836C52.1722 125.352 51.7842 125.724 51.3363 125.953C50.8883 126.182 50.3753 126.297 49.7972 126.297C48.8649 126.297 48.0576 125.906 47.3753 125.125C46.693 124.339 46.3519 123.294 46.3519 121.992C46.3519 120.773 46.6618 119.719 47.2816 118.828C47.9066 117.932 48.7972 117.484 49.9534 117.484ZM59.1763 117.445C59.77 117.445 60.3455 117.586 60.9028 117.867C61.4601 118.143 61.8846 118.503 62.1763 118.945C62.4575 119.367 62.645 119.859 62.7388 120.422C62.8221 120.807 62.8638 121.422 62.8638 122.266H56.7309C56.757 123.115 56.9575 123.797 57.3325 124.312C57.7075 124.823 58.2882 125.078 59.0747 125.078C59.8091 125.078 60.395 124.836 60.8325 124.352C61.0825 124.07 61.2596 123.745 61.3638 123.375H62.7466C62.7101 123.682 62.5877 124.026 62.3794 124.406C62.1763 124.781 61.9471 125.089 61.6919 125.328C61.2648 125.745 60.7361 126.026 60.1059 126.172C59.7674 126.255 59.3846 126.297 58.9575 126.297C57.9158 126.297 57.033 125.919 56.3091 125.164C55.5851 124.404 55.2231 123.341 55.2231 121.977C55.2231 120.633 55.5877 119.542 56.3169 118.703C57.046 117.865 57.9992 117.445 59.1763 117.445ZM61.4184 121.148C61.3611 120.539 61.2283 120.052 61.02 119.688C60.6346 119.01 59.9914 118.672 59.0903 118.672C58.4445 118.672 57.9028 118.906 57.4653 119.375C57.0278 119.839 56.796 120.43 56.77 121.148H61.4184ZM68.6219 114.484H69.9891V118.648C70.2964 118.247 70.6635 117.943 71.0906 117.734C71.5177 117.521 71.9813 117.414 72.4813 117.414C73.5229 117.414 74.3667 117.773 75.0125 118.492C75.6635 119.206 75.9891 120.26 75.9891 121.656C75.9891 122.979 75.6688 124.078 75.0281 124.953C74.3875 125.828 73.4995 126.266 72.3641 126.266C71.7286 126.266 71.1922 126.112 70.7547 125.805C70.4943 125.622 70.2156 125.331 69.9188 124.93V126H68.6219V114.484ZM72.2781 125.023C73.0385 125.023 73.6063 124.721 73.9813 124.117C74.3615 123.513 74.5516 122.716 74.5516 121.727C74.5516 120.846 74.3615 120.117 73.9813 119.539C73.6063 118.961 73.0516 118.672 72.3172 118.672C71.6766 118.672 71.1141 118.909 70.6297 119.383C70.1505 119.857 69.9109 120.638 69.9109 121.727C69.9109 122.513 70.0099 123.151 70.2078 123.641C70.5776 124.562 71.2677 125.023 72.2781 125.023ZM82.7041 117.633H84.2588C84.0608 118.169 83.6207 119.393 82.9384 121.305C82.428 122.742 82.0009 123.914 81.6572 124.82C80.8447 126.956 80.2718 128.258 79.9384 128.727C79.6051 129.195 79.0322 129.43 78.2197 129.43C78.0218 129.43 77.8681 129.422 77.7588 129.406C77.6546 129.391 77.5244 129.362 77.3681 129.32V128.039C77.6129 128.107 77.79 128.148 77.8994 128.164C78.0088 128.18 78.1051 128.188 78.1884 128.188C78.4489 128.188 78.639 128.143 78.7588 128.055C78.8838 127.971 78.9879 127.867 79.0713 127.742C79.0973 127.701 79.191 127.487 79.3525 127.102C79.514 126.716 79.6311 126.43 79.7041 126.242L76.6103 117.633H78.2041L80.4463 124.445L82.7041 117.633ZM92.5638 117.484C93.22 117.484 93.7929 117.646 94.2825 117.969C94.5481 118.151 94.819 118.417 95.095 118.766V117.711H96.3919V125.32C96.3919 126.383 96.2356 127.221 95.9231 127.836C95.3398 128.971 94.2382 129.539 92.6184 129.539C91.7174 129.539 90.9596 129.336 90.345 128.93C89.7304 128.529 89.3867 127.898 89.3138 127.039H90.7434C90.8111 127.414 90.9466 127.703 91.1497 127.906C91.4674 128.219 91.9674 128.375 92.6497 128.375C93.7278 128.375 94.4335 127.995 94.7669 127.234C94.9648 126.786 95.0559 125.987 95.0403 124.836C94.7591 125.263 94.4205 125.581 94.0247 125.789C93.6289 125.997 93.1054 126.102 92.4544 126.102C91.5481 126.102 90.7539 125.781 90.0716 125.141C89.3945 124.495 89.0559 123.43 89.0559 121.945C89.0559 120.544 89.3971 119.451 90.0794 118.664C90.7669 117.878 91.595 117.484 92.5638 117.484ZM95.095 121.781C95.095 120.745 94.8815 119.977 94.4544 119.477C94.0273 118.977 93.483 118.727 92.8216 118.727C91.832 118.727 91.1549 119.19 90.7903 120.117C90.5976 120.612 90.5013 121.26 90.5013 122.062C90.5013 123.005 90.6914 123.724 91.0716 124.219C91.457 124.708 91.9726 124.953 92.6184 124.953C93.6289 124.953 94.3398 124.497 94.7513 123.586C94.9804 123.07 95.095 122.469 95.095 121.781ZM103.583 117.633H105.138C104.94 118.169 104.5 119.393 103.818 121.305C103.307 122.742 102.88 123.914 102.537 124.82C101.724 126.956 101.151 128.258 100.818 128.727C100.484 129.195 99.9116 129.43 99.0991 129.43C98.9011 129.43 98.7475 129.422 98.6381 129.406C98.534 129.391 98.4037 129.362 98.2475 129.32V128.039C98.4923 128.107 98.6694 128.148 98.7787 128.164C98.8881 128.18 98.9845 128.188 99.0678 128.188C99.3282 128.188 99.5183 128.143 99.6381 128.055C99.7631 127.971 99.8673 127.867 99.9506 127.742C99.9767 127.701 100.07 127.487 100.232 127.102C100.393 126.716 100.511 126.43 100.583 126.242L97.4897 117.633H99.0834L101.326 124.445L103.583 117.633ZM106.197 117.633H107.588V118.82C107.921 118.409 108.223 118.109 108.494 117.922C108.957 117.604 109.483 117.445 110.072 117.445C110.739 117.445 111.275 117.609 111.681 117.938C111.91 118.125 112.119 118.401 112.306 118.766C112.619 118.318 112.986 117.987 113.408 117.773C113.83 117.555 114.304 117.445 114.83 117.445C115.955 117.445 116.72 117.852 117.127 118.664C117.345 119.102 117.455 119.69 117.455 120.43V126H115.994V120.188C115.994 119.63 115.853 119.247 115.572 119.039C115.296 118.831 114.957 118.727 114.556 118.727C114.004 118.727 113.528 118.911 113.127 119.281C112.731 119.651 112.533 120.268 112.533 121.133V126H111.103V120.539C111.103 119.971 111.035 119.557 110.9 119.297C110.686 118.906 110.288 118.711 109.705 118.711C109.173 118.711 108.689 118.917 108.252 119.328C107.819 119.74 107.603 120.484 107.603 121.562V126H106.197V117.633ZM123.697 114.523H125.103V126H123.697V114.523ZM130.381 125.094C131.313 125.094 131.951 124.742 132.295 124.039C132.644 123.331 132.818 122.544 132.818 121.68C132.818 120.898 132.693 120.263 132.443 119.773C132.048 119.003 131.365 118.617 130.397 118.617C129.537 118.617 128.912 118.945 128.522 119.602C128.131 120.258 127.936 121.049 127.936 121.977C127.936 122.867 128.131 123.609 128.522 124.203C128.912 124.797 129.532 125.094 130.381 125.094ZM130.436 117.391C131.514 117.391 132.425 117.75 133.17 118.469C133.915 119.188 134.287 120.245 134.287 121.641C134.287 122.99 133.959 124.104 133.303 124.984C132.647 125.865 131.628 126.305 130.248 126.305C129.097 126.305 128.183 125.917 127.506 125.141C126.829 124.359 126.49 123.312 126.49 122C126.49 120.594 126.847 119.474 127.561 118.641C128.274 117.807 129.232 117.391 130.436 117.391ZM136.494 117.633L138.729 124.445L141.065 117.633H142.604L139.448 126H137.948L134.862 117.633H136.494ZM147.131 117.445C147.725 117.445 148.301 117.586 148.858 117.867C149.415 118.143 149.84 118.503 150.131 118.945C150.412 119.367 150.6 119.859 150.694 120.422C150.777 120.807 150.819 121.422 150.819 122.266H144.686C144.712 123.115 144.912 123.797 145.287 124.312C145.662 124.823 146.243 125.078 147.03 125.078C147.764 125.078 148.35 124.836 148.787 124.352C149.037 124.07 149.215 123.745 149.319 123.375H150.702C150.665 123.682 150.543 124.026 150.334 124.406C150.131 124.781 149.902 125.089 149.647 125.328C149.22 125.745 148.691 126.026 148.061 126.172C147.722 126.255 147.34 126.297 146.912 126.297C145.871 126.297 144.988 125.919 144.264 125.164C143.54 124.404 143.178 123.341 143.178 121.977C143.178 120.633 143.543 119.542 144.272 118.703C145.001 117.865 145.954 117.445 147.131 117.445ZM149.373 121.148C149.316 120.539 149.183 120.052 148.975 119.688C148.59 119.01 147.946 118.672 147.045 118.672C146.399 118.672 145.858 118.906 145.42 119.375C144.983 119.839 144.751 120.43 144.725 121.148H149.373ZM152.432 117.633H153.768V119.078C153.878 118.797 154.146 118.456 154.573 118.055C155 117.648 155.492 117.445 156.049 117.445C156.075 117.445 156.12 117.448 156.182 117.453C156.245 117.458 156.351 117.469 156.503 117.484V118.969C156.419 118.953 156.341 118.943 156.268 118.938C156.2 118.932 156.125 118.93 156.042 118.93C155.333 118.93 154.789 119.159 154.409 119.617C154.029 120.07 153.838 120.594 153.838 121.188V126H152.432V117.633ZM158.397 123.375C158.439 123.844 158.556 124.203 158.749 124.453C159.103 124.906 159.717 125.133 160.592 125.133C161.113 125.133 161.572 125.021 161.967 124.797C162.363 124.568 162.561 124.216 162.561 123.742C162.561 123.383 162.402 123.109 162.085 122.922C161.882 122.807 161.481 122.674 160.882 122.523L159.764 122.242C159.051 122.065 158.525 121.867 158.186 121.648C157.582 121.268 157.28 120.742 157.28 120.07C157.28 119.279 157.564 118.638 158.132 118.148C158.704 117.659 159.473 117.414 160.436 117.414C161.697 117.414 162.606 117.784 163.163 118.523C163.512 118.992 163.681 119.497 163.671 120.039H162.342C162.316 119.721 162.204 119.432 162.007 119.172C161.684 118.802 161.124 118.617 160.327 118.617C159.796 118.617 159.392 118.719 159.116 118.922C158.845 119.125 158.71 119.393 158.71 119.727C158.71 120.091 158.889 120.383 159.249 120.602C159.457 120.732 159.764 120.846 160.171 120.945L161.1 121.172C162.111 121.417 162.788 121.654 163.132 121.883C163.678 122.242 163.952 122.807 163.952 123.578C163.952 124.323 163.668 124.966 163.1 125.508C162.538 126.049 161.678 126.32 160.522 126.32C159.277 126.32 158.395 126.039 157.874 125.477C157.358 124.909 157.082 124.208 157.046 123.375H158.397ZM170.046 116.359C170.067 115.776 170.168 115.349 170.351 115.078C170.679 114.599 171.312 114.359 172.249 114.359C172.338 114.359 172.429 114.362 172.523 114.367C172.616 114.372 172.723 114.38 172.843 114.391V115.672C172.697 115.661 172.59 115.656 172.523 115.656C172.46 115.651 172.4 115.648 172.343 115.648C171.916 115.648 171.661 115.76 171.577 115.984C171.494 116.203 171.452 116.766 171.452 117.672H172.843V118.781H171.437V126H170.046V118.781H168.882V117.672H170.046V116.359ZM177.308 125.094C178.24 125.094 178.878 124.742 179.222 124.039C179.571 123.331 179.745 122.544 179.745 121.68C179.745 120.898 179.62 120.263 179.37 119.773C178.974 119.003 178.292 118.617 177.323 118.617C176.464 118.617 175.839 118.945 175.448 119.602C175.058 120.258 174.863 121.049 174.863 121.977C174.863 122.867 175.058 123.609 175.448 124.203C175.839 124.797 176.459 125.094 177.308 125.094ZM177.363 117.391C178.441 117.391 179.352 117.75 180.097 118.469C180.842 119.188 181.214 120.245 181.214 121.641C181.214 122.99 180.886 124.104 180.23 124.984C179.573 125.865 178.555 126.305 177.175 126.305C176.024 126.305 175.11 125.917 174.433 125.141C173.756 124.359 173.417 123.312 173.417 122C173.417 120.594 173.774 119.474 174.488 118.641C175.201 117.807 176.159 117.391 177.363 117.391ZM182.773 117.633H184.109V119.078C184.218 118.797 184.486 118.456 184.913 118.055C185.341 117.648 185.833 117.445 186.39 117.445C186.416 117.445 186.46 117.448 186.523 117.453C186.585 117.458 186.692 117.469 186.843 117.484V118.969C186.76 118.953 186.682 118.943 186.609 118.938C186.541 118.932 186.466 118.93 186.382 118.93C185.674 118.93 185.13 119.159 184.749 119.617C184.369 120.07 184.179 120.594 184.179 121.188V126H182.773V117.633ZM195.148 117.484C195.804 117.484 196.377 117.646 196.867 117.969C197.133 118.151 197.403 118.417 197.679 118.766V117.711H198.976V125.32C198.976 126.383 198.82 127.221 198.508 127.836C197.924 128.971 196.823 129.539 195.203 129.539C194.302 129.539 193.544 129.336 192.929 128.93C192.315 128.529 191.971 127.898 191.898 127.039H193.328C193.396 127.414 193.531 127.703 193.734 127.906C194.052 128.219 194.552 128.375 195.234 128.375C196.312 128.375 197.018 127.995 197.351 127.234C197.549 126.786 197.64 125.987 197.625 124.836C197.343 125.263 197.005 125.581 196.609 125.789C196.213 125.997 195.69 126.102 195.039 126.102C194.133 126.102 193.338 125.781 192.656 125.141C191.979 124.495 191.64 123.43 191.64 121.945C191.64 120.544 191.981 119.451 192.664 118.664C193.351 117.878 194.179 117.484 195.148 117.484ZM197.679 121.781C197.679 120.745 197.466 119.977 197.039 119.477C196.612 118.977 196.067 118.727 195.406 118.727C194.416 118.727 193.739 119.19 193.375 120.117C193.182 120.612 193.086 121.26 193.086 122.062C193.086 123.005 193.276 123.724 193.656 124.219C194.041 124.708 194.557 124.953 195.203 124.953C196.213 124.953 196.924 124.497 197.336 123.586C197.565 123.07 197.679 122.469 197.679 121.781ZM206.168 117.633H207.723C207.525 118.169 207.084 119.393 206.402 121.305C205.892 122.742 205.465 123.914 205.121 124.82C204.308 126.956 203.736 128.258 203.402 128.727C203.069 129.195 202.496 129.43 201.683 129.43C201.486 129.43 201.332 129.422 201.223 129.406C201.118 129.391 200.988 129.362 200.832 129.32V128.039C201.077 128.107 201.254 128.148 201.363 128.164C201.473 128.18 201.569 128.188 201.652 128.188C201.913 128.188 202.103 128.143 202.223 128.055C202.348 127.971 202.452 127.867 202.535 127.742C202.561 127.701 202.655 127.487 202.816 127.102C202.978 126.716 203.095 126.43 203.168 126.242L200.074 117.633H201.668L203.91 124.445L206.168 117.633ZM208.781 117.633H210.172V118.82C210.505 118.409 210.807 118.109 211.078 117.922C211.542 117.604 212.068 117.445 212.656 117.445C213.323 117.445 213.859 117.609 214.266 117.938C214.495 118.125 214.703 118.401 214.891 118.766C215.203 118.318 215.57 117.987 215.992 117.773C216.414 117.555 216.888 117.445 217.414 117.445C218.539 117.445 219.305 117.852 219.711 118.664C219.93 119.102 220.039 119.69 220.039 120.43V126H218.578V120.188C218.578 119.63 218.438 119.247 218.156 119.039C217.88 118.831 217.542 118.727 217.141 118.727C216.589 118.727 216.112 118.911 215.711 119.281C215.315 119.651 215.117 120.268 215.117 121.133V126H213.688V120.539C213.688 119.971 213.62 119.557 213.484 119.297C213.271 118.906 212.872 118.711 212.289 118.711C211.758 118.711 211.273 118.917 210.836 119.328C210.404 119.74 210.188 120.484 210.188 121.562V126H208.781V117.633ZM25.0703 132.523H26.4766V144H25.0703V132.523ZM31.7541 143.094C32.6864 143.094 33.3244 142.742 33.6681 142.039C34.0171 141.331 34.1916 140.544 34.1916 139.68C34.1916 138.898 34.0666 138.263 33.8166 137.773C33.4207 137.003 32.7384 136.617 31.7697 136.617C30.9103 136.617 30.2853 136.945 29.8947 137.602C29.5041 138.258 29.3087 139.049 29.3087 139.977C29.3087 140.867 29.5041 141.609 29.8947 142.203C30.2853 142.797 30.9051 143.094 31.7541 143.094ZM31.8087 135.391C32.8869 135.391 33.7983 135.75 34.5431 136.469C35.2879 137.188 35.6603 138.245 35.6603 139.641C35.6603 140.99 35.3322 142.104 34.6759 142.984C34.0197 143.865 33.0015 144.305 31.6212 144.305C30.4702 144.305 29.5561 143.917 28.8791 143.141C28.202 142.359 27.8634 141.312 27.8634 140C27.8634 138.594 28.2202 137.474 28.9337 136.641C29.6473 135.807 30.6056 135.391 31.8087 135.391ZM37.8675 135.633L40.1019 142.445L42.4378 135.633H43.9769L40.8206 144H39.3206L36.2347 135.633H37.8675ZM48.5044 135.445C49.0981 135.445 49.6736 135.586 50.2309 135.867C50.7882 136.143 51.2127 136.503 51.5044 136.945C51.7856 137.367 51.9731 137.859 52.0669 138.422C52.1502 138.807 52.1919 139.422 52.1919 140.266H46.0591C46.0851 141.115 46.2856 141.797 46.6606 142.312C47.0356 142.823 47.6164 143.078 48.4028 143.078C49.1372 143.078 49.7231 142.836 50.1606 142.352C50.4106 142.07 50.5877 141.745 50.6919 141.375H52.0747C52.0382 141.682 51.9158 142.026 51.7075 142.406C51.5044 142.781 51.2752 143.089 51.02 143.328C50.5929 143.745 50.0643 144.026 49.4341 144.172C49.0955 144.255 48.7127 144.297 48.2856 144.297C47.244 144.297 46.3611 143.919 45.6372 143.164C44.9132 142.404 44.5513 141.341 44.5513 139.977C44.5513 138.633 44.9158 137.542 45.645 136.703C46.3742 135.865 47.3273 135.445 48.5044 135.445ZM50.7466 139.148C50.6893 138.539 50.5565 138.052 50.3481 137.688C49.9627 137.01 49.3195 136.672 48.4184 136.672C47.7726 136.672 47.2309 136.906 46.7934 137.375C46.3559 137.839 46.1242 138.43 46.0981 139.148H50.7466ZM53.8053 135.633H55.1413V137.078C55.2506 136.797 55.5189 136.456 55.9459 136.055C56.373 135.648 56.8652 135.445 57.4225 135.445C57.4485 135.445 57.4928 135.448 57.5553 135.453C57.6178 135.458 57.7246 135.469 57.8756 135.484V136.969C57.7923 136.953 57.7142 136.943 57.6413 136.938C57.5735 136.932 57.498 136.93 57.4147 136.93C56.7064 136.93 56.1621 137.159 55.7819 137.617C55.4017 138.07 55.2116 138.594 55.2116 139.188V144H53.8053V135.633ZM59.7703 141.375C59.812 141.844 59.9292 142.203 60.1219 142.453C60.476 142.906 61.0906 143.133 61.9656 143.133C62.4865 143.133 62.9448 143.021 63.3406 142.797C63.7365 142.568 63.9344 142.216 63.9344 141.742C63.9344 141.383 63.7755 141.109 63.4578 140.922C63.2547 140.807 62.8536 140.674 62.2547 140.523L61.1375 140.242C60.424 140.065 59.8979 139.867 59.5594 139.648C58.9552 139.268 58.6531 138.742 58.6531 138.07C58.6531 137.279 58.937 136.638 59.5047 136.148C60.0776 135.659 60.8458 135.414 61.8094 135.414C63.0698 135.414 63.9786 135.784 64.5359 136.523C64.8849 136.992 65.0542 137.497 65.0438 138.039H63.7156C63.6896 137.721 63.5776 137.432 63.3797 137.172C63.0568 136.802 62.4969 136.617 61.7 136.617C61.1688 136.617 60.7651 136.719 60.4891 136.922C60.2182 137.125 60.0828 137.393 60.0828 137.727C60.0828 138.091 60.2625 138.383 60.6219 138.602C60.8302 138.732 61.1375 138.846 61.5438 138.945L62.4734 139.172C63.4839 139.417 64.1609 139.654 64.5047 139.883C65.0516 140.242 65.325 140.807 65.325 141.578C65.325 142.323 65.0411 142.966 64.4734 143.508C63.9109 144.049 63.0516 144.32 61.8953 144.32C60.6505 144.32 59.7677 144.039 59.2469 143.477C58.7313 142.909 58.4552 142.208 58.4188 141.375H59.7703ZM67.0713 145.633C67.4306 145.57 67.6832 145.318 67.8291 144.875C67.9072 144.641 67.9463 144.414 67.9463 144.195C67.9463 144.159 67.9436 144.125 67.9384 144.094C67.9384 144.068 67.9332 144.036 67.9228 144H67.0713V142.297H68.7431V143.875C68.7431 144.495 68.6181 145.039 68.3681 145.508C68.1181 145.977 67.6858 146.266 67.0713 146.375V145.633ZM80.8841 137.781C81.6132 137.781 82.1888 137.635 82.6106 137.344C83.0377 137.052 83.2513 136.526 83.2513 135.766C83.2513 134.948 82.9544 134.391 82.3606 134.094C82.0429 133.938 81.6184 133.859 81.0872 133.859H77.2903V137.781H80.8841ZM75.7356 132.523H81.0481C81.9231 132.523 82.6445 132.651 83.2122 132.906C84.2903 133.396 84.8294 134.299 84.8294 135.617C84.8294 136.305 84.6861 136.867 84.3997 137.305C84.1184 137.742 83.7226 138.094 83.2122 138.359C83.6601 138.542 83.996 138.781 84.22 139.078C84.4492 139.375 84.5768 139.857 84.6028 140.523L84.6575 142.062C84.6731 142.5 84.7096 142.826 84.7669 143.039C84.8606 143.404 85.0273 143.638 85.2669 143.742V144H83.3606C83.3085 143.901 83.2669 143.773 83.2356 143.617C83.2044 143.461 83.1783 143.159 83.1575 142.711L83.0638 140.797C83.0273 140.047 82.7486 139.544 82.2278 139.289C81.9309 139.148 81.4648 139.078 80.8294 139.078H77.2903V144H75.7356V132.523ZM90.2475 135.445C90.8413 135.445 91.4168 135.586 91.9741 135.867C92.5314 136.143 92.9558 136.503 93.2475 136.945C93.5288 137.367 93.7163 137.859 93.81 138.422C93.8933 138.807 93.935 139.422 93.935 140.266H87.8022C87.8282 141.115 88.0288 141.797 88.4038 142.312C88.7788 142.823 89.3595 143.078 90.1459 143.078C90.8803 143.078 91.4663 142.836 91.9038 142.352C92.1538 142.07 92.3308 141.745 92.435 141.375H93.8178C93.7814 141.682 93.659 142.026 93.4506 142.406C93.2475 142.781 93.0183 143.089 92.7631 143.328C92.336 143.745 91.8074 144.026 91.1772 144.172C90.8386 144.255 90.4558 144.297 90.0288 144.297C88.9871 144.297 88.1043 143.919 87.3803 143.164C86.6564 142.404 86.2944 141.341 86.2944 139.977C86.2944 138.633 86.659 137.542 87.3881 136.703C88.1173 135.865 89.0704 135.445 90.2475 135.445ZM92.4897 139.148C92.4324 138.539 92.2996 138.052 92.0913 137.688C91.7058 137.01 91.0626 136.672 90.1616 136.672C89.5157 136.672 88.9741 136.906 88.5366 137.375C88.0991 137.839 87.8673 138.43 87.8413 139.148H92.4897ZM95.8453 132.523H103.806V133.93H97.4V137.414H103.033V138.781H97.4V144H95.8453V132.523ZM105.17 132.523H106.576V144H105.17V132.523ZM112.018 135.445C112.611 135.445 113.187 135.586 113.744 135.867C114.301 136.143 114.726 136.503 115.018 136.945C115.299 137.367 115.486 137.859 115.58 138.422C115.663 138.807 115.705 139.422 115.705 140.266H109.572C109.598 141.115 109.799 141.797 110.174 142.312C110.549 142.823 111.129 143.078 111.916 143.078C112.65 143.078 113.236 142.836 113.674 142.352C113.924 142.07 114.101 141.745 114.205 141.375H115.588C115.551 141.682 115.429 142.026 115.221 142.406C115.018 142.781 114.788 143.089 114.533 143.328C114.106 143.745 113.577 144.026 112.947 144.172C112.609 144.255 112.226 144.297 111.799 144.297C110.757 144.297 109.874 143.919 109.15 143.164C108.426 142.404 108.064 141.341 108.064 139.977C108.064 138.633 108.429 137.542 109.158 136.703C109.887 135.865 110.84 135.445 112.018 135.445ZM114.26 139.148C114.202 138.539 114.07 138.052 113.861 137.688C113.476 137.01 112.833 136.672 111.932 136.672C111.286 136.672 110.744 136.906 110.307 137.375C109.869 137.839 109.637 138.43 109.611 139.148H114.26ZM116.482 135.633H118.303L120.225 138.578L122.17 135.633L123.881 135.672L121.061 139.711L124.006 144H122.209L120.131 140.859L118.115 144H116.334L119.279 139.711L116.482 135.633ZM125.416 135.859C125.703 135.812 125.919 135.651 126.065 135.375C126.216 135.099 126.291 134.781 126.291 134.422C126.291 134.385 126.289 134.354 126.283 134.328C126.283 134.297 126.278 134.263 126.268 134.227H125.416V132.523H127.088V134.094C127.088 134.76 126.95 135.328 126.674 135.797C126.398 136.26 125.979 136.526 125.416 136.594V135.859ZM129.077 141.375C129.118 141.844 129.235 142.203 129.428 142.453C129.782 142.906 130.397 143.133 131.272 143.133C131.793 143.133 132.251 143.021 132.647 142.797C133.043 142.568 133.241 142.216 133.241 141.742C133.241 141.383 133.082 141.109 132.764 140.922C132.561 140.807 132.16 140.674 131.561 140.523L130.444 140.242C129.73 140.065 129.204 139.867 128.866 139.648C128.261 139.268 127.959 138.742 127.959 138.07C127.959 137.279 128.243 136.638 128.811 136.148C129.384 135.659 130.152 135.414 131.116 135.414C132.376 135.414 133.285 135.784 133.842 136.523C134.191 136.992 134.36 137.497 134.35 138.039H133.022C132.996 137.721 132.884 137.432 132.686 137.172C132.363 136.802 131.803 136.617 131.006 136.617C130.475 136.617 130.071 136.719 129.795 136.922C129.524 137.125 129.389 137.393 129.389 137.727C129.389 138.091 129.569 138.383 129.928 138.602C130.136 138.732 130.444 138.846 130.85 138.945L131.78 139.172C132.79 139.417 133.467 139.654 133.811 139.883C134.358 140.242 134.631 140.807 134.631 141.578C134.631 142.323 134.347 142.966 133.78 143.508C133.217 144.049 132.358 144.32 131.202 144.32C129.957 144.32 129.074 144.039 128.553 143.477C128.037 142.909 127.761 142.208 127.725 141.375H129.077ZM140.374 135.633H141.764V136.82C142.098 136.409 142.4 136.109 142.671 135.922C143.134 135.604 143.66 135.445 144.249 135.445C144.915 135.445 145.452 135.609 145.858 135.938C146.087 136.125 146.296 136.401 146.483 136.766C146.796 136.318 147.163 135.987 147.585 135.773C148.007 135.555 148.481 135.445 149.007 135.445C150.132 135.445 150.897 135.852 151.303 136.664C151.522 137.102 151.632 137.69 151.632 138.43V144H150.171V138.188C150.171 137.63 150.03 137.247 149.749 137.039C149.473 136.831 149.134 136.727 148.733 136.727C148.181 136.727 147.704 136.911 147.303 137.281C146.908 137.651 146.71 138.268 146.71 139.133V144H145.28V138.539C145.28 137.971 145.212 137.557 145.077 137.297C144.863 136.906 144.465 136.711 143.882 136.711C143.35 136.711 142.866 136.917 142.428 137.328C141.996 137.74 141.78 138.484 141.78 139.562V144H140.374V135.633ZM153.542 135.672H154.972V144H153.542V135.672ZM153.542 132.523H154.972V134.117H153.542V132.523ZM157.78 141.375C157.822 141.844 157.939 142.203 158.132 142.453C158.486 142.906 159.101 143.133 159.976 143.133C160.496 143.133 160.955 143.021 161.351 142.797C161.746 142.568 161.944 142.216 161.944 141.742C161.944 141.383 161.786 141.109 161.468 140.922C161.265 140.807 160.864 140.674 160.265 140.523L159.148 140.242C158.434 140.065 157.908 139.867 157.569 139.648C156.965 139.268 156.663 138.742 156.663 138.07C156.663 137.279 156.947 136.638 157.515 136.148C158.088 135.659 158.856 135.414 159.819 135.414C161.08 135.414 161.989 135.784 162.546 136.523C162.895 136.992 163.064 137.497 163.054 138.039H161.726C161.7 137.721 161.588 137.432 161.39 137.172C161.067 136.802 160.507 136.617 159.71 136.617C159.179 136.617 158.775 136.719 158.499 136.922C158.228 137.125 158.093 137.393 158.093 137.727C158.093 138.091 158.273 138.383 158.632 138.602C158.84 138.732 159.148 138.846 159.554 138.945L160.483 139.172C161.494 139.417 162.171 139.654 162.515 139.883C163.062 140.242 163.335 140.807 163.335 141.578C163.335 142.323 163.051 142.966 162.483 143.508C161.921 144.049 161.062 144.32 159.905 144.32C158.661 144.32 157.778 144.039 157.257 143.477C156.741 142.909 156.465 142.208 156.429 141.375H157.78ZM165.62 141.375C165.662 141.844 165.779 142.203 165.972 142.453C166.326 142.906 166.941 143.133 167.816 143.133C168.336 143.133 168.795 143.021 169.191 142.797C169.586 142.568 169.784 142.216 169.784 141.742C169.784 141.383 169.626 141.109 169.308 140.922C169.105 140.807 168.704 140.674 168.105 140.523L166.988 140.242C166.274 140.065 165.748 139.867 165.409 139.648C164.805 139.268 164.503 138.742 164.503 138.07C164.503 137.279 164.787 136.638 165.355 136.148C165.928 135.659 166.696 135.414 167.659 135.414C168.92 135.414 169.829 135.784 170.386 136.523C170.735 136.992 170.904 137.497 170.894 138.039H169.566C169.54 137.721 169.428 137.432 169.23 137.172C168.907 136.802 168.347 136.617 167.55 136.617C167.019 136.617 166.615 136.719 166.339 136.922C166.068 137.125 165.933 137.393 165.933 137.727C165.933 138.091 166.113 138.383 166.472 138.602C166.68 138.732 166.988 138.846 167.394 138.945L168.323 139.172C169.334 139.417 170.011 139.654 170.355 139.883C170.902 140.242 171.175 140.807 171.175 141.578C171.175 142.323 170.891 142.966 170.323 143.508C169.761 144.049 168.902 144.32 167.745 144.32C166.501 144.32 165.618 144.039 165.097 143.477C164.581 142.909 164.305 142.208 164.269 141.375H165.62ZM172.624 135.672H174.054V144H172.624V135.672ZM172.624 132.523H174.054V134.117H172.624V132.523ZM179.347 143.094C180.279 143.094 180.917 142.742 181.261 142.039C181.61 141.331 181.785 140.544 181.785 139.68C181.785 138.898 181.66 138.263 181.41 137.773C181.014 137.003 180.332 136.617 179.363 136.617C178.503 136.617 177.878 136.945 177.488 137.602C177.097 138.258 176.902 139.049 176.902 139.977C176.902 140.867 177.097 141.609 177.488 142.203C177.878 142.797 178.498 143.094 179.347 143.094ZM179.402 135.391C180.48 135.391 181.391 135.75 182.136 136.469C182.881 137.188 183.253 138.245 183.253 139.641C183.253 140.99 182.925 142.104 182.269 142.984C181.613 143.865 180.595 144.305 179.214 144.305C178.063 144.305 177.149 143.917 176.472 143.141C175.795 142.359 175.457 141.312 175.457 140C175.457 138.594 175.813 137.474 176.527 136.641C177.24 135.807 178.199 135.391 179.402 135.391ZM184.773 135.633H186.109V136.82C186.505 136.331 186.924 135.979 187.367 135.766C187.81 135.552 188.302 135.445 188.843 135.445C190.031 135.445 190.833 135.859 191.25 136.688C191.479 137.141 191.593 137.789 191.593 138.633V144H190.164V138.727C190.164 138.216 190.088 137.805 189.937 137.492C189.687 136.971 189.234 136.711 188.578 136.711C188.244 136.711 187.971 136.745 187.758 136.812C187.372 136.927 187.034 137.156 186.742 137.5C186.508 137.776 186.354 138.062 186.281 138.359C186.213 138.651 186.179 139.07 186.179 139.617V144H184.773V135.633ZM201.344 143.055C202 143.055 202.544 142.781 202.977 142.234C203.414 141.682 203.633 140.859 203.633 139.766C203.633 139.099 203.536 138.526 203.344 138.047C202.979 137.125 202.312 136.664 201.344 136.664C200.37 136.664 199.703 137.151 199.344 138.125C199.151 138.646 199.055 139.307 199.055 140.109C199.055 140.755 199.151 141.305 199.344 141.758C199.708 142.622 200.375 143.055 201.344 143.055ZM197.703 135.672H199.07V136.781C199.352 136.401 199.659 136.107 199.992 135.898C200.466 135.586 201.023 135.43 201.664 135.43C202.612 135.43 203.417 135.794 204.078 136.523C204.74 137.247 205.07 138.284 205.07 139.633C205.07 141.456 204.594 142.758 203.641 143.539C203.036 144.034 202.333 144.281 201.531 144.281C200.901 144.281 200.372 144.143 199.945 143.867C199.695 143.711 199.417 143.443 199.109 143.062V147.336H197.703V135.672ZM207.965 135.633V141.188C207.965 141.615 208.033 141.964 208.168 142.234C208.418 142.734 208.884 142.984 209.567 142.984C210.546 142.984 211.212 142.547 211.567 141.672C211.759 141.203 211.856 140.56 211.856 139.742V135.633H213.262V144H211.934L211.949 142.766C211.767 143.083 211.541 143.352 211.27 143.57C210.733 144.008 210.082 144.227 209.317 144.227C208.124 144.227 207.311 143.828 206.879 143.031C206.645 142.604 206.527 142.034 206.527 141.32V135.633H207.965ZM215.586 133.297H217.008V135.633H218.344V136.781H217.008V142.242C217.008 142.534 217.107 142.729 217.305 142.828C217.414 142.885 217.597 142.914 217.852 142.914C217.92 142.914 217.992 142.914 218.071 142.914C218.149 142.909 218.24 142.901 218.344 142.891V144C218.183 144.047 218.013 144.081 217.836 144.102C217.664 144.122 217.477 144.133 217.274 144.133C216.617 144.133 216.172 143.966 215.938 143.633C215.703 143.294 215.586 142.857 215.586 142.32V136.781H214.453V135.633H215.586V133.297ZM220.434 141.375C220.476 141.844 220.593 142.203 220.786 142.453C221.14 142.906 221.754 143.133 222.629 143.133C223.15 143.133 223.609 143.021 224.004 142.797C224.4 142.568 224.598 142.216 224.598 141.742C224.598 141.383 224.439 141.109 224.122 140.922C223.918 140.807 223.517 140.674 222.918 140.523L221.801 140.242C221.088 140.065 220.562 139.867 220.223 139.648C219.619 139.268 219.317 138.742 219.317 138.07C219.317 137.279 219.601 136.638 220.168 136.148C220.741 135.659 221.51 135.414 222.473 135.414C223.734 135.414 224.642 135.784 225.2 136.523C225.549 136.992 225.718 137.497 225.708 138.039H224.379C224.353 137.721 224.241 137.432 224.043 137.172C223.721 136.802 223.161 136.617 222.364 136.617C221.833 136.617 221.429 136.719 221.153 136.922C220.882 137.125 220.747 137.393 220.747 137.727C220.747 138.091 220.926 138.383 221.286 138.602C221.494 138.732 221.801 138.846 222.208 138.945L223.137 139.172C224.148 139.417 224.825 139.654 225.168 139.883C225.715 140.242 225.989 140.807 225.989 141.578C225.989 142.323 225.705 142.966 225.137 143.508C224.575 144.049 223.715 144.32 222.559 144.32C221.314 144.32 220.431 144.039 219.911 143.477C219.395 142.909 219.119 142.208 219.083 141.375H220.434ZM25.3125 151.297H26.7344V153.633H28.0703V154.781H26.7344V160.242C26.7344 160.534 26.8333 160.729 27.0312 160.828C27.1406 160.885 27.3229 160.914 27.5781 160.914C27.6458 160.914 27.7188 160.914 27.7969 160.914C27.875 160.909 27.9661 160.901 28.0703 160.891V162C27.9089 162.047 27.7396 162.081 27.5625 162.102C27.3906 162.122 27.2031 162.133 27 162.133C26.3438 162.133 25.8984 161.966 25.6641 161.633C25.4297 161.294 25.3125 160.857 25.3125 160.32V154.781H24.1797V153.633H25.3125V151.297ZM29.3244 150.484H30.7306V154.766C31.064 154.344 31.3634 154.047 31.6291 153.875C32.0822 153.578 32.6473 153.43 33.3244 153.43C34.5379 153.43 35.3608 153.854 35.7931 154.703C36.0275 155.167 36.1447 155.81 36.1447 156.633V162H34.6994V156.727C34.6994 156.112 34.6213 155.661 34.465 155.375C34.2098 154.917 33.7306 154.688 33.0275 154.688C32.4442 154.688 31.9155 154.888 31.4416 155.289C30.9676 155.69 30.7306 156.448 30.7306 157.562V162H29.3244V150.484ZM41.555 153.445C42.1488 153.445 42.7243 153.586 43.2816 153.867C43.8389 154.143 44.2633 154.503 44.555 154.945C44.8363 155.367 45.0238 155.859 45.1175 156.422C45.2008 156.807 45.2425 157.422 45.2425 158.266H39.1097C39.1357 159.115 39.3363 159.797 39.7113 160.312C40.0863 160.823 40.667 161.078 41.4534 161.078C42.1878 161.078 42.7738 160.836 43.2113 160.352C43.4613 160.07 43.6383 159.745 43.7425 159.375H45.1253C45.0889 159.682 44.9665 160.026 44.7581 160.406C44.555 160.781 44.3258 161.089 44.0706 161.328C43.6435 161.745 43.1149 162.026 42.4847 162.172C42.1461 162.255 41.7633 162.297 41.3363 162.297C40.2946 162.297 39.4118 161.919 38.6878 161.164C37.9639 160.404 37.6019 159.341 37.6019 157.977C37.6019 156.633 37.9665 155.542 38.6956 154.703C39.4248 153.865 40.3779 153.445 41.555 153.445ZM43.7972 157.148C43.7399 156.539 43.6071 156.052 43.3988 155.688C43.0133 155.01 42.3701 154.672 41.4691 154.672C40.8232 154.672 40.2816 154.906 39.8441 155.375C39.4066 155.839 39.1748 156.43 39.1488 157.148H43.7972ZM51.7584 153.633L53.3678 160.227L55.0006 153.633H56.5788L58.2194 160.188L59.9303 153.633H61.3366L58.9069 162H57.4459L55.7428 155.523L54.0944 162H52.6334L50.2194 153.633H51.7584ZM65.9969 153.445C66.5906 153.445 67.1661 153.586 67.7234 153.867C68.2807 154.143 68.7052 154.503 68.9969 154.945C69.2781 155.367 69.4656 155.859 69.5594 156.422C69.6427 156.807 69.6844 157.422 69.6844 158.266H63.5516C63.5776 159.115 63.7781 159.797 64.1531 160.312C64.5281 160.823 65.1089 161.078 65.8953 161.078C66.6297 161.078 67.2156 160.836 67.6531 160.352C67.9031 160.07 68.0802 159.745 68.1844 159.375H69.5672C69.5307 159.682 69.4083 160.026 69.2 160.406C68.9969 160.781 68.7677 161.089 68.5125 161.328C68.0854 161.745 67.5568 162.026 66.9266 162.172C66.588 162.255 66.2052 162.297 65.7781 162.297C64.7365 162.297 63.8536 161.919 63.1297 161.164C62.4057 160.404 62.0438 159.341 62.0438 157.977C62.0438 156.633 62.4083 155.542 63.1375 154.703C63.8667 153.865 64.8198 153.445 65.9969 153.445ZM68.2391 157.148C68.1818 156.539 68.049 156.052 67.8406 155.688C67.4552 155.01 66.812 154.672 65.9109 154.672C65.2651 154.672 64.7234 154.906 64.2859 155.375C63.8484 155.839 63.6167 156.43 63.5906 157.148H68.2391ZM71.2588 153.672H72.6884V162H71.2588V153.672ZM71.2588 150.523H72.6884V152.117H71.2588V150.523ZM77.6144 153.484C78.2706 153.484 78.8435 153.646 79.3331 153.969C79.5988 154.151 79.8696 154.417 80.1456 154.766V153.711H81.4425V161.32C81.4425 162.383 81.2863 163.221 80.9738 163.836C80.3904 164.971 79.2889 165.539 77.6691 165.539C76.768 165.539 76.0102 165.336 75.3956 164.93C74.781 164.529 74.4373 163.898 74.3644 163.039H75.7941C75.8618 163.414 75.9972 163.703 76.2003 163.906C76.518 164.219 77.018 164.375 77.7003 164.375C78.7784 164.375 79.4842 163.995 79.8175 163.234C80.0154 162.786 80.1066 161.987 80.0909 160.836C79.8097 161.263 79.4711 161.581 79.0753 161.789C78.6795 161.997 78.156 162.102 77.505 162.102C76.5988 162.102 75.8045 161.781 75.1222 161.141C74.4451 160.495 74.1066 159.43 74.1066 157.945C74.1066 156.544 74.4477 155.451 75.13 154.664C75.8175 153.878 76.6456 153.484 77.6144 153.484ZM80.1456 157.781C80.1456 156.745 79.9321 155.977 79.505 155.477C79.0779 154.977 78.5336 154.727 77.8722 154.727C76.8826 154.727 76.2055 155.19 75.8409 156.117C75.6482 156.612 75.5519 157.26 75.5519 158.062C75.5519 159.005 75.742 159.724 76.1222 160.219C76.5076 160.708 77.0232 160.953 77.6691 160.953C78.6795 160.953 79.3904 160.497 79.8019 159.586C80.031 159.07 80.1456 158.469 80.1456 157.781ZM83.4075 150.484H84.8138V154.766C85.1471 154.344 85.4466 154.047 85.7122 153.875C86.1653 153.578 86.7304 153.43 87.4075 153.43C88.621 153.43 89.444 153.854 89.8763 154.703C90.1106 155.167 90.2278 155.81 90.2278 156.633V162H88.7825V156.727C88.7825 156.112 88.7044 155.661 88.5481 155.375C88.2929 154.917 87.8138 154.688 87.1106 154.688C86.5273 154.688 85.9986 154.888 85.5247 155.289C85.0507 155.69 84.8138 156.448 84.8138 157.562V162H83.4075V150.484ZM92.435 151.297H93.8569V153.633H95.1928V154.781H93.8569V160.242C93.8569 160.534 93.9558 160.729 94.1537 160.828C94.2631 160.885 94.4454 160.914 94.7006 160.914C94.7683 160.914 94.8412 160.914 94.9194 160.914C94.9975 160.909 95.0886 160.901 95.1928 160.891V162C95.0314 162.047 94.8621 162.081 94.685 162.102C94.5131 162.122 94.3256 162.133 94.1225 162.133C93.4662 162.133 93.0209 161.966 92.7866 161.633C92.5522 161.294 92.435 160.857 92.435 160.32V154.781H91.3022V153.633H92.435V151.297ZM96.4859 150.523H97.8922V162H96.4859V150.523ZM99.8494 153.672H101.279V162H99.8494V153.672ZM99.8494 150.523H101.279V152.117H99.8494V150.523ZM103.603 152.359C103.624 151.776 103.726 151.349 103.908 151.078C104.236 150.599 104.869 150.359 105.807 150.359C105.895 150.359 105.986 150.362 106.08 150.367C106.174 150.372 106.281 150.38 106.4 150.391V151.672C106.254 151.661 106.148 151.656 106.08 151.656C106.018 151.651 105.958 151.648 105.9 151.648C105.473 151.648 105.218 151.76 105.135 151.984C105.051 152.203 105.01 152.766 105.01 153.672H106.4V154.781H104.994V162H103.603V154.781H102.439V153.672H103.603V152.359ZM107.826 151.297H109.248V153.633H110.584V154.781H109.248V160.242C109.248 160.534 109.347 160.729 109.545 160.828C109.654 160.885 109.837 160.914 110.092 160.914C110.16 160.914 110.232 160.914 110.311 160.914C110.389 160.909 110.48 160.901 110.584 160.891V162C110.423 162.047 110.253 162.081 110.076 162.102C109.904 162.122 109.717 162.133 109.514 162.133C108.857 162.133 108.412 161.966 108.178 161.633C107.943 161.294 107.826 160.857 107.826 160.32V154.781H106.693V153.633H107.826V151.297ZM111.838 153.672H113.268V162H111.838V153.672ZM111.838 150.523H113.268V152.117H111.838V150.523ZM115.241 153.633H116.577V154.82C116.972 154.331 117.392 153.979 117.834 153.766C118.277 153.552 118.769 153.445 119.311 153.445C120.498 153.445 121.301 153.859 121.717 154.688C121.946 155.141 122.061 155.789 122.061 156.633V162H120.631V156.727C120.631 156.216 120.556 155.805 120.405 155.492C120.155 154.971 119.702 154.711 119.045 154.711C118.712 154.711 118.439 154.745 118.225 154.812C117.84 154.927 117.501 155.156 117.209 155.5C116.975 155.776 116.821 156.062 116.748 156.359C116.681 156.651 116.647 157.07 116.647 157.617V162H115.241V153.633ZM126.94 153.484C127.596 153.484 128.169 153.646 128.659 153.969C128.924 154.151 129.195 154.417 129.471 154.766V153.711H130.768V161.32C130.768 162.383 130.612 163.221 130.299 163.836C129.716 164.971 128.614 165.539 126.995 165.539C126.094 165.539 125.336 165.336 124.721 164.93C124.107 164.529 123.763 163.898 123.69 163.039H125.12C125.187 163.414 125.323 163.703 125.526 163.906C125.844 164.219 126.344 164.375 127.026 164.375C128.104 164.375 128.81 163.995 129.143 163.234C129.341 162.786 129.432 161.987 129.417 160.836C129.135 161.263 128.797 161.581 128.401 161.789C128.005 161.997 127.482 162.102 126.831 162.102C125.924 162.102 125.13 161.781 124.448 161.141C123.771 160.495 123.432 159.43 123.432 157.945C123.432 156.544 123.773 155.451 124.456 154.664C125.143 153.878 125.971 153.484 126.94 153.484ZM129.471 157.781C129.471 156.745 129.258 155.977 128.831 155.477C128.404 154.977 127.859 154.727 127.198 154.727C126.208 154.727 125.531 155.19 125.167 156.117C124.974 156.612 124.878 157.26 124.878 158.062C124.878 159.005 125.068 159.724 125.448 160.219C125.833 160.708 126.349 160.953 126.995 160.953C128.005 160.953 128.716 160.497 129.128 159.586C129.357 159.07 129.471 158.469 129.471 157.781ZM138.104 159.773C138.104 160.18 138.253 160.5 138.55 160.734C138.847 160.969 139.198 161.086 139.604 161.086C140.099 161.086 140.578 160.971 141.042 160.742C141.823 160.362 142.214 159.74 142.214 158.875V157.742C142.042 157.852 141.821 157.943 141.55 158.016C141.279 158.089 141.013 158.141 140.753 158.172L139.901 158.281C139.391 158.349 139.008 158.456 138.753 158.602C138.321 158.846 138.104 159.237 138.104 159.773ZM141.511 156.93C141.834 156.888 142.05 156.753 142.159 156.523C142.222 156.398 142.253 156.219 142.253 155.984C142.253 155.505 142.081 155.159 141.737 154.945C141.399 154.727 140.912 154.617 140.276 154.617C139.542 154.617 139.021 154.815 138.714 155.211C138.542 155.43 138.43 155.755 138.378 156.188H137.065C137.091 155.156 137.425 154.44 138.065 154.039C138.711 153.633 139.459 153.43 140.308 153.43C141.292 153.43 142.091 153.617 142.706 153.992C143.315 154.367 143.62 154.951 143.62 155.742V160.562C143.62 160.708 143.649 160.826 143.706 160.914C143.768 161.003 143.896 161.047 144.089 161.047C144.151 161.047 144.222 161.044 144.3 161.039C144.378 161.029 144.461 161.016 144.55 161V162.039C144.331 162.102 144.164 162.141 144.05 162.156C143.935 162.172 143.779 162.18 143.581 162.18C143.097 162.18 142.745 162.008 142.526 161.664C142.412 161.482 142.331 161.224 142.284 160.891C141.998 161.266 141.586 161.591 141.05 161.867C140.513 162.143 139.922 162.281 139.276 162.281C138.5 162.281 137.865 162.047 137.37 161.578C136.88 161.104 136.636 160.513 136.636 159.805C136.636 159.029 136.878 158.427 137.362 158C137.847 157.573 138.482 157.31 139.268 157.211L141.511 156.93ZM145.772 153.633H147.108V154.82C147.504 154.331 147.924 153.979 148.366 153.766C148.809 153.552 149.301 153.445 149.843 153.445C151.03 153.445 151.832 153.859 152.249 154.688C152.478 155.141 152.593 155.789 152.593 156.633V162H151.163V156.727C151.163 156.216 151.088 155.805 150.937 155.492C150.687 154.971 150.233 154.711 149.577 154.711C149.244 154.711 148.97 154.745 148.757 154.812C148.371 154.927 148.033 155.156 147.741 155.5C147.507 155.776 147.353 156.062 147.28 156.359C147.213 156.651 147.179 157.07 147.179 157.617V162H145.772V153.633ZM155.409 157.914C155.409 158.81 155.599 159.56 155.98 160.164C156.36 160.768 156.969 161.07 157.808 161.07C158.459 161.07 158.993 160.792 159.409 160.234C159.831 159.672 160.042 158.867 160.042 157.82C160.042 156.763 159.826 155.982 159.394 155.477C158.961 154.966 158.428 154.711 157.792 154.711C157.084 154.711 156.508 154.982 156.066 155.523C155.628 156.065 155.409 156.862 155.409 157.914ZM157.527 153.484C158.167 153.484 158.704 153.62 159.136 153.891C159.386 154.047 159.67 154.32 159.988 154.711V150.484H161.339V162H160.073V160.836C159.745 161.352 159.357 161.724 158.909 161.953C158.461 162.182 157.948 162.297 157.37 162.297C156.438 162.297 155.631 161.906 154.948 161.125C154.266 160.339 153.925 159.294 153.925 157.992C153.925 156.773 154.235 155.719 154.855 154.828C155.48 153.932 156.37 153.484 157.527 153.484ZM167.91 152.359C167.931 151.776 168.032 151.349 168.214 151.078C168.542 150.599 169.175 150.359 170.113 150.359C170.201 150.359 170.292 150.362 170.386 150.367C170.48 150.372 170.587 150.38 170.707 150.391V151.672C170.561 151.661 170.454 151.656 170.386 151.656C170.324 151.651 170.264 151.648 170.207 151.648C169.779 151.648 169.524 151.76 169.441 151.984C169.358 152.203 169.316 152.766 169.316 153.672H170.707V154.781H169.3V162H167.91V154.781H166.746V153.672H167.91V152.359ZM172.058 152.117V150.523H173.464V152.117H172.058ZM172.058 153.672H173.464V162H172.058V153.672ZM175.679 151.297H177.101V153.633H178.437V154.781H177.101V160.242C177.101 160.534 177.2 160.729 177.398 160.828C177.508 160.885 177.69 160.914 177.945 160.914C178.013 160.914 178.086 160.914 178.164 160.914C178.242 160.909 178.333 160.901 178.437 160.891V162C178.276 162.047 178.106 162.081 177.929 162.102C177.758 162.122 177.57 162.133 177.367 162.133C176.711 162.133 176.265 161.966 176.031 161.633C175.797 161.294 175.679 160.857 175.679 160.32V154.781H174.547V153.633H175.679V151.297ZM179.691 153.633H181.027V154.82C181.423 154.331 181.842 153.979 182.285 153.766C182.728 153.552 183.22 153.445 183.762 153.445C184.949 153.445 185.751 153.859 186.168 154.688C186.397 155.141 186.512 155.789 186.512 156.633V162H185.082V156.727C185.082 156.216 185.006 155.805 184.855 155.492C184.605 154.971 184.152 154.711 183.496 154.711C183.163 154.711 182.889 154.745 182.676 154.812C182.29 154.927 181.952 155.156 181.66 155.5C181.426 155.776 181.272 156.062 181.199 156.359C181.131 156.651 181.098 157.07 181.098 157.617V162H179.691V153.633ZM191.922 153.445C192.516 153.445 193.091 153.586 193.648 153.867C194.206 154.143 194.63 154.503 194.922 154.945C195.203 155.367 195.391 155.859 195.484 156.422C195.568 156.807 195.609 157.422 195.609 158.266H189.477C189.503 159.115 189.703 159.797 190.078 160.312C190.453 160.823 191.034 161.078 191.82 161.078C192.555 161.078 193.141 160.836 193.578 160.352C193.828 160.07 194.005 159.745 194.109 159.375H195.492C195.456 159.682 195.333 160.026 195.125 160.406C194.922 160.781 194.693 161.089 194.438 161.328C194.01 161.745 193.482 162.026 192.852 162.172C192.513 162.255 192.13 162.297 191.703 162.297C190.661 162.297 189.779 161.919 189.055 161.164C188.331 160.404 187.969 159.341 187.969 157.977C187.969 156.633 188.333 155.542 189.062 154.703C189.792 153.865 190.745 153.445 191.922 153.445ZM194.164 157.148C194.107 156.539 193.974 156.052 193.766 155.688C193.38 155.01 192.737 154.672 191.836 154.672C191.19 154.672 190.648 154.906 190.211 155.375C189.773 155.839 189.542 156.43 189.516 157.148H194.164ZM198.02 159.375C198.061 159.844 198.179 160.203 198.371 160.453C198.725 160.906 199.34 161.133 200.215 161.133C200.736 161.133 201.194 161.021 201.59 160.797C201.986 160.568 202.184 160.216 202.184 159.742C202.184 159.383 202.025 159.109 201.707 158.922C201.504 158.807 201.103 158.674 200.504 158.523L199.387 158.242C198.673 158.065 198.147 157.867 197.809 157.648C197.205 157.268 196.902 156.742 196.902 156.07C196.902 155.279 197.186 154.638 197.754 154.148C198.327 153.659 199.095 153.414 200.059 153.414C201.319 153.414 202.228 153.784 202.785 154.523C203.134 154.992 203.304 155.497 203.293 156.039H201.965C201.939 155.721 201.827 155.432 201.629 155.172C201.306 154.802 200.746 154.617 199.949 154.617C199.418 154.617 199.014 154.719 198.738 154.922C198.468 155.125 198.332 155.393 198.332 155.727C198.332 156.091 198.512 156.383 198.871 156.602C199.08 156.732 199.387 156.846 199.793 156.945L200.723 157.172C201.733 157.417 202.41 157.654 202.754 157.883C203.301 158.242 203.574 158.807 203.574 159.578C203.574 160.323 203.291 160.966 202.723 161.508C202.16 162.049 201.301 162.32 200.145 162.32C198.9 162.32 198.017 162.039 197.496 161.477C196.981 160.909 196.705 160.208 196.668 159.375H198.02ZM205.86 159.375C205.901 159.844 206.019 160.203 206.211 160.453C206.565 160.906 207.18 161.133 208.055 161.133C208.576 161.133 209.034 161.021 209.43 160.797C209.826 160.568 210.024 160.216 210.024 159.742C210.024 159.383 209.865 159.109 209.547 158.922C209.344 158.807 208.943 158.674 208.344 158.523L207.227 158.242C206.513 158.065 205.987 157.867 205.649 157.648C205.045 157.268 204.742 156.742 204.742 156.07C204.742 155.279 205.026 154.638 205.594 154.148C206.167 153.659 206.935 153.414 207.899 153.414C209.159 153.414 210.068 153.784 210.625 154.523C210.974 154.992 211.144 155.497 211.133 156.039H209.805C209.779 155.721 209.667 155.432 209.469 155.172C209.146 154.802 208.586 154.617 207.789 154.617C207.258 154.617 206.854 154.719 206.578 154.922C206.308 155.125 206.172 155.393 206.172 155.727C206.172 156.091 206.352 156.383 206.711 156.602C206.92 156.732 207.227 156.846 207.633 156.945L208.563 157.172C209.573 157.417 210.25 157.654 210.594 157.883C211.141 158.242 211.414 158.807 211.414 159.578C211.414 160.323 211.131 160.966 210.563 161.508C210 162.049 209.141 162.32 207.985 162.32C206.74 162.32 205.857 162.039 205.336 161.477C204.821 160.909 204.545 160.208 204.508 159.375H205.86ZM28.2578 171.391C29.2005 171.391 29.9661 171.62 30.5547 172.078C31.1484 172.536 31.5052 173.326 31.625 174.445H30.2578C30.1745 173.93 29.9844 173.503 29.6875 173.164C29.3906 172.82 28.9141 172.648 28.2578 172.648C27.362 172.648 26.7214 173.086 26.3359 173.961C26.0859 174.529 25.9609 175.229 25.9609 176.062C25.9609 176.901 26.138 177.607 26.4922 178.18C26.8464 178.753 27.4036 179.039 28.1641 179.039C28.7474 179.039 29.2083 178.862 29.5469 178.508C29.8906 178.148 30.1276 177.659 30.2578 177.039H31.625C31.4688 178.148 31.0781 178.961 30.4531 179.477C29.8281 179.987 29.0286 180.242 28.0547 180.242C26.9609 180.242 26.0885 179.844 25.4375 179.047C24.7865 178.245 24.4609 177.245 24.4609 176.047C24.4609 174.578 24.8177 173.435 25.5312 172.617C26.2448 171.799 27.1536 171.391 28.2578 171.391ZM36.1916 179.094C37.1239 179.094 37.7619 178.742 38.1056 178.039C38.4546 177.331 38.6291 176.544 38.6291 175.68C38.6291 174.898 38.5041 174.263 38.2541 173.773C37.8582 173.003 37.1759 172.617 36.2072 172.617C35.3478 172.617 34.7228 172.945 34.3322 173.602C33.9416 174.258 33.7463 175.049 33.7463 175.977C33.7463 176.867 33.9416 177.609 34.3322 178.203C34.7228 178.797 35.3426 179.094 36.1916 179.094ZM36.2463 171.391C37.3244 171.391 38.2358 171.75 38.9806 172.469C39.7254 173.188 40.0978 174.245 40.0978 175.641C40.0978 176.99 39.7697 178.104 39.1134 178.984C38.4572 179.865 37.439 180.305 36.0588 180.305C34.9077 180.305 33.9936 179.917 33.3166 179.141C32.6395 178.359 32.3009 177.312 32.3009 176C32.3009 174.594 32.6577 173.474 33.3713 172.641C34.0848 171.807 35.0431 171.391 36.2463 171.391ZM41.6175 171.633H43.0081V172.82C43.3415 172.409 43.6435 172.109 43.9144 171.922C44.3779 171.604 44.904 171.445 45.4925 171.445C46.1592 171.445 46.6956 171.609 47.1019 171.938C47.331 172.125 47.5394 172.401 47.7269 172.766C48.0394 172.318 48.4066 171.987 48.8284 171.773C49.2503 171.555 49.7243 171.445 50.2503 171.445C51.3753 171.445 52.1409 171.852 52.5472 172.664C52.7659 173.102 52.8753 173.69 52.8753 174.43V180H51.4144V174.188C51.4144 173.63 51.2738 173.247 50.9925 173.039C50.7165 172.831 50.3779 172.727 49.9769 172.727C49.4248 172.727 48.9482 172.911 48.5472 173.281C48.1514 173.651 47.9534 174.268 47.9534 175.133V180H46.5238V174.539C46.5238 173.971 46.456 173.557 46.3206 173.297C46.1071 172.906 45.7086 172.711 45.1253 172.711C44.5941 172.711 44.1097 172.917 43.6722 173.328C43.2399 173.74 43.0238 174.484 43.0238 175.562V180H41.6175V171.633ZM54.7856 171.633H56.1763V172.82C56.5096 172.409 56.8117 172.109 57.0825 171.922C57.546 171.604 58.0721 171.445 58.6606 171.445C59.3273 171.445 59.8638 171.609 60.27 171.938C60.4992 172.125 60.7075 172.401 60.895 172.766C61.2075 172.318 61.5747 171.987 61.9966 171.773C62.4184 171.555 62.8924 171.445 63.4184 171.445C64.5434 171.445 65.3091 171.852 65.7153 172.664C65.9341 173.102 66.0434 173.69 66.0434 174.43V180H64.5825V174.188C64.5825 173.63 64.4419 173.247 64.1606 173.039C63.8846 172.831 63.546 172.727 63.145 172.727C62.5929 172.727 62.1164 172.911 61.7153 173.281C61.3195 173.651 61.1216 174.268 61.1216 175.133V180H59.6919V174.539C59.6919 173.971 59.6242 173.557 59.4888 173.297C59.2752 172.906 58.8768 172.711 58.2934 172.711C57.7622 172.711 57.2778 172.917 56.8403 173.328C56.408 173.74 56.1919 174.484 56.1919 175.562V180H54.7856V171.633ZM69.36 171.633V177.188C69.36 177.615 69.4277 177.964 69.5631 178.234C69.8131 178.734 70.2793 178.984 70.9616 178.984C71.9407 178.984 72.6074 178.547 72.9616 177.672C73.1543 177.203 73.2506 176.56 73.2506 175.742V171.633H74.6569V180H73.3288L73.3444 178.766C73.1621 179.083 72.9355 179.352 72.6647 179.57C72.1282 180.008 71.4772 180.227 70.7116 180.227C69.5189 180.227 68.7064 179.828 68.2741 179.031C68.0397 178.604 67.9225 178.034 67.9225 177.32V171.633H69.36ZM76.7 171.633H78.0359V172.82C78.4318 172.331 78.851 171.979 79.2938 171.766C79.7365 171.552 80.2286 171.445 80.7703 171.445C81.9578 171.445 82.7599 171.859 83.1766 172.688C83.4057 173.141 83.5203 173.789 83.5203 174.633V180H82.0906V174.727C82.0906 174.216 82.0151 173.805 81.8641 173.492C81.6141 172.971 81.1609 172.711 80.5047 172.711C80.1714 172.711 79.8979 172.745 79.6844 172.812C79.299 172.927 78.9604 173.156 78.6688 173.5C78.4344 173.776 78.2807 174.062 78.2078 174.359C78.1401 174.651 78.1063 175.07 78.1063 175.617V180H76.7V171.633ZM85.4463 171.672H86.8759V180H85.4463V171.672ZM85.4463 168.523H86.8759V170.117H85.4463V168.523ZM89.13 169.297H90.5519V171.633H91.8878V172.781H90.5519V178.242C90.5519 178.534 90.6508 178.729 90.8488 178.828C90.9581 178.885 91.1404 178.914 91.3956 178.914C91.4633 178.914 91.5363 178.914 91.6144 178.914C91.6925 178.909 91.7836 178.901 91.8878 178.891V180C91.7264 180.047 91.5571 180.081 91.38 180.102C91.2081 180.122 91.0206 180.133 90.8175 180.133C90.1613 180.133 89.7159 179.966 89.4816 179.633C89.2472 179.294 89.13 178.857 89.13 178.32V172.781H87.9972V171.633H89.13V169.297ZM98.3684 171.633H99.9231C99.7252 172.169 99.2851 173.393 98.6028 175.305C98.0924 176.742 97.6653 177.914 97.3216 178.82C96.5091 180.956 95.9361 182.258 95.6028 182.727C95.2695 183.195 94.6966 183.43 93.8841 183.43C93.6861 183.43 93.5325 183.422 93.4231 183.406C93.319 183.391 93.1888 183.362 93.0325 183.32V182.039C93.2773 182.107 93.4544 182.148 93.5638 182.164C93.6731 182.18 93.7695 182.188 93.8528 182.188C94.1132 182.188 94.3033 182.143 94.4231 182.055C94.5481 181.971 94.6523 181.867 94.7356 181.742C94.7617 181.701 94.8554 181.487 95.0169 181.102C95.1783 180.716 95.2955 180.43 95.3684 180.242L92.2747 171.633H93.8684L96.1106 178.445L98.3684 171.633ZM105.627 170.359C105.647 169.776 105.749 169.349 105.931 169.078C106.259 168.599 106.892 168.359 107.83 168.359C107.918 168.359 108.009 168.362 108.103 168.367C108.197 168.372 108.304 168.38 108.423 168.391V169.672C108.278 169.661 108.171 169.656 108.103 169.656C108.041 169.651 107.981 169.648 107.923 169.648C107.496 169.648 107.241 169.76 107.158 169.984C107.074 170.203 107.033 170.766 107.033 171.672H108.423V172.781H107.017V180H105.627V172.781H104.463V171.672H105.627V170.359ZM109.775 170.117V168.523H111.181V170.117H109.775ZM109.775 171.672H111.181V180H109.775V171.672ZM113.154 171.633H114.49V173.078C114.599 172.797 114.868 172.456 115.295 172.055C115.722 171.648 116.214 171.445 116.771 171.445C116.797 171.445 116.842 171.448 116.904 171.453C116.967 171.458 117.073 171.469 117.224 171.484V172.969C117.141 172.953 117.063 172.943 116.99 172.938C116.922 172.932 116.847 172.93 116.763 172.93C116.055 172.93 115.511 173.159 115.131 173.617C114.75 174.07 114.56 174.594 114.56 175.188V180H113.154V171.633ZM119.119 177.375C119.161 177.844 119.278 178.203 119.471 178.453C119.825 178.906 120.439 179.133 121.314 179.133C121.835 179.133 122.294 179.021 122.689 178.797C123.085 178.568 123.283 178.216 123.283 177.742C123.283 177.383 123.124 177.109 122.807 176.922C122.603 176.807 122.202 176.674 121.603 176.523L120.486 176.242C119.773 176.065 119.247 175.867 118.908 175.648C118.304 175.268 118.002 174.742 118.002 174.07C118.002 173.279 118.286 172.638 118.853 172.148C119.426 171.659 120.195 171.414 121.158 171.414C122.419 171.414 123.327 171.784 123.885 172.523C124.234 172.992 124.403 173.497 124.393 174.039H123.064C123.038 173.721 122.926 173.432 122.728 173.172C122.406 172.802 121.846 172.617 121.049 172.617C120.518 172.617 120.114 172.719 119.838 172.922C119.567 173.125 119.432 173.393 119.432 173.727C119.432 174.091 119.611 174.383 119.971 174.602C120.179 174.732 120.486 174.846 120.893 174.945L121.822 175.172C122.833 175.417 123.51 175.654 123.853 175.883C124.4 176.242 124.674 176.807 124.674 177.578C124.674 178.323 124.39 178.966 123.822 179.508C123.26 180.049 122.4 180.32 121.244 180.32C119.999 180.32 119.116 180.039 118.596 179.477C118.08 178.909 117.804 178.208 117.768 177.375H119.119ZM126.404 169.297H127.826V171.633H129.162V172.781H127.826V178.242C127.826 178.534 127.925 178.729 128.123 178.828C128.232 178.885 128.415 178.914 128.67 178.914C128.738 178.914 128.811 178.914 128.889 178.914C128.967 178.909 129.058 178.901 129.162 178.891V180C129.001 180.047 128.831 180.081 128.654 180.102C128.482 180.122 128.295 180.133 128.092 180.133C127.436 180.133 126.99 179.966 126.756 179.633C126.522 179.294 126.404 178.857 126.404 178.32V172.781H125.272V171.633H126.404V169.297Z" fill="#373737"/>
</svg>
