<svg width="74" height="50" viewBox="0 0 74 50" fill="none" xmlns="http://www.w3.org/2000/svg">
<path d="M71.2333 0.570007H30.7633C28.5833 0.570007 26.5433 1.61001 25.2533 3.37001L0.243308 37.77C-0.366692 38.6 0.243308 39.77 1.26331 39.77C1.84331 39.77 2.40331 39.54 2.82331 39.14L32.5833 10.81C33.9433 9.52001 35.7233 8.75001 37.6033 8.67001L53.2533 7.79001C54.7533 7.72001 55.3333 9.73001 54.0133 10.46L30.7233 25.5C29.3633 26.26 29.1233 28.12 30.2533 29.2L50.5533 48.73C50.9333 49.09 51.4333 49.29 51.9533 49.29H52.3333C53.2933 49.29 53.9133 48.27 53.4733 47.41L44.8533 30.96C44.3833 30.07 44.6533 28.97 45.4733 28.38L72.5633 4.03001C73.9133 2.81001 73.0533 0.570007 71.2333 0.570007Z" fill="#06B0C2"/>
</svg>
