<svg width="208" height="50" viewBox="0 0 208 50" fill="none" xmlns="http://www.w3.org/2000/svg">
<path d="M71.2333 0.570068H30.7633C28.5833 0.570068 26.5433 1.61007 25.2533 3.37007L0.243308 37.7701C-0.366692 38.6001 0.243308 39.7701 1.26331 39.7701C1.84331 39.7701 2.40331 39.5401 2.82331 39.1401L32.5833 10.8101C33.9433 9.52007 35.7233 8.75007 37.6033 8.67007L53.2533 7.79007C54.7533 7.72007 55.3333 9.73007 54.0133 10.4601L30.7233 25.5001C29.3633 26.2601 29.1233 28.1201 30.2533 29.2001L50.5533 48.7301C50.9333 49.0901 51.4333 49.2901 51.9533 49.2901H52.3333C53.2933 49.2901 53.9133 48.2701 53.4733 47.4101L44.8533 30.9601C44.3833 30.0701 44.6533 28.9701 45.4733 28.3801L72.5633 4.03007C73.9133 2.81007 73.0533 0.570068 71.2333 0.570068Z" fill="#06B0C2"/>
<path d="M69.2832 40.9801H75.9532V28.3001C75.9532 28.3001 75.6232 18.4201 85.4632 18.4201V11.5501C85.4632 11.5501 69.2832 11.0201 69.2832 28.3101V40.9901V40.9801Z" fill="white"/>
<path d="M116.093 26.2701C116.093 18.1501 109.243 11.5701 100.793 11.5701C92.3432 11.5701 85.4932 18.1501 85.4932 26.2701C85.4932 34.3901 92.3432 40.9701 100.793 40.9701C107.203 40.9701 112.693 37.1801 114.973 31.8101H107.733C107.733 31.8101 105.283 34.4601 100.793 34.4601C93.1932 34.4601 92.2232 28.8401 92.2232 28.8401H115.863C116.013 28.0101 116.093 27.1501 116.093 26.2701ZM92.2232 23.3901C92.2232 23.3901 94.0932 18.2401 100.793 18.2401C107.493 18.2401 109.563 23.3901 109.563 23.3901H92.2332H92.2232Z" fill="white"/>
<path d="M132.893 0.170018C132.893 0.170018 119.033 1.81198e-05 119.033 13.94V40.97H125.423V22.57H134.863V16.13H126.173C126.173 16.13 125.433 16.26 125.433 14.64C125.433 13.02 125.913 6.51002 134.403 6.51002L134.873 0.280018C134.873 0.280018 134.053 0.170018 132.913 0.170018" fill="white"/>
<path d="M144.383 0H137.923V40.98H144.383V0Z" fill="white"/>
<path d="M177.593 26.41C177.593 18.29 170.743 11.71 162.293 11.71C153.843 11.71 146.993 18.29 146.993 26.41C146.993 34.53 153.843 41.11 162.293 41.11C168.703 41.11 174.193 37.32 176.473 31.95H169.233C169.233 31.95 166.783 34.6 162.293 34.6C154.693 34.6 153.723 28.98 153.723 28.98H177.363C177.513 28.15 177.593 27.29 177.593 26.41ZM153.723 23.53C153.723 23.53 155.593 18.38 162.293 18.38C168.993 18.38 171.063 23.53 171.063 23.53H153.733H153.723Z" fill="white"/>
<path d="M207.313 11.54H198.903L191.533 20.87L184.733 11.54L177.363 11.52L188.093 26.39L177.383 40.98H184.503L191.663 31.81L198.053 40.98H206.773L195.883 26.01L207.313 11.54Z" fill="white"/>
</svg>
